%TF.GenerationSoftware,Altium Limited,Altium Designer,24.0.1 (36)*%
G04 Layer_Color=8388736*
%FSLAX45Y45*%
%MOMM*%
%TF.SameCoordinates,BDB9926C-BC38-41AE-A616-4D177B64427C*%
%TF.FilePolarity,Negative*%
%TF.FileFunction,Soldermask,Top*%
%TF.Part,Single*%
G01*
G75*
%TA.AperFunction,NonConductor*%
%ADD25C,3.00000*%
%ADD26C,0.63500*%
%TA.AperFunction,SMDPad,CuDef*%
%ADD27R,2.40320X1.47320*%
%ADD28R,5.40319X3.70307*%
%ADD29C,7.70320*%
%ADD30R,1.05320X0.95320*%
%ADD31R,10.20318X8.70321*%
%ADD32C,0.64320*%
%ADD33R,1.10320X2.40320*%
%ADD34R,3.70307X5.40319*%
%TA.AperFunction,ViaPad*%
%ADD35C,4.20320*%
G36*
X5328498Y4537779D02*
X5329440Y4537493D01*
X5330309Y4537028D01*
X5331071Y4536404D01*
X5331695Y4535642D01*
X5332160Y4534774D01*
X5332446Y4533831D01*
X5332454Y4533747D01*
X5332458Y4533732D01*
X5332555Y4532752D01*
Y4426351D01*
X5332542Y4426222D01*
Y4312851D01*
X5332446Y4311871D01*
X5332160Y4310929D01*
X5331695Y4310060D01*
X5331071Y4309299D01*
X5330309Y4308674D01*
X5329440Y4308210D01*
X5328498Y4307924D01*
X5327518Y4307827D01*
X5237516D01*
X5236535Y4307924D01*
X5235593Y4308210D01*
X5234724Y4308674D01*
X5233963Y4309299D01*
X5233338Y4310060D01*
X5232874Y4310929D01*
X5232588Y4311871D01*
X5232491Y4312851D01*
Y4421327D01*
X5212542D01*
Y4312851D01*
X5212446Y4311871D01*
X5212160Y4310929D01*
X5211695Y4310060D01*
X5211071Y4309299D01*
X5210309Y4308674D01*
X5209441Y4308210D01*
X5208498Y4307924D01*
X5207518Y4307827D01*
X5117516D01*
X5116536Y4307924D01*
X5115593Y4308210D01*
X5114725Y4308674D01*
X5113963Y4309299D01*
X5113339Y4310060D01*
X5112874Y4310929D01*
X5112588Y4311871D01*
X5112492Y4312851D01*
Y4421327D01*
X5092543D01*
Y4312851D01*
X5092446Y4311871D01*
X5092160Y4310929D01*
X5091696Y4310060D01*
X5091071Y4309299D01*
X5090310Y4308674D01*
X5089441Y4308210D01*
X5088499Y4307924D01*
X5087518Y4307827D01*
X4997516D01*
X4996536Y4307924D01*
X4995594Y4308210D01*
X4994725Y4308674D01*
X4993963Y4309299D01*
X4993339Y4310060D01*
X4992874Y4310929D01*
X4992588Y4311871D01*
X4992492Y4312851D01*
Y4421327D01*
X4972543D01*
Y4312851D01*
X4972446Y4311871D01*
X4972160Y4310929D01*
X4971696Y4310060D01*
X4971071Y4309299D01*
X4970310Y4308674D01*
X4969441Y4308210D01*
X4968499Y4307924D01*
X4967519Y4307827D01*
X4877516D01*
X4876536Y4307924D01*
X4875594Y4308210D01*
X4874725Y4308674D01*
X4873964Y4309299D01*
X4873339Y4310060D01*
X4872875Y4310929D01*
X4872589Y4311871D01*
X4872492Y4312851D01*
Y4421327D01*
X4852543D01*
Y4312851D01*
X4852446Y4311871D01*
X4852160Y4310929D01*
X4851696Y4310060D01*
X4851072Y4309299D01*
X4850310Y4308674D01*
X4849441Y4308210D01*
X4848499Y4307924D01*
X4847519Y4307827D01*
X4757517D01*
X4756536Y4307924D01*
X4755594Y4308210D01*
X4754725Y4308674D01*
X4753964Y4309299D01*
X4753339Y4310060D01*
X4752875Y4310929D01*
X4752589Y4311871D01*
X4752492Y4312851D01*
Y4421327D01*
X4732543D01*
Y4312851D01*
X4732447Y4311871D01*
X4732161Y4310929D01*
X4731696Y4310060D01*
X4731072Y4309299D01*
X4730310Y4308674D01*
X4729442Y4308210D01*
X4728499Y4307924D01*
X4727519Y4307827D01*
X4637517D01*
X4636537Y4307924D01*
X4635594Y4308210D01*
X4634726Y4308674D01*
X4633964Y4309299D01*
X4633339Y4310060D01*
X4632875Y4310929D01*
X4632589Y4311871D01*
X4632493Y4312851D01*
Y4421327D01*
X4612543D01*
Y4312851D01*
X4612447Y4311871D01*
X4612161Y4310929D01*
X4611697Y4310060D01*
X4611072Y4309299D01*
X4610311Y4308674D01*
X4609442Y4308210D01*
X4608500Y4307924D01*
X4607519Y4307827D01*
X4517517D01*
X4516537Y4307924D01*
X4515594Y4308210D01*
X4514726Y4308674D01*
X4513964Y4309299D01*
X4513340Y4310060D01*
X4512875Y4310929D01*
X4512589Y4311871D01*
X4512493Y4312851D01*
Y4532851D01*
X4512589Y4533831D01*
X4512875Y4534774D01*
X4513340Y4535642D01*
X4513964Y4536404D01*
X4514726Y4537028D01*
X4515594Y4537493D01*
X4516537Y4537779D01*
X4517517Y4537875D01*
X4607519D01*
X4608500Y4537779D01*
X4608508Y4537776D01*
X4636528D01*
X4636537Y4537779D01*
X4637517Y4537875D01*
X4727519D01*
X4728499Y4537779D01*
X4728508Y4537776D01*
X4756528D01*
X4756536Y4537779D01*
X4757517Y4537875D01*
X4847519D01*
X4848499Y4537779D01*
X4848507Y4537776D01*
X4876528D01*
X4876536Y4537779D01*
X4877516Y4537875D01*
X4967519D01*
X4968499Y4537779D01*
X4968507Y4537776D01*
X4996527D01*
X4996536Y4537779D01*
X4997516Y4537875D01*
X5087518D01*
X5088499Y4537779D01*
X5088507Y4537776D01*
X5116527D01*
X5116536Y4537779D01*
X5117516Y4537875D01*
X5207518D01*
X5208498Y4537779D01*
X5208507Y4537776D01*
X5236527D01*
X5236535Y4537779D01*
X5237516Y4537875D01*
X5327518D01*
X5328498Y4537779D01*
D02*
G37*
G36*
X3219384D02*
X3220326Y4537493D01*
X3221195Y4537028D01*
X3221956Y4536404D01*
X3222581Y4535642D01*
X3223045Y4534774D01*
X3223331Y4533831D01*
X3223340Y4533747D01*
X3223344Y4533732D01*
X3223440Y4532752D01*
Y4426351D01*
X3223428Y4426222D01*
Y4312851D01*
X3223331Y4311871D01*
X3223045Y4310929D01*
X3222581Y4310060D01*
X3221956Y4309299D01*
X3221195Y4308674D01*
X3220326Y4308210D01*
X3219384Y4307924D01*
X3218404Y4307827D01*
X3128401D01*
X3127421Y4307924D01*
X3126479Y4308210D01*
X3125610Y4308674D01*
X3124848Y4309299D01*
X3124224Y4310060D01*
X3123760Y4310929D01*
X3123474Y4311871D01*
X3123377Y4312851D01*
Y4421327D01*
X3103428D01*
Y4312851D01*
X3103331Y4311871D01*
X3103045Y4310929D01*
X3102581Y4310060D01*
X3101956Y4309299D01*
X3101195Y4308674D01*
X3100326Y4308210D01*
X3099384Y4307924D01*
X3098404Y4307827D01*
X3008401D01*
X3007421Y4307924D01*
X3006479Y4308210D01*
X3005610Y4308674D01*
X3004849Y4309299D01*
X3004224Y4310060D01*
X3003760Y4310929D01*
X3003474Y4311871D01*
X3003377Y4312851D01*
Y4421327D01*
X2983428D01*
Y4312851D01*
X2983332Y4311871D01*
X2983046Y4310929D01*
X2982581Y4310060D01*
X2981957Y4309299D01*
X2981195Y4308674D01*
X2980327Y4308210D01*
X2979384Y4307924D01*
X2978404Y4307827D01*
X2888402D01*
X2887421Y4307924D01*
X2886479Y4308210D01*
X2885610Y4308674D01*
X2884849Y4309299D01*
X2884224Y4310060D01*
X2883760Y4310929D01*
X2883474Y4311871D01*
X2883378Y4312851D01*
Y4421327D01*
X2863428D01*
Y4312851D01*
X2863332Y4311871D01*
X2863046Y4310929D01*
X2862582Y4310060D01*
X2861957Y4309299D01*
X2861195Y4308674D01*
X2860327Y4308210D01*
X2859384Y4307924D01*
X2858404Y4307827D01*
X2768402D01*
X2767422Y4307924D01*
X2766479Y4308210D01*
X2765611Y4308674D01*
X2764849Y4309299D01*
X2764225Y4310060D01*
X2763760Y4310929D01*
X2763474Y4311871D01*
X2763378Y4312851D01*
Y4421327D01*
X2743429D01*
Y4312851D01*
X2743332Y4311871D01*
X2743046Y4310929D01*
X2742582Y4310060D01*
X2741957Y4309299D01*
X2741196Y4308674D01*
X2740327Y4308210D01*
X2739385Y4307924D01*
X2738404Y4307827D01*
X2648402D01*
X2647422Y4307924D01*
X2646480Y4308210D01*
X2645611Y4308674D01*
X2644849Y4309299D01*
X2644225Y4310060D01*
X2643761Y4310929D01*
X2643475Y4311871D01*
X2643378Y4312851D01*
Y4421327D01*
X2623429D01*
Y4312851D01*
X2623332Y4311871D01*
X2623046Y4310929D01*
X2622582Y4310060D01*
X2621957Y4309299D01*
X2621196Y4308674D01*
X2620327Y4308210D01*
X2619385Y4307924D01*
X2618405Y4307827D01*
X2528402D01*
X2527422Y4307924D01*
X2526480Y4308210D01*
X2525611Y4308674D01*
X2524850Y4309299D01*
X2524225Y4310060D01*
X2523761Y4310929D01*
X2523475Y4311871D01*
X2523378Y4312851D01*
Y4421327D01*
X2503429D01*
Y4312851D01*
X2503333Y4311871D01*
X2503047Y4310929D01*
X2502582Y4310060D01*
X2501958Y4309299D01*
X2501196Y4308674D01*
X2500327Y4308210D01*
X2499385Y4307924D01*
X2498405Y4307827D01*
X2408403D01*
X2407422Y4307924D01*
X2406480Y4308210D01*
X2405611Y4308674D01*
X2404850Y4309299D01*
X2404225Y4310060D01*
X2403761Y4310929D01*
X2403475Y4311871D01*
X2403378Y4312851D01*
Y4532851D01*
X2403475Y4533831D01*
X2403761Y4534774D01*
X2404225Y4535642D01*
X2404850Y4536404D01*
X2405611Y4537028D01*
X2406480Y4537493D01*
X2407422Y4537779D01*
X2408403Y4537875D01*
X2498405D01*
X2499385Y4537779D01*
X2499394Y4537776D01*
X2527414D01*
X2527422Y4537779D01*
X2528402Y4537875D01*
X2618405D01*
X2619385Y4537779D01*
X2619393Y4537776D01*
X2647414D01*
X2647422Y4537779D01*
X2648402Y4537875D01*
X2738404D01*
X2739385Y4537779D01*
X2739393Y4537776D01*
X2767413D01*
X2767422Y4537779D01*
X2768402Y4537875D01*
X2858404D01*
X2859384Y4537779D01*
X2859393Y4537776D01*
X2887413D01*
X2887421Y4537779D01*
X2888402Y4537875D01*
X2978404D01*
X2979384Y4537779D01*
X2979393Y4537776D01*
X3007413D01*
X3007421Y4537779D01*
X3008401Y4537875D01*
X3098404D01*
X3099384Y4537779D01*
X3099392Y4537776D01*
X3127413D01*
X3127421Y4537779D01*
X3128401Y4537875D01*
X3218404D01*
X3219384Y4537779D01*
D02*
G37*
G36*
X2079838D02*
X2080780Y4537493D01*
X2081649Y4537028D01*
X2082411Y4536404D01*
X2083035Y4535642D01*
X2083500Y4534774D01*
X2083786Y4533831D01*
X2083794Y4533747D01*
X2083798Y4533732D01*
X2083895Y4532752D01*
Y4426351D01*
X2083882Y4426222D01*
Y4312851D01*
X2083786Y4311871D01*
X2083500Y4310929D01*
X2083035Y4310060D01*
X2082411Y4309299D01*
X2081649Y4308674D01*
X2080780Y4308210D01*
X2079838Y4307924D01*
X2078858Y4307827D01*
X1988856D01*
X1987875Y4307924D01*
X1986933Y4308210D01*
X1986064Y4308674D01*
X1985303Y4309299D01*
X1984678Y4310060D01*
X1984214Y4310929D01*
X1983928Y4311871D01*
X1983831Y4312851D01*
Y4421327D01*
X1963882D01*
Y4312851D01*
X1963786Y4311871D01*
X1963500Y4310929D01*
X1963035Y4310060D01*
X1962411Y4309299D01*
X1961649Y4308674D01*
X1960781Y4308210D01*
X1959838Y4307924D01*
X1958858Y4307827D01*
X1868856D01*
X1867876Y4307924D01*
X1866933Y4308210D01*
X1866065Y4308674D01*
X1865303Y4309299D01*
X1864679Y4310060D01*
X1864214Y4310929D01*
X1863928Y4311871D01*
X1863832Y4312851D01*
Y4421327D01*
X1843883D01*
Y4312851D01*
X1843786Y4311871D01*
X1843500Y4310929D01*
X1843036Y4310060D01*
X1842411Y4309299D01*
X1841650Y4308674D01*
X1840781Y4308210D01*
X1839839Y4307924D01*
X1838858Y4307827D01*
X1748856D01*
X1747876Y4307924D01*
X1746934Y4308210D01*
X1746065Y4308674D01*
X1745303Y4309299D01*
X1744679Y4310060D01*
X1744214Y4310929D01*
X1743928Y4311871D01*
X1743832Y4312851D01*
Y4421327D01*
X1723883D01*
Y4312851D01*
X1723786Y4311871D01*
X1723500Y4310929D01*
X1723036Y4310060D01*
X1722411Y4309299D01*
X1721650Y4308674D01*
X1720781Y4308210D01*
X1719839Y4307924D01*
X1718859Y4307827D01*
X1628856D01*
X1627876Y4307924D01*
X1626934Y4308210D01*
X1626065Y4308674D01*
X1625304Y4309299D01*
X1624679Y4310060D01*
X1624215Y4310929D01*
X1623929Y4311871D01*
X1623832Y4312851D01*
Y4421327D01*
X1603883D01*
Y4312851D01*
X1603786Y4311871D01*
X1603500Y4310929D01*
X1603036Y4310060D01*
X1602412Y4309299D01*
X1601650Y4308674D01*
X1600781Y4308210D01*
X1599839Y4307924D01*
X1598859Y4307827D01*
X1508857D01*
X1507876Y4307924D01*
X1506934Y4308210D01*
X1506065Y4308674D01*
X1505304Y4309299D01*
X1504679Y4310060D01*
X1504215Y4310929D01*
X1503929Y4311871D01*
X1503832Y4312851D01*
Y4421327D01*
X1483883D01*
Y4312851D01*
X1483787Y4311871D01*
X1483501Y4310929D01*
X1483036Y4310060D01*
X1482412Y4309299D01*
X1481650Y4308674D01*
X1480782Y4308210D01*
X1479839Y4307924D01*
X1478859Y4307827D01*
X1388857D01*
X1387877Y4307924D01*
X1386934Y4308210D01*
X1386066Y4308674D01*
X1385304Y4309299D01*
X1384679Y4310060D01*
X1384215Y4310929D01*
X1383929Y4311871D01*
X1383833Y4312851D01*
Y4421327D01*
X1363883D01*
Y4312851D01*
X1363787Y4311871D01*
X1363501Y4310929D01*
X1363037Y4310060D01*
X1362412Y4309299D01*
X1361651Y4308674D01*
X1360782Y4308210D01*
X1359840Y4307924D01*
X1358859Y4307827D01*
X1268857D01*
X1267877Y4307924D01*
X1266934Y4308210D01*
X1266066Y4308674D01*
X1265304Y4309299D01*
X1264680Y4310060D01*
X1264215Y4310929D01*
X1263929Y4311871D01*
X1263833Y4312851D01*
Y4532851D01*
X1263929Y4533831D01*
X1264215Y4534774D01*
X1264680Y4535642D01*
X1265304Y4536404D01*
X1266066Y4537028D01*
X1266934Y4537493D01*
X1267877Y4537779D01*
X1268857Y4537875D01*
X1358859D01*
X1359840Y4537779D01*
X1359848Y4537776D01*
X1387868D01*
X1387877Y4537779D01*
X1388857Y4537875D01*
X1478859D01*
X1479839Y4537779D01*
X1479848Y4537776D01*
X1507868D01*
X1507876Y4537779D01*
X1508857Y4537875D01*
X1598859D01*
X1599839Y4537779D01*
X1599847Y4537776D01*
X1627868D01*
X1627876Y4537779D01*
X1628856Y4537875D01*
X1718859D01*
X1719839Y4537779D01*
X1719847Y4537776D01*
X1747867D01*
X1747876Y4537779D01*
X1748856Y4537875D01*
X1838858D01*
X1839839Y4537779D01*
X1839847Y4537776D01*
X1867867D01*
X1867876Y4537779D01*
X1868856Y4537875D01*
X1958858D01*
X1959838Y4537779D01*
X1959847Y4537776D01*
X1987867D01*
X1987875Y4537779D01*
X1988856Y4537875D01*
X2078858D01*
X2079838Y4537779D01*
D02*
G37*
G36*
X5328498Y1810639D02*
X5329440Y1810353D01*
X5330309Y1809889D01*
X5331071Y1809264D01*
X5331695Y1808503D01*
X5332160Y1807634D01*
X5332446Y1806692D01*
X5332454Y1806607D01*
X5332458Y1806593D01*
X5332555Y1805612D01*
Y1699212D01*
X5332542Y1699083D01*
Y1585712D01*
X5332446Y1584732D01*
X5332160Y1583789D01*
X5331695Y1582921D01*
X5331071Y1582159D01*
X5330309Y1581535D01*
X5329440Y1581070D01*
X5328498Y1580784D01*
X5327518Y1580688D01*
X5237516D01*
X5236535Y1580784D01*
X5235593Y1581070D01*
X5234724Y1581535D01*
X5233963Y1582159D01*
X5233338Y1582921D01*
X5232874Y1583789D01*
X5232588Y1584732D01*
X5232491Y1585712D01*
Y1694188D01*
X5212542D01*
Y1585712D01*
X5212446Y1584732D01*
X5212160Y1583789D01*
X5211695Y1582921D01*
X5211071Y1582159D01*
X5210309Y1581535D01*
X5209441Y1581070D01*
X5208498Y1580784D01*
X5207518Y1580688D01*
X5117516D01*
X5116536Y1580784D01*
X5115593Y1581070D01*
X5114725Y1581535D01*
X5113963Y1582159D01*
X5113339Y1582921D01*
X5112874Y1583789D01*
X5112588Y1584732D01*
X5112492Y1585712D01*
Y1694188D01*
X5092543D01*
Y1585712D01*
X5092446Y1584732D01*
X5092160Y1583789D01*
X5091696Y1582921D01*
X5091071Y1582159D01*
X5090310Y1581535D01*
X5089441Y1581070D01*
X5088499Y1580784D01*
X5087518Y1580688D01*
X4997516D01*
X4996536Y1580784D01*
X4995594Y1581070D01*
X4994725Y1581535D01*
X4993963Y1582159D01*
X4993339Y1582921D01*
X4992874Y1583789D01*
X4992588Y1584732D01*
X4992492Y1585712D01*
Y1694188D01*
X4972543D01*
Y1585712D01*
X4972446Y1584732D01*
X4972160Y1583789D01*
X4971696Y1582921D01*
X4971071Y1582159D01*
X4970310Y1581535D01*
X4969441Y1581070D01*
X4968499Y1580784D01*
X4967519Y1580688D01*
X4877516D01*
X4876536Y1580784D01*
X4875594Y1581070D01*
X4874725Y1581535D01*
X4873964Y1582159D01*
X4873339Y1582921D01*
X4872875Y1583789D01*
X4872589Y1584732D01*
X4872492Y1585712D01*
Y1694188D01*
X4852543D01*
Y1585712D01*
X4852446Y1584732D01*
X4852160Y1583789D01*
X4851696Y1582921D01*
X4851072Y1582159D01*
X4850310Y1581535D01*
X4849441Y1581070D01*
X4848499Y1580784D01*
X4847519Y1580688D01*
X4757517D01*
X4756536Y1580784D01*
X4755594Y1581070D01*
X4754725Y1581535D01*
X4753964Y1582159D01*
X4753339Y1582921D01*
X4752875Y1583789D01*
X4752589Y1584732D01*
X4752492Y1585712D01*
Y1694188D01*
X4732543D01*
Y1585712D01*
X4732447Y1584732D01*
X4732161Y1583789D01*
X4731696Y1582921D01*
X4731072Y1582159D01*
X4730310Y1581535D01*
X4729442Y1581070D01*
X4728499Y1580784D01*
X4727519Y1580688D01*
X4637517D01*
X4636537Y1580784D01*
X4635594Y1581070D01*
X4634726Y1581535D01*
X4633964Y1582159D01*
X4633339Y1582921D01*
X4632875Y1583789D01*
X4632589Y1584732D01*
X4632493Y1585712D01*
Y1694188D01*
X4612543D01*
Y1585712D01*
X4612447Y1584732D01*
X4612161Y1583789D01*
X4611697Y1582921D01*
X4611072Y1582159D01*
X4610311Y1581535D01*
X4609442Y1581070D01*
X4608500Y1580784D01*
X4607519Y1580688D01*
X4517517D01*
X4516537Y1580784D01*
X4515594Y1581070D01*
X4514726Y1581535D01*
X4513964Y1582159D01*
X4513340Y1582921D01*
X4512875Y1583789D01*
X4512589Y1584732D01*
X4512493Y1585712D01*
Y1805711D01*
X4512589Y1806692D01*
X4512875Y1807634D01*
X4513340Y1808503D01*
X4513964Y1809264D01*
X4514726Y1809889D01*
X4515594Y1810353D01*
X4516537Y1810639D01*
X4517517Y1810736D01*
X4607519D01*
X4608500Y1810639D01*
X4608508Y1810636D01*
X4636528D01*
X4636537Y1810639D01*
X4637517Y1810736D01*
X4727519D01*
X4728499Y1810639D01*
X4728508Y1810636D01*
X4756528D01*
X4756536Y1810639D01*
X4757517Y1810736D01*
X4847519D01*
X4848499Y1810639D01*
X4848507Y1810636D01*
X4876528D01*
X4876536Y1810639D01*
X4877516Y1810736D01*
X4967519D01*
X4968499Y1810639D01*
X4968507Y1810636D01*
X4996527D01*
X4996536Y1810639D01*
X4997516Y1810736D01*
X5087518D01*
X5088499Y1810639D01*
X5088507Y1810636D01*
X5116527D01*
X5116536Y1810639D01*
X5117516Y1810736D01*
X5207518D01*
X5208498Y1810639D01*
X5208507Y1810636D01*
X5236527D01*
X5236535Y1810639D01*
X5237516Y1810736D01*
X5327518D01*
X5328498Y1810639D01*
D02*
G37*
G36*
X3219384D02*
X3220326Y1810353D01*
X3221195Y1809889D01*
X3221956Y1809264D01*
X3222581Y1808503D01*
X3223045Y1807634D01*
X3223331Y1806692D01*
X3223340Y1806607D01*
X3223344Y1806593D01*
X3223440Y1805612D01*
Y1699212D01*
X3223428Y1699083D01*
Y1585712D01*
X3223331Y1584732D01*
X3223045Y1583789D01*
X3222581Y1582921D01*
X3221956Y1582159D01*
X3221195Y1581535D01*
X3220326Y1581070D01*
X3219384Y1580784D01*
X3218404Y1580688D01*
X3128401D01*
X3127421Y1580784D01*
X3126479Y1581070D01*
X3125610Y1581535D01*
X3124848Y1582159D01*
X3124224Y1582921D01*
X3123760Y1583789D01*
X3123474Y1584732D01*
X3123377Y1585712D01*
Y1694188D01*
X3103428D01*
Y1585712D01*
X3103331Y1584732D01*
X3103045Y1583789D01*
X3102581Y1582921D01*
X3101956Y1582159D01*
X3101195Y1581535D01*
X3100326Y1581070D01*
X3099384Y1580784D01*
X3098404Y1580688D01*
X3008401D01*
X3007421Y1580784D01*
X3006479Y1581070D01*
X3005610Y1581535D01*
X3004849Y1582159D01*
X3004224Y1582921D01*
X3003760Y1583789D01*
X3003474Y1584732D01*
X3003377Y1585712D01*
Y1694188D01*
X2983428D01*
Y1585712D01*
X2983332Y1584732D01*
X2983046Y1583789D01*
X2982581Y1582921D01*
X2981957Y1582159D01*
X2981195Y1581535D01*
X2980327Y1581070D01*
X2979384Y1580784D01*
X2978404Y1580688D01*
X2888402D01*
X2887421Y1580784D01*
X2886479Y1581070D01*
X2885610Y1581535D01*
X2884849Y1582159D01*
X2884224Y1582921D01*
X2883760Y1583789D01*
X2883474Y1584732D01*
X2883378Y1585712D01*
Y1694188D01*
X2863428D01*
Y1585712D01*
X2863332Y1584732D01*
X2863046Y1583789D01*
X2862582Y1582921D01*
X2861957Y1582159D01*
X2861195Y1581535D01*
X2860327Y1581070D01*
X2859384Y1580784D01*
X2858404Y1580688D01*
X2768402D01*
X2767422Y1580784D01*
X2766479Y1581070D01*
X2765611Y1581535D01*
X2764849Y1582159D01*
X2764225Y1582921D01*
X2763760Y1583789D01*
X2763474Y1584732D01*
X2763378Y1585712D01*
Y1694188D01*
X2743429D01*
Y1585712D01*
X2743332Y1584732D01*
X2743046Y1583789D01*
X2742582Y1582921D01*
X2741957Y1582159D01*
X2741196Y1581535D01*
X2740327Y1581070D01*
X2739385Y1580784D01*
X2738404Y1580688D01*
X2648402D01*
X2647422Y1580784D01*
X2646480Y1581070D01*
X2645611Y1581535D01*
X2644849Y1582159D01*
X2644225Y1582921D01*
X2643761Y1583789D01*
X2643475Y1584732D01*
X2643378Y1585712D01*
Y1694188D01*
X2623429D01*
Y1585712D01*
X2623332Y1584732D01*
X2623046Y1583789D01*
X2622582Y1582921D01*
X2621957Y1582159D01*
X2621196Y1581535D01*
X2620327Y1581070D01*
X2619385Y1580784D01*
X2618405Y1580688D01*
X2528402D01*
X2527422Y1580784D01*
X2526480Y1581070D01*
X2525611Y1581535D01*
X2524850Y1582159D01*
X2524225Y1582921D01*
X2523761Y1583789D01*
X2523475Y1584732D01*
X2523378Y1585712D01*
Y1694188D01*
X2503429D01*
Y1585712D01*
X2503333Y1584732D01*
X2503047Y1583789D01*
X2502582Y1582921D01*
X2501958Y1582159D01*
X2501196Y1581535D01*
X2500327Y1581070D01*
X2499385Y1580784D01*
X2498405Y1580688D01*
X2408403D01*
X2407422Y1580784D01*
X2406480Y1581070D01*
X2405611Y1581535D01*
X2404850Y1582159D01*
X2404225Y1582921D01*
X2403761Y1583789D01*
X2403475Y1584732D01*
X2403378Y1585712D01*
Y1805711D01*
X2403475Y1806692D01*
X2403761Y1807634D01*
X2404225Y1808503D01*
X2404850Y1809264D01*
X2405611Y1809889D01*
X2406480Y1810353D01*
X2407422Y1810639D01*
X2408403Y1810736D01*
X2498405D01*
X2499385Y1810639D01*
X2499394Y1810636D01*
X2527414D01*
X2527422Y1810639D01*
X2528402Y1810736D01*
X2618405D01*
X2619385Y1810639D01*
X2619393Y1810636D01*
X2647414D01*
X2647422Y1810639D01*
X2648402Y1810736D01*
X2738404D01*
X2739385Y1810639D01*
X2739393Y1810636D01*
X2767413D01*
X2767422Y1810639D01*
X2768402Y1810736D01*
X2858404D01*
X2859384Y1810639D01*
X2859393Y1810636D01*
X2887413D01*
X2887421Y1810639D01*
X2888402Y1810736D01*
X2978404D01*
X2979384Y1810639D01*
X2979393Y1810636D01*
X3007413D01*
X3007421Y1810639D01*
X3008401Y1810736D01*
X3098404D01*
X3099384Y1810639D01*
X3099392Y1810636D01*
X3127413D01*
X3127421Y1810639D01*
X3128401Y1810736D01*
X3218404D01*
X3219384Y1810639D01*
D02*
G37*
G36*
X2079838D02*
X2080780Y1810353D01*
X2081649Y1809889D01*
X2082411Y1809264D01*
X2083035Y1808503D01*
X2083500Y1807634D01*
X2083786Y1806692D01*
X2083794Y1806607D01*
X2083798Y1806593D01*
X2083895Y1805612D01*
Y1699212D01*
X2083882Y1699083D01*
Y1585712D01*
X2083786Y1584732D01*
X2083500Y1583789D01*
X2083035Y1582921D01*
X2082411Y1582159D01*
X2081649Y1581535D01*
X2080780Y1581070D01*
X2079838Y1580784D01*
X2078858Y1580688D01*
X1988856D01*
X1987875Y1580784D01*
X1986933Y1581070D01*
X1986064Y1581535D01*
X1985303Y1582159D01*
X1984678Y1582921D01*
X1984214Y1583789D01*
X1983928Y1584732D01*
X1983831Y1585712D01*
Y1694188D01*
X1963882D01*
Y1585712D01*
X1963786Y1584732D01*
X1963500Y1583789D01*
X1963035Y1582921D01*
X1962411Y1582159D01*
X1961649Y1581535D01*
X1960781Y1581070D01*
X1959838Y1580784D01*
X1958858Y1580688D01*
X1868856D01*
X1867876Y1580784D01*
X1866933Y1581070D01*
X1866065Y1581535D01*
X1865303Y1582159D01*
X1864679Y1582921D01*
X1864214Y1583789D01*
X1863928Y1584732D01*
X1863832Y1585712D01*
Y1694188D01*
X1843883D01*
Y1585712D01*
X1843786Y1584732D01*
X1843500Y1583789D01*
X1843036Y1582921D01*
X1842411Y1582159D01*
X1841650Y1581535D01*
X1840781Y1581070D01*
X1839839Y1580784D01*
X1838858Y1580688D01*
X1748856D01*
X1747876Y1580784D01*
X1746934Y1581070D01*
X1746065Y1581535D01*
X1745303Y1582159D01*
X1744679Y1582921D01*
X1744214Y1583789D01*
X1743928Y1584732D01*
X1743832Y1585712D01*
Y1694188D01*
X1723883D01*
Y1585712D01*
X1723786Y1584732D01*
X1723500Y1583789D01*
X1723036Y1582921D01*
X1722411Y1582159D01*
X1721650Y1581535D01*
X1720781Y1581070D01*
X1719839Y1580784D01*
X1718859Y1580688D01*
X1628856D01*
X1627876Y1580784D01*
X1626934Y1581070D01*
X1626065Y1581535D01*
X1625304Y1582159D01*
X1624679Y1582921D01*
X1624215Y1583789D01*
X1623929Y1584732D01*
X1623832Y1585712D01*
Y1694188D01*
X1603883D01*
Y1585712D01*
X1603786Y1584732D01*
X1603500Y1583789D01*
X1603036Y1582921D01*
X1602412Y1582159D01*
X1601650Y1581535D01*
X1600781Y1581070D01*
X1599839Y1580784D01*
X1598859Y1580688D01*
X1508857D01*
X1507876Y1580784D01*
X1506934Y1581070D01*
X1506065Y1581535D01*
X1505304Y1582159D01*
X1504679Y1582921D01*
X1504215Y1583789D01*
X1503929Y1584732D01*
X1503832Y1585712D01*
Y1694188D01*
X1483883D01*
Y1585712D01*
X1483787Y1584732D01*
X1483501Y1583789D01*
X1483036Y1582921D01*
X1482412Y1582159D01*
X1481650Y1581535D01*
X1480782Y1581070D01*
X1479839Y1580784D01*
X1478859Y1580688D01*
X1388857D01*
X1387877Y1580784D01*
X1386934Y1581070D01*
X1386066Y1581535D01*
X1385304Y1582159D01*
X1384679Y1582921D01*
X1384215Y1583789D01*
X1383929Y1584732D01*
X1383833Y1585712D01*
Y1694188D01*
X1363883D01*
Y1585712D01*
X1363787Y1584732D01*
X1363501Y1583789D01*
X1363037Y1582921D01*
X1362412Y1582159D01*
X1361651Y1581535D01*
X1360782Y1581070D01*
X1359840Y1580784D01*
X1358859Y1580688D01*
X1268857D01*
X1267877Y1580784D01*
X1266934Y1581070D01*
X1266066Y1581535D01*
X1265304Y1582159D01*
X1264680Y1582921D01*
X1264215Y1583789D01*
X1263929Y1584732D01*
X1263833Y1585712D01*
Y1805711D01*
X1263929Y1806692D01*
X1264215Y1807634D01*
X1264680Y1808503D01*
X1265304Y1809264D01*
X1266066Y1809889D01*
X1266934Y1810353D01*
X1267877Y1810639D01*
X1268857Y1810736D01*
X1358859D01*
X1359840Y1810639D01*
X1359848Y1810636D01*
X1387868D01*
X1387877Y1810639D01*
X1388857Y1810736D01*
X1478859D01*
X1479839Y1810639D01*
X1479848Y1810636D01*
X1507868D01*
X1507876Y1810639D01*
X1508857Y1810736D01*
X1598859D01*
X1599839Y1810639D01*
X1599847Y1810636D01*
X1627868D01*
X1627876Y1810639D01*
X1628856Y1810736D01*
X1718859D01*
X1719839Y1810639D01*
X1719847Y1810636D01*
X1747867D01*
X1747876Y1810639D01*
X1748856Y1810736D01*
X1838858D01*
X1839839Y1810639D01*
X1839847Y1810636D01*
X1867867D01*
X1867876Y1810639D01*
X1868856Y1810736D01*
X1958858D01*
X1959838Y1810639D01*
X1959847Y1810636D01*
X1987867D01*
X1987875Y1810639D01*
X1988856Y1810736D01*
X2078858D01*
X2079838Y1810639D01*
D02*
G37*
G36*
X9757344Y4537779D02*
X9758286Y4537493D01*
X9759155Y4537028D01*
X9759916Y4536404D01*
X9760541Y4535642D01*
X9761005Y4534774D01*
X9761291Y4533831D01*
X9761300Y4533747D01*
X9761304Y4533732D01*
X9761400Y4532752D01*
Y4426351D01*
X9761388Y4426222D01*
Y4312851D01*
X9761291Y4311871D01*
X9761005Y4310929D01*
X9760541Y4310060D01*
X9759916Y4309299D01*
X9759155Y4308674D01*
X9758286Y4308210D01*
X9757344Y4307924D01*
X9756364Y4307827D01*
X9666361D01*
X9665381Y4307924D01*
X9664439Y4308210D01*
X9663570Y4308674D01*
X9662808Y4309299D01*
X9662184Y4310060D01*
X9661720Y4310929D01*
X9661434Y4311871D01*
X9661337Y4312851D01*
Y4421327D01*
X9641388D01*
Y4312851D01*
X9641291Y4311871D01*
X9641005Y4310929D01*
X9640541Y4310060D01*
X9639916Y4309299D01*
X9639155Y4308674D01*
X9638286Y4308210D01*
X9637344Y4307924D01*
X9636364Y4307827D01*
X9546361D01*
X9545381Y4307924D01*
X9544439Y4308210D01*
X9543570Y4308674D01*
X9542809Y4309299D01*
X9542184Y4310060D01*
X9541720Y4310929D01*
X9541434Y4311871D01*
X9541337Y4312851D01*
Y4421327D01*
X9521388D01*
Y4312851D01*
X9521292Y4311871D01*
X9521006Y4310929D01*
X9520541Y4310060D01*
X9519917Y4309299D01*
X9519155Y4308674D01*
X9518287Y4308210D01*
X9517344Y4307924D01*
X9516364Y4307827D01*
X9426362D01*
X9425381Y4307924D01*
X9424439Y4308210D01*
X9423570Y4308674D01*
X9422809Y4309299D01*
X9422184Y4310060D01*
X9421720Y4310929D01*
X9421434Y4311871D01*
X9421338Y4312851D01*
Y4421327D01*
X9401388D01*
Y4312851D01*
X9401292Y4311871D01*
X9401006Y4310929D01*
X9400542Y4310060D01*
X9399917Y4309299D01*
X9399155Y4308674D01*
X9398287Y4308210D01*
X9397344Y4307924D01*
X9396364Y4307827D01*
X9306362D01*
X9305382Y4307924D01*
X9304439Y4308210D01*
X9303571Y4308674D01*
X9302809Y4309299D01*
X9302185Y4310060D01*
X9301720Y4310929D01*
X9301434Y4311871D01*
X9301338Y4312851D01*
Y4421327D01*
X9281389D01*
Y4312851D01*
X9281292Y4311871D01*
X9281006Y4310929D01*
X9280542Y4310060D01*
X9279917Y4309299D01*
X9279156Y4308674D01*
X9278287Y4308210D01*
X9277345Y4307924D01*
X9276364Y4307827D01*
X9186362D01*
X9185382Y4307924D01*
X9184440Y4308210D01*
X9183571Y4308674D01*
X9182809Y4309299D01*
X9182185Y4310060D01*
X9181721Y4310929D01*
X9181435Y4311871D01*
X9181338Y4312851D01*
Y4421327D01*
X9161389D01*
Y4312851D01*
X9161292Y4311871D01*
X9161006Y4310929D01*
X9160542Y4310060D01*
X9159917Y4309299D01*
X9159156Y4308674D01*
X9158287Y4308210D01*
X9157345Y4307924D01*
X9156365Y4307827D01*
X9066362D01*
X9065382Y4307924D01*
X9064440Y4308210D01*
X9063571Y4308674D01*
X9062810Y4309299D01*
X9062185Y4310060D01*
X9061721Y4310929D01*
X9061435Y4311871D01*
X9061338Y4312851D01*
Y4421327D01*
X9041389D01*
Y4312851D01*
X9041293Y4311871D01*
X9041007Y4310929D01*
X9040542Y4310060D01*
X9039918Y4309299D01*
X9039156Y4308674D01*
X9038287Y4308210D01*
X9037345Y4307924D01*
X9036365Y4307827D01*
X8946363D01*
X8945382Y4307924D01*
X8944440Y4308210D01*
X8943571Y4308674D01*
X8942810Y4309299D01*
X8942185Y4310060D01*
X8941721Y4310929D01*
X8941435Y4311871D01*
X8941338Y4312851D01*
Y4532851D01*
X8941435Y4533831D01*
X8941721Y4534774D01*
X8942185Y4535642D01*
X8942810Y4536404D01*
X8943571Y4537028D01*
X8944440Y4537493D01*
X8945382Y4537779D01*
X8946363Y4537875D01*
X9036365D01*
X9037345Y4537779D01*
X9037354Y4537776D01*
X9065374D01*
X9065382Y4537779D01*
X9066362Y4537875D01*
X9156365D01*
X9157345Y4537779D01*
X9157353Y4537776D01*
X9185374D01*
X9185382Y4537779D01*
X9186362Y4537875D01*
X9276364D01*
X9277345Y4537779D01*
X9277353Y4537776D01*
X9305373D01*
X9305382Y4537779D01*
X9306362Y4537875D01*
X9396364D01*
X9397344Y4537779D01*
X9397353Y4537776D01*
X9425373D01*
X9425381Y4537779D01*
X9426362Y4537875D01*
X9516364D01*
X9517344Y4537779D01*
X9517353Y4537776D01*
X9545373D01*
X9545381Y4537779D01*
X9546361Y4537875D01*
X9636364D01*
X9637344Y4537779D01*
X9637352Y4537776D01*
X9665373D01*
X9665381Y4537779D01*
X9666361Y4537875D01*
X9756364D01*
X9757344Y4537779D01*
D02*
G37*
G36*
X8615258D02*
X8616200Y4537493D01*
X8617069Y4537028D01*
X8617831Y4536404D01*
X8618455Y4535642D01*
X8618920Y4534774D01*
X8619206Y4533831D01*
X8619214Y4533747D01*
X8619218Y4533732D01*
X8619315Y4532752D01*
Y4426351D01*
X8619302Y4426222D01*
Y4312851D01*
X8619206Y4311871D01*
X8618920Y4310929D01*
X8618455Y4310060D01*
X8617831Y4309299D01*
X8617069Y4308674D01*
X8616200Y4308210D01*
X8615258Y4307924D01*
X8614278Y4307827D01*
X8524276D01*
X8523295Y4307924D01*
X8522353Y4308210D01*
X8521484Y4308674D01*
X8520723Y4309299D01*
X8520098Y4310060D01*
X8519634Y4310929D01*
X8519348Y4311871D01*
X8519251Y4312851D01*
Y4421327D01*
X8499302D01*
Y4312851D01*
X8499206Y4311871D01*
X8498920Y4310929D01*
X8498455Y4310060D01*
X8497831Y4309299D01*
X8497069Y4308674D01*
X8496201Y4308210D01*
X8495258Y4307924D01*
X8494278Y4307827D01*
X8404276D01*
X8403296Y4307924D01*
X8402353Y4308210D01*
X8401485Y4308674D01*
X8400723Y4309299D01*
X8400099Y4310060D01*
X8399634Y4310929D01*
X8399348Y4311871D01*
X8399252Y4312851D01*
Y4421327D01*
X8379303D01*
Y4312851D01*
X8379206Y4311871D01*
X8378920Y4310929D01*
X8378456Y4310060D01*
X8377831Y4309299D01*
X8377070Y4308674D01*
X8376201Y4308210D01*
X8375259Y4307924D01*
X8374278Y4307827D01*
X8284276D01*
X8283296Y4307924D01*
X8282354Y4308210D01*
X8281485Y4308674D01*
X8280723Y4309299D01*
X8280099Y4310060D01*
X8279634Y4310929D01*
X8279348Y4311871D01*
X8279252Y4312851D01*
Y4421327D01*
X8259303D01*
Y4312851D01*
X8259206Y4311871D01*
X8258920Y4310929D01*
X8258456Y4310060D01*
X8257831Y4309299D01*
X8257070Y4308674D01*
X8256201Y4308210D01*
X8255259Y4307924D01*
X8254279Y4307827D01*
X8164276D01*
X8163296Y4307924D01*
X8162354Y4308210D01*
X8161485Y4308674D01*
X8160724Y4309299D01*
X8160099Y4310060D01*
X8159635Y4310929D01*
X8159349Y4311871D01*
X8159252Y4312851D01*
Y4421327D01*
X8139303D01*
Y4312851D01*
X8139206Y4311871D01*
X8138920Y4310929D01*
X8138456Y4310060D01*
X8137832Y4309299D01*
X8137070Y4308674D01*
X8136201Y4308210D01*
X8135259Y4307924D01*
X8134279Y4307827D01*
X8044277D01*
X8043296Y4307924D01*
X8042354Y4308210D01*
X8041485Y4308674D01*
X8040724Y4309299D01*
X8040099Y4310060D01*
X8039635Y4310929D01*
X8039349Y4311871D01*
X8039252Y4312851D01*
Y4421327D01*
X8019303D01*
Y4312851D01*
X8019207Y4311871D01*
X8018921Y4310929D01*
X8018456Y4310060D01*
X8017832Y4309299D01*
X8017070Y4308674D01*
X8016202Y4308210D01*
X8015259Y4307924D01*
X8014279Y4307827D01*
X7924277D01*
X7923297Y4307924D01*
X7922354Y4308210D01*
X7921486Y4308674D01*
X7920724Y4309299D01*
X7920099Y4310060D01*
X7919635Y4310929D01*
X7919349Y4311871D01*
X7919253Y4312851D01*
Y4421327D01*
X7899303D01*
Y4312851D01*
X7899207Y4311871D01*
X7898921Y4310929D01*
X7898457Y4310060D01*
X7897832Y4309299D01*
X7897071Y4308674D01*
X7896202Y4308210D01*
X7895260Y4307924D01*
X7894279Y4307827D01*
X7804277D01*
X7803297Y4307924D01*
X7802354Y4308210D01*
X7801486Y4308674D01*
X7800724Y4309299D01*
X7800100Y4310060D01*
X7799635Y4310929D01*
X7799349Y4311871D01*
X7799253Y4312851D01*
Y4532851D01*
X7799349Y4533831D01*
X7799635Y4534774D01*
X7800100Y4535642D01*
X7800724Y4536404D01*
X7801486Y4537028D01*
X7802354Y4537493D01*
X7803297Y4537779D01*
X7804277Y4537875D01*
X7894279D01*
X7895260Y4537779D01*
X7895268Y4537776D01*
X7923288D01*
X7923297Y4537779D01*
X7924277Y4537875D01*
X8014279D01*
X8015259Y4537779D01*
X8015268Y4537776D01*
X8043288D01*
X8043296Y4537779D01*
X8044277Y4537875D01*
X8134279D01*
X8135259Y4537779D01*
X8135267Y4537776D01*
X8163288D01*
X8163296Y4537779D01*
X8164276Y4537875D01*
X8254279D01*
X8255259Y4537779D01*
X8255267Y4537776D01*
X8283287D01*
X8283296Y4537779D01*
X8284276Y4537875D01*
X8374278D01*
X8375259Y4537779D01*
X8375267Y4537776D01*
X8403287D01*
X8403296Y4537779D01*
X8404276Y4537875D01*
X8494278D01*
X8495258Y4537779D01*
X8495267Y4537776D01*
X8523287D01*
X8523295Y4537779D01*
X8524276Y4537875D01*
X8614278D01*
X8615258Y4537779D01*
D02*
G37*
G36*
X6470584D02*
X6471526Y4537493D01*
X6472395Y4537028D01*
X6473156Y4536404D01*
X6473781Y4535642D01*
X6474245Y4534774D01*
X6474531Y4533831D01*
X6474540Y4533747D01*
X6474544Y4533732D01*
X6474640Y4532752D01*
Y4426351D01*
X6474628Y4426222D01*
Y4312851D01*
X6474531Y4311871D01*
X6474245Y4310929D01*
X6473781Y4310060D01*
X6473156Y4309299D01*
X6472395Y4308674D01*
X6471526Y4308210D01*
X6470584Y4307924D01*
X6469604Y4307827D01*
X6379601D01*
X6378621Y4307924D01*
X6377679Y4308210D01*
X6376810Y4308674D01*
X6376048Y4309299D01*
X6375424Y4310060D01*
X6374960Y4310929D01*
X6374674Y4311871D01*
X6374577Y4312851D01*
Y4421327D01*
X6354628D01*
Y4312851D01*
X6354531Y4311871D01*
X6354245Y4310929D01*
X6353781Y4310060D01*
X6353156Y4309299D01*
X6352395Y4308674D01*
X6351526Y4308210D01*
X6350584Y4307924D01*
X6349604Y4307827D01*
X6259601D01*
X6258621Y4307924D01*
X6257679Y4308210D01*
X6256810Y4308674D01*
X6256049Y4309299D01*
X6255424Y4310060D01*
X6254960Y4310929D01*
X6254674Y4311871D01*
X6254577Y4312851D01*
Y4421327D01*
X6234628D01*
Y4312851D01*
X6234532Y4311871D01*
X6234246Y4310929D01*
X6233781Y4310060D01*
X6233157Y4309299D01*
X6232395Y4308674D01*
X6231527Y4308210D01*
X6230584Y4307924D01*
X6229604Y4307827D01*
X6139602D01*
X6138621Y4307924D01*
X6137679Y4308210D01*
X6136810Y4308674D01*
X6136049Y4309299D01*
X6135424Y4310060D01*
X6134960Y4310929D01*
X6134674Y4311871D01*
X6134578Y4312851D01*
Y4421327D01*
X6114628D01*
Y4312851D01*
X6114532Y4311871D01*
X6114246Y4310929D01*
X6113782Y4310060D01*
X6113157Y4309299D01*
X6112395Y4308674D01*
X6111527Y4308210D01*
X6110584Y4307924D01*
X6109604Y4307827D01*
X6019602D01*
X6018622Y4307924D01*
X6017679Y4308210D01*
X6016811Y4308674D01*
X6016049Y4309299D01*
X6015425Y4310060D01*
X6014960Y4310929D01*
X6014674Y4311871D01*
X6014578Y4312851D01*
Y4421327D01*
X5994629D01*
Y4312851D01*
X5994532Y4311871D01*
X5994246Y4310929D01*
X5993782Y4310060D01*
X5993157Y4309299D01*
X5992396Y4308674D01*
X5991527Y4308210D01*
X5990585Y4307924D01*
X5989604Y4307827D01*
X5899602D01*
X5898622Y4307924D01*
X5897680Y4308210D01*
X5896811Y4308674D01*
X5896049Y4309299D01*
X5895425Y4310060D01*
X5894961Y4310929D01*
X5894675Y4311871D01*
X5894578Y4312851D01*
Y4421327D01*
X5874629D01*
Y4312851D01*
X5874532Y4311871D01*
X5874246Y4310929D01*
X5873782Y4310060D01*
X5873157Y4309299D01*
X5872396Y4308674D01*
X5871527Y4308210D01*
X5870585Y4307924D01*
X5869605Y4307827D01*
X5779602D01*
X5778622Y4307924D01*
X5777680Y4308210D01*
X5776811Y4308674D01*
X5776050Y4309299D01*
X5775425Y4310060D01*
X5774961Y4310929D01*
X5774675Y4311871D01*
X5774578Y4312851D01*
Y4421327D01*
X5754629D01*
Y4312851D01*
X5754533Y4311871D01*
X5754247Y4310929D01*
X5753782Y4310060D01*
X5753158Y4309299D01*
X5752396Y4308674D01*
X5751527Y4308210D01*
X5750585Y4307924D01*
X5749605Y4307827D01*
X5659603D01*
X5658622Y4307924D01*
X5657680Y4308210D01*
X5656811Y4308674D01*
X5656050Y4309299D01*
X5655425Y4310060D01*
X5654961Y4310929D01*
X5654675Y4311871D01*
X5654578Y4312851D01*
Y4532851D01*
X5654675Y4533831D01*
X5654961Y4534774D01*
X5655425Y4535642D01*
X5656050Y4536404D01*
X5656811Y4537028D01*
X5657680Y4537493D01*
X5658622Y4537779D01*
X5659603Y4537875D01*
X5749605D01*
X5750585Y4537779D01*
X5750594Y4537776D01*
X5778614D01*
X5778622Y4537779D01*
X5779602Y4537875D01*
X5869605D01*
X5870585Y4537779D01*
X5870593Y4537776D01*
X5898614D01*
X5898622Y4537779D01*
X5899602Y4537875D01*
X5989604D01*
X5990585Y4537779D01*
X5990593Y4537776D01*
X6018613D01*
X6018622Y4537779D01*
X6019602Y4537875D01*
X6109604D01*
X6110584Y4537779D01*
X6110593Y4537776D01*
X6138613D01*
X6138621Y4537779D01*
X6139602Y4537875D01*
X6229604D01*
X6230584Y4537779D01*
X6230593Y4537776D01*
X6258613D01*
X6258621Y4537779D01*
X6259601Y4537875D01*
X6349604D01*
X6350584Y4537779D01*
X6350592Y4537776D01*
X6378613D01*
X6378621Y4537779D01*
X6379601Y4537875D01*
X6469604D01*
X6470584Y4537779D01*
D02*
G37*
G36*
X9757344Y1810639D02*
X9758286Y1810353D01*
X9759155Y1809889D01*
X9759916Y1809264D01*
X9760541Y1808503D01*
X9761005Y1807634D01*
X9761291Y1806692D01*
X9761300Y1806607D01*
X9761304Y1806593D01*
X9761400Y1805612D01*
Y1699212D01*
X9761388Y1699083D01*
Y1585712D01*
X9761291Y1584732D01*
X9761005Y1583789D01*
X9760541Y1582921D01*
X9759916Y1582159D01*
X9759155Y1581535D01*
X9758286Y1581070D01*
X9757344Y1580784D01*
X9756364Y1580688D01*
X9666361D01*
X9665381Y1580784D01*
X9664439Y1581070D01*
X9663570Y1581535D01*
X9662808Y1582159D01*
X9662184Y1582921D01*
X9661720Y1583789D01*
X9661434Y1584732D01*
X9661337Y1585712D01*
Y1694188D01*
X9641388D01*
Y1585712D01*
X9641291Y1584732D01*
X9641005Y1583789D01*
X9640541Y1582921D01*
X9639916Y1582159D01*
X9639155Y1581535D01*
X9638286Y1581070D01*
X9637344Y1580784D01*
X9636364Y1580688D01*
X9546361D01*
X9545381Y1580784D01*
X9544439Y1581070D01*
X9543570Y1581535D01*
X9542809Y1582159D01*
X9542184Y1582921D01*
X9541720Y1583789D01*
X9541434Y1584732D01*
X9541337Y1585712D01*
Y1694188D01*
X9521388D01*
Y1585712D01*
X9521292Y1584732D01*
X9521006Y1583789D01*
X9520541Y1582921D01*
X9519917Y1582159D01*
X9519155Y1581535D01*
X9518287Y1581070D01*
X9517344Y1580784D01*
X9516364Y1580688D01*
X9426362D01*
X9425381Y1580784D01*
X9424439Y1581070D01*
X9423570Y1581535D01*
X9422809Y1582159D01*
X9422184Y1582921D01*
X9421720Y1583789D01*
X9421434Y1584732D01*
X9421338Y1585712D01*
Y1694188D01*
X9401388D01*
Y1585712D01*
X9401292Y1584732D01*
X9401006Y1583789D01*
X9400542Y1582921D01*
X9399917Y1582159D01*
X9399155Y1581535D01*
X9398287Y1581070D01*
X9397344Y1580784D01*
X9396364Y1580688D01*
X9306362D01*
X9305382Y1580784D01*
X9304439Y1581070D01*
X9303571Y1581535D01*
X9302809Y1582159D01*
X9302185Y1582921D01*
X9301720Y1583789D01*
X9301434Y1584732D01*
X9301338Y1585712D01*
Y1694188D01*
X9281389D01*
Y1585712D01*
X9281292Y1584732D01*
X9281006Y1583789D01*
X9280542Y1582921D01*
X9279917Y1582159D01*
X9279156Y1581535D01*
X9278287Y1581070D01*
X9277345Y1580784D01*
X9276364Y1580688D01*
X9186362D01*
X9185382Y1580784D01*
X9184440Y1581070D01*
X9183571Y1581535D01*
X9182809Y1582159D01*
X9182185Y1582921D01*
X9181721Y1583789D01*
X9181435Y1584732D01*
X9181338Y1585712D01*
Y1694188D01*
X9161389D01*
Y1585712D01*
X9161292Y1584732D01*
X9161006Y1583789D01*
X9160542Y1582921D01*
X9159917Y1582159D01*
X9159156Y1581535D01*
X9158287Y1581070D01*
X9157345Y1580784D01*
X9156365Y1580688D01*
X9066362D01*
X9065382Y1580784D01*
X9064440Y1581070D01*
X9063571Y1581535D01*
X9062810Y1582159D01*
X9062185Y1582921D01*
X9061721Y1583789D01*
X9061435Y1584732D01*
X9061338Y1585712D01*
Y1694188D01*
X9041389D01*
Y1585712D01*
X9041293Y1584732D01*
X9041007Y1583789D01*
X9040542Y1582921D01*
X9039918Y1582159D01*
X9039156Y1581535D01*
X9038287Y1581070D01*
X9037345Y1580784D01*
X9036365Y1580688D01*
X8946363D01*
X8945382Y1580784D01*
X8944440Y1581070D01*
X8943571Y1581535D01*
X8942810Y1582159D01*
X8942185Y1582921D01*
X8941721Y1583789D01*
X8941435Y1584732D01*
X8941338Y1585712D01*
Y1805711D01*
X8941435Y1806692D01*
X8941721Y1807634D01*
X8942185Y1808503D01*
X8942810Y1809264D01*
X8943571Y1809889D01*
X8944440Y1810353D01*
X8945382Y1810639D01*
X8946363Y1810736D01*
X9036365D01*
X9037345Y1810639D01*
X9037354Y1810636D01*
X9065374D01*
X9065382Y1810639D01*
X9066362Y1810736D01*
X9156365D01*
X9157345Y1810639D01*
X9157353Y1810636D01*
X9185374D01*
X9185382Y1810639D01*
X9186362Y1810736D01*
X9276364D01*
X9277345Y1810639D01*
X9277353Y1810636D01*
X9305373D01*
X9305382Y1810639D01*
X9306362Y1810736D01*
X9396364D01*
X9397344Y1810639D01*
X9397353Y1810636D01*
X9425373D01*
X9425381Y1810639D01*
X9426362Y1810736D01*
X9516364D01*
X9517344Y1810639D01*
X9517353Y1810636D01*
X9545373D01*
X9545381Y1810639D01*
X9546361Y1810736D01*
X9636364D01*
X9637344Y1810639D01*
X9637352Y1810636D01*
X9665373D01*
X9665381Y1810639D01*
X9666361Y1810736D01*
X9756364D01*
X9757344Y1810639D01*
D02*
G37*
G36*
X8615258D02*
X8616200Y1810353D01*
X8617069Y1809889D01*
X8617831Y1809264D01*
X8618455Y1808503D01*
X8618920Y1807634D01*
X8619206Y1806692D01*
X8619214Y1806607D01*
X8619218Y1806593D01*
X8619315Y1805612D01*
Y1699212D01*
X8619302Y1699083D01*
Y1585712D01*
X8619206Y1584732D01*
X8618920Y1583789D01*
X8618455Y1582921D01*
X8617831Y1582159D01*
X8617069Y1581535D01*
X8616200Y1581070D01*
X8615258Y1580784D01*
X8614278Y1580688D01*
X8524276D01*
X8523295Y1580784D01*
X8522353Y1581070D01*
X8521484Y1581535D01*
X8520723Y1582159D01*
X8520098Y1582921D01*
X8519634Y1583789D01*
X8519348Y1584732D01*
X8519251Y1585712D01*
Y1694188D01*
X8499302D01*
Y1585712D01*
X8499206Y1584732D01*
X8498920Y1583789D01*
X8498455Y1582921D01*
X8497831Y1582159D01*
X8497069Y1581535D01*
X8496201Y1581070D01*
X8495258Y1580784D01*
X8494278Y1580688D01*
X8404276D01*
X8403296Y1580784D01*
X8402353Y1581070D01*
X8401485Y1581535D01*
X8400723Y1582159D01*
X8400099Y1582921D01*
X8399634Y1583789D01*
X8399348Y1584732D01*
X8399252Y1585712D01*
Y1694188D01*
X8379303D01*
Y1585712D01*
X8379206Y1584732D01*
X8378920Y1583789D01*
X8378456Y1582921D01*
X8377831Y1582159D01*
X8377070Y1581535D01*
X8376201Y1581070D01*
X8375259Y1580784D01*
X8374278Y1580688D01*
X8284276D01*
X8283296Y1580784D01*
X8282354Y1581070D01*
X8281485Y1581535D01*
X8280723Y1582159D01*
X8280099Y1582921D01*
X8279634Y1583789D01*
X8279348Y1584732D01*
X8279252Y1585712D01*
Y1694188D01*
X8259303D01*
Y1585712D01*
X8259206Y1584732D01*
X8258920Y1583789D01*
X8258456Y1582921D01*
X8257831Y1582159D01*
X8257070Y1581535D01*
X8256201Y1581070D01*
X8255259Y1580784D01*
X8254279Y1580688D01*
X8164276D01*
X8163296Y1580784D01*
X8162354Y1581070D01*
X8161485Y1581535D01*
X8160724Y1582159D01*
X8160099Y1582921D01*
X8159635Y1583789D01*
X8159349Y1584732D01*
X8159252Y1585712D01*
Y1694188D01*
X8139303D01*
Y1585712D01*
X8139206Y1584732D01*
X8138920Y1583789D01*
X8138456Y1582921D01*
X8137832Y1582159D01*
X8137070Y1581535D01*
X8136201Y1581070D01*
X8135259Y1580784D01*
X8134279Y1580688D01*
X8044277D01*
X8043296Y1580784D01*
X8042354Y1581070D01*
X8041485Y1581535D01*
X8040724Y1582159D01*
X8040099Y1582921D01*
X8039635Y1583789D01*
X8039349Y1584732D01*
X8039252Y1585712D01*
Y1694188D01*
X8019303D01*
Y1585712D01*
X8019207Y1584732D01*
X8018921Y1583789D01*
X8018456Y1582921D01*
X8017832Y1582159D01*
X8017070Y1581535D01*
X8016202Y1581070D01*
X8015259Y1580784D01*
X8014279Y1580688D01*
X7924277D01*
X7923297Y1580784D01*
X7922354Y1581070D01*
X7921486Y1581535D01*
X7920724Y1582159D01*
X7920099Y1582921D01*
X7919635Y1583789D01*
X7919349Y1584732D01*
X7919253Y1585712D01*
Y1694188D01*
X7899303D01*
Y1585712D01*
X7899207Y1584732D01*
X7898921Y1583789D01*
X7898457Y1582921D01*
X7897832Y1582159D01*
X7897071Y1581535D01*
X7896202Y1581070D01*
X7895260Y1580784D01*
X7894279Y1580688D01*
X7804277D01*
X7803297Y1580784D01*
X7802354Y1581070D01*
X7801486Y1581535D01*
X7800724Y1582159D01*
X7800100Y1582921D01*
X7799635Y1583789D01*
X7799349Y1584732D01*
X7799253Y1585712D01*
Y1805711D01*
X7799349Y1806692D01*
X7799635Y1807634D01*
X7800100Y1808503D01*
X7800724Y1809264D01*
X7801486Y1809889D01*
X7802354Y1810353D01*
X7803297Y1810639D01*
X7804277Y1810736D01*
X7894279D01*
X7895260Y1810639D01*
X7895268Y1810636D01*
X7923288D01*
X7923297Y1810639D01*
X7924277Y1810736D01*
X8014279D01*
X8015259Y1810639D01*
X8015268Y1810636D01*
X8043288D01*
X8043296Y1810639D01*
X8044277Y1810736D01*
X8134279D01*
X8135259Y1810639D01*
X8135267Y1810636D01*
X8163288D01*
X8163296Y1810639D01*
X8164276Y1810736D01*
X8254279D01*
X8255259Y1810639D01*
X8255267Y1810636D01*
X8283287D01*
X8283296Y1810639D01*
X8284276Y1810736D01*
X8374278D01*
X8375259Y1810639D01*
X8375267Y1810636D01*
X8403287D01*
X8403296Y1810639D01*
X8404276Y1810736D01*
X8494278D01*
X8495258Y1810639D01*
X8495267Y1810636D01*
X8523287D01*
X8523295Y1810639D01*
X8524276Y1810736D01*
X8614278D01*
X8615258Y1810639D01*
D02*
G37*
G36*
X6470584D02*
X6471526Y1810353D01*
X6472395Y1809889D01*
X6473156Y1809264D01*
X6473781Y1808503D01*
X6474245Y1807634D01*
X6474531Y1806692D01*
X6474540Y1806607D01*
X6474544Y1806593D01*
X6474640Y1805612D01*
Y1699212D01*
X6474628Y1699083D01*
Y1585712D01*
X6474531Y1584732D01*
X6474245Y1583789D01*
X6473781Y1582921D01*
X6473156Y1582159D01*
X6472395Y1581535D01*
X6471526Y1581070D01*
X6470584Y1580784D01*
X6469604Y1580688D01*
X6379601D01*
X6378621Y1580784D01*
X6377679Y1581070D01*
X6376810Y1581535D01*
X6376048Y1582159D01*
X6375424Y1582921D01*
X6374960Y1583789D01*
X6374674Y1584732D01*
X6374577Y1585712D01*
Y1694188D01*
X6354628D01*
Y1585712D01*
X6354531Y1584732D01*
X6354245Y1583789D01*
X6353781Y1582921D01*
X6353156Y1582159D01*
X6352395Y1581535D01*
X6351526Y1581070D01*
X6350584Y1580784D01*
X6349604Y1580688D01*
X6259601D01*
X6258621Y1580784D01*
X6257679Y1581070D01*
X6256810Y1581535D01*
X6256049Y1582159D01*
X6255424Y1582921D01*
X6254960Y1583789D01*
X6254674Y1584732D01*
X6254577Y1585712D01*
Y1694188D01*
X6234628D01*
Y1585712D01*
X6234532Y1584732D01*
X6234246Y1583789D01*
X6233781Y1582921D01*
X6233157Y1582159D01*
X6232395Y1581535D01*
X6231527Y1581070D01*
X6230584Y1580784D01*
X6229604Y1580688D01*
X6139602D01*
X6138621Y1580784D01*
X6137679Y1581070D01*
X6136810Y1581535D01*
X6136049Y1582159D01*
X6135424Y1582921D01*
X6134960Y1583789D01*
X6134674Y1584732D01*
X6134578Y1585712D01*
Y1694188D01*
X6114628D01*
Y1585712D01*
X6114532Y1584732D01*
X6114246Y1583789D01*
X6113782Y1582921D01*
X6113157Y1582159D01*
X6112395Y1581535D01*
X6111527Y1581070D01*
X6110584Y1580784D01*
X6109604Y1580688D01*
X6019602D01*
X6018622Y1580784D01*
X6017679Y1581070D01*
X6016811Y1581535D01*
X6016049Y1582159D01*
X6015425Y1582921D01*
X6014960Y1583789D01*
X6014674Y1584732D01*
X6014578Y1585712D01*
Y1694188D01*
X5994629D01*
Y1585712D01*
X5994532Y1584732D01*
X5994246Y1583789D01*
X5993782Y1582921D01*
X5993157Y1582159D01*
X5992396Y1581535D01*
X5991527Y1581070D01*
X5990585Y1580784D01*
X5989604Y1580688D01*
X5899602D01*
X5898622Y1580784D01*
X5897680Y1581070D01*
X5896811Y1581535D01*
X5896049Y1582159D01*
X5895425Y1582921D01*
X5894961Y1583789D01*
X5894675Y1584732D01*
X5894578Y1585712D01*
Y1694188D01*
X5874629D01*
Y1585712D01*
X5874532Y1584732D01*
X5874246Y1583789D01*
X5873782Y1582921D01*
X5873157Y1582159D01*
X5872396Y1581535D01*
X5871527Y1581070D01*
X5870585Y1580784D01*
X5869605Y1580688D01*
X5779602D01*
X5778622Y1580784D01*
X5777680Y1581070D01*
X5776811Y1581535D01*
X5776050Y1582159D01*
X5775425Y1582921D01*
X5774961Y1583789D01*
X5774675Y1584732D01*
X5774578Y1585712D01*
Y1694188D01*
X5754629D01*
Y1585712D01*
X5754533Y1584732D01*
X5754247Y1583789D01*
X5753782Y1582921D01*
X5753158Y1582159D01*
X5752396Y1581535D01*
X5751527Y1581070D01*
X5750585Y1580784D01*
X5749605Y1580688D01*
X5659603D01*
X5658622Y1580784D01*
X5657680Y1581070D01*
X5656811Y1581535D01*
X5656050Y1582159D01*
X5655425Y1582921D01*
X5654961Y1583789D01*
X5654675Y1584732D01*
X5654578Y1585712D01*
Y1805711D01*
X5654675Y1806692D01*
X5654961Y1807634D01*
X5655425Y1808503D01*
X5656050Y1809264D01*
X5656811Y1809889D01*
X5657680Y1810353D01*
X5658622Y1810639D01*
X5659603Y1810736D01*
X5749605D01*
X5750585Y1810639D01*
X5750594Y1810636D01*
X5778614D01*
X5778622Y1810639D01*
X5779602Y1810736D01*
X5869605D01*
X5870585Y1810639D01*
X5870593Y1810636D01*
X5898614D01*
X5898622Y1810639D01*
X5899602Y1810736D01*
X5989604D01*
X5990585Y1810639D01*
X5990593Y1810636D01*
X6018613D01*
X6018622Y1810639D01*
X6019602Y1810736D01*
X6109604D01*
X6110584Y1810639D01*
X6110593Y1810636D01*
X6138613D01*
X6138621Y1810639D01*
X6139602Y1810736D01*
X6229604D01*
X6230584Y1810639D01*
X6230593Y1810636D01*
X6258613D01*
X6258621Y1810639D01*
X6259601Y1810736D01*
X6349604D01*
X6350584Y1810639D01*
X6350592Y1810636D01*
X6378613D01*
X6378621Y1810639D01*
X6379601Y1810736D01*
X6469604D01*
X6470584Y1810639D01*
D02*
G37*
D25*
X1104900Y5793740D02*
X8782802Y5793741D01*
X1107113Y6225539D02*
X8785015Y6225540D01*
X6637020Y302260D02*
X8157075D01*
X3535680D02*
X5483860D01*
D26*
X2507620Y200000D02*
X2607620Y300000D01*
X2507620Y400000D02*
X2607620Y500000D01*
X2407620Y200000D02*
X2507620Y100000D01*
X2407620Y400000D02*
X2507620Y300000D01*
X2407620Y600000D02*
X2507620Y500000D01*
X974600Y249200D02*
X1074600Y149200D01*
X974600Y449200D02*
X1074600Y349200D01*
X974600Y649200D02*
X1074600Y549200D01*
X974600Y849200D02*
X1074600Y749200D01*
X9574600Y1025400D02*
X9674600Y1125400D01*
X9374600Y1025400D02*
X9474600Y1125400D01*
X9174600Y1025400D02*
X9274600Y1125400D01*
X9174600Y1225400D02*
X9274600Y1325400D01*
X9374600Y1225400D02*
X9474600Y1325400D01*
X9574600Y1225400D02*
X9674600Y1325400D01*
X9574600Y1425400D02*
X9674600Y1525400D01*
X9374600Y1425400D02*
X9474600Y1525400D01*
X9174600Y1425400D02*
X9274600Y1525400D01*
X8974600Y1425400D02*
X9074600Y1525400D01*
X8774600Y1425400D02*
X8874600Y1525400D01*
X8574600Y1425400D02*
X8674600Y1525400D01*
X8374600Y1425400D02*
X8474600Y1525400D01*
X5100000Y1025400D02*
X5200000Y1125400D01*
X5300000Y1025400D02*
X5400000Y1125400D01*
X5500000Y1025400D02*
X5600000Y1125400D01*
X5500000Y1225400D02*
X5600000Y1325400D01*
X5300000Y1225400D02*
X5400000Y1325400D01*
X5100000Y1225400D02*
X5200000Y1325400D01*
X6300000Y1425400D02*
X6400000Y1525400D01*
X6100000Y1425400D02*
X6200000Y1525400D01*
X5900000Y1425400D02*
X6000000Y1525400D01*
X5700000Y1425400D02*
X5800000Y1525400D01*
X5500000Y1425400D02*
X5600000Y1525400D01*
X5300000Y1425400D02*
X5400000Y1525400D01*
X5100000Y1425400D02*
X5200000Y1525400D01*
X2525400Y1025400D02*
X2625400Y1125400D01*
X2325400Y1025400D02*
X2425400Y1125400D01*
X2125400Y1025400D02*
X2225400Y1125400D01*
X1925400Y1025400D02*
X2025400Y1125400D01*
X1925400Y1225400D02*
X2025400Y1325400D01*
X2125400Y1225400D02*
X2225400Y1325400D01*
X2325400Y1225400D02*
X2425400Y1325400D01*
X2525400Y1225400D02*
X2625400Y1325400D01*
X3025400Y1425400D02*
X3125400Y1525400D01*
X2825400Y1425400D02*
X2925400Y1525400D01*
X2625400Y1425400D02*
X2725400Y1525400D01*
X2425400Y1425400D02*
X2525400Y1525400D01*
X2225400Y1425400D02*
X2325400Y1525400D01*
X2025400Y1425400D02*
X2125400Y1525400D01*
X1825400Y1425400D02*
X1925400Y1525400D01*
X8282880Y4150000D02*
X8382880Y4250000D01*
X8482880Y4150000D02*
X8582880Y4250000D01*
X8282880Y3950000D02*
X8382880Y4050000D01*
X8482880Y3950000D02*
X8582880Y4050000D01*
X8682880Y4150000D02*
X8782880Y4250000D01*
X8682880Y3950000D02*
X8782880Y4050000D01*
X8882880Y4150000D02*
X8982880Y4250000D01*
X8882880Y3950000D02*
X8982880Y4050000D01*
X9082880Y4150000D02*
X9182880Y4250000D01*
X9282880Y4150000D02*
X9382880Y4250000D01*
X9482880Y4150000D02*
X9582880Y4250000D01*
X9682880Y4150000D02*
X9782880Y4250000D01*
X9682880Y3950000D02*
X9782880Y4050000D01*
X9482880Y3950000D02*
X9582880Y4050000D01*
X9282880Y3950000D02*
X9382880Y4050000D01*
X9082880Y3950000D02*
X9182880Y4050000D01*
X9082880Y3750000D02*
X9182880Y3850000D01*
X9282880Y3750000D02*
X9382880Y3850000D01*
X9482880Y3750000D02*
X9582880Y3850000D01*
X9682880Y3750000D02*
X9782880Y3850000D01*
X9682880Y3550000D02*
X9782880Y3650000D01*
X9482880Y3550000D02*
X9582880Y3650000D01*
X9282880Y3550000D02*
X9382880Y3650000D01*
X7682880Y3350000D02*
X7782880Y3450000D01*
X7682880Y3550000D02*
X7782880Y3650000D01*
X7882880Y3550000D02*
X7982880Y3650000D01*
X7882880Y3350000D02*
X7982880Y3450000D01*
X8082880Y3350000D02*
X8182880Y3450000D01*
X8082880Y3550000D02*
X8182880Y3650000D01*
X9682880Y2950000D02*
X9782880Y3050000D01*
X9482880Y2950000D02*
X9582880Y3050000D01*
X9282880Y2950000D02*
X9382880Y3050000D01*
X9082880Y2950000D02*
X9182880Y3050000D01*
X8882880Y2950000D02*
X8982880Y3050000D01*
X8682880Y2950000D02*
X8782880Y3050000D01*
X8482880Y2950000D02*
X8582880Y3050000D01*
X8282880Y2950000D02*
X8382880Y3050000D01*
X8082880Y2950000D02*
X8182880Y3050000D01*
X7882880Y2950000D02*
X7982880Y3050000D01*
X7682880Y2950000D02*
X7782880Y3050000D01*
X7682880Y3150000D02*
X7782880Y3250000D01*
X7882880Y3150000D02*
X7982880Y3250000D01*
X8082880Y3150000D02*
X8182880Y3250000D01*
X9682880Y3350000D02*
X9782880Y3450000D01*
X9482880Y3350000D02*
X9582880Y3450000D01*
X9282880Y3350000D02*
X9382880Y3450000D01*
X9082880Y3150000D02*
X9182880Y3250000D01*
X9682880Y3150000D02*
X9782880Y3250000D01*
X9482880Y3150000D02*
X9582880Y3250000D01*
X9282880Y3150000D02*
X9382880Y3250000D01*
X8282880Y3150000D02*
X8382880Y3250000D01*
X5001200Y4150000D02*
X5101200Y4250000D01*
X5201200Y4150000D02*
X5301200Y4250000D01*
X5001200Y3950000D02*
X5101200Y4050000D01*
X5201200Y3950000D02*
X5301200Y4050000D01*
X5401200Y4150000D02*
X5501200Y4250000D01*
X5401200Y3950000D02*
X5501200Y4050000D01*
X5601200Y4150000D02*
X5701200Y4250000D01*
X5601200Y3950000D02*
X5701200Y4050000D01*
X5801200Y4150000D02*
X5901200Y4250000D01*
X6001200Y4150000D02*
X6101200Y4250000D01*
X6201200Y4150000D02*
X6301200Y4250000D01*
X6401200Y4150000D02*
X6501200Y4250000D01*
X6401200Y3950000D02*
X6501200Y4050000D01*
X6201200Y3950000D02*
X6301200Y4050000D01*
X6001200Y3950000D02*
X6101200Y4050000D01*
X5801200Y3950000D02*
X5901200Y4050000D01*
X5801200Y3750000D02*
X5901200Y3850000D01*
X6001200Y3750000D02*
X6101200Y3850000D01*
X6201200Y3750000D02*
X6301200Y3850000D01*
X6401200Y3750000D02*
X6501200Y3850000D01*
X6401200Y3550000D02*
X6501200Y3650000D01*
X6201200Y3550000D02*
X6301200Y3650000D01*
X6001200Y3550000D02*
X6101200Y3650000D01*
X4401200Y3350000D02*
X4501200Y3450000D01*
X4401200Y3550000D02*
X4501200Y3650000D01*
X4601200Y3550000D02*
X4701200Y3650000D01*
X4601200Y3350000D02*
X4701200Y3450000D01*
X4801200Y3350000D02*
X4901200Y3450000D01*
X4801200Y3550000D02*
X4901200Y3650000D01*
X6401200Y2950000D02*
X6501200Y3050000D01*
X6201200Y2950000D02*
X6301200Y3050000D01*
X6001200Y2950000D02*
X6101200Y3050000D01*
X5801200Y2950000D02*
X5901200Y3050000D01*
X5601200Y2950000D02*
X5701200Y3050000D01*
X5401200Y2950000D02*
X5501200Y3050000D01*
X5201200Y2950000D02*
X5301200Y3050000D01*
X5001200Y2950000D02*
X5101200Y3050000D01*
X4801200Y2950000D02*
X4901200Y3050000D01*
X4601200Y2950000D02*
X4701200Y3050000D01*
X4401200Y2950000D02*
X4501200Y3050000D01*
X4401200Y3150000D02*
X4501200Y3250000D01*
X4601200Y3150000D02*
X4701200Y3250000D01*
X4801200Y3150000D02*
X4901200Y3250000D01*
X6401200Y3350000D02*
X6501200Y3450000D01*
X6201200Y3350000D02*
X6301200Y3450000D01*
X6001200Y3350000D02*
X6101200Y3450000D01*
X5801200Y3150000D02*
X5901200Y3250000D01*
X6401200Y3150000D02*
X6501200Y3250000D01*
X6201200Y3150000D02*
X6301200Y3250000D01*
X6001200Y3150000D02*
X6101200Y3250000D01*
X5001200Y3150000D02*
X5101200Y3250000D01*
X1750000Y3150000D02*
X1850000Y3250000D01*
X2750000Y3150000D02*
X2850000Y3250000D01*
X2950000Y3150000D02*
X3050000Y3250000D01*
X3150000Y3150000D02*
X3250000Y3250000D01*
X2550000Y3150000D02*
X2650000Y3250000D01*
X2750000Y3350000D02*
X2850000Y3450000D01*
X2950000Y3350000D02*
X3050000Y3450000D01*
X3150000Y3350000D02*
X3250000Y3450000D01*
X1550000Y3150000D02*
X1650000Y3250000D01*
X1350000Y3150000D02*
X1450000Y3250000D01*
X1150000Y3150000D02*
X1250000Y3250000D01*
X1150000Y2950000D02*
X1250000Y3050000D01*
X1350000Y2950000D02*
X1450000Y3050000D01*
X1550000Y2950000D02*
X1650000Y3050000D01*
X1750000Y2950000D02*
X1850000Y3050000D01*
X1950000Y2950000D02*
X2050000Y3050000D01*
X2150000Y2950000D02*
X2250000Y3050000D01*
X2350000Y2950000D02*
X2450000Y3050000D01*
X2550000Y2950000D02*
X2650000Y3050000D01*
X2750000Y2950000D02*
X2850000Y3050000D01*
X2950000Y2950000D02*
X3050000Y3050000D01*
X3150000Y2950000D02*
X3250000Y3050000D01*
X1550000Y3550000D02*
X1650000Y3650000D01*
X1550000Y3350000D02*
X1650000Y3450000D01*
X1350000Y3350000D02*
X1450000Y3450000D01*
X1350000Y3550000D02*
X1450000Y3650000D01*
X1150000Y3550000D02*
X1250000Y3650000D01*
X1150000Y3350000D02*
X1250000Y3450000D01*
X2750000Y3550000D02*
X2850000Y3650000D01*
X2950000Y3550000D02*
X3050000Y3650000D01*
X3150000Y3550000D02*
X3250000Y3650000D01*
X3150000Y3750000D02*
X3250000Y3850000D01*
X2950000Y3750000D02*
X3050000Y3850000D01*
X2750000Y3750000D02*
X2850000Y3850000D01*
X2550000Y3750000D02*
X2650000Y3850000D01*
X2550000Y3950000D02*
X2650000Y4050000D01*
X2750000Y3950000D02*
X2850000Y4050000D01*
X2950000Y3950000D02*
X3050000Y4050000D01*
X3150000Y3950000D02*
X3250000Y4050000D01*
X3150000Y4150000D02*
X3250000Y4250000D01*
X2950000Y4150000D02*
X3050000Y4250000D01*
X2750000Y4150000D02*
X2850000Y4250000D01*
X2550000Y4150000D02*
X2650000Y4250000D01*
X2350000Y3950000D02*
X2450000Y4050000D01*
X2350000Y4150000D02*
X2450000Y4250000D01*
X2150000Y3950000D02*
X2250000Y4050000D01*
X2150000Y4150000D02*
X2250000Y4250000D01*
X1950000Y3950000D02*
X2050000Y4050000D01*
X1750000Y3950000D02*
X1850000Y4050000D01*
X1950000Y4150000D02*
X2050000Y4250000D01*
X1750000Y4150000D02*
X1850000Y4250000D01*
X6635960Y4900000D02*
X6735960Y5000000D01*
X6835960Y4900000D02*
X6935960Y5000000D01*
X7035960Y4900000D02*
X7135960Y5000000D01*
X7235960Y4900000D02*
X7335960Y5000000D01*
X7435960Y4900000D02*
X7535960Y5000000D01*
X7435960Y5100000D02*
X7535960Y5200000D01*
X7235960Y5100000D02*
X7335960Y5200000D01*
X7035960Y5100000D02*
X7135960Y5200000D01*
X6835960Y5100000D02*
X6935960Y5200000D01*
X6635960Y5100000D02*
X6735960Y5200000D01*
X6635960Y5300000D02*
X6735960Y5400000D01*
X6835960Y5300000D02*
X6935960Y5400000D01*
X7035960Y5300000D02*
X7135960Y5400000D01*
X7235960Y5300000D02*
X7335960Y5400000D01*
X7435960Y5300000D02*
X7535960Y5400000D01*
X7435960Y5500000D02*
X7535960Y5600000D01*
X7235960Y5500000D02*
X7335960Y5600000D01*
X7035960Y5500000D02*
X7135960Y5600000D01*
X6835960Y5500000D02*
X6935960Y5600000D01*
X6635960Y5500000D02*
X6735960Y5600000D01*
X3361900Y5500000D02*
X3461900Y5600000D01*
X3561900Y5500000D02*
X3661900Y5600000D01*
X3761900Y5500000D02*
X3861900Y5600000D01*
X3961900Y5500000D02*
X4061900Y5600000D01*
X4161900Y5500000D02*
X4261900Y5600000D01*
X4161900Y5300000D02*
X4261900Y5400000D01*
X3961900Y5300000D02*
X4061900Y5400000D01*
X3761900Y5300000D02*
X3861900Y5400000D01*
X3561900Y5300000D02*
X3661900Y5400000D01*
X3361900Y5300000D02*
X3461900Y5400000D01*
X3361900Y5100000D02*
X3461900Y5200000D01*
X3561900Y5100000D02*
X3661900Y5200000D01*
X3761900Y5100000D02*
X3861900Y5200000D01*
X3961900Y5100000D02*
X4061900Y5200000D01*
X4161900Y5100000D02*
X4261900Y5200000D01*
X4161900Y4900000D02*
X4261900Y5000000D01*
X3961900Y4900000D02*
X4061900Y5000000D01*
X3761900Y4900000D02*
X3861900Y5000000D01*
X3561900Y4900000D02*
X3661900Y5000000D01*
X3361900Y4900000D02*
X3461900Y5000000D01*
X261900Y5500000D02*
X361900Y5600000D01*
X461900Y5500000D02*
X561900Y5600000D01*
X661900Y5500000D02*
X761900Y5600000D01*
X861900Y5500000D02*
X961900Y5600000D01*
X861900Y5300000D02*
X961900Y5400000D01*
X661900Y5300000D02*
X761900Y5400000D01*
X461900Y5300000D02*
X561900Y5400000D01*
X261900Y5300000D02*
X361900Y5400000D01*
X261900Y5100000D02*
X361900Y5200000D01*
X461900Y5100000D02*
X561900Y5200000D01*
X661900Y5100000D02*
X761900Y5200000D01*
X861900Y5100000D02*
X961900Y5200000D01*
X261900Y4900000D02*
X361900Y5000000D01*
X461900Y4900000D02*
X561900Y5000000D01*
X661900Y4900000D02*
X761900Y5000000D01*
X861900Y4900000D02*
X961900Y5000000D01*
D27*
X3989680Y3886200D02*
D03*
Y2362200D02*
D03*
X3629660Y2616200D02*
D03*
Y4140200D02*
D03*
X3989680Y2870200D02*
D03*
X3629660Y3124200D02*
D03*
X3989680Y3378200D02*
D03*
X3629660Y3632200D02*
D03*
X7256120Y3886200D02*
D03*
Y2362200D02*
D03*
X6896100Y2616200D02*
D03*
Y4140200D02*
D03*
X7256120Y2870200D02*
D03*
X6896100Y3124200D02*
D03*
X7256120Y3378200D02*
D03*
X6896100Y3632200D02*
D03*
X720700Y3886200D02*
D03*
Y2362200D02*
D03*
X360680Y2616200D02*
D03*
Y4140200D02*
D03*
X720700Y2870200D02*
D03*
X360680Y3124200D02*
D03*
X720700Y3378200D02*
D03*
X360680Y3632200D02*
D03*
D28*
X6068060Y1158240D02*
D03*
Y396240D02*
D03*
X2966720Y1158240D02*
D03*
Y396240D02*
D03*
X8719820Y1158240D02*
D03*
Y396240D02*
D03*
D29*
X5438140Y3533140D02*
D03*
X2186940D02*
D03*
X8719820D02*
D03*
X9499600Y520700D02*
D03*
X9499384Y6000012D02*
D03*
X499366Y500001D02*
D03*
Y6000012D02*
D03*
D30*
X1475740Y4005361D02*
D03*
Y4150361D02*
D03*
X1170940Y1424940D02*
D03*
Y1279940D02*
D03*
X1323340Y1424940D02*
D03*
Y1279940D02*
D03*
X1475740D02*
D03*
Y1424940D02*
D03*
X1628140Y1279940D02*
D03*
Y1424940D02*
D03*
X4417060Y1279940D02*
D03*
Y1424940D02*
D03*
X4569460D02*
D03*
Y1279940D02*
D03*
X4721860D02*
D03*
Y1424940D02*
D03*
X4874260D02*
D03*
Y1279940D02*
D03*
X1170940Y4005361D02*
D03*
Y4150361D02*
D03*
X1323340Y4005361D02*
D03*
Y4150361D02*
D03*
X1628140Y4150361D02*
D03*
Y4005361D02*
D03*
X4417060Y4005361D02*
D03*
Y4150361D02*
D03*
X4569460D02*
D03*
Y4005361D02*
D03*
X4721860D02*
D03*
Y4150361D02*
D03*
X4874260D02*
D03*
Y4005361D02*
D03*
X7706360Y4150361D02*
D03*
Y4005361D02*
D03*
X7858760D02*
D03*
Y4150361D02*
D03*
X8011160Y4005361D02*
D03*
Y4150361D02*
D03*
X7858760Y1279940D02*
D03*
Y1424940D02*
D03*
X6604000Y1873360D02*
D03*
Y1728360D02*
D03*
X7706360Y1424940D02*
D03*
Y1279940D02*
D03*
X8163560Y4005361D02*
D03*
Y4150361D02*
D03*
X8011160Y1424940D02*
D03*
Y1279940D02*
D03*
X8163560D02*
D03*
Y1424940D02*
D03*
X9893300Y1728360D02*
D03*
Y1873360D02*
D03*
X3352800Y1728360D02*
D03*
Y1873360D02*
D03*
D31*
X4865014Y5152840D02*
D03*
Y2425700D02*
D03*
X6007100Y5152840D02*
D03*
X1616354D02*
D03*
X2755900D02*
D03*
X8151774Y2425700D02*
D03*
X6007100D02*
D03*
X2755900D02*
D03*
X9293860D02*
D03*
X1616354D02*
D03*
X9293860Y5152840D02*
D03*
X8151774D02*
D03*
D32*
X4922520Y4422844D02*
D03*
Y1695704D02*
D03*
X6064606Y4422844D02*
D03*
X1673860D02*
D03*
X2813406D02*
D03*
X8209280Y1695704D02*
D03*
X6064606D02*
D03*
X2813406D02*
D03*
X9351366D02*
D03*
X1673860D02*
D03*
X9351366Y4422844D02*
D03*
X8209280D02*
D03*
D33*
X4442511D02*
D03*
Y1695704D02*
D03*
X5584596Y4422844D02*
D03*
X1193851D02*
D03*
X2333396D02*
D03*
X7729271Y1695704D02*
D03*
X5584596D02*
D03*
X2333396D02*
D03*
X8871356D02*
D03*
X1193851D02*
D03*
X8871356Y4422844D02*
D03*
X7729271D02*
D03*
D34*
X1363980Y477520D02*
D03*
X2125980D02*
D03*
D35*
X538480Y4493260D02*
D03*
X3807460D02*
D03*
X7073900D02*
D03*
Y1757680D02*
D03*
X3807460D02*
D03*
X538480D02*
D03*
%TF.MD5,2543ff8e07a8270cf95dc2449291afac*%
M02*
