%TF.GenerationSoftware,Altium Limited,Altium Designer,24.0.1 (36)*%
G04 Layer_Color=8421504*
%FSLAX45Y45*%
%MOMM*%
%TF.SameCoordinates,BDB9926C-BC38-41AE-A616-4D177B64427C*%
%TF.FilePolarity,Positive*%
%TF.FileFunction,Paste,Top*%
%TF.Part,Single*%
G01*
G75*
%TA.AperFunction,SMDPad,CuDef*%
%ADD15C,7.50000*%
%ADD16R,0.85000X0.75000*%
G36*
X5365011Y4727849D02*
X4365013D01*
Y5577848D01*
X5365011D01*
Y4727849D01*
D02*
G37*
G36*
X3255896D02*
X2255898D01*
Y5577848D01*
X3255896D01*
Y4727849D01*
D02*
G37*
G36*
X2116351D02*
X1116353D01*
Y5577848D01*
X2116351D01*
Y4727849D01*
D02*
G37*
G36*
X5327518Y4532752D02*
X5327531D01*
Y4426351D01*
X5327518D01*
Y4312851D01*
X5237516D01*
Y4426351D01*
X5207518D01*
Y4312851D01*
X5117516D01*
Y4426351D01*
X5087518D01*
Y4312851D01*
X4997516D01*
Y4426351D01*
X4967519D01*
Y4312851D01*
X4877516D01*
Y4426351D01*
X4847519D01*
Y4312851D01*
X4757517D01*
Y4426351D01*
X4727519D01*
Y4312851D01*
X4637517D01*
Y4426351D01*
X4607519D01*
Y4312851D01*
X4517517D01*
Y4532851D01*
X4607519D01*
Y4532752D01*
X4637517D01*
Y4532851D01*
X4727519D01*
Y4532752D01*
X4757517D01*
Y4532851D01*
X4847519D01*
Y4532752D01*
X4877516D01*
Y4532851D01*
X4967519D01*
Y4532752D01*
X4997516D01*
Y4532851D01*
X5087518D01*
Y4532752D01*
X5117516D01*
Y4532851D01*
X5207518D01*
Y4532752D01*
X5237516D01*
Y4532851D01*
X5327518D01*
Y4532752D01*
D02*
G37*
G36*
X3218404D02*
X3218416D01*
Y4426351D01*
X3218404D01*
Y4312851D01*
X3128401D01*
Y4426351D01*
X3098404D01*
Y4312851D01*
X3008401D01*
Y4426351D01*
X2978404D01*
Y4312851D01*
X2888402D01*
Y4426351D01*
X2858404D01*
Y4312851D01*
X2768402D01*
Y4426351D01*
X2738404D01*
Y4312851D01*
X2648402D01*
Y4426351D01*
X2618405D01*
Y4312851D01*
X2528402D01*
Y4426351D01*
X2498405D01*
Y4312851D01*
X2408403D01*
Y4532851D01*
X2498405D01*
Y4532752D01*
X2528402D01*
Y4532851D01*
X2618405D01*
Y4532752D01*
X2648402D01*
Y4532851D01*
X2738404D01*
Y4532752D01*
X2768402D01*
Y4532851D01*
X2858404D01*
Y4532752D01*
X2888402D01*
Y4532851D01*
X2978404D01*
Y4532752D01*
X3008401D01*
Y4532851D01*
X3098404D01*
Y4532752D01*
X3128401D01*
Y4532851D01*
X3218404D01*
Y4532752D01*
D02*
G37*
G36*
X2078858D02*
X2078871D01*
Y4426351D01*
X2078858D01*
Y4312851D01*
X1988856D01*
Y4426351D01*
X1958858D01*
Y4312851D01*
X1868856D01*
Y4426351D01*
X1838858D01*
Y4312851D01*
X1748856D01*
Y4426351D01*
X1718859D01*
Y4312851D01*
X1628856D01*
Y4426351D01*
X1598859D01*
Y4312851D01*
X1508857D01*
Y4426351D01*
X1478859D01*
Y4312851D01*
X1388857D01*
Y4426351D01*
X1358859D01*
Y4312851D01*
X1268857D01*
Y4532851D01*
X1358859D01*
Y4532752D01*
X1388857D01*
Y4532851D01*
X1478859D01*
Y4532752D01*
X1508857D01*
Y4532851D01*
X1598859D01*
Y4532752D01*
X1628856D01*
Y4532851D01*
X1718859D01*
Y4532752D01*
X1748856D01*
Y4532851D01*
X1838858D01*
Y4532752D01*
X1868856D01*
Y4532851D01*
X1958858D01*
Y4532752D01*
X1988856D01*
Y4532851D01*
X2078858D01*
Y4532752D01*
D02*
G37*
G36*
X4487522Y4312834D02*
X4397520D01*
Y4532833D01*
X4487522D01*
Y4312834D01*
D02*
G37*
G36*
X2378408D02*
X2288405D01*
Y4532833D01*
X2378408D01*
Y4312834D01*
D02*
G37*
G36*
X1238862D02*
X1148860D01*
Y4532833D01*
X1238862D01*
Y4312834D01*
D02*
G37*
G36*
X5365011Y2000710D02*
X4365013D01*
Y2850708D01*
X5365011D01*
Y2000710D01*
D02*
G37*
G36*
X3255896D02*
X2255898D01*
Y2850708D01*
X3255896D01*
Y2000710D01*
D02*
G37*
G36*
X2116351D02*
X1116353D01*
Y2850708D01*
X2116351D01*
Y2000710D01*
D02*
G37*
G36*
X5327518Y1805612D02*
X5327531D01*
Y1699212D01*
X5327518D01*
Y1585712D01*
X5237516D01*
Y1699212D01*
X5207518D01*
Y1585712D01*
X5117516D01*
Y1699212D01*
X5087518D01*
Y1585712D01*
X4997516D01*
Y1699212D01*
X4967519D01*
Y1585712D01*
X4877516D01*
Y1699212D01*
X4847519D01*
Y1585712D01*
X4757517D01*
Y1699212D01*
X4727519D01*
Y1585712D01*
X4637517D01*
Y1699212D01*
X4607519D01*
Y1585712D01*
X4517517D01*
Y1805711D01*
X4607519D01*
Y1805612D01*
X4637517D01*
Y1805711D01*
X4727519D01*
Y1805612D01*
X4757517D01*
Y1805711D01*
X4847519D01*
Y1805612D01*
X4877516D01*
Y1805711D01*
X4967519D01*
Y1805612D01*
X4997516D01*
Y1805711D01*
X5087518D01*
Y1805612D01*
X5117516D01*
Y1805711D01*
X5207518D01*
Y1805612D01*
X5237516D01*
Y1805711D01*
X5327518D01*
Y1805612D01*
D02*
G37*
G36*
X3218404D02*
X3218416D01*
Y1699212D01*
X3218404D01*
Y1585712D01*
X3128401D01*
Y1699212D01*
X3098404D01*
Y1585712D01*
X3008401D01*
Y1699212D01*
X2978404D01*
Y1585712D01*
X2888402D01*
Y1699212D01*
X2858404D01*
Y1585712D01*
X2768402D01*
Y1699212D01*
X2738404D01*
Y1585712D01*
X2648402D01*
Y1699212D01*
X2618405D01*
Y1585712D01*
X2528402D01*
Y1699212D01*
X2498405D01*
Y1585712D01*
X2408403D01*
Y1805711D01*
X2498405D01*
Y1805612D01*
X2528402D01*
Y1805711D01*
X2618405D01*
Y1805612D01*
X2648402D01*
Y1805711D01*
X2738404D01*
Y1805612D01*
X2768402D01*
Y1805711D01*
X2858404D01*
Y1805612D01*
X2888402D01*
Y1805711D01*
X2978404D01*
Y1805612D01*
X3008401D01*
Y1805711D01*
X3098404D01*
Y1805612D01*
X3128401D01*
Y1805711D01*
X3218404D01*
Y1805612D01*
D02*
G37*
G36*
X2078858D02*
X2078871D01*
Y1699212D01*
X2078858D01*
Y1585712D01*
X1988856D01*
Y1699212D01*
X1958858D01*
Y1585712D01*
X1868856D01*
Y1699212D01*
X1838858D01*
Y1585712D01*
X1748856D01*
Y1699212D01*
X1718859D01*
Y1585712D01*
X1628856D01*
Y1699212D01*
X1598859D01*
Y1585712D01*
X1508857D01*
Y1699212D01*
X1478859D01*
Y1585712D01*
X1388857D01*
Y1699212D01*
X1358859D01*
Y1585712D01*
X1268857D01*
Y1805711D01*
X1358859D01*
Y1805612D01*
X1388857D01*
Y1805711D01*
X1478859D01*
Y1805612D01*
X1508857D01*
Y1805711D01*
X1598859D01*
Y1805612D01*
X1628856D01*
Y1805711D01*
X1718859D01*
Y1805612D01*
X1748856D01*
Y1805711D01*
X1838858D01*
Y1805612D01*
X1868856D01*
Y1805711D01*
X1958858D01*
Y1805612D01*
X1988856D01*
Y1805711D01*
X2078858D01*
Y1805612D01*
D02*
G37*
G36*
X4487522Y1585694D02*
X4397520D01*
Y1805694D01*
X4487522D01*
Y1585694D01*
D02*
G37*
G36*
X2378408D02*
X2288405D01*
Y1805694D01*
X2378408D01*
Y1585694D01*
D02*
G37*
G36*
X1238862D02*
X1148860D01*
Y1805694D01*
X1238862D01*
Y1585694D01*
D02*
G37*
G36*
X9793856Y4727849D02*
X8793858D01*
Y5577848D01*
X9793856D01*
Y4727849D01*
D02*
G37*
G36*
X8651771D02*
X7651773D01*
Y5577848D01*
X8651771D01*
Y4727849D01*
D02*
G37*
G36*
X6507096D02*
X5507098D01*
Y5577848D01*
X6507096D01*
Y4727849D01*
D02*
G37*
G36*
X9756364Y4532752D02*
X9756376D01*
Y4426351D01*
X9756364D01*
Y4312851D01*
X9666361D01*
Y4426351D01*
X9636364D01*
Y4312851D01*
X9546361D01*
Y4426351D01*
X9516364D01*
Y4312851D01*
X9426362D01*
Y4426351D01*
X9396364D01*
Y4312851D01*
X9306362D01*
Y4426351D01*
X9276364D01*
Y4312851D01*
X9186362D01*
Y4426351D01*
X9156365D01*
Y4312851D01*
X9066362D01*
Y4426351D01*
X9036365D01*
Y4312851D01*
X8946363D01*
Y4532851D01*
X9036365D01*
Y4532752D01*
X9066362D01*
Y4532851D01*
X9156365D01*
Y4532752D01*
X9186362D01*
Y4532851D01*
X9276364D01*
Y4532752D01*
X9306362D01*
Y4532851D01*
X9396364D01*
Y4532752D01*
X9426362D01*
Y4532851D01*
X9516364D01*
Y4532752D01*
X9546361D01*
Y4532851D01*
X9636364D01*
Y4532752D01*
X9666361D01*
Y4532851D01*
X9756364D01*
Y4532752D01*
D02*
G37*
G36*
X8614278D02*
X8614291D01*
Y4426351D01*
X8614278D01*
Y4312851D01*
X8524276D01*
Y4426351D01*
X8494278D01*
Y4312851D01*
X8404276D01*
Y4426351D01*
X8374278D01*
Y4312851D01*
X8284276D01*
Y4426351D01*
X8254279D01*
Y4312851D01*
X8164276D01*
Y4426351D01*
X8134279D01*
Y4312851D01*
X8044277D01*
Y4426351D01*
X8014279D01*
Y4312851D01*
X7924277D01*
Y4426351D01*
X7894279D01*
Y4312851D01*
X7804277D01*
Y4532851D01*
X7894279D01*
Y4532752D01*
X7924277D01*
Y4532851D01*
X8014279D01*
Y4532752D01*
X8044277D01*
Y4532851D01*
X8134279D01*
Y4532752D01*
X8164276D01*
Y4532851D01*
X8254279D01*
Y4532752D01*
X8284276D01*
Y4532851D01*
X8374278D01*
Y4532752D01*
X8404276D01*
Y4532851D01*
X8494278D01*
Y4532752D01*
X8524276D01*
Y4532851D01*
X8614278D01*
Y4532752D01*
D02*
G37*
G36*
X6469604D02*
X6469616D01*
Y4426351D01*
X6469604D01*
Y4312851D01*
X6379601D01*
Y4426351D01*
X6349604D01*
Y4312851D01*
X6259601D01*
Y4426351D01*
X6229604D01*
Y4312851D01*
X6139602D01*
Y4426351D01*
X6109604D01*
Y4312851D01*
X6019602D01*
Y4426351D01*
X5989604D01*
Y4312851D01*
X5899602D01*
Y4426351D01*
X5869605D01*
Y4312851D01*
X5779602D01*
Y4426351D01*
X5749605D01*
Y4312851D01*
X5659603D01*
Y4532851D01*
X5749605D01*
Y4532752D01*
X5779602D01*
Y4532851D01*
X5869605D01*
Y4532752D01*
X5899602D01*
Y4532851D01*
X5989604D01*
Y4532752D01*
X6019602D01*
Y4532851D01*
X6109604D01*
Y4532752D01*
X6139602D01*
Y4532851D01*
X6229604D01*
Y4532752D01*
X6259601D01*
Y4532851D01*
X6349604D01*
Y4532752D01*
X6379601D01*
Y4532851D01*
X6469604D01*
Y4532752D01*
D02*
G37*
G36*
X8916368Y4312834D02*
X8826365D01*
Y4532833D01*
X8916368D01*
Y4312834D01*
D02*
G37*
G36*
X7774282D02*
X7684280D01*
Y4532833D01*
X7774282D01*
Y4312834D01*
D02*
G37*
G36*
X5629608D02*
X5539605D01*
Y4532833D01*
X5629608D01*
Y4312834D01*
D02*
G37*
G36*
X9793856Y2000710D02*
X8793858D01*
Y2850708D01*
X9793856D01*
Y2000710D01*
D02*
G37*
G36*
X8651771D02*
X7651773D01*
Y2850708D01*
X8651771D01*
Y2000710D01*
D02*
G37*
G36*
X6507096D02*
X5507098D01*
Y2850708D01*
X6507096D01*
Y2000710D01*
D02*
G37*
G36*
X9756364Y1805612D02*
X9756376D01*
Y1699212D01*
X9756364D01*
Y1585712D01*
X9666361D01*
Y1699212D01*
X9636364D01*
Y1585712D01*
X9546361D01*
Y1699212D01*
X9516364D01*
Y1585712D01*
X9426362D01*
Y1699212D01*
X9396364D01*
Y1585712D01*
X9306362D01*
Y1699212D01*
X9276364D01*
Y1585712D01*
X9186362D01*
Y1699212D01*
X9156365D01*
Y1585712D01*
X9066362D01*
Y1699212D01*
X9036365D01*
Y1585712D01*
X8946363D01*
Y1805711D01*
X9036365D01*
Y1805612D01*
X9066362D01*
Y1805711D01*
X9156365D01*
Y1805612D01*
X9186362D01*
Y1805711D01*
X9276364D01*
Y1805612D01*
X9306362D01*
Y1805711D01*
X9396364D01*
Y1805612D01*
X9426362D01*
Y1805711D01*
X9516364D01*
Y1805612D01*
X9546361D01*
Y1805711D01*
X9636364D01*
Y1805612D01*
X9666361D01*
Y1805711D01*
X9756364D01*
Y1805612D01*
D02*
G37*
G36*
X8614278D02*
X8614291D01*
Y1699212D01*
X8614278D01*
Y1585712D01*
X8524276D01*
Y1699212D01*
X8494278D01*
Y1585712D01*
X8404276D01*
Y1699212D01*
X8374278D01*
Y1585712D01*
X8284276D01*
Y1699212D01*
X8254279D01*
Y1585712D01*
X8164276D01*
Y1699212D01*
X8134279D01*
Y1585712D01*
X8044277D01*
Y1699212D01*
X8014279D01*
Y1585712D01*
X7924277D01*
Y1699212D01*
X7894279D01*
Y1585712D01*
X7804277D01*
Y1805711D01*
X7894279D01*
Y1805612D01*
X7924277D01*
Y1805711D01*
X8014279D01*
Y1805612D01*
X8044277D01*
Y1805711D01*
X8134279D01*
Y1805612D01*
X8164276D01*
Y1805711D01*
X8254279D01*
Y1805612D01*
X8284276D01*
Y1805711D01*
X8374278D01*
Y1805612D01*
X8404276D01*
Y1805711D01*
X8494278D01*
Y1805612D01*
X8524276D01*
Y1805711D01*
X8614278D01*
Y1805612D01*
D02*
G37*
G36*
X6469604D02*
X6469616D01*
Y1699212D01*
X6469604D01*
Y1585712D01*
X6379601D01*
Y1699212D01*
X6349604D01*
Y1585712D01*
X6259601D01*
Y1699212D01*
X6229604D01*
Y1585712D01*
X6139602D01*
Y1699212D01*
X6109604D01*
Y1585712D01*
X6019602D01*
Y1699212D01*
X5989604D01*
Y1585712D01*
X5899602D01*
Y1699212D01*
X5869605D01*
Y1585712D01*
X5779602D01*
Y1699212D01*
X5749605D01*
Y1585712D01*
X5659603D01*
Y1805711D01*
X5749605D01*
Y1805612D01*
X5779602D01*
Y1805711D01*
X5869605D01*
Y1805612D01*
X5899602D01*
Y1805711D01*
X5989604D01*
Y1805612D01*
X6019602D01*
Y1805711D01*
X6109604D01*
Y1805612D01*
X6139602D01*
Y1805711D01*
X6229604D01*
Y1805612D01*
X6259601D01*
Y1805711D01*
X6349604D01*
Y1805612D01*
X6379601D01*
Y1805711D01*
X6469604D01*
Y1805612D01*
D02*
G37*
G36*
X8916368Y1585694D02*
X8826365D01*
Y1805694D01*
X8916368D01*
Y1585694D01*
D02*
G37*
G36*
X7774282D02*
X7684280D01*
Y1805694D01*
X7774282D01*
Y1585694D01*
D02*
G37*
G36*
X5629608D02*
X5539605D01*
Y1805694D01*
X5629608D01*
Y1585694D01*
D02*
G37*
D15*
X5438140Y3533140D02*
D03*
X2186940D02*
D03*
X8719820D02*
D03*
X9499600Y520700D02*
D03*
X9499384Y6000012D02*
D03*
X499366Y500001D02*
D03*
Y6000012D02*
D03*
D16*
X1475740Y4005361D02*
D03*
Y4150361D02*
D03*
X1170940Y1424940D02*
D03*
Y1279940D02*
D03*
X1323340Y1424940D02*
D03*
Y1279940D02*
D03*
X1475740D02*
D03*
Y1424940D02*
D03*
X1628140Y1279940D02*
D03*
Y1424940D02*
D03*
X4417060Y1279940D02*
D03*
Y1424940D02*
D03*
X4569460D02*
D03*
Y1279940D02*
D03*
X4721860D02*
D03*
Y1424940D02*
D03*
X4874260D02*
D03*
Y1279940D02*
D03*
X1170940Y4005361D02*
D03*
Y4150361D02*
D03*
X1323340Y4005361D02*
D03*
Y4150361D02*
D03*
X1628140Y4150361D02*
D03*
Y4005361D02*
D03*
X4417060Y4005361D02*
D03*
Y4150361D02*
D03*
X4569460D02*
D03*
Y4005361D02*
D03*
X4721860D02*
D03*
Y4150361D02*
D03*
X4874260D02*
D03*
Y4005361D02*
D03*
X7706360Y4150361D02*
D03*
Y4005361D02*
D03*
X7858760D02*
D03*
Y4150361D02*
D03*
X8011160Y4005361D02*
D03*
Y4150361D02*
D03*
X7858760Y1279940D02*
D03*
Y1424940D02*
D03*
X6604000Y1873360D02*
D03*
Y1728360D02*
D03*
X7706360Y1424940D02*
D03*
Y1279940D02*
D03*
X8163560Y4005361D02*
D03*
Y4150361D02*
D03*
X8011160Y1424940D02*
D03*
Y1279940D02*
D03*
X8163560D02*
D03*
Y1424940D02*
D03*
X9893300Y1728360D02*
D03*
Y1873360D02*
D03*
X3352800Y1728360D02*
D03*
Y1873360D02*
D03*
%TF.MD5,68ec2421d92a1441ed07512e9a3ae32e*%
M02*
