M48
;Layer_Color=9474304
;FILE_FORMAT=4:4
METRIC,LZ
;TYPE=PLATED
T01F00S00C0.3000
T02F00S00C0.7112
T03F00S00C0.7620
T04F00S00C1.0160
T05F00S00C3.2000
%
T01
X00134528Y00040656
X00147028Y00040656
X00159258Y00040132
X00171704Y00039878
X0019177Y00036322
X00199898Y00036322
X00207518Y00036322
X00213268Y00036322
X00221396Y00036322
X00229016Y00036322
X00248666Y00040656
X00261166Y00040656
X00273666Y00040656
X00286166Y00040656
X00298666Y00040656
X0031115Y0004064
X00330908Y00036322
X00339036Y00036322
X00346656Y00036322
X00351952Y00036322
X0036008Y00036322
X003677Y00036322
X00387096Y00040894
X00386334Y00086106
X00373434Y00086102
X00370748Y00070612
X00362264Y00102661
X00361696Y00109474
X0035941Y0011811
X00366014Y0011811
X00372364Y0011811
X0037211Y0013081
X0036576Y0013081
X00359156Y0013081
X00359156Y00143002
X0036576Y00143002
X0037211Y00143002
X00372157Y00158311
X00357418Y00158668
X00352806Y0017399
X00362458Y00174244
X00377698Y00172974
X0038227Y00149884
X0038735Y0011811
X0038735Y0010795
X00377526Y00105141
X00315435Y00103124
X00315435Y0009525
X00316992Y00128016
X00316992Y00138176
X00316992Y00148336
X00316992Y00158242
X00324612Y00165608
X00332486Y00153162
X00332486Y00143256
X00332486Y0013335
X00296545Y00128397
X00290462Y00135636
X00290346Y00120396
X00282125Y00114015
X00281998Y00127958
X0028194Y00143256
X0028194Y0015875
X00281686Y00173228
X00290346Y0016637
X00337312Y0017399
X00355092Y00232156
X00355092Y00236474
X00355092Y00240792
X00369343Y00240791
X00369344Y00236473
X00369346Y00232155
X00393096Y00257555
X00393098Y00261873
X00393099Y00266191
X00369346Y00282955
X00369344Y00287273
X00369343Y00291591
X00355092Y00291592
X00355092Y00287274
X00355092Y00282956
X00355092Y00333756
X00355092Y00338074
X00355092Y00342392
X00369343Y00342391
X00369344Y00338073
X00369346Y00333755
X00393099Y00316991
X00393098Y00312673
X00393096Y00308355
X00393096Y00359155
X00393098Y00363473
X00393099Y00367791
X00369346Y00384555
X00369344Y00388873
X00369343Y00393191
X00355092Y00393192
X00355092Y00388874
X00355092Y00384556
X00080198Y00367538
X00080198Y0036322
X00080198Y00358902
X00065944Y00358901
X00065946Y00363219
X00065947Y00367537
X00042194Y00384301
X00042192Y00388619
X00042191Y00392937
X0002794Y00392938
X0002794Y0038862
X0002794Y00384302
X0002794Y00342138
X0002794Y0033782
X0002794Y00333502
X00042194Y00333501
X00042192Y00337819
X00042191Y00342137
X00065947Y00316737
X00065946Y00312419
X00065944Y00308101
X00080198Y00308102
X00080198Y0031242
X00080198Y00316738
X00080198Y00265938
X00080198Y0026162
X00080198Y00257302
X00065944Y00257301
X00065946Y00261619
X00065947Y00265937
X00042194Y00282701
X00042192Y00287019
X00042191Y00291337
X0002794Y00291338
X0002794Y0028702
X0002794Y00282702
X0002794Y00240538
X0002794Y0023622
X0002794Y00231902
X00042194Y00231901
X00042192Y00236219
X00042191Y00240537
X00106288Y00237744
X00112752Y00245364
X00120904Y00239522
X00112752Y0022987
X00136144Y0023622
X00161776Y00246634
X00168888Y00246634
X00156718Y00274828
X0014986Y00281412
X00203454Y00220726
X00214262Y00075776
X00243328Y0007259
X0023715Y00066348
X00247908Y00093526
X00254086Y00099768
X00278498Y0009034
X00288266Y00105156
X00331092Y00010778
X00338712Y00010778
X0034684Y00010778
X00352136Y00010778
X00359756Y00010778
X00367884Y00010778
X002292Y00010778
X00221072Y00010778
X00213452Y00010778
X00207702Y00010778
X00199574Y00010778
X00191954Y00010778
X00173228Y00079664
X0015748Y0007941
X00417322Y00079756
X00429998Y00079756
X004445Y00079502
X00438259Y00087659
X004445Y0009525
X00429998Y00094996
X00417322Y00094996
X00403352Y00103124
X00403352Y00113284
X00402336Y0012319
X00423672Y00129921
X00423672Y00146458
X0043815Y00146458
X00444442Y00137668
X00444529Y00122203
X00483357Y00097486
X0050413Y00073357
X0052705Y00078716
X00556514Y00078716
X00579398Y00073152
X00572468Y0004145
X00572468Y00032306
X00572468Y00023162
X005618Y00023162
X005618Y00032306
X005618Y0004145
X00546608Y0004191
X00546608Y00032258
X00546608Y00022606
X0058697Y00022606
X00587423Y00042085
X00606806Y0003937
X00606806Y00025146
X00643954Y00018873
X0067437Y00016793
X0068961Y00016793
X0072009Y00016793
X00747522Y00038832
X00741312Y00045042
X0075565Y00044958
X00763556Y00038726
X00778256Y00016286
X00785368Y00016286
X00793242Y00016794
X00791464Y0007239
X00791464Y00079502
X00791464Y0008763
X00791464Y00094742
X00791464Y00102616
X00791464Y00109728
X00780796Y00090932
X00773684Y00090932
X00762254Y0009017
X00762254Y0009652
X00762254Y00102616
X00762254Y00108712
X00767586Y00123222
X00761238Y0013081
X00767586Y00138716
X00788508Y00154464
X00720598Y00162052
X00710438Y00162052
X00701548Y00162052
X00691894Y00162078
X00674116Y00162052
X00668054Y00169164
X00672054Y0017919
X00678264Y001854
X00684506Y0017907
X00700894Y0017919
X00707104Y001854
X00713346Y0017907
X00713346Y0014478
X00700926Y00144614
X0068439Y0014478
X0067197Y00144614
X006492Y00144272
X0063678Y00144748
X0063678Y00179038
X006492Y0017907
X00579398Y00179832
X0055626Y00174268
X0052705Y00174014
X00504166Y00179578
X00483362Y00155448
X00505657Y00126492
X00541274Y00126492
X00578612Y00126492
X00599948Y00155448
X00600202Y00097536
X00642366Y00084328
X00649478Y00084328
X00657352Y00084836
X00664464Y00084836
X00672592Y00084836
X00679704Y00084836
X00695036Y0008068
X0068961Y00064008
X00680212Y00064008
X00684784Y0005842
X00680212Y00053086
X0068961Y00052832
X00660908Y00091948
X00660908Y0009906
X00681482Y00231902
X00681482Y0023622
X00681482Y00240538
X00695733Y00240537
X00695734Y00236219
X00695736Y00231901
X00719486Y00257301
X00719488Y00261619
X00719489Y00265937
X0073374Y00265938
X0073374Y0026162
X0073374Y00257302
X00765924Y0024511
X0075946Y0023749
X00765924Y00229616
X00774192Y00239268
X00788162Y0023622
X0073374Y00308102
X0073374Y0031242
X0073374Y00316738
X00719489Y00316737
X00719488Y00312419
X00719486Y00308101
X00695733Y00291337
X00695734Y00287019
X00695736Y00282701
X00681482Y00282702
X00681482Y0028702
X00681482Y00291338
X00681482Y00333502
X00681482Y0033782
X00681482Y00342138
X00695733Y00342137
X00695734Y00337819
X00695736Y00333501
X00719486Y00358901
X00719488Y00363219
X00719489Y00367537
X0073374Y00367538
X0073374Y0036322
X0073374Y00358902
X00695736Y00384301
X00695734Y00388619
X00695733Y00392937
X00681482Y00392938
X00681482Y0038862
X00681482Y00384302
X0040735Y00367792
X0040735Y00363474
X0040735Y00359156
X0040735Y00316992
X0040735Y00312674
X0040735Y00308356
X0040735Y00266192
X0040735Y00261874
X0040735Y00257556
X00439258Y00245618
X00447548Y0024003
X0046101Y00237082
X00439258Y00230124
X00432794Y00237998
X00487404Y00246634
X00494516Y00246634
X00482092Y0027559
X0047498Y00282226
X0052397Y00232156
X0051034Y00036322
X0050272Y00036322
X00494592Y00036322
X0047498Y00041402
X00462026Y00041402
X00449326Y00041402
X00437134Y00041402
X00424688Y00041402
X00412496Y00041148
X00399796Y00040894
X00494776Y00010778
X00502396Y00010778
X00510524Y00010778
X00800354Y00016794
X00808482Y00016794
X00815594Y00016794
X00796798Y00023906
X00796798Y00031018
X00895096Y00016764
X00902208Y00016764
X00909574Y00016764
X00916686Y00016764
X00920242Y00011684
X0091313Y00011684
X00905764Y00011684
X00898652Y00011684
X00898398Y0008636
X0090551Y0008636
X00912876Y0008636
X00919988Y0008636
X00923544Y00081026
X00916178Y00081026
X00909066Y00081026
X00909066Y00091694
X00901954Y00091694
X00898398Y00097282
X0090551Y00097282
X00912876Y00097282
X00919988Y00097282
X009271Y00097282
X00934466Y00097282
X00941578Y00097282
X00938022Y00091694
X00945134Y00091694
X00930656Y00091694
X00923544Y00091694
X00916432Y00091694
X00861568Y0011938
X008509Y00119634
X0084074Y00119634
X0084074Y00134366
X00851154Y00134366
X00861568Y00134366
X00861568Y00149352
X00851154Y00149352
X0084074Y00149352
X0087399Y00169958
X00850382Y00232156
X00820928Y00246634
X00813816Y00246634
X00809498Y0027432
X00802132Y00280702
X00904864Y00482346
X0091948Y00487426
X0073374Y00418338
X0073374Y0041402
X0073374Y00409702
X00719486Y00409701
X00719488Y00414019
X00719489Y00418337
X0040735Y00418592
X0040735Y00414274
X0040735Y00409956
X00393096Y00409955
X00393098Y00414273
X00393099Y00418591
X00080198Y00418338
X00080198Y0041402
X00080198Y00409702
X00065944Y00409701
X00065946Y00414019
X00065947Y00418337
T02
X0026Y0033
X0027Y0034
X0027Y0036
X0028Y0035
X0028Y0037
X003Y0037
X0029Y0038
X0031Y0038
X003Y0039
X0032Y0039
X0034Y0039
X0033Y0038
X0034Y0037
X0032Y0037
X0031Y0036
X0032Y0035
X0033Y0036
X0034Y0035
X0033Y0034
X0031Y0034
X003Y0035
X0029Y0036
X0029Y0034
X003Y0033
X0028Y0033
X0032Y0033
X0026Y0037
X0025Y0038
X0027Y0038
X0028Y0039
X0052Y0039
X0054Y0039
X0056Y0039
X0058Y0039
X006Y0039
X006Y0037
X0058Y0037
X0059Y0038
X0059Y0036
X0058Y0035
X006Y0035
X0061Y0036
X0061Y0038
X0061Y0034
X006Y0033
X0058Y0033
X0059Y0034
X0085Y0039
X0087Y0039
X0089Y0039
X009Y0038
X0091Y0037
X0091Y0035
X0091Y0033
X0091Y0039
X009Y004
X0088Y004
X0086Y004
X0086Y0042
X0085Y0041
X0085Y0043
X0086Y0044
X0087Y0043
X0088Y0044
X0088Y0042
X0087Y0041
X0089Y0041
X0089Y0043
X009Y0044
X009Y0042
X0091Y0043
X0091Y0045
X0089Y0045
X0087Y0045
X0085Y0045
X0091Y0041
X0061Y004
X0059Y004
X0057Y004
X0055Y004
X0054Y0041
X0054Y0043
X0054Y0045
X0053Y0044
X0052Y0045
X0052Y0043
X0053Y0042
X0052Y0041
X0053Y004
X0033Y004
X0031Y004
X0029Y004
X0028Y0041
X0027Y0042
X0028Y0043
X0028Y0045
X0027Y0044
X0026Y0045
X0026Y0043
X0025Y0042
X0026Y0041
X0027Y004
X0025Y004
X0023Y004
X0021Y004
X0019Y004
X002Y0041
X0022Y0041
X0021Y0042
X0023Y0042
X0024Y0043
X0022Y0043
X0022Y0045
X0023Y0044
X0025Y0044
X0024Y0045
X0024Y0041
X0019Y0042
X002Y0043
X0021Y0044
T03
X0000718Y00092272
X00024388Y00092272
X00041597Y00092272
X00058805Y00092272
X00076014Y00092272
X00093223Y00092272
X00110431Y00092272
X0012764Y00092272
X00144848Y00092272
X00144848Y00111322
X0012764Y00111322
X00110431Y00111322
X00093223Y00111322
X00076014Y00111322
X00058805Y00111322
X00041597Y00111322
X00024388Y00111322
X0000718Y00111322
X00849192Y00505208
X00849192Y00522416
X00849192Y00539625
X00849192Y00556833
X00849192Y00574042
X00849192Y0059125
X00849192Y00608459
X00849192Y00625667
X00849192Y00642876
X00868242Y00642876
X00868242Y00625667
X00868242Y00608459
X00868242Y0059125
X00868242Y00574042
X00868242Y00556833
X00868242Y00539625
X00868242Y00522416
X00868242Y00505208
X00764243Y00505208
X00764243Y00522416
X00764243Y00539625
X00764243Y00556833
X00764243Y00574042
X00764243Y0059125
X00764243Y00608459
X00764243Y00625667
X00764243Y00642876
X00745193Y00642876
X00745193Y00625667
X00745193Y00608459
X00745193Y0059125
X00745193Y00574042
X00745193Y00556833
X00745193Y00539625
X00745193Y00522416
X00745193Y00505208
X00636962Y00505208
X00636962Y00522416
X00636962Y00539625
X00636962Y00556833
X00636962Y00574042
X00636962Y0059125
X00636962Y00608459
X00636962Y00625667
X00636962Y00642876
X00617912Y00642876
X00617912Y00625667
X00617912Y00608459
X00617912Y0059125
X00617912Y00574042
X00617912Y00556833
X00617912Y00539625
X00617912Y00522416
X00617912Y00505208
X00532962Y00505208
X00532962Y00522416
X00532962Y00539625
X00532962Y00556833
X00532962Y00574042
X00532962Y0059125
X00532962Y00608459
X00532962Y00625667
X00532962Y00642876
X00513912Y00642876
X00513912Y00625667
X00513912Y00608459
X00513912Y0059125
X00513912Y00574042
X00513912Y00556833
X00513912Y00539625
X00513912Y00522416
X00513912Y00505208
X00386956Y00505208
X00386956Y00522416
X00386956Y00539625
X00386956Y00556833
X00386956Y00574042
X00386956Y0059125
X00386956Y00608459
X00386956Y00625667
X00386956Y00642876
X00367906Y00642876
X00367906Y00625667
X00367906Y00608459
X00367906Y0059125
X00367906Y00574042
X00367906Y00556833
X00367906Y00539625
X00367906Y00522416
X00367906Y00505208
X00282956Y00556833
X00282956Y00574042
X00282956Y0059125
X00282956Y00608459
X00282956Y00625667
X00282956Y00642876
X00263906Y00642876
X00263906Y00625667
X00263906Y00608459
X00263906Y0059125
X00263906Y00574042
X00263906Y00556833
X00144848Y00558362
X0012764Y00558362
X00110431Y00558362
X00093223Y00558362
X00076014Y00558362
X00058805Y00558362
X00041597Y00558362
X00024388Y00558362
X0000718Y00558362
X0000718Y00539312
X00024388Y00539312
X00041597Y00539312
X00058805Y00539312
X00076014Y00539312
X00093223Y00539312
X00110431Y00539312
X0012764Y00539312
X00144848Y00539312
T04
X00036475Y00026683
X00063399Y00026683
X00076861Y0005
X00063399Y00073317
X00036475Y00073317
X00023013Y0005
X00205232Y00329997
X00232156Y00329997
X00245618Y00353314
X00232156Y00376631
X00205232Y00376631
X0019177Y00353314
X0051689Y00353314
X00530352Y00329997
X00557276Y00329997
X00570738Y00353314
X00557276Y00376631
X00530352Y00376631
X0085852Y00376631
X00885444Y00376631
X00898906Y00353314
X00885444Y00329997
X0085852Y00329997
X00845058Y00353314
X00936476Y00073317
X009634Y00073317
X00976862Y0005
X009634Y00026683
X00936476Y00026683
X00923014Y0005
X00936476Y00576684
X009634Y00576684
X00976862Y00600001
X009634Y00623318
X00936476Y00623318
X00923014Y00600001
X00076861Y00600001
X00063399Y00623318
X00036475Y00623318
X00023013Y00600001
X00036475Y00576684
X00063399Y00576684
T05
X00049937Y0005
X00218694Y00353314
X00543814Y00353314
X00871982Y00353314
X00949938Y0005
X00949938Y00600001
X00049937Y00600001
M30
