M48
;Layer_Color=9474304
;FILE_FORMAT=4:4
METRIC,LZ
;TYPE=PLATED
T01F00S00C0.3000
T02F00S00C0.7112
T03F00S00C0.7620
T04F00S00C1.0160
T05F00S00C3.2000
%
T01
X00134528Y00040656
X00147028
X00159258Y00040132
X00171704Y00039878
X0019177Y00036322
X00199898
X00213268
X00221396
X00229016
X00248666Y00040656
X00261166
X00273666
X00286166
X00298666
X0031115Y0004064
X00330908Y00036322
X00339036
X00351952
X0036008
X003677
X00387096Y00040894
X00386334Y00086106
X00373434Y00086102
X00370748Y00070612
X00362264Y00102661
X00361696Y00109474
X0035941Y0011811
X00366014
X00372364
X0037211Y0013081
X0036576
X00359156
Y00143002
X0036576
X0037211
X00372157Y00158311
X00357418Y00158668
X00352806Y0017399
X00362458Y00174244
X00377698Y00172974
X0038227Y00149884
X0038735Y0011811
Y0010795
X00377526Y00105141
X00315435Y00103124
Y0009525
X00316992Y00128016
Y00138176
Y00148336
Y00158242
X00324612Y00165608
X00332486Y00153162
Y00143256
Y0013335
X00296545Y00128397
X00290462Y00135636
X00290346Y00120396
X00282125Y00114015
X00281998Y00127958
X0028194Y00143256
Y0015875
X00281686Y00173228
X00290346Y0016637
X00337312Y0017399
X00355092Y00232156
Y00240792
X00369343Y00240791
X00369346Y00232155
X00393096Y00257555
X00393099Y00266191
X00369346Y00282955
X00369343Y00291591
X00355092Y00291592
Y00282956
Y00333756
Y00342392
X00369343Y00342391
X00369346Y00333755
X00393099Y00316991
X00393096Y00308355
Y00359155
X00393099Y00367791
X00369346Y00384555
X00369343Y00393191
X00355092Y00393192
Y00384556
X00080198Y00367538
Y00358902
X00065944Y00358901
X00065947Y00367537
X00042194Y00384301
X00042191Y00392937
X0002794Y00392938
Y00384302
Y00342138
Y00333502
X00042194Y00333501
X00042191Y00342137
X00065947Y00316737
X00065944Y00308101
X00080198Y00308102
Y00316738
Y00265938
Y00257302
X00065944Y00257301
X00065947Y00265937
X00042194Y00282701
X00042191Y00291337
X0002794Y00291338
Y00282702
Y00240538
Y00231902
X00042194Y00231901
X00042191Y00240537
X00106288Y00237744
X00112752Y00245364
X00120904Y00239522
X00112752Y0022987
X00136144Y0023622
X00161776Y00246634
X00168888
X00156718Y00274828
X0014986Y00281412
X00203454Y00220726
X00214262Y00075776
X00243328Y0007259
X0023715Y00066348
X00247908Y00093526
X00254086Y00099768
X00278498Y0009034
X00288266Y00105156
X00331092Y00010778
X00338712
X0034684
X00359756
X00367884
X002292
X00221072
X00207702
X00199574
X00191954
X00173228Y00079664
X0015748Y0007941
X00417322Y00079756
X00429998
X004445Y00079502
X00438259Y00087659
X004445Y0009525
X00429998Y00094996
X00417322
X00403352Y00103124
Y00113284
X00402336Y0012319
X00423672Y00129921
Y00146458
X0043815
X00444442Y00137668
X00444529Y00122203
X00483357Y00097486
X0050413Y00073357
X0052705Y00078716
X00556514
X00579398Y00073152
X00572468Y0004145
Y00032306
Y00023162
X005618
Y00032306
Y0004145
X00546608Y0004191
Y00032258
Y00022606
X0058697
X00587423Y00042085
X00606806Y0003937
Y00025146
X00643954Y00018873
X0067437Y00016793
X0068961
X0072009
X00747522Y00038832
X00741312Y00045042
X0075565Y00044958
X00763556Y00038726
X00778256Y00016286
X00785368
X00793242Y00016794
X00791464Y0007239
Y00079502
Y0008763
Y00094742
Y00102616
Y00109728
X00780796Y00090932
X00773684
X00762254Y0009017
Y0009652
Y00102616
Y00108712
X00767586Y00123222
X00761238Y0013081
X00767586Y00138716
X00788508Y00154464
X00720633Y00162051
X00723392Y00171196
X00713346Y0017907
X00700894Y0017919
X00707104Y001854
X0069469Y00171196
X00691729Y00162033
X00684506Y0017907
X00672054Y0017919
X00674116Y00169926
X00668528
X00678264Y001854
X006492Y0017907
X0063678Y00179038
X0063678Y00144748
X006492Y00144272
X0067197Y00144614
X0068439Y0014478
X00700926Y00144614
X00713346Y0014478
X00695036Y0008068
X00679704Y00084836
X00672592
X00664464
X00657352
X00649478Y00084328
X00642366
X00660908Y00091948
Y0009906
X00680212Y00064008
X0068961
X00684784Y0005842
X00680212Y00053086
X0068961Y00052832
X00600202Y00097536
X00578612Y00126492
X00541274
X00505657
X00483362Y00155448
X00504166Y00179578
X0052705Y00174014
X0055626Y00174268
X00579398Y00179832
X00599948Y00155448
X0052397Y00232156
X00494516Y00246634
X00487404
X00482092Y0027559
X0047498Y00282226
X0046101Y00237082
X00447548Y0024003
X00439258Y00245618
X00432794Y00237998
X00439258Y00230124
X0040735Y00257556
Y00266192
Y00308356
Y00316992
Y00359156
Y00367792
X00681482Y00384302
Y00392938
X00695733Y00392937
X00695736Y00384301
X00719489Y00367537
X00719486Y00358901
X0073374Y00358902
Y00367538
Y00316738
Y00308102
X00719486Y00308101
X00719489Y00316737
X00695736Y00333501
X00695733Y00342137
X00681482Y00342138
Y00333502
Y00291338
Y00282702
X00695736Y00282701
X00695733Y00291337
X00719489Y00265937
X00719486Y00257301
X0073374Y00257302
Y00265938
X00765924Y0024511
X0075946Y0023749
X00765924Y00229616
X00774192Y00239268
X00788162Y0023622
X00695736Y00231901
X00695733Y00240537
X00681482Y00240538
Y00231902
X0051034Y00036322
X0050272
X00494592
X0047498Y00041402
X00462026
X00449326
X00437134
X00424688
X00412496Y00041148
X00399796Y00040894
X00494776Y00010778
X00502396
X00510524
X00800354Y00016794
X00808482
X00815594
X00796798Y00023906
Y00031018
X00895096Y00016764
X00902208
X00909574
X00916686
X00920242Y00011684
X0091313
X00905764
X00898652
X00898398Y0008636
X0090551
X00912876
X00919988
X00923544Y00081026
X00916178
X00909066
Y00091694
X00901954
X00898398Y00097282
X0090551
X00912876
X00919988
X009271
X00934466
X00941578
X00938022Y00091694
X00945134
X00930656
X00923544
X00916432
X00861568Y0011938
X008509Y00119634
X0084074
Y00134366
X00851154
X00861568
Y00149352
X00851154
X0084074
X0087399Y00169958
X00850382Y00232156
X00820928Y00246634
X00813816
X00809498Y0027432
X00802132Y00280702
X00904864Y00482346
X0091948Y00487426
X0073374Y00418338
Y00409702
X00719486Y00409701
X00719489Y00418337
X0040735Y00418592
Y00409956
X00393096Y00409955
X00393099Y00418591
X00080198Y00418338
Y00409702
X00065944Y00409701
X00065947Y00418337
T02
X0026Y0033
X0027Y0034
Y0036
X0028Y0035
Y0037
X003
X0029Y0038
X0031
X003Y0039
X0032
X0034
X0033Y0038
X0034Y0037
X0032
X0031Y0036
X0032Y0035
X0033Y0036
X0034Y0035
X0033Y0034
X0031
X003Y0035
X0029Y0036
Y0034
X003Y0033
X0028
X0032
X0026Y0037
X0025Y0038
X0027
X0028Y0039
X0052
X0054
X0056
X0058
X006
Y0037
X0058
X0059Y0038
Y0036
X0058Y0035
X006
X0061Y0036
Y0038
Y0034
X006Y0033
X0058
X0059Y0034
X0085Y0039
X0087
X0089
X009Y0038
X0091Y0037
Y0035
Y0033
Y0039
X009Y004
X0088
X0086
Y0042
X0085Y0041
Y0043
X0086Y0044
X0087Y0043
X0088Y0044
Y0042
X0087Y0041
X0089
Y0043
X009Y0044
Y0042
X0091Y0043
Y0045
X0089Y0045
X0087
X0085
X0091Y0041
X0061Y004
X0059
X0057
X0055
X0054Y0041
Y0043
Y0045
X0053Y0044
X0052Y0045
Y0043
X0053Y0042
X0052Y0041
X0053Y004
X0033
X0031
X0029
X0028Y0041
X0027Y0042
X0028Y0043
Y0045
X0027Y0044
X0026Y0045
Y0043
X0025Y0042
X0026Y0041
X0027Y004
X0025
X0023
X0021
X0019
X002Y0041
X0022
X0021Y0042
X0023
X0024Y0043
X0022
Y0045
X0023Y0044
X0025
X0024Y0045
Y0041
X0019Y0042
X002Y0043
X0021Y0044
T03
X0000718Y00092272
X00024388
X00041597
X00058805
X00076014
X00093223
X00110431
X0012764
X00144848
X0012764Y00111322
X00110431
X00093223
X00076014
X00058805
X00041597
X00024388
X0000718
X00849192Y00522416
Y00539625
Y00556833
Y00574042
Y0059125
Y00608459
Y00625667
Y00642876
X00868242
Y00625667
Y00608459
Y0059125
Y00574042
Y00556833
Y00539625
Y00522416
Y00505208
X00764243Y00522416
Y00539625
Y00556833
Y00574042
Y0059125
Y00608459
Y00625667
Y00642876
X00745193
Y00625667
Y00608459
Y0059125
Y00574042
Y00556833
Y00539625
Y00522416
Y00505208
X00636962Y00505208
Y00522416
Y00539625
Y00556833
Y00574042
Y0059125
Y00608459
Y00625667
Y00642876
X00617912
Y00625667
Y00608459
Y0059125
Y00574042
Y00556833
Y00539625
Y00522416
X00532962Y00522416
Y00539625
Y00556833
Y00574042
Y0059125
Y00608459
Y00625667
Y00642876
X00513912
Y00625667
Y00608459
Y0059125
Y00574042
Y00556833
Y00539625
Y00522416
Y00505208
X00386956Y00505208
Y00522416
Y00539625
Y00556833
Y00574042
Y0059125
Y00608459
Y00625667
Y00642876
X00367906
Y00625667
Y00608459
Y0059125
Y00574042
Y00556833
Y00539625
Y00522416
X00282956Y00556833
Y00574042
Y0059125
Y00608459
Y00625667
Y00642876
X00263906
Y00625667
Y00608459
Y0059125
Y00574042
Y00556833
X00144848Y00558362
X0012764
X00110431
X00093223
X00076014
X00058805
X00041597
X00024388
X0000718
Y00539312
X00024388
X00041597
X00058805
X00076014
X00093223
X00110431
X0012764
T04
X00036475Y00026683
X00063399
X00076861Y0005
X00063399Y00073317
X00036475
X00023013Y0005
X00205232Y00329997
X00232156
X00245618Y00353314
X00232156Y00376631
X00205232
X0019177Y00353314
X0051689
X00530352Y00329997
X00557276
X00570738Y00353314
X00557276Y00376631
X00530352
X0085852
X00885444
X00898906Y00353314
X00885444Y00329997
X0085852
X00845058Y00353314
X00936476Y00073317
X009634
X00976862Y0005
X009634Y00026683
X00936476
X00923014Y0005
X00936476Y00576684
X009634
X00976862Y00600001
X009634Y00623318
X00936476
X00923014Y00600001
X00076861
X00063399Y00623318
X00036475
X00023013Y00600001
X00036475Y00576684
X00063399
T05
X00049937Y0005
X00218694Y00353314
X00543814
X00871982
X00949938Y0005
Y00600001
X00049937
M30
