%TF.GenerationSoftware,Altium Limited,Altium Designer,24.0.1 (36)*%
G04 Layer_Color=8421504*
%FSLAX45Y45*%
%MOMM*%
%TF.SameCoordinates,AD55DBC5-7C0D-423F-88F8-B269A012BA9E*%
%TF.FilePolarity,Positive*%
%TF.FileFunction,Paste,Top*%
%TF.Part,Single*%
G01*
G75*
%TA.AperFunction,SMDPad,CuDef*%
%ADD10R,0.75000X0.85000*%
%ADD11R,0.80000X1.00000*%
G04:AMPARAMS|DCode=12|XSize=1mm|YSize=0.8mm|CornerRadius=0mm|HoleSize=0mm|Usage=FLASHONLY|Rotation=90.000|XOffset=0mm|YOffset=0mm|HoleType=Round|Shape=Octagon|*
%AMOCTAGOND12*
4,1,8,0.20000,0.50000,-0.20000,0.50000,-0.40000,0.30000,-0.40000,-0.30000,-0.20000,-0.50000,0.20000,-0.50000,0.40000,-0.30000,0.40000,0.30000,0.20000,0.50000,0.0*
%
%ADD12OCTAGOND12*%

%ADD13R,0.30000X0.80000*%
%ADD14R,2.40000X1.52000*%
%ADD15R,3.00000X3.00000*%
%ADD16O,0.30000X1.00000*%
%ADD17R,0.30000X1.00000*%
%ADD18O,1.00000X0.30000*%
%ADD19R,0.85000X0.75000*%
%ADD20R,1.27000X0.88900*%
%TA.AperFunction,ConnectorPad*%
%ADD21R,0.80000X1.60000*%
%ADD22R,2.00000X3.00000*%
%TA.AperFunction,SMDPad,CuDef*%
%ADD27R,3.70000X1.10000*%
%ADD28R,1.65000X1.40000*%
G04:AMPARAMS|DCode=30|XSize=0.22mm|YSize=0.81mm|CornerRadius=0.055mm|HoleSize=0mm|Usage=FLASHONLY|Rotation=270.000|XOffset=0mm|YOffset=0mm|HoleType=Round|Shape=RoundedRectangle|*
%AMROUNDEDRECTD30*
21,1,0.22000,0.70000,0,0,270.0*
21,1,0.11000,0.81000,0,0,270.0*
1,1,0.11000,-0.35000,-0.05500*
1,1,0.11000,-0.35000,0.05500*
1,1,0.11000,0.35000,0.05500*
1,1,0.11000,0.35000,-0.05500*
%
%ADD30ROUNDEDRECTD30*%
G04:AMPARAMS|DCode=31|XSize=0.22mm|YSize=0.81mm|CornerRadius=0.055mm|HoleSize=0mm|Usage=FLASHONLY|Rotation=0.000|XOffset=0mm|YOffset=0mm|HoleType=Round|Shape=RoundedRectangle|*
%AMROUNDEDRECTD31*
21,1,0.22000,0.70000,0,0,0.0*
21,1,0.11000,0.81000,0,0,0.0*
1,1,0.11000,0.05500,-0.35000*
1,1,0.11000,-0.05500,-0.35000*
1,1,0.11000,-0.05500,0.35000*
1,1,0.11000,0.05500,0.35000*
%
%ADD31ROUNDEDRECTD31*%
%TA.AperFunction,ConnectorPad*%
G04:AMPARAMS|DCode=32|XSize=3mm|YSize=15mm|CornerRadius=0.75mm|HoleSize=0mm|Usage=FLASHONLY|Rotation=90.000|XOffset=0mm|YOffset=0mm|HoleType=Round|Shape=RoundedRectangle|*
%AMROUNDEDRECTD32*
21,1,3.00000,13.50000,0,0,90.0*
21,1,1.50000,15.00000,0,0,90.0*
1,1,1.50000,6.75000,0.75000*
1,1,1.50000,6.75000,-0.75000*
1,1,1.50000,-6.75000,-0.75000*
1,1,1.50000,-6.75000,0.75000*
%
%ADD32ROUNDEDRECTD32*%
G04:AMPARAMS|DCode=33|XSize=5mm|YSize=7mm|CornerRadius=1.25mm|HoleSize=0mm|Usage=FLASHONLY|Rotation=0.000|XOffset=0mm|YOffset=0mm|HoleType=Round|Shape=RoundedRectangle|*
%AMROUNDEDRECTD33*
21,1,5.00000,4.50000,0,0,0.0*
21,1,2.50000,7.00000,0,0,0.0*
1,1,2.50000,1.25000,-2.25000*
1,1,2.50000,-1.25000,-2.25000*
1,1,2.50000,-1.25000,2.25000*
1,1,2.50000,1.25000,2.25000*
%
%ADD33ROUNDEDRECTD33*%
%TA.AperFunction,SMDPad,CuDef*%
%ADD34R,1.40000X1.65000*%
%ADD36O,1.80000X0.55000*%
%ADD37R,1.80000X0.55000*%
%ADD38O,0.60960X2.03200*%
%TA.AperFunction,ConnectorPad*%
G04:AMPARAMS|DCode=39|XSize=3mm|YSize=10mm|CornerRadius=0.75mm|HoleSize=0mm|Usage=FLASHONLY|Rotation=0.000|XOffset=0mm|YOffset=0mm|HoleType=Round|Shape=RoundedRectangle|*
%AMROUNDEDRECTD39*
21,1,3.00000,8.50000,0,0,0.0*
21,1,1.50000,10.00000,0,0,0.0*
1,1,1.50000,0.75000,-4.25000*
1,1,1.50000,-0.75000,-4.25000*
1,1,1.50000,-0.75000,4.25000*
1,1,1.50000,0.75000,4.25000*
%
%ADD39ROUNDEDRECTD39*%
G04:AMPARAMS|DCode=40|XSize=5mm|YSize=7mm|CornerRadius=1.25mm|HoleSize=0mm|Usage=FLASHONLY|Rotation=270.000|XOffset=0mm|YOffset=0mm|HoleType=Round|Shape=RoundedRectangle|*
%AMROUNDEDRECTD40*
21,1,5.00000,4.50000,0,0,270.0*
21,1,2.50000,7.00000,0,0,270.0*
1,1,2.50000,-2.25000,-1.25000*
1,1,2.50000,-2.25000,1.25000*
1,1,2.50000,2.25000,1.25000*
1,1,2.50000,2.25000,-1.25000*
%
%ADD40ROUNDEDRECTD40*%
G04:AMPARAMS|DCode=41|XSize=3mm|YSize=15mm|CornerRadius=0.75mm|HoleSize=0mm|Usage=FLASHONLY|Rotation=0.000|XOffset=0mm|YOffset=0mm|HoleType=Round|Shape=RoundedRectangle|*
%AMROUNDEDRECTD41*
21,1,3.00000,13.50000,0,0,0.0*
21,1,1.50000,15.00000,0,0,0.0*
1,1,1.50000,0.75000,-6.75000*
1,1,1.50000,-0.75000,-6.75000*
1,1,1.50000,-0.75000,6.75000*
1,1,1.50000,0.75000,6.75000*
%
%ADD41ROUNDEDRECTD41*%
%TA.AperFunction,SMDPad,CuDef*%
%ADD42R,1.20000X1.30000*%
%ADD43O,1.00000X2.70000*%
%ADD44R,1.00000X2.70000*%
%ADD45R,5.70000X1.70000*%
%ADD46R,1.39700X1.27000*%
G04:AMPARAMS|DCode=47|XSize=1.397mm|YSize=1.27mm|CornerRadius=0mm|HoleSize=0mm|Usage=FLASHONLY|Rotation=0.000|XOffset=0mm|YOffset=0mm|HoleType=Round|Shape=Octagon|*
%AMOCTAGOND47*
4,1,8,0.69850,-0.31750,0.69850,0.31750,0.38100,0.63500,-0.38100,0.63500,-0.69850,0.31750,-0.69850,-0.31750,-0.38100,-0.63500,0.38100,-0.63500,0.69850,-0.31750,0.0*
%
%ADD47OCTAGOND47*%

%TA.AperFunction,OtherPad,Pad U5-10 (85.74mm,12.337mm)*%
%ADD111R,0.90000X0.70000*%
%TA.AperFunction,OtherPad,Pad U5-11 (84.465mm,12.337mm)*%
%ADD112R,0.90000X0.70000*%
%TA.AperFunction,OtherPad,Pad U5-11 (84.465mm,13.437mm)*%
%ADD113R,0.90000X0.70000*%
%TA.AperFunction,OtherPad,Pad U5-10 (85.74mm,13.437mm)*%
%ADD114R,0.90000X0.70000*%
%TA.AperFunction,OtherPad,Pad U5-11 (84.465mm,14.537mm)*%
%ADD115R,0.90000X0.70000*%
%TA.AperFunction,OtherPad,Pad U5-10 (85.74mm,14.537mm)*%
%ADD116R,0.90000X0.70000*%
G36*
X7248980Y1645520D02*
X7245980D01*
X7227980Y1663520D01*
Y1685520D01*
X7248980D01*
Y1645520D01*
D02*
G37*
G36*
X7183980Y1663520D02*
X7165980Y1645520D01*
X7162980D01*
Y1685520D01*
X7183980D01*
Y1663520D01*
D02*
G37*
G36*
X6959940Y1645340D02*
X6956940D01*
X6938940Y1663340D01*
Y1685340D01*
X6959940D01*
Y1645340D01*
D02*
G37*
G36*
X6894940Y1663340D02*
X6876940Y1645340D01*
X6873940D01*
Y1685340D01*
X6894940D01*
Y1663340D01*
D02*
G37*
G36*
X6796960Y1655420D02*
X6797160D01*
X6797460Y1655320D01*
X6797660D01*
X6797960Y1655220D01*
X6798160Y1655120D01*
X6798460Y1655020D01*
X6798660Y1654820D01*
X6798860Y1654720D01*
X6799060Y1654520D01*
X6799260Y1654420D01*
X6799460Y1654220D01*
X6799660Y1654020D01*
X6799860Y1653820D01*
X6800060Y1653620D01*
X6800160Y1653420D01*
X6800360Y1653220D01*
X6800460Y1653020D01*
X6800660Y1652820D01*
X6800760Y1652520D01*
X6800860Y1652320D01*
X6800960Y1652020D01*
Y1651820D01*
X6801060Y1651520D01*
Y1651320D01*
X6801160Y1651020D01*
Y1650820D01*
Y1650520D01*
Y1638520D01*
Y1638220D01*
Y1638020D01*
X6801060Y1637720D01*
Y1637520D01*
X6800960Y1637220D01*
Y1637020D01*
X6800860Y1636720D01*
X6800760Y1636520D01*
X6800660Y1636220D01*
X6800460Y1636020D01*
X6800360Y1635820D01*
X6800160Y1635620D01*
X6800060Y1635420D01*
X6799860Y1635220D01*
X6799660Y1635020D01*
X6799460Y1634820D01*
X6799260Y1634620D01*
X6799060Y1634520D01*
X6798860Y1634320D01*
X6798660Y1634220D01*
X6798460Y1634020D01*
X6798160Y1633920D01*
X6797960Y1633820D01*
X6797660Y1633720D01*
X6797460D01*
X6797160Y1633620D01*
X6796960D01*
X6796660Y1633520D01*
X6775160D01*
X6759160Y1649520D01*
Y1655520D01*
X6796660D01*
X6796960Y1655420D01*
D02*
G37*
G36*
X6723160Y1649520D02*
X6707160Y1633520D01*
X6685660D01*
X6685360Y1633620D01*
X6685160D01*
X6684860Y1633720D01*
X6684660D01*
X6684360Y1633820D01*
X6684160Y1633920D01*
X6683860Y1634020D01*
X6683660Y1634220D01*
X6683460Y1634320D01*
X6683260Y1634520D01*
X6683060Y1634620D01*
X6682860Y1634820D01*
X6682660Y1635020D01*
X6682460Y1635220D01*
X6682260Y1635420D01*
X6682160Y1635620D01*
X6681960Y1635820D01*
X6681860Y1636020D01*
X6681660Y1636220D01*
X6681560Y1636520D01*
X6681460Y1636720D01*
X6681360Y1637020D01*
Y1637220D01*
X6681260Y1637520D01*
Y1637720D01*
X6681160Y1638020D01*
Y1638220D01*
Y1638520D01*
Y1650520D01*
Y1650820D01*
Y1651020D01*
X6681260Y1651320D01*
Y1651520D01*
X6681360Y1651820D01*
Y1652020D01*
X6681460Y1652320D01*
X6681560Y1652520D01*
X6681660Y1652820D01*
X6681860Y1653020D01*
X6681960Y1653220D01*
X6682160Y1653420D01*
X6682260Y1653620D01*
X6682460Y1653820D01*
X6682660Y1654020D01*
X6682860Y1654220D01*
X6683060Y1654420D01*
X6683260Y1654520D01*
X6683460Y1654720D01*
X6683660Y1654820D01*
X6683860Y1655020D01*
X6684160Y1655120D01*
X6684360Y1655220D01*
X6684660Y1655320D01*
X6684860D01*
X6685160Y1655420D01*
X6685360D01*
X6685660Y1655520D01*
X6723160D01*
Y1649520D01*
D02*
G37*
G36*
X6742160Y1635320D02*
X6742460D01*
X6742660Y1635220D01*
X6742960Y1635120D01*
X6743160Y1635020D01*
X6743460Y1634920D01*
X6743660Y1634820D01*
X6743860Y1634620D01*
X6744060Y1634520D01*
X6744260Y1634320D01*
X6744460Y1634120D01*
X6744660Y1634020D01*
X6754660Y1624020D01*
X6754760Y1623820D01*
X6754960Y1623620D01*
X6755160Y1623420D01*
X6755260Y1623220D01*
X6755460Y1623020D01*
X6755560Y1622820D01*
X6755660Y1622520D01*
X6755760Y1622320D01*
X6755860Y1622020D01*
X6755960Y1621820D01*
Y1621520D01*
X6756060Y1621320D01*
Y1621020D01*
Y1620820D01*
Y1620520D01*
Y1620220D01*
Y1620020D01*
Y1619720D01*
X6755960Y1619520D01*
Y1619220D01*
X6755860Y1619020D01*
X6755760Y1618720D01*
X6755660Y1618520D01*
X6755560Y1618220D01*
X6755460Y1618020D01*
X6755260Y1617820D01*
X6755160Y1617620D01*
X6754960Y1617420D01*
X6754760Y1617220D01*
X6754660Y1617020D01*
X6744660Y1607020D01*
X6744460Y1606920D01*
X6744260Y1606720D01*
X6744060Y1606520D01*
X6743860Y1606420D01*
X6743660Y1606220D01*
X6743460Y1606120D01*
X6743160Y1606020D01*
X6742960Y1605920D01*
X6742660Y1605820D01*
X6742460Y1605720D01*
X6742160D01*
X6741960Y1605620D01*
X6740360D01*
X6740160Y1605720D01*
X6739860D01*
X6739660Y1605820D01*
X6739360Y1605920D01*
X6739160Y1606020D01*
X6738860Y1606120D01*
X6738660Y1606220D01*
X6738460Y1606420D01*
X6738260Y1606520D01*
X6738060Y1606720D01*
X6737860Y1606920D01*
X6737660Y1607020D01*
X6737624Y1607056D01*
X6727660Y1617020D01*
X6727560Y1617220D01*
X6727360Y1617420D01*
X6727160Y1617620D01*
X6727060Y1617820D01*
X6726860Y1618020D01*
X6726760Y1618220D01*
X6726660Y1618520D01*
X6726560Y1618720D01*
X6726460Y1619020D01*
X6726360Y1619220D01*
Y1619520D01*
X6726260Y1619720D01*
Y1620020D01*
Y1620220D01*
Y1620520D01*
Y1620820D01*
Y1621020D01*
Y1621320D01*
X6726360Y1621520D01*
Y1621820D01*
X6726460Y1622020D01*
X6726560Y1622320D01*
X6726660Y1622520D01*
X6726760Y1622820D01*
X6726860Y1623020D01*
X6727060Y1623220D01*
X6727160Y1623420D01*
X6727360Y1623620D01*
X6727560Y1623820D01*
X6727660Y1624020D01*
X6737660Y1634020D01*
X6737860Y1634120D01*
X6738060Y1634320D01*
X6738260Y1634520D01*
X6738460Y1634620D01*
X6738660Y1634820D01*
X6738860Y1634920D01*
X6739160Y1635020D01*
X6739360Y1635120D01*
X6739660Y1635220D01*
X6739860Y1635320D01*
X6740160D01*
X6740360Y1635420D01*
X6741960D01*
X6742160Y1635320D01*
D02*
G37*
G36*
X7237800Y1620520D02*
X7205980Y1588700D01*
X7174160Y1620520D01*
X7205980Y1652340D01*
X7237800Y1620520D01*
D02*
G37*
G36*
X6948760Y1620340D02*
X6916940Y1588520D01*
X6885120Y1620340D01*
X6916940Y1652160D01*
X6948760Y1620340D01*
D02*
G37*
G36*
X6796960Y1607420D02*
X6797160D01*
X6797460Y1607320D01*
X6797660D01*
X6797960Y1607220D01*
X6798160Y1607120D01*
X6798460Y1607020D01*
X6798660Y1606820D01*
X6798860Y1606720D01*
X6799060Y1606520D01*
X6799260Y1606420D01*
X6799460Y1606220D01*
X6799660Y1606020D01*
X6799860Y1605820D01*
X6800060Y1605620D01*
X6800160Y1605420D01*
X6800360Y1605220D01*
X6800460Y1605020D01*
X6800660Y1604820D01*
X6800760Y1604520D01*
X6800860Y1604320D01*
X6800960Y1604020D01*
Y1603820D01*
X6801060Y1603520D01*
Y1603320D01*
X6801160Y1603020D01*
Y1602820D01*
Y1602520D01*
Y1590520D01*
Y1590220D01*
Y1590020D01*
X6801060Y1589720D01*
Y1589520D01*
X6800960Y1589220D01*
Y1589020D01*
X6800860Y1588720D01*
X6800760Y1588520D01*
X6800660Y1588220D01*
X6800460Y1588020D01*
X6800360Y1587820D01*
X6800160Y1587620D01*
X6800060Y1587420D01*
X6799860Y1587220D01*
X6799660Y1587020D01*
X6799460Y1586820D01*
X6799260Y1586620D01*
X6799060Y1586520D01*
X6798860Y1586320D01*
X6798660Y1586220D01*
X6798460Y1586020D01*
X6798160Y1585920D01*
X6797960Y1585820D01*
X6797660Y1585720D01*
X6797460D01*
X6797160Y1585620D01*
X6796960D01*
X6796660Y1585520D01*
X6759160D01*
Y1591520D01*
X6775160Y1607520D01*
X6796660D01*
X6796960Y1607420D01*
D02*
G37*
G36*
X6723160Y1591520D02*
Y1585520D01*
X6685660D01*
X6685360Y1585620D01*
X6685160D01*
X6684860Y1585720D01*
X6684660D01*
X6684360Y1585820D01*
X6684160Y1585920D01*
X6683860Y1586020D01*
X6683660Y1586220D01*
X6683460Y1586320D01*
X6683260Y1586520D01*
X6683060Y1586620D01*
X6682860Y1586820D01*
X6682660Y1587020D01*
X6682460Y1587220D01*
X6682260Y1587420D01*
X6682160Y1587620D01*
X6681960Y1587820D01*
X6681860Y1588020D01*
X6681660Y1588220D01*
X6681560Y1588520D01*
X6681460Y1588720D01*
X6681360Y1589020D01*
Y1589220D01*
X6681260Y1589520D01*
Y1589720D01*
X6681160Y1590020D01*
Y1590220D01*
Y1590520D01*
Y1602520D01*
Y1602820D01*
Y1603020D01*
X6681260Y1603320D01*
Y1603520D01*
X6681360Y1603820D01*
Y1604020D01*
X6681460Y1604320D01*
X6681560Y1604520D01*
X6681660Y1604820D01*
X6681860Y1605020D01*
X6681960Y1605220D01*
X6682160Y1605420D01*
X6682260Y1605620D01*
X6682460Y1605820D01*
X6682660Y1606020D01*
X6682860Y1606220D01*
X6683060Y1606420D01*
X6683260Y1606520D01*
X6683460Y1606720D01*
X6683660Y1606820D01*
X6683860Y1607020D01*
X6684160Y1607120D01*
X6684360Y1607220D01*
X6684660Y1607320D01*
X6684860D01*
X6685160Y1607420D01*
X6685360D01*
X6685660Y1607520D01*
X6707160D01*
X6723160Y1591520D01*
D02*
G37*
G36*
X7248980Y1555520D02*
X7227980D01*
Y1577520D01*
X7245980Y1595520D01*
X7248980D01*
Y1555520D01*
D02*
G37*
G36*
X7183980Y1577520D02*
Y1555520D01*
X7162980D01*
Y1595520D01*
X7165980D01*
X7183980Y1577520D01*
D02*
G37*
G36*
X6959940Y1555340D02*
X6938940D01*
Y1577340D01*
X6956940Y1595340D01*
X6959940D01*
Y1555340D01*
D02*
G37*
G36*
X6894940Y1577340D02*
Y1555340D01*
X6873940D01*
Y1595340D01*
X6876940D01*
X6894940Y1577340D01*
D02*
G37*
D10*
X9193640Y4749800D02*
D03*
X9048640D02*
D03*
X4237880Y952500D02*
D03*
X4382880D02*
D03*
X4237880Y800100D02*
D03*
X4382880D02*
D03*
X2820560Y1051560D02*
D03*
X2965560D02*
D03*
X2820560Y1663700D02*
D03*
X2965560D02*
D03*
X2821720Y1356360D02*
D03*
X2966720D02*
D03*
X2820560Y1203960D02*
D03*
X2965560D02*
D03*
X4381720Y1531620D02*
D03*
X4236720D02*
D03*
X4381720Y1376680D02*
D03*
X4236720D02*
D03*
X4382880Y1221740D02*
D03*
X4237880D02*
D03*
X2820560Y1511300D02*
D03*
X2965560D02*
D03*
X3769580Y708660D02*
D03*
X3624580D02*
D03*
X5124560Y883920D02*
D03*
X4979560D02*
D03*
X5124560Y731520D02*
D03*
X4979560D02*
D03*
X9635380Y939800D02*
D03*
X9780380D02*
D03*
X5124560Y1341120D02*
D03*
X4979560D02*
D03*
X5124560Y1493520D02*
D03*
X4979560D02*
D03*
X5124560Y1188720D02*
D03*
X4979560D02*
D03*
X5124560Y1036320D02*
D03*
X4979560D02*
D03*
X4979560Y1645920D02*
D03*
X5124560D02*
D03*
X4979560Y1798320D02*
D03*
X5124560D02*
D03*
X8677800Y1699260D02*
D03*
X8822800D02*
D03*
X6429900Y1447800D02*
D03*
X6574900D02*
D03*
X6574900Y1620520D02*
D03*
X6429900D02*
D03*
X6574900Y1790700D02*
D03*
X6429900D02*
D03*
X5711080Y1188720D02*
D03*
X5856080D02*
D03*
X5711080Y1036320D02*
D03*
X5856080D02*
D03*
X5856080Y883920D02*
D03*
X5711080D02*
D03*
X5856080Y731520D02*
D03*
X5711080D02*
D03*
X5711080Y1341120D02*
D03*
X5856080D02*
D03*
X5711080Y1493520D02*
D03*
X5856080D02*
D03*
X5856080Y1645920D02*
D03*
X5711080D02*
D03*
X5856080Y1798320D02*
D03*
X5711080D02*
D03*
X7613760Y1231900D02*
D03*
X7468760D02*
D03*
X7613760Y1386840D02*
D03*
X7468760D02*
D03*
X7822980Y1234440D02*
D03*
X7967980D02*
D03*
X7071360Y1791900D02*
D03*
X7216360D02*
D03*
Y1446460D02*
D03*
X7071360D02*
D03*
X6782960Y1791900D02*
D03*
X6927960D02*
D03*
X6926800Y1446460D02*
D03*
X6781800D02*
D03*
X7822980Y1389380D02*
D03*
X7967980D02*
D03*
X9193639Y5356860D02*
D03*
X9048640D02*
D03*
X9193640Y5153660D02*
D03*
X9048640D02*
D03*
X7967979Y1544320D02*
D03*
X7822980D02*
D03*
X9048640Y4950460D02*
D03*
X9193640D02*
D03*
X4475480Y2303780D02*
D03*
X4330480D02*
D03*
X1210420Y2301240D02*
D03*
X1065420D02*
D03*
X4617720Y2303780D02*
D03*
X4762720D02*
D03*
X1360060Y2301240D02*
D03*
X1505060D02*
D03*
X4617720Y2458720D02*
D03*
X4762720D02*
D03*
X1360060Y2456180D02*
D03*
X1505060D02*
D03*
X4330481Y2458720D02*
D03*
X4475481D02*
D03*
X1065420Y2456180D02*
D03*
X1210420D02*
D03*
X7742140Y2298700D02*
D03*
X7597140D02*
D03*
X7883000D02*
D03*
X8028000D02*
D03*
X7883000Y2451100D02*
D03*
X8028000D02*
D03*
X7597140D02*
D03*
X7742140D02*
D03*
D11*
X8849360Y4762200D02*
D03*
X9042400Y2927200D02*
D03*
X8717280Y2927500D02*
D03*
X5778500Y2926080D02*
D03*
X2522220Y2928620D02*
D03*
X5453380Y2926380D02*
D03*
X2197100Y2928620D02*
D03*
D12*
X8849360Y5042200D02*
D03*
X9042400Y2647200D02*
D03*
X8717280Y2647500D02*
D03*
X5778500Y2646080D02*
D03*
X2522220Y2648620D02*
D03*
X5453380Y2646380D02*
D03*
X2197100Y2648620D02*
D03*
D13*
X6901167Y733877D02*
D03*
X6851180D02*
D03*
X6801167D02*
D03*
X6951180D02*
D03*
X7001167D02*
D03*
X6851180Y433903D02*
D03*
X6801167D02*
D03*
X6951180D02*
D03*
X6901167D02*
D03*
X7001167D02*
D03*
D14*
X6900278Y583737D02*
D03*
D15*
X3599180Y1305560D02*
D03*
D16*
X3874180Y955560D02*
D03*
X3824180D02*
D03*
X3774180D02*
D03*
X3724180D02*
D03*
X3674180D02*
D03*
X3624180D02*
D03*
X3574180D02*
D03*
X3524180D02*
D03*
X3474180D02*
D03*
X3424180D02*
D03*
X3374180D02*
D03*
X3324180Y1655560D02*
D03*
X3374180D02*
D03*
X3424180D02*
D03*
X3474180D02*
D03*
X3524180D02*
D03*
X3574180D02*
D03*
X3624180D02*
D03*
X3674180D02*
D03*
X3724180D02*
D03*
X3774180D02*
D03*
X3824180D02*
D03*
X3874180D02*
D03*
D17*
X3324180Y955560D02*
D03*
D18*
X3949180Y1580560D02*
D03*
Y1530560D02*
D03*
Y1480560D02*
D03*
Y1430560D02*
D03*
Y1380560D02*
D03*
Y1330560D02*
D03*
Y1280560D02*
D03*
Y1230560D02*
D03*
Y1180560D02*
D03*
Y1130560D02*
D03*
Y1080560D02*
D03*
Y1030560D02*
D03*
X3249180D02*
D03*
Y1080560D02*
D03*
Y1130560D02*
D03*
Y1180560D02*
D03*
Y1230560D02*
D03*
Y1280560D02*
D03*
Y1330560D02*
D03*
Y1380560D02*
D03*
Y1430560D02*
D03*
Y1480560D02*
D03*
Y1530560D02*
D03*
Y1580560D02*
D03*
D19*
X6002020Y1488660D02*
D03*
Y1343660D02*
D03*
X9017000Y783700D02*
D03*
Y638700D02*
D03*
X1732280Y711200D02*
D03*
Y856200D02*
D03*
X6007100Y252620D02*
D03*
Y397620D02*
D03*
X1577340Y856200D02*
D03*
Y711200D02*
D03*
X4546600Y2607200D02*
D03*
Y2752200D02*
D03*
X1285240Y2604660D02*
D03*
Y2749660D02*
D03*
X7813040Y2599580D02*
D03*
Y2744580D02*
D03*
X9204960Y2937360D02*
D03*
Y2792360D02*
D03*
X4338320Y2754740D02*
D03*
Y2609740D02*
D03*
X6896420Y105830D02*
D03*
Y250830D02*
D03*
X6591620Y105830D02*
D03*
Y250830D02*
D03*
X6439220Y105830D02*
D03*
Y250830D02*
D03*
X6744020D02*
D03*
Y105830D02*
D03*
X7048820Y250830D02*
D03*
Y105830D02*
D03*
X4833620Y1341120D02*
D03*
Y1486120D02*
D03*
X5273040Y1802240D02*
D03*
Y1657240D02*
D03*
X4833620Y1188720D02*
D03*
Y1043720D02*
D03*
X5273040Y725060D02*
D03*
Y870060D02*
D03*
X6002020Y1186180D02*
D03*
Y1041180D02*
D03*
X5562600Y725060D02*
D03*
Y870060D02*
D03*
Y1804780D02*
D03*
Y1659780D02*
D03*
X7200900Y594580D02*
D03*
Y449580D02*
D03*
X6441440Y452120D02*
D03*
Y597120D02*
D03*
X6593840Y597120D02*
D03*
Y452120D02*
D03*
X7201220Y105830D02*
D03*
Y250830D02*
D03*
X2722880Y758080D02*
D03*
Y903080D02*
D03*
X2204720D02*
D03*
Y758080D02*
D03*
X8039100Y976740D02*
D03*
Y831740D02*
D03*
X9055100Y1286620D02*
D03*
Y1141620D02*
D03*
X7475220Y595740D02*
D03*
Y450740D02*
D03*
X7635240Y594360D02*
D03*
Y449360D02*
D03*
X1074420Y2607200D02*
D03*
Y2752200D02*
D03*
X4752340Y2754740D02*
D03*
Y2609740D02*
D03*
X1498600Y2749660D02*
D03*
Y2604660D02*
D03*
X5941060Y2791240D02*
D03*
Y2936240D02*
D03*
X2684780Y2793780D02*
D03*
Y2938780D02*
D03*
X4828540Y3271520D02*
D03*
Y3416520D02*
D03*
X1557020Y3280300D02*
D03*
Y3425300D02*
D03*
X5615940Y2791240D02*
D03*
Y2936240D02*
D03*
X2359660Y2793780D02*
D03*
Y2938780D02*
D03*
X7604980Y2598420D02*
D03*
Y2743420D02*
D03*
X8021540D02*
D03*
Y2598420D02*
D03*
X8092440Y3282840D02*
D03*
Y3427840D02*
D03*
X8879840Y2792360D02*
D03*
Y2937360D02*
D03*
D20*
X9001752Y245368D02*
D03*
Y435368D02*
D03*
D21*
X1345280Y516560D02*
D03*
X1470280D02*
D03*
X1595280D02*
D03*
X1720280D02*
D03*
X3873500D02*
D03*
X3998500D02*
D03*
X4123500D02*
D03*
X4248500D02*
D03*
X4373500D02*
D03*
X4498500D02*
D03*
X4623500D02*
D03*
X4748500D02*
D03*
X3111660D02*
D03*
X2986660D02*
D03*
X2861660D02*
D03*
X2736660D02*
D03*
X2611660D02*
D03*
X2486660D02*
D03*
D22*
X1070960Y235500D02*
D03*
X1997360D02*
D03*
X3599180D02*
D03*
X5025580D02*
D03*
X3388740D02*
D03*
X2212340D02*
D03*
D27*
X7076440Y1244740D02*
D03*
Y944740D02*
D03*
D28*
X6482080Y954440D02*
D03*
Y1234440D02*
D03*
X6733540Y954740D02*
D03*
Y1234740D02*
D03*
X7840980Y274020D02*
D03*
Y554020D02*
D03*
X8089900Y274020D02*
D03*
Y554020D02*
D03*
X7650480Y3599480D02*
D03*
Y3319480D02*
D03*
X7894320Y3599480D02*
D03*
Y3319480D02*
D03*
X4627880Y3589620D02*
D03*
Y3309620D02*
D03*
X1114655Y3599480D02*
D03*
Y3319480D02*
D03*
X4381500Y3589620D02*
D03*
Y3309620D02*
D03*
X1358495Y3599480D02*
D03*
Y3319480D02*
D03*
D30*
X5318240Y1344920D02*
D03*
Y1304920D02*
D03*
Y1264920D02*
D03*
Y1224920D02*
D03*
Y1184920D02*
D03*
X5507240D02*
D03*
Y1224920D02*
D03*
Y1264920D02*
D03*
Y1304920D02*
D03*
Y1344920D02*
D03*
D31*
X5392740Y1170420D02*
D03*
X5432740D02*
D03*
Y1359420D02*
D03*
X5392740D02*
D03*
D32*
X760160Y5486400D02*
D03*
X760160Y1016000D02*
D03*
D33*
X2190160Y4966403D02*
D03*
Y1536000D02*
D03*
D34*
X7507940Y1033780D02*
D03*
X7787940D02*
D03*
X7507940Y789940D02*
D03*
X7787940D02*
D03*
D36*
X8249040Y1534160D02*
D03*
Y1407160D02*
D03*
Y1280160D02*
D03*
Y1153160D02*
D03*
X8774040Y1534160D02*
D03*
Y1407160D02*
D03*
Y1280160D02*
D03*
D37*
Y1153160D02*
D03*
D38*
X4909820Y2334260D02*
D03*
X5036820D02*
D03*
X5163820D02*
D03*
X5290820D02*
D03*
Y2893060D02*
D03*
X5163820D02*
D03*
X5036820D02*
D03*
X4909820D02*
D03*
X1653540Y2334260D02*
D03*
X1780540D02*
D03*
X1907540D02*
D03*
X2034540D02*
D03*
Y2893060D02*
D03*
X1907540D02*
D03*
X1780540D02*
D03*
X1653540D02*
D03*
X8173940Y2334260D02*
D03*
X8300940D02*
D03*
X8427940D02*
D03*
X8554940D02*
D03*
Y2893060D02*
D03*
X8427940D02*
D03*
X8300940D02*
D03*
X8173940D02*
D03*
D39*
X2732337Y5979160D02*
D03*
D40*
X3252337Y4310400D02*
D03*
X5752400D02*
D03*
X8065203Y4310400D02*
D03*
D41*
X3772334Y5740400D02*
D03*
X5232400Y5740400D02*
D03*
X6272397Y5740400D02*
D03*
X7545203Y5740400D02*
D03*
X8585200Y5740400D02*
D03*
D42*
X2541180Y725580D02*
D03*
X2371180D02*
D03*
X2541180Y935580D02*
D03*
X2371180D02*
D03*
D43*
X9522460Y1145260D02*
D03*
D44*
Y1745260D02*
D03*
D45*
X8549640Y283000D02*
D03*
Y733000D02*
D03*
D46*
X7641810Y2915920D02*
D03*
X4372610Y2931160D02*
D03*
X1109980Y2922380D02*
D03*
D47*
X7984710Y2915920D02*
D03*
X4715510Y2931160D02*
D03*
X1452880Y2922380D02*
D03*
D111*
X8574040Y1233660D02*
D03*
D112*
X8446540D02*
D03*
D113*
Y1343660D02*
D03*
D114*
X8574040D02*
D03*
D115*
X8446540Y1453660D02*
D03*
D116*
X8574040D02*
D03*
%TF.MD5,17ecb8e9af1a0398f6dd2faa7da8347e*%
M02*
