%TF.GenerationSoftware,Altium Limited,Altium Designer,24.0.1 (36)*%
G04 Layer_Color=16711935*
%FSLAX45Y45*%
%MOMM*%
%TF.SameCoordinates,AD55DBC5-7C0D-423F-88F8-B269A012BA9E*%
%TF.FilePolarity,Negative*%
%TF.FileFunction,Soldermask,Bot*%
%TF.Part,Single*%
G01*
G75*
%TA.AperFunction,NonConductor*%
%ADD71C,1.01600*%
%TA.AperFunction,ConnectorPad*%
G04:AMPARAMS|DCode=92|XSize=3.2032mm|YSize=15.2032mm|CornerRadius=0.8516mm|HoleSize=0mm|Usage=FLASHONLY|Rotation=90.000|XOffset=0mm|YOffset=0mm|HoleType=Round|Shape=RoundedRectangle|*
%AMROUNDEDRECTD92*
21,1,3.20320,13.50000,0,0,90.0*
21,1,1.50000,15.20320,0,0,90.0*
1,1,1.70320,6.75000,0.75000*
1,1,1.70320,6.75000,-0.75000*
1,1,1.70320,-6.75000,-0.75000*
1,1,1.70320,-6.75000,0.75000*
%
%ADD92ROUNDEDRECTD92*%
G04:AMPARAMS|DCode=99|XSize=3.2032mm|YSize=10.2032mm|CornerRadius=0.8516mm|HoleSize=0mm|Usage=FLASHONLY|Rotation=0.000|XOffset=0mm|YOffset=0mm|HoleType=Round|Shape=RoundedRectangle|*
%AMROUNDEDRECTD99*
21,1,3.20320,8.50000,0,0,0.0*
21,1,1.50000,10.20320,0,0,0.0*
1,1,1.70320,0.75000,-4.25000*
1,1,1.70320,-0.75000,-4.25000*
1,1,1.70320,-0.75000,4.25000*
1,1,1.70320,0.75000,4.25000*
%
%ADD99ROUNDEDRECTD99*%
G04:AMPARAMS|DCode=101|XSize=3.2032mm|YSize=15.2032mm|CornerRadius=0.8516mm|HoleSize=0mm|Usage=FLASHONLY|Rotation=0.000|XOffset=0mm|YOffset=0mm|HoleType=Round|Shape=RoundedRectangle|*
%AMROUNDEDRECTD101*
21,1,3.20320,13.50000,0,0,0.0*
21,1,1.50000,15.20320,0,0,0.0*
1,1,1.70320,0.75000,-6.75000*
1,1,1.70320,-0.75000,-6.75000*
1,1,1.70320,-0.75000,6.75000*
1,1,1.70320,0.75000,6.75000*
%
%ADD101ROUNDEDRECTD101*%
%TA.AperFunction,ComponentPad*%
%ADD108C,1.20320*%
%ADD109C,7.20320*%
%ADD110C,1.21920*%
D71*
X9100000Y3300000D02*
Y3500000D01*
X8500000Y4100000D02*
X8700000Y3900000D01*
X8500000Y4300000D02*
X9100000Y3700000D01*
X8500000Y4500000D02*
X9100000Y3900000D01*
X8700000Y4500000D02*
X9100000Y4100000D01*
X8700000Y4500000D02*
Y4500000D01*
X8900000D02*
X9100000Y4300000D01*
X6000000Y3300000D02*
X6100000Y3400000D01*
X6100000D01*
X5800000Y3300000D02*
X6100000Y3600000D01*
X5800000Y3500000D02*
X6100000Y3800000D01*
X6100000D01*
X5800000Y3700000D02*
X6100000Y4000000D01*
X5800000Y3900000D02*
X5900000Y4000000D01*
X5600000Y3900000D02*
X5700000Y4000000D01*
X5700000D01*
X5400000Y3900000D02*
X5500000Y4000000D01*
X5500000D01*
X5200000Y3900000D02*
X5400000Y4100000D01*
X5200000Y3900000D02*
X5200000D01*
X5200000Y4100000D02*
X5400000Y4300000D01*
X5200000D02*
X5400000Y4500000D01*
X5400000D01*
X2700000Y3400000D02*
X2800000Y3300000D01*
X2500000Y3800000D02*
X3000000Y3300000D01*
X2500000Y3800000D02*
Y3800000D01*
X2700000D02*
X3200000Y3300000D01*
X2800000Y3900000D02*
X3300000Y3400000D01*
X2900000Y4000000D02*
X3400000Y3500000D01*
X2900000Y4000000D02*
X2900000D01*
X3100000D02*
X3400000Y3700000D01*
X3300000Y4000000D02*
X3400000Y3900000D01*
X3300000Y4000000D02*
X3300000D01*
X2700000D02*
X2800000Y4100000D01*
X2500000Y4000000D02*
X2800000Y4300000D01*
Y4300000D01*
X2300000Y4000000D02*
X2800000Y4500000D01*
X2100000Y4000000D02*
X2600000Y4500000D01*
X1900000Y4000000D02*
X2400000Y4500000D01*
X1900000Y4200000D02*
X2200000Y4500000D01*
D92*
X760160Y4446403D02*
D03*
X760160Y5486400D02*
D03*
X760160Y1016000D02*
D03*
X760160Y2055997D02*
D03*
D99*
X2732337Y5979160D02*
D03*
D101*
X3772334Y5740400D02*
D03*
X6272397D02*
D03*
X5232400Y5740400D02*
D03*
X8585200D02*
D03*
X7545203Y5740400D02*
D03*
D108*
X1448480Y5393123D02*
D03*
X71800D02*
D03*
X760140D02*
D03*
X415970D02*
D03*
X243885D02*
D03*
X932225D02*
D03*
X588055D02*
D03*
X1104310D02*
D03*
X1276395D02*
D03*
X1448480Y5583623D02*
D03*
X71800D02*
D03*
X760140D02*
D03*
X415970D02*
D03*
X243885D02*
D03*
X932225D02*
D03*
X588055D02*
D03*
X1104310D02*
D03*
X1276395D02*
D03*
X1448480Y922723D02*
D03*
X71800D02*
D03*
X760140D02*
D03*
X415970D02*
D03*
X243885D02*
D03*
X932225D02*
D03*
X588055D02*
D03*
X1104310D02*
D03*
X1276395D02*
D03*
X1448480Y1113223D02*
D03*
X71800D02*
D03*
X760140D02*
D03*
X415970D02*
D03*
X243885D02*
D03*
X932225D02*
D03*
X588055D02*
D03*
X1104310D02*
D03*
X1276395D02*
D03*
X2829560Y5912505D02*
D03*
Y5568335D02*
D03*
Y6256675D02*
D03*
Y6084590D02*
D03*
Y5740420D02*
D03*
Y6428760D02*
D03*
X2639060Y5912505D02*
D03*
Y5568335D02*
D03*
Y6256675D02*
D03*
Y6084590D02*
D03*
Y5740420D02*
D03*
Y6428760D02*
D03*
X3869557Y5224165D02*
D03*
Y5396250D02*
D03*
Y5912505D02*
D03*
Y5568335D02*
D03*
Y6256675D02*
D03*
Y6084590D02*
D03*
Y5740420D02*
D03*
Y6428760D02*
D03*
Y5052080D02*
D03*
X3679057Y5224165D02*
D03*
Y5396250D02*
D03*
Y5912505D02*
D03*
Y5568335D02*
D03*
Y6256675D02*
D03*
Y6084590D02*
D03*
Y5740420D02*
D03*
Y6428760D02*
D03*
Y5052080D02*
D03*
X5329623Y5224165D02*
D03*
Y5396250D02*
D03*
Y5912505D02*
D03*
Y5568335D02*
D03*
Y6256675D02*
D03*
Y6084590D02*
D03*
Y5740420D02*
D03*
Y6428760D02*
D03*
Y5052080D02*
D03*
X5139123Y5224165D02*
D03*
Y5396250D02*
D03*
Y5912505D02*
D03*
Y5568335D02*
D03*
Y6256675D02*
D03*
Y6084590D02*
D03*
Y5740420D02*
D03*
Y6428760D02*
D03*
Y5052080D02*
D03*
X6369620Y5224165D02*
D03*
Y5396250D02*
D03*
Y5912505D02*
D03*
Y5568335D02*
D03*
Y6256675D02*
D03*
Y6084590D02*
D03*
Y5740420D02*
D03*
Y6428760D02*
D03*
Y5052080D02*
D03*
X6179120Y5224165D02*
D03*
Y5396250D02*
D03*
Y5912505D02*
D03*
Y5568335D02*
D03*
Y6256675D02*
D03*
Y6084590D02*
D03*
Y5740420D02*
D03*
Y6428760D02*
D03*
Y5052080D02*
D03*
X7642426Y5224165D02*
D03*
Y5396250D02*
D03*
Y5912505D02*
D03*
Y5568335D02*
D03*
Y6256675D02*
D03*
Y6084590D02*
D03*
Y5740420D02*
D03*
Y6428760D02*
D03*
Y5052080D02*
D03*
X7451926Y5224165D02*
D03*
Y5396250D02*
D03*
Y5912505D02*
D03*
Y5568335D02*
D03*
Y6256675D02*
D03*
Y6084590D02*
D03*
Y5740420D02*
D03*
Y6428760D02*
D03*
Y5052080D02*
D03*
X8682423Y5224165D02*
D03*
Y5396250D02*
D03*
Y5912505D02*
D03*
Y5568335D02*
D03*
Y6256675D02*
D03*
Y6084590D02*
D03*
Y5740420D02*
D03*
Y6428760D02*
D03*
Y5052080D02*
D03*
X8491923Y5224165D02*
D03*
Y5396250D02*
D03*
Y5912505D02*
D03*
Y5568335D02*
D03*
Y6256675D02*
D03*
Y6084590D02*
D03*
Y5740420D02*
D03*
Y6428760D02*
D03*
Y5052080D02*
D03*
D109*
X8719820Y3533140D02*
D03*
X5438140D02*
D03*
X2186940D02*
D03*
X9499384Y500001D02*
D03*
Y6000012D02*
D03*
X499366Y500001D02*
D03*
Y6000012D02*
D03*
D110*
X8450580Y3533140D02*
D03*
X8585200Y3299971D02*
D03*
X8854440D02*
D03*
X8989060Y3533140D02*
D03*
X8854440Y3766309D02*
D03*
X8585200D02*
D03*
X5168900Y3533140D02*
D03*
X5303520Y3299971D02*
D03*
X5572760D02*
D03*
X5707380Y3533140D02*
D03*
X5572760Y3766309D02*
D03*
X5303520D02*
D03*
X1917700Y3533140D02*
D03*
X2052320Y3299971D02*
D03*
X2321560D02*
D03*
X2456180Y3533140D02*
D03*
X2321560Y3766309D02*
D03*
X2052320D02*
D03*
X9364764Y733170D02*
D03*
X9634004D02*
D03*
X9768624Y500001D02*
D03*
X9634004Y266832D02*
D03*
X9364764D02*
D03*
X9230144Y500001D02*
D03*
X9364764Y6233181D02*
D03*
X9634004D02*
D03*
X9768624Y6000012D02*
D03*
X9634004Y5766843D02*
D03*
X9364764D02*
D03*
X9230144Y6000012D02*
D03*
X364746Y733170D02*
D03*
X633986D02*
D03*
X768606Y500001D02*
D03*
X633986Y266832D02*
D03*
X364746D02*
D03*
X230126Y500001D02*
D03*
X364746Y6233181D02*
D03*
X633986D02*
D03*
X768606Y6000012D02*
D03*
X633986Y5766843D02*
D03*
X364746D02*
D03*
X230126Y6000012D02*
D03*
%TF.MD5,31e6e4e04a7c4f3da16329b54f0b665c*%
M02*
