%TF.GenerationSoftware,Altium Limited,Altium Designer,24.0.1 (36)*%
G04 Layer_Physical_Order=2*
G04 Layer_Color=36540*
%FSLAX45Y45*%
%MOMM*%
%TF.SameCoordinates,B8119A69-DF13-4F5F-B16A-25B655FCA713*%
%TF.FilePolarity,Positive*%
%TF.FileFunction,Copper,L2,Inr,Signal*%
%TF.Part,Single*%
G01*
G75*
%TA.AperFunction,Conductor*%
%ADD50C,0.20320*%
%ADD52C,0.38100*%
%TA.AperFunction,ComponentPad*%
%ADD56C,1.00000*%
%ADD57C,7.00000*%
%ADD58C,1.01600*%
%TA.AperFunction,ViaPad*%
%ADD59C,0.40000*%
%ADD60C,1.00000*%
G36*
X1453514Y6349988D02*
X1511220Y6292282D01*
Y5381534D01*
X1465126Y5335440D01*
X55062D01*
X10794Y5379708D01*
Y6010198D01*
X350584Y6349988D01*
X1453514Y6349988D01*
D02*
G37*
G36*
X6139180Y4452620D02*
X6139180Y3238500D01*
X6083300Y3182620D01*
X5158740D01*
X5087620Y3253740D01*
Y4460240D01*
X5189220Y4561840D01*
X6029960D01*
X6139180Y4452620D01*
D02*
G37*
G36*
X3600024Y4489876D02*
X3600024Y4130884D01*
X3431540Y3962400D01*
Y3368040D01*
X3246120Y3182620D01*
X2042160D01*
X1836420Y3388360D01*
Y4312920D01*
X2087880Y4564380D01*
X3525520D01*
X3600024Y4489876D01*
D02*
G37*
G36*
X9187180Y4432300D02*
X9187179Y3281679D01*
X9088120Y3182620D01*
X8481060D01*
X8369300Y3294380D01*
Y3883660D01*
X8191500Y4061460D01*
X7787640D01*
X7715876Y4133224D01*
Y4487536D01*
X7790180Y4561840D01*
X9057640D01*
X9187180Y4432300D01*
D02*
G37*
G36*
X9959943Y2938177D02*
Y955643D01*
X9880600Y876300D01*
X9306560D01*
X9116060Y685800D01*
Y335280D01*
X9240520Y210820D01*
Y96520D01*
X9183442Y39442D01*
X1357558D01*
X1272540Y124459D01*
Y589276D01*
X1582420Y899162D01*
Y1076960D01*
X1625756Y1120296D01*
X1919486Y1120297D01*
X1934352Y1123254D01*
X1946954Y1131675D01*
X1952824Y1140460D01*
X2375263Y1140460D01*
X2484120Y1249317D01*
Y1841500D01*
X2372360Y1953260D01*
X939800D01*
X840740Y2052320D01*
Y2887980D01*
X952500Y2999740D01*
X3388360Y2999740D01*
X3510280Y2877820D01*
X3510280Y2197100D01*
X3583940Y2123440D01*
X4030980D01*
X4109720Y2202180D01*
Y2893060D01*
X4216400Y2999740D01*
X6695440D01*
X6776720Y2918460D01*
Y2214880D01*
X6868163Y2123437D01*
X7289797D01*
X7376160Y2209800D01*
Y2933700D01*
X7442200Y2999740D01*
X9898380D01*
X9959943Y2938177D01*
D02*
G37*
G36*
X1510121Y1122528D02*
Y900521D01*
X1221740Y612140D01*
Y259080D01*
X1112520Y149860D01*
X340360D01*
X10160Y480060D01*
Y1122680D01*
X53340Y1165860D01*
X1466789D01*
X1510121Y1122528D01*
D02*
G37*
%LPC*%
G36*
X8216290Y2501580D02*
X8202270D01*
X8189318Y2496215D01*
X8181085Y2487982D01*
X8173720Y2487034D01*
X8166355Y2487982D01*
X8158122Y2496215D01*
X8145170Y2501580D01*
X8131150D01*
X8118198Y2496215D01*
X8108285Y2486302D01*
X8102920Y2473350D01*
Y2459330D01*
X8108285Y2446378D01*
X8118198Y2436465D01*
X8131150Y2431100D01*
X8145170D01*
X8158122Y2436465D01*
X8166355Y2444698D01*
X8173720Y2445646D01*
X8181085Y2444698D01*
X8189318Y2436465D01*
X8202270Y2431100D01*
X8216290D01*
X8229242Y2436465D01*
X8239155Y2446378D01*
X8244520Y2459330D01*
Y2473350D01*
X8239155Y2486302D01*
X8229242Y2496215D01*
X8216290Y2501580D01*
D02*
G37*
G36*
X4952170D02*
X4938150D01*
X4925198Y2496215D01*
X4916966Y2487982D01*
X4909600Y2487034D01*
X4902235Y2487982D01*
X4894002Y2496215D01*
X4881050Y2501580D01*
X4867030D01*
X4854078Y2496215D01*
X4844165Y2486302D01*
X4838800Y2473350D01*
Y2459330D01*
X4844165Y2446378D01*
X4854078Y2436465D01*
X4867030Y2431100D01*
X4881050D01*
X4894002Y2436465D01*
X4902235Y2444698D01*
X4909600Y2445646D01*
X4916966Y2444698D01*
X4925198Y2436465D01*
X4938150Y2431100D01*
X4952170D01*
X4965122Y2436465D01*
X4975035Y2446378D01*
X4980400Y2459330D01*
Y2473350D01*
X4975035Y2486302D01*
X4965122Y2496215D01*
X4952170Y2501580D01*
D02*
G37*
G36*
X1695890D02*
X1681870D01*
X1668918Y2496215D01*
X1660686Y2487982D01*
X1653320Y2487034D01*
X1645955Y2487982D01*
X1637722Y2496215D01*
X1624770Y2501580D01*
X1610750D01*
X1597798Y2496215D01*
X1587885Y2486302D01*
X1582520Y2473350D01*
Y2459330D01*
X1587885Y2446378D01*
X1597798Y2436465D01*
X1610750Y2431100D01*
X1624770D01*
X1637722Y2436465D01*
X1645955Y2444698D01*
X1653320Y2445646D01*
X1660686Y2444698D01*
X1668918Y2436465D01*
X1681870Y2431100D01*
X1695890D01*
X1708842Y2436465D01*
X1718755Y2446378D01*
X1724120Y2459330D01*
Y2473350D01*
X1718755Y2486302D01*
X1708842Y2496215D01*
X1695890Y2501580D01*
D02*
G37*
G36*
X4482490Y2435540D02*
X4468470D01*
X4455518Y2430175D01*
X4445605Y2420262D01*
X4440240Y2407310D01*
Y2393290D01*
X4445605Y2380338D01*
X4455518Y2370425D01*
X4468470Y2365060D01*
X4482490D01*
X4495442Y2370425D01*
X4505355Y2380338D01*
X4510720Y2393290D01*
Y2407310D01*
X4505355Y2420262D01*
X4495442Y2430175D01*
X4482490Y2435540D01*
D02*
G37*
G36*
X1216050Y2430460D02*
X1202030D01*
X1189078Y2425095D01*
X1179165Y2415182D01*
X1173800Y2402230D01*
Y2388210D01*
X1179165Y2375258D01*
X1189078Y2365345D01*
X1202030Y2359980D01*
X1216050D01*
X1229002Y2365345D01*
X1238915Y2375258D01*
X1244280Y2388210D01*
Y2402230D01*
X1238915Y2415182D01*
X1229002Y2425095D01*
X1216050Y2430460D01*
D02*
G37*
G36*
X7748930Y2427920D02*
X7734910D01*
X7721958Y2422555D01*
X7712045Y2412642D01*
X7706680Y2399690D01*
Y2385670D01*
X7712045Y2372718D01*
X7721958Y2362805D01*
X7734910Y2357440D01*
X7748930D01*
X7761882Y2362805D01*
X7771795Y2372718D01*
X7777160Y2385670D01*
Y2399690D01*
X7771795Y2412642D01*
X7761882Y2422555D01*
X7748930Y2427920D01*
D02*
G37*
G36*
X4617110Y2406060D02*
X4603090D01*
X4590138Y2400695D01*
X4580225Y2390782D01*
X4574860Y2377830D01*
Y2363810D01*
X4580225Y2350858D01*
X4590138Y2340945D01*
X4603090Y2335580D01*
X4617110D01*
X4630062Y2340945D01*
X4639975Y2350858D01*
X4645340Y2363810D01*
Y2377830D01*
X4639975Y2390782D01*
X4630062Y2400695D01*
X4617110Y2406060D01*
D02*
G37*
G36*
X7888630Y2397440D02*
X7874610D01*
X7861658Y2392075D01*
X7851745Y2382162D01*
X7846380Y2369210D01*
Y2355190D01*
X7851745Y2342238D01*
X7861658Y2332325D01*
X7874610Y2326960D01*
X7888630D01*
X7901582Y2332325D01*
X7911495Y2342238D01*
X7916860Y2355190D01*
Y2369210D01*
X7911495Y2382162D01*
X7901582Y2392075D01*
X7888630Y2397440D01*
D02*
G37*
G36*
X1368450D02*
X1354430D01*
X1341478Y2392075D01*
X1331565Y2382162D01*
X1326200Y2369210D01*
Y2355190D01*
X1331565Y2342238D01*
X1341478Y2332325D01*
X1354430Y2326960D01*
X1368450D01*
X1381402Y2332325D01*
X1391315Y2342238D01*
X1396680Y2355190D01*
Y2369210D01*
X1391315Y2382162D01*
X1381402Y2392075D01*
X1368450Y2397440D01*
D02*
G37*
G36*
X3631590Y1777680D02*
X3617570D01*
X3604618Y1772315D01*
X3594705Y1762402D01*
X3589340Y1749450D01*
Y1735430D01*
X3594705Y1722478D01*
X3604618Y1712565D01*
X3617570Y1707200D01*
X3631590D01*
X3644542Y1712565D01*
X3654455Y1722478D01*
X3659820Y1735430D01*
Y1749450D01*
X3654455Y1762402D01*
X3644542Y1772315D01*
X3631590Y1777680D01*
D02*
G37*
G36*
X3535070Y1775140D02*
X3521050D01*
X3508098Y1769775D01*
X3498185Y1759862D01*
X3492820Y1746910D01*
Y1732890D01*
X3498185Y1719938D01*
X3508098Y1710025D01*
X3521050Y1704660D01*
X3535070D01*
X3548022Y1710025D01*
X3557935Y1719938D01*
X3563300Y1732890D01*
Y1746910D01*
X3557935Y1759862D01*
X3548022Y1769775D01*
X3535070Y1775140D01*
D02*
G37*
G36*
X3380130D02*
X3366110D01*
X3353158Y1769775D01*
X3343245Y1759862D01*
X3337880Y1746910D01*
Y1732890D01*
X3343245Y1719938D01*
X3353158Y1710025D01*
X3366110Y1704660D01*
X3380130D01*
X3393082Y1710025D01*
X3402995Y1719938D01*
X3408360Y1732890D01*
Y1746910D01*
X3402995Y1759862D01*
X3393082Y1769775D01*
X3380130Y1775140D01*
D02*
G37*
G36*
X3783990Y1764980D02*
X3769970D01*
X3757018Y1759615D01*
X3747105Y1749702D01*
X3741740Y1736750D01*
Y1722730D01*
X3747105Y1709778D01*
X3757018Y1699865D01*
X3769970Y1694500D01*
X3783990D01*
X3796942Y1699865D01*
X3806855Y1709778D01*
X3812220Y1722730D01*
Y1736750D01*
X3806855Y1749702D01*
X3796942Y1759615D01*
X3783990Y1764980D01*
D02*
G37*
G36*
X7240930Y1747200D02*
X7226910D01*
X7213958Y1741835D01*
X7204045Y1731922D01*
X7198680Y1718970D01*
Y1704950D01*
X7204045Y1691998D01*
X7213958Y1682085D01*
X7226910Y1676720D01*
X7240930D01*
X7253882Y1682085D01*
X7263795Y1691998D01*
X7269160Y1704950D01*
Y1718970D01*
X7263795Y1731922D01*
X7253882Y1741835D01*
X7240930Y1747200D01*
D02*
G37*
G36*
X6953910D02*
X6939890D01*
X6926938Y1741835D01*
X6917025Y1731922D01*
X6911660Y1718970D01*
Y1704950D01*
X6917025Y1691998D01*
X6926938Y1682085D01*
X6939890Y1676720D01*
X6953910D01*
X6966862Y1682085D01*
X6976775Y1691998D01*
X6982140Y1704950D01*
Y1718970D01*
X6976775Y1731922D01*
X6966862Y1741835D01*
X6953910Y1747200D01*
D02*
G37*
G36*
X2910470Y1698940D02*
X2896450D01*
X2883498Y1693575D01*
X2873585Y1683662D01*
X2868220Y1670710D01*
Y1656690D01*
X2873585Y1643738D01*
X2883498Y1633825D01*
X2896450Y1628460D01*
X2910470D01*
X2923422Y1633825D01*
X2933335Y1643738D01*
X2938700Y1656690D01*
Y1670710D01*
X2933335Y1683662D01*
X2923422Y1693575D01*
X2910470Y1698940D01*
D02*
G37*
G36*
X3253130Y1691320D02*
X3239110D01*
X3226158Y1685955D01*
X3216245Y1676042D01*
X3210880Y1663090D01*
Y1649070D01*
X3216245Y1636118D01*
X3226158Y1626205D01*
X3239110Y1620840D01*
X3253130D01*
X3266082Y1626205D01*
X3275995Y1636118D01*
X3281360Y1649070D01*
Y1663090D01*
X3275995Y1676042D01*
X3266082Y1685955D01*
X3253130Y1691320D01*
D02*
G37*
G36*
X3581189Y1621915D02*
X3567170D01*
X3554218Y1616550D01*
X3544305Y1606637D01*
X3538940Y1593685D01*
Y1579666D01*
X3544305Y1566714D01*
X3554218Y1556801D01*
X3567170Y1551436D01*
X3581189D01*
X3594142Y1556801D01*
X3604055Y1566714D01*
X3609420Y1579666D01*
Y1593685D01*
X3604055Y1606637D01*
X3594142Y1616550D01*
X3581189Y1621915D01*
D02*
G37*
G36*
X3728581Y1618354D02*
X3714562D01*
X3701609Y1612989D01*
X3691696Y1603076D01*
X3686331Y1590123D01*
Y1576104D01*
X3691696Y1563152D01*
X3701609Y1553239D01*
X3714562Y1547874D01*
X3728581D01*
X3741533Y1553239D01*
X3751446Y1563152D01*
X3756811Y1576104D01*
Y1590123D01*
X3751446Y1603076D01*
X3741533Y1612989D01*
X3728581Y1618354D01*
D02*
G37*
G36*
X3176930Y1617660D02*
X3162910D01*
X3149958Y1612295D01*
X3140045Y1602382D01*
X3134680Y1589430D01*
Y1575410D01*
X3140045Y1562458D01*
X3149958Y1552545D01*
X3162910Y1547180D01*
X3176930D01*
X3189882Y1552545D01*
X3199795Y1562458D01*
X3205160Y1575410D01*
Y1589430D01*
X3199795Y1602382D01*
X3189882Y1612295D01*
X3176930Y1617660D01*
D02*
G37*
G36*
X3331870Y1566860D02*
X3317850D01*
X3304898Y1561495D01*
X3294985Y1551582D01*
X3289620Y1538630D01*
Y1524610D01*
X3294985Y1511658D01*
X3304898Y1501745D01*
X3317850Y1496380D01*
X3331870D01*
X3344822Y1501745D01*
X3354735Y1511658D01*
X3360100Y1524610D01*
Y1538630D01*
X3354735Y1551582D01*
X3344822Y1561495D01*
X3331870Y1566860D01*
D02*
G37*
G36*
X3829710Y1534080D02*
X3815690D01*
X3802738Y1528715D01*
X3792825Y1518802D01*
X3787460Y1505850D01*
Y1491830D01*
X3792825Y1478878D01*
X3802738Y1468965D01*
X3815690Y1463600D01*
X3829710D01*
X3842662Y1468965D01*
X3852575Y1478878D01*
X3857940Y1491830D01*
Y1505850D01*
X3852575Y1518802D01*
X3842662Y1528715D01*
X3829710Y1534080D01*
D02*
G37*
G36*
X3176930Y1518600D02*
X3162910D01*
X3149958Y1513235D01*
X3140045Y1503322D01*
X3134680Y1490370D01*
Y1476350D01*
X3140045Y1463398D01*
X3149958Y1453485D01*
X3162910Y1448120D01*
X3176930D01*
X3189882Y1453485D01*
X3199795Y1463398D01*
X3205160Y1476350D01*
Y1490370D01*
X3199795Y1503322D01*
X3189882Y1513235D01*
X3176930Y1518600D01*
D02*
G37*
G36*
X4243730Y1499820D02*
X4229710D01*
X4216758Y1494455D01*
X4206845Y1484542D01*
X4201480Y1471590D01*
Y1457570D01*
X4206845Y1444618D01*
X4216758Y1434705D01*
X4229710Y1429340D01*
X4243730D01*
X4256682Y1434705D01*
X4266595Y1444618D01*
X4271960Y1457570D01*
Y1471590D01*
X4266595Y1484542D01*
X4256682Y1494455D01*
X4243730Y1499820D01*
D02*
G37*
G36*
X3331870Y1467800D02*
X3317850D01*
X3304898Y1462435D01*
X3294985Y1452522D01*
X3289620Y1439570D01*
Y1425550D01*
X3294985Y1412598D01*
X3304898Y1402685D01*
X3317850Y1397320D01*
X3331870D01*
X3344822Y1402685D01*
X3354735Y1412598D01*
X3360100Y1425550D01*
Y1439570D01*
X3354735Y1452522D01*
X3344822Y1462435D01*
X3331870Y1467800D01*
D02*
G37*
G36*
X3176930Y1417000D02*
X3162910D01*
X3149958Y1411635D01*
X3140045Y1401722D01*
X3134680Y1388770D01*
Y1374750D01*
X3140045Y1361798D01*
X3149958Y1351885D01*
X3162910Y1346520D01*
X3176930D01*
X3189882Y1351885D01*
X3199795Y1361798D01*
X3205160Y1374750D01*
Y1388770D01*
X3199795Y1401722D01*
X3189882Y1411635D01*
X3176930Y1417000D01*
D02*
G37*
G36*
X2911630Y1391600D02*
X2897610D01*
X2884658Y1386235D01*
X2874745Y1376322D01*
X2869380Y1363370D01*
Y1349350D01*
X2874745Y1336398D01*
X2884658Y1326485D01*
X2897610Y1321120D01*
X2911630D01*
X2924582Y1326485D01*
X2934495Y1336398D01*
X2939860Y1349350D01*
Y1363370D01*
X2934495Y1376322D01*
X2924582Y1386235D01*
X2911630Y1391600D01*
D02*
G37*
G36*
X3331870Y1368740D02*
X3317850D01*
X3304898Y1363375D01*
X3294985Y1353462D01*
X3289620Y1340510D01*
Y1326490D01*
X3294985Y1313538D01*
X3304898Y1303625D01*
X3317850Y1298260D01*
X3331870D01*
X3344822Y1303625D01*
X3354735Y1313538D01*
X3360100Y1326490D01*
Y1340510D01*
X3354735Y1353462D01*
X3344822Y1363375D01*
X3331870Y1368740D01*
D02*
G37*
G36*
X4243730Y1334450D02*
X4229710D01*
X4216758Y1329085D01*
X4206845Y1319172D01*
X4201480Y1306220D01*
Y1292200D01*
X4206845Y1279248D01*
X4216758Y1269335D01*
X4229710Y1263970D01*
X4243730D01*
X4256682Y1269335D01*
X4266595Y1279248D01*
X4271960Y1292200D01*
Y1306220D01*
X4266595Y1319172D01*
X4256682Y1329085D01*
X4243730Y1334450D01*
D02*
G37*
G36*
X2972460Y1319210D02*
X2958440D01*
X2945488Y1313845D01*
X2935575Y1303932D01*
X2930210Y1290980D01*
Y1276960D01*
X2935575Y1264008D01*
X2945488Y1254095D01*
X2958440Y1248730D01*
X2972460D01*
X2985412Y1254095D01*
X2995325Y1264008D01*
X3000690Y1276960D01*
Y1290980D01*
X2995325Y1303932D01*
X2985412Y1313845D01*
X2972460Y1319210D01*
D02*
G37*
G36*
X3176930Y1315400D02*
X3162910D01*
X3149958Y1310035D01*
X3140045Y1300122D01*
X3134680Y1287170D01*
Y1273150D01*
X3140045Y1260198D01*
X3149958Y1250285D01*
X3162910Y1244920D01*
X3176930D01*
X3189882Y1250285D01*
X3199795Y1260198D01*
X3205160Y1273150D01*
Y1287170D01*
X3199795Y1300122D01*
X3189882Y1310035D01*
X3176930Y1315400D01*
D02*
G37*
G36*
X4030370Y1267140D02*
X4016350D01*
X4003398Y1261775D01*
X3993485Y1251862D01*
X3988120Y1238910D01*
Y1224890D01*
X3993485Y1211938D01*
X4003398Y1202025D01*
X4016350Y1196660D01*
X4030370D01*
X4043322Y1202025D01*
X4053235Y1211938D01*
X4058600Y1224890D01*
Y1238910D01*
X4053235Y1251862D01*
X4043322Y1261775D01*
X4030370Y1267140D01*
D02*
G37*
G36*
X2910470Y1239200D02*
X2896450D01*
X2883498Y1233835D01*
X2873585Y1223922D01*
X2868220Y1210970D01*
Y1196950D01*
X2873585Y1183998D01*
X2883498Y1174085D01*
X2896450Y1168720D01*
X2910470D01*
X2923422Y1174085D01*
X2933335Y1183998D01*
X2938700Y1196950D01*
Y1210970D01*
X2933335Y1223922D01*
X2923422Y1233835D01*
X2910470Y1239200D01*
D02*
G37*
G36*
X3880510Y1216340D02*
X3866490D01*
X3853538Y1210975D01*
X3843625Y1201062D01*
X3838260Y1188110D01*
Y1174090D01*
X3843625Y1161138D01*
X3853538Y1151225D01*
X3866490Y1145860D01*
X3880510D01*
X3893462Y1151225D01*
X3903375Y1161138D01*
X3908740Y1174090D01*
Y1188110D01*
X3903375Y1201062D01*
X3893462Y1210975D01*
X3880510Y1216340D01*
D02*
G37*
G36*
X4040530Y1168080D02*
X4026510D01*
X4013558Y1162715D01*
X4003645Y1152802D01*
X3998280Y1139850D01*
Y1125830D01*
X4003645Y1112878D01*
X4013558Y1102965D01*
X4026510Y1097600D01*
X4040530D01*
X4053482Y1102965D01*
X4063395Y1112878D01*
X4068760Y1125830D01*
Y1139850D01*
X4063395Y1152802D01*
X4053482Y1162715D01*
X4040530Y1168080D01*
D02*
G37*
G36*
X3880510Y1114740D02*
X3866490D01*
X3853538Y1109375D01*
X3843625Y1099462D01*
X3838260Y1086510D01*
Y1072490D01*
X3843625Y1059538D01*
X3853538Y1049625D01*
X3866490Y1044260D01*
X3880510D01*
X3893462Y1049625D01*
X3903375Y1059538D01*
X3908740Y1072490D01*
Y1086510D01*
X3903375Y1099462D01*
X3893462Y1109375D01*
X3880510Y1114740D01*
D02*
G37*
G36*
X3782274Y1086653D02*
X3768255D01*
X3755303Y1081288D01*
X3745390Y1071375D01*
X3740025Y1058423D01*
Y1044403D01*
X3745390Y1031451D01*
X3755303Y1021538D01*
X3768255Y1016173D01*
X3782274D01*
X3795226Y1021538D01*
X3805139Y1031451D01*
X3810504Y1044403D01*
Y1058423D01*
X3805139Y1071375D01*
X3795226Y1081288D01*
X3782274Y1086653D01*
D02*
G37*
G36*
X4040530Y1066480D02*
X4026510D01*
X4013558Y1061115D01*
X4003645Y1051202D01*
X3998280Y1038250D01*
Y1024230D01*
X4003645Y1011278D01*
X4013558Y1001365D01*
X4026510Y996000D01*
X4040530D01*
X4053482Y1001365D01*
X4063395Y1011278D01*
X4068760Y1024230D01*
Y1038250D01*
X4063395Y1051202D01*
X4053482Y1061115D01*
X4040530Y1066480D01*
D02*
G37*
G36*
X3623970Y1129980D02*
X3609950D01*
X3596998Y1124615D01*
X3593021Y1120638D01*
X2925840D01*
X2915930Y1118666D01*
X2907528Y1113052D01*
X2881275Y1086800D01*
X2875651D01*
X2862698Y1081435D01*
X2852785Y1071522D01*
X2847420Y1058570D01*
Y1044550D01*
X2852785Y1031598D01*
X2862698Y1021685D01*
X2875651Y1016320D01*
X2889670D01*
X2902622Y1021685D01*
X2912535Y1031598D01*
X2917900Y1044550D01*
Y1050175D01*
X2936567Y1068842D01*
X3124154D01*
X3129415Y1056142D01*
X3124474Y1051202D01*
X3119109Y1038250D01*
Y1024230D01*
X3124474Y1011278D01*
X3134387Y1001365D01*
X3140717Y998743D01*
Y984997D01*
X3134387Y982375D01*
X3124474Y972462D01*
X3119109Y959510D01*
Y945490D01*
X3124474Y932538D01*
X3134387Y922625D01*
X3147339Y917260D01*
X3161359D01*
X3174311Y922625D01*
X3184224Y932538D01*
X3189589Y945490D01*
Y959510D01*
X3184224Y972462D01*
X3174311Y982375D01*
X3167981Y984997D01*
Y998743D01*
X3174311Y1001365D01*
X3184224Y1011278D01*
X3189589Y1024230D01*
Y1038250D01*
X3184224Y1051202D01*
X3179283Y1056142D01*
X3184544Y1068842D01*
X3593021D01*
X3595734Y1066129D01*
X3597006Y1064363D01*
X3597223Y1051025D01*
X3592768Y1046570D01*
X3587403Y1033618D01*
Y1019599D01*
X3592768Y1006646D01*
X3602681Y996733D01*
X3615633Y991368D01*
X3629653D01*
X3642605Y996733D01*
X3652518Y1006646D01*
X3657883Y1019599D01*
Y1033618D01*
X3652518Y1046570D01*
X3643869Y1055219D01*
X3642597Y1056986D01*
X3642380Y1070323D01*
X3646835Y1074778D01*
X3652200Y1087730D01*
Y1101750D01*
X3646835Y1114702D01*
X3636922Y1124615D01*
X3623970Y1129980D01*
D02*
G37*
G36*
X7629550Y1122360D02*
X7615530D01*
X7602578Y1116995D01*
X7592665Y1107082D01*
X7587300Y1094130D01*
Y1080110D01*
X7592665Y1067158D01*
X7594887Y1064937D01*
X7602055Y1056640D01*
X7594887Y1048343D01*
X7592665Y1046122D01*
X7587300Y1033170D01*
Y1019150D01*
X7592665Y1006198D01*
X7594887Y1003977D01*
X7602055Y995680D01*
X7594887Y987383D01*
X7592665Y985162D01*
X7587300Y972210D01*
Y958190D01*
X7592665Y945238D01*
X7596157Y941747D01*
X7601394Y933450D01*
X7596157Y925153D01*
X7592665Y921662D01*
X7587300Y908710D01*
Y894690D01*
X7592665Y881738D01*
X7602578Y871825D01*
X7615530Y866460D01*
X7629550D01*
X7642502Y871825D01*
X7652415Y881738D01*
X7657780Y894690D01*
Y908710D01*
X7652415Y921662D01*
X7648923Y925153D01*
X7643686Y933450D01*
X7648923Y941747D01*
X7652415Y945238D01*
X7657780Y958190D01*
Y972210D01*
X7652415Y985162D01*
X7650193Y987383D01*
X7643025Y995680D01*
X7650193Y1003977D01*
X7652415Y1006198D01*
X7657780Y1019150D01*
Y1033170D01*
X7652415Y1046122D01*
X7650193Y1048343D01*
X7643025Y1056640D01*
X7650193Y1064937D01*
X7652415Y1067158D01*
X7657780Y1080110D01*
Y1094130D01*
X7652415Y1107082D01*
X7642502Y1116995D01*
X7629550Y1122360D01*
D02*
G37*
G36*
X3870350Y896300D02*
X3856330D01*
X3843378Y890935D01*
X3833465Y881022D01*
X3828100Y868070D01*
Y854050D01*
X3833465Y841098D01*
X3843378Y831185D01*
X3856330Y825820D01*
X3870350D01*
X3883302Y831185D01*
X3893215Y841098D01*
X3898580Y854050D01*
Y868070D01*
X3893215Y881022D01*
X3883302Y890935D01*
X3870350Y896300D01*
D02*
G37*
G36*
X3741348Y896260D02*
X3727328D01*
X3714376Y890895D01*
X3704463Y880982D01*
X3699098Y868030D01*
Y854010D01*
X3704463Y841058D01*
X3714376Y831145D01*
X3727328Y825780D01*
X3741348D01*
X3754300Y831145D01*
X3764213Y841058D01*
X3769578Y854010D01*
Y868030D01*
X3764213Y880982D01*
X3754300Y890895D01*
X3741348Y896260D01*
D02*
G37*
G36*
X6957367Y842043D02*
X6943348D01*
X6930395Y836678D01*
X6920482Y826764D01*
X6915117Y813812D01*
Y799793D01*
X6920482Y786841D01*
X6930395Y776928D01*
X6943348Y771563D01*
X6957367D01*
X6970319Y776928D01*
X6980232Y786841D01*
X6985597Y799793D01*
Y813812D01*
X6980232Y826764D01*
X6970319Y836678D01*
X6957367Y842043D01*
D02*
G37*
G36*
X3714490Y741360D02*
X3700470D01*
X3687518Y735995D01*
X3677605Y726082D01*
X3672240Y713130D01*
Y699110D01*
X3677605Y686158D01*
X3687518Y676245D01*
X3700470Y670880D01*
X3714490D01*
X3727442Y676245D01*
X3737355Y686158D01*
X3742720Y699110D01*
Y713130D01*
X3737355Y726082D01*
X3727442Y735995D01*
X3714490Y741360D01*
D02*
G37*
G36*
X4859020Y1885936D02*
X4847356Y1881104D01*
X4778527Y1812276D01*
X4559300D01*
X4547636Y1807444D01*
X4425716Y1685524D01*
X4420884Y1673860D01*
Y1452093D01*
X4341896Y1373104D01*
X4337064Y1361440D01*
Y739140D01*
X4341896Y727476D01*
X4420636Y648736D01*
X4432300Y643904D01*
X6304280D01*
X6315944Y648736D01*
X6366744Y699536D01*
X6371576Y711200D01*
Y846607D01*
X6422873Y897904D01*
X6515100D01*
X6526764Y902736D01*
X6580104Y956076D01*
X6584936Y967740D01*
Y1585558D01*
X6741160D01*
X6754539Y1588220D01*
X6765882Y1595798D01*
X6773460Y1607141D01*
X6776122Y1620520D01*
X6773460Y1633899D01*
X6765882Y1645242D01*
X6754539Y1652820D01*
X6754390Y1652850D01*
X6753089Y1666058D01*
X6761122Y1669385D01*
X6771035Y1679298D01*
X6776400Y1692250D01*
Y1706270D01*
X6771035Y1719222D01*
X6761122Y1729135D01*
X6748170Y1734500D01*
X6734150D01*
X6721198Y1729135D01*
X6713220Y1721157D01*
X6705242Y1729135D01*
X6692290Y1734500D01*
X6678270D01*
X6665318Y1729135D01*
X6655405Y1719222D01*
X6650040Y1706270D01*
Y1692250D01*
X6655405Y1679298D01*
X6665318Y1669385D01*
X6668223Y1668182D01*
X6665697Y1655482D01*
X6584936D01*
Y1780540D01*
X6580104Y1792204D01*
X6491205Y1881103D01*
X6479541Y1885935D01*
X4859020Y1885936D01*
D02*
G37*
G36*
X5881242Y456093D02*
X5867223D01*
X5854271Y450728D01*
X5844358Y440814D01*
X5838993Y427862D01*
Y413843D01*
X5844358Y400891D01*
X5854271Y390978D01*
X5867223Y385613D01*
X5881242D01*
X5894194Y390978D01*
X5904108Y400891D01*
X5909473Y413843D01*
Y427862D01*
X5904108Y440814D01*
X5894194Y450728D01*
X5881242Y456093D01*
D02*
G37*
G36*
X5473090Y454340D02*
X5459070D01*
X5446118Y448975D01*
X5436205Y439062D01*
X5430840Y426110D01*
Y412090D01*
X5436205Y399138D01*
X5446118Y389225D01*
X5459070Y383860D01*
X5473090D01*
X5486042Y389225D01*
X5495955Y399138D01*
X5501320Y412090D01*
Y426110D01*
X5495955Y439062D01*
X5486042Y448975D01*
X5473090Y454340D01*
D02*
G37*
G36*
X4756810Y449260D02*
X4742790D01*
X4729838Y443895D01*
X4719925Y433982D01*
X4714560Y421030D01*
Y407010D01*
X4719925Y394058D01*
X4729838Y384145D01*
X4742790Y378780D01*
X4756810D01*
X4769762Y384145D01*
X4779675Y394058D01*
X4785040Y407010D01*
Y421030D01*
X4779675Y433982D01*
X4769762Y443895D01*
X4756810Y449260D01*
D02*
G37*
G36*
X4627270D02*
X4613250D01*
X4600298Y443895D01*
X4590385Y433982D01*
X4585020Y421030D01*
Y407010D01*
X4590385Y394058D01*
X4600298Y384145D01*
X4613250Y378780D01*
X4627270D01*
X4640222Y384145D01*
X4650135Y394058D01*
X4655500Y407010D01*
Y421030D01*
X4650135Y433982D01*
X4640222Y443895D01*
X4627270Y449260D01*
D02*
G37*
G36*
X4500270D02*
X4486250D01*
X4473298Y443895D01*
X4463385Y433982D01*
X4458020Y421030D01*
Y407010D01*
X4463385Y394058D01*
X4473298Y384145D01*
X4486250Y378780D01*
X4500270D01*
X4513222Y384145D01*
X4523135Y394058D01*
X4528500Y407010D01*
Y421030D01*
X4523135Y433982D01*
X4513222Y443895D01*
X4500270Y449260D01*
D02*
G37*
G36*
X4378350D02*
X4364330D01*
X4351378Y443895D01*
X4341465Y433982D01*
X4336100Y421030D01*
Y407010D01*
X4341465Y394058D01*
X4351378Y384145D01*
X4364330Y378780D01*
X4378350D01*
X4391302Y384145D01*
X4401215Y394058D01*
X4406580Y407010D01*
Y421030D01*
X4401215Y433982D01*
X4391302Y443895D01*
X4378350Y449260D01*
D02*
G37*
G36*
X4253890D02*
X4239870D01*
X4226918Y443895D01*
X4217005Y433982D01*
X4211640Y421030D01*
Y407010D01*
X4217005Y394058D01*
X4226918Y384145D01*
X4239870Y378780D01*
X4253890D01*
X4266842Y384145D01*
X4276755Y394058D01*
X4282120Y407010D01*
Y421030D01*
X4276755Y433982D01*
X4266842Y443895D01*
X4253890Y449260D01*
D02*
G37*
G36*
X4131970Y446720D02*
X4117950D01*
X4104998Y441355D01*
X4095085Y431442D01*
X4089720Y418490D01*
Y404470D01*
X4095085Y391518D01*
X4104998Y381605D01*
X4117950Y376240D01*
X4131970D01*
X4144922Y381605D01*
X4154835Y391518D01*
X4160200Y404470D01*
Y418490D01*
X4154835Y431442D01*
X4144922Y441355D01*
X4131970Y446720D01*
D02*
G37*
G36*
X3877970Y444180D02*
X3863950D01*
X3850998Y438815D01*
X3841085Y428902D01*
X3835720Y415950D01*
Y401930D01*
X3841085Y388978D01*
X3850998Y379065D01*
X3863950Y373700D01*
X3877970D01*
X3890922Y379065D01*
X3900835Y388978D01*
X3906200Y401930D01*
Y415950D01*
X3900835Y428902D01*
X3890922Y438815D01*
X3877970Y444180D01*
D02*
G37*
G36*
X2993670Y441800D02*
X2979650D01*
X2966698Y436435D01*
X2956785Y426522D01*
X2951420Y413570D01*
Y399550D01*
X2956785Y386598D01*
X2966698Y376685D01*
X2979650Y371320D01*
X2993670D01*
X3006622Y376685D01*
X3016535Y386598D01*
X3021900Y399550D01*
Y413570D01*
X3016535Y426522D01*
X3006622Y436435D01*
X2993670Y441800D01*
D02*
G37*
G36*
X2868670D02*
X2854650D01*
X2841698Y436435D01*
X2831785Y426522D01*
X2826420Y413570D01*
Y399550D01*
X2831785Y386598D01*
X2841698Y376685D01*
X2854650Y371320D01*
X2868670D01*
X2881622Y376685D01*
X2891535Y386598D01*
X2896900Y399550D01*
Y413570D01*
X2891535Y426522D01*
X2881622Y436435D01*
X2868670Y441800D01*
D02*
G37*
G36*
X2743670D02*
X2729650D01*
X2716698Y436435D01*
X2706785Y426522D01*
X2701420Y413570D01*
Y399550D01*
X2706785Y386598D01*
X2716698Y376685D01*
X2729650Y371320D01*
X2743670D01*
X2756622Y376685D01*
X2766535Y386598D01*
X2771900Y399550D01*
Y413570D01*
X2766535Y426522D01*
X2756622Y436435D01*
X2743670Y441800D01*
D02*
G37*
G36*
X2493670D02*
X2479650D01*
X2466698Y436435D01*
X2456785Y426522D01*
X2451420Y413570D01*
Y399550D01*
X2456785Y386598D01*
X2466698Y376685D01*
X2479650Y371320D01*
X2493670D01*
X2506622Y376685D01*
X2516535Y386598D01*
X2521900Y399550D01*
Y413570D01*
X2516535Y426522D01*
X2506622Y436435D01*
X2493670Y441800D01*
D02*
G37*
G36*
X1352290D02*
X1338270D01*
X1325318Y436435D01*
X1315405Y426522D01*
X1310040Y413570D01*
Y399550D01*
X1315405Y386598D01*
X1325318Y376685D01*
X1338270Y371320D01*
X1352290D01*
X1365242Y376685D01*
X1375155Y386598D01*
X1380520Y399550D01*
Y413570D01*
X1375155Y426522D01*
X1365242Y436435D01*
X1352290Y441800D01*
D02*
G37*
G36*
X3118510Y441640D02*
X3104490D01*
X3091538Y436275D01*
X3081625Y426362D01*
X3076260Y413410D01*
Y399390D01*
X3081625Y386438D01*
X3091538Y376525D01*
X3104490Y371160D01*
X3118510D01*
X3131462Y376525D01*
X3141375Y386438D01*
X3146740Y399390D01*
Y413410D01*
X3141375Y426362D01*
X3131462Y436275D01*
X3118510Y441640D01*
D02*
G37*
G36*
X1599590Y436560D02*
X1585570D01*
X1572618Y431195D01*
X1562705Y421282D01*
X1557340Y408330D01*
Y394310D01*
X1562705Y381358D01*
X1572618Y371445D01*
X1585570Y366080D01*
X1599590D01*
X1612542Y371445D01*
X1622455Y381358D01*
X1627820Y394310D01*
Y408330D01*
X1622455Y421282D01*
X1612542Y431195D01*
X1599590Y436560D01*
D02*
G37*
G36*
X1724050Y434020D02*
X1710030D01*
X1697078Y428655D01*
X1687165Y418742D01*
X1681800Y405790D01*
Y391770D01*
X1687165Y378818D01*
X1697078Y368905D01*
X1710030Y363540D01*
X1724050D01*
X1737002Y368905D01*
X1746915Y378818D01*
X1752280Y391770D01*
Y405790D01*
X1746915Y418742D01*
X1737002Y428655D01*
X1724050Y434020D01*
D02*
G37*
G36*
X6075070Y428940D02*
X6061050D01*
X6048098Y423575D01*
X6038185Y413662D01*
X6032820Y400710D01*
Y386690D01*
X6038185Y373738D01*
X6048098Y363825D01*
X6061050Y358460D01*
X6075070D01*
X6088022Y363825D01*
X6097935Y373738D01*
X6103300Y386690D01*
Y400710D01*
X6097935Y413662D01*
X6088022Y423575D01*
X6075070Y428940D01*
D02*
G37*
G36*
X5473090Y357820D02*
X5459070D01*
X5446118Y352455D01*
X5436205Y342542D01*
X5430840Y329590D01*
Y315570D01*
X5436205Y302618D01*
X5446118Y292705D01*
X5459070Y287340D01*
X5473090D01*
X5486042Y292705D01*
X5495955Y302618D01*
X5501320Y315570D01*
Y329590D01*
X5495955Y342542D01*
X5486042Y352455D01*
X5473090Y357820D01*
D02*
G37*
G36*
X6075070Y286700D02*
X6061050D01*
X6048098Y281335D01*
X6038185Y271422D01*
X6032820Y258470D01*
Y244450D01*
X6038185Y231498D01*
X6048098Y221585D01*
X6061050Y216220D01*
X6075070D01*
X6088022Y221585D01*
X6097935Y231498D01*
X6103300Y244450D01*
Y258470D01*
X6097935Y271422D01*
X6088022Y281335D01*
X6075070Y286700D01*
D02*
G37*
G36*
X5473090Y261300D02*
X5459070D01*
X5446118Y255935D01*
X5436205Y246022D01*
X5430840Y233070D01*
Y219050D01*
X5436205Y206098D01*
X5446118Y196185D01*
X5459070Y190820D01*
X5473090D01*
X5486042Y196185D01*
X5495955Y206098D01*
X5501320Y219050D01*
Y233070D01*
X5495955Y246022D01*
X5486042Y255935D01*
X5473090Y261300D01*
D02*
G37*
G36*
X7207910Y203170D02*
X7193890D01*
X7180938Y197805D01*
X7171025Y187892D01*
X7165660Y174939D01*
Y160920D01*
X7171025Y147968D01*
X7180938Y138055D01*
X7193890Y132690D01*
X7207910D01*
X7220862Y138055D01*
X7230775Y147968D01*
X7236140Y160920D01*
Y174939D01*
X7230775Y187892D01*
X7220862Y197805D01*
X7207910Y203170D01*
D02*
G37*
%LPD*%
G36*
X6479541Y1869439D02*
X6568440Y1780540D01*
Y967740D01*
X6515100Y914400D01*
X6416040D01*
X6355080Y853440D01*
Y711200D01*
X6304280Y660400D01*
X4432300D01*
X4353560Y739140D01*
Y1361440D01*
X4437380Y1445260D01*
Y1673860D01*
X4559300Y1795780D01*
X4785360D01*
X4859020Y1869440D01*
X6479541Y1869439D01*
D02*
G37*
%LPC*%
G36*
X5569610Y1777920D02*
X5555590D01*
X5542638Y1772555D01*
X5532725Y1762642D01*
X5527360Y1749689D01*
Y1735670D01*
X5532725Y1722718D01*
X5542638Y1712805D01*
X5555590Y1707440D01*
X5569610D01*
X5582562Y1712805D01*
X5592475Y1722718D01*
X5597840Y1735670D01*
Y1749689D01*
X5592475Y1762642D01*
X5582562Y1772555D01*
X5569610Y1777920D01*
D02*
G37*
G36*
X5277510Y1775380D02*
X5263490D01*
X5250538Y1770015D01*
X5240625Y1760102D01*
X5235260Y1747149D01*
Y1733130D01*
X5240625Y1720178D01*
X5250538Y1710265D01*
X5263490Y1704900D01*
X5277510D01*
X5290462Y1710265D01*
X5300375Y1720178D01*
X5305740Y1733130D01*
Y1747149D01*
X5300375Y1760102D01*
X5290462Y1770015D01*
X5277510Y1775380D01*
D02*
G37*
G36*
X6006490Y1589720D02*
X5992470D01*
X5979518Y1584355D01*
X5969605Y1574442D01*
X5964240Y1561490D01*
Y1547470D01*
X5969605Y1534518D01*
X5979518Y1524605D01*
X5992470Y1519240D01*
X6006490D01*
X6019442Y1524605D01*
X6029355Y1534518D01*
X6034720Y1547470D01*
Y1561490D01*
X6029355Y1574442D01*
X6019442Y1584355D01*
X6006490Y1589720D01*
D02*
G37*
G36*
X4840630D02*
X4826610D01*
X4813658Y1584355D01*
X4803745Y1574442D01*
X4798380Y1561490D01*
Y1547470D01*
X4803745Y1534518D01*
X4813658Y1524605D01*
X4826610Y1519240D01*
X4840630D01*
X4853582Y1524605D01*
X4863495Y1534518D01*
X4868860Y1547470D01*
Y1561490D01*
X4863495Y1574442D01*
X4853582Y1584355D01*
X4840630Y1589720D01*
D02*
G37*
G36*
X5063577Y1300160D02*
X5049558D01*
X5036606Y1294795D01*
X5026693Y1284882D01*
X5021328Y1271930D01*
Y1257910D01*
X5026693Y1244958D01*
X5036606Y1235045D01*
X5049558Y1229680D01*
X5063577D01*
X5076529Y1235045D01*
X5086442Y1244958D01*
X5091807Y1257910D01*
Y1271930D01*
X5086442Y1284882D01*
X5076529Y1294795D01*
X5063577Y1300160D01*
D02*
G37*
G36*
X6009030Y1010600D02*
X5995010D01*
X5982058Y1005235D01*
X5972145Y995322D01*
X5966780Y982370D01*
Y968350D01*
X5972145Y955398D01*
X5982058Y945485D01*
X5995010Y940120D01*
X6009030D01*
X6021982Y945485D01*
X6031895Y955398D01*
X6037260Y968350D01*
Y982370D01*
X6031895Y995322D01*
X6021982Y1005235D01*
X6009030Y1010600D01*
D02*
G37*
G36*
X4840578Y1010102D02*
X4826559D01*
X4813607Y1004737D01*
X4803694Y994824D01*
X4798329Y981872D01*
Y967853D01*
X4803694Y954900D01*
X4813607Y944987D01*
X4826559Y939622D01*
X4840578D01*
X4853531Y944987D01*
X4863444Y954900D01*
X4868809Y967853D01*
Y981872D01*
X4863444Y994824D01*
X4853531Y1004737D01*
X4840578Y1010102D01*
D02*
G37*
G36*
X5572150Y822400D02*
X5558130D01*
X5545178Y817035D01*
X5535265Y807122D01*
X5529900Y794170D01*
Y780151D01*
X5535265Y767198D01*
X5545178Y757285D01*
X5558130Y751920D01*
X5572150D01*
X5585102Y757285D01*
X5595015Y767198D01*
X5600380Y780151D01*
Y794170D01*
X5595015Y807122D01*
X5585102Y817035D01*
X5572150Y822400D01*
D02*
G37*
G36*
X5277510D02*
X5263490D01*
X5250538Y817035D01*
X5240625Y807122D01*
X5235260Y794170D01*
Y780151D01*
X5240625Y767198D01*
X5250538Y757285D01*
X5263490Y751920D01*
X5277510D01*
X5290462Y757285D01*
X5300375Y767198D01*
X5305740Y780151D01*
Y794170D01*
X5300375Y807122D01*
X5290462Y817035D01*
X5277510Y822400D01*
D02*
G37*
%LPD*%
D50*
X2925840Y1094740D02*
X3616960D01*
X2882660Y1051560D02*
X2925840Y1094740D01*
D52*
X9413240Y2938557D02*
Y4655820D01*
X9194800Y4874260D02*
X9413240Y4655820D01*
X6540500Y1620520D02*
X6741160D01*
D56*
X71800Y5393123D02*
D03*
X760140D02*
D03*
X415970D02*
D03*
X243885D02*
D03*
X932225D02*
D03*
X588055D02*
D03*
X1104310D02*
D03*
X1276395D02*
D03*
X1448480Y5583623D02*
D03*
X71800D02*
D03*
X760140D02*
D03*
X415970D02*
D03*
X243885D02*
D03*
X932225D02*
D03*
X588055D02*
D03*
X1104310D02*
D03*
X1276395D02*
D03*
X1448480Y922723D02*
D03*
X71800D02*
D03*
X760140D02*
D03*
X415970D02*
D03*
X243885D02*
D03*
X932225D02*
D03*
X588055D02*
D03*
X1104310D02*
D03*
X1276395D02*
D03*
X71800Y1113223D02*
D03*
X760140D02*
D03*
X415970D02*
D03*
X243885D02*
D03*
X932225D02*
D03*
X588055D02*
D03*
X1104310D02*
D03*
X1276395D02*
D03*
X2829560Y5912505D02*
D03*
Y5568335D02*
D03*
Y6256675D02*
D03*
Y6084590D02*
D03*
Y5740420D02*
D03*
Y6428760D02*
D03*
X2639060Y5912505D02*
D03*
Y5568335D02*
D03*
Y6256675D02*
D03*
Y6084590D02*
D03*
Y5740420D02*
D03*
Y6428760D02*
D03*
X3869557Y5224165D02*
D03*
Y5396250D02*
D03*
Y5912505D02*
D03*
Y5568335D02*
D03*
Y6256675D02*
D03*
Y6084590D02*
D03*
Y5740420D02*
D03*
Y6428760D02*
D03*
Y5052080D02*
D03*
X3679057Y5224165D02*
D03*
Y5396250D02*
D03*
Y5912505D02*
D03*
Y5568335D02*
D03*
Y6256675D02*
D03*
Y6084590D02*
D03*
Y5740420D02*
D03*
Y6428760D02*
D03*
X5329623Y5224165D02*
D03*
Y5396250D02*
D03*
Y5912505D02*
D03*
Y5568335D02*
D03*
Y6256675D02*
D03*
Y6084590D02*
D03*
Y5740420D02*
D03*
Y6428760D02*
D03*
X5139123Y5224165D02*
D03*
Y5396250D02*
D03*
Y5912505D02*
D03*
Y5568335D02*
D03*
Y6256675D02*
D03*
Y6084590D02*
D03*
Y5740420D02*
D03*
Y6428760D02*
D03*
Y5052080D02*
D03*
X6369620Y5224165D02*
D03*
Y5396250D02*
D03*
Y5912505D02*
D03*
Y5568335D02*
D03*
Y6256675D02*
D03*
Y6084590D02*
D03*
Y5740420D02*
D03*
Y6428760D02*
D03*
Y5052080D02*
D03*
X6179120Y5224165D02*
D03*
Y5396250D02*
D03*
Y5912505D02*
D03*
Y5568335D02*
D03*
Y6256675D02*
D03*
Y6084590D02*
D03*
Y5740420D02*
D03*
Y6428760D02*
D03*
X7642426Y5224165D02*
D03*
Y5396250D02*
D03*
Y5912505D02*
D03*
Y5568335D02*
D03*
Y6256675D02*
D03*
Y6084590D02*
D03*
Y5740420D02*
D03*
Y6428760D02*
D03*
X7451926Y5224165D02*
D03*
Y5396250D02*
D03*
Y5912505D02*
D03*
Y5568335D02*
D03*
Y6256675D02*
D03*
Y6084590D02*
D03*
Y5740420D02*
D03*
Y6428760D02*
D03*
Y5052080D02*
D03*
X8682423Y5224165D02*
D03*
Y5396250D02*
D03*
Y5912505D02*
D03*
Y5568335D02*
D03*
Y6256675D02*
D03*
Y6084590D02*
D03*
Y5740420D02*
D03*
Y6428760D02*
D03*
Y5052080D02*
D03*
X8491923Y5224165D02*
D03*
Y5396250D02*
D03*
Y5912505D02*
D03*
Y5568335D02*
D03*
Y6256675D02*
D03*
Y6084590D02*
D03*
Y5740420D02*
D03*
Y6428760D02*
D03*
D57*
X8719820Y3533140D02*
D03*
X5438140D02*
D03*
X2186940D02*
D03*
X9499384Y500001D02*
D03*
Y6000012D02*
D03*
X499366Y500001D02*
D03*
Y6000012D02*
D03*
D58*
X8450580Y3533140D02*
D03*
X8585200Y3299971D02*
D03*
X8854440D02*
D03*
X8989060Y3533140D02*
D03*
X8854440Y3766309D02*
D03*
X8585200D02*
D03*
X5168900Y3533140D02*
D03*
X5303520Y3299971D02*
D03*
X5572760D02*
D03*
X5707380Y3533140D02*
D03*
X5572760Y3766309D02*
D03*
X5303520D02*
D03*
X1917700Y3533140D02*
D03*
X2052320Y3299971D02*
D03*
X2321560D02*
D03*
X2456180Y3533140D02*
D03*
X2321560Y3766309D02*
D03*
X2052320D02*
D03*
X9364764Y733170D02*
D03*
X9634004D02*
D03*
X9768624Y500001D02*
D03*
X9634004Y266832D02*
D03*
X9364764D02*
D03*
X9230144Y500001D02*
D03*
X9364764Y6233181D02*
D03*
X9634004D02*
D03*
X9768624Y6000012D02*
D03*
X9634004Y5766843D02*
D03*
X9364764D02*
D03*
X9230144Y6000012D02*
D03*
X364746Y733170D02*
D03*
X633986D02*
D03*
X768606Y500001D02*
D03*
X633986Y266832D02*
D03*
X364746D02*
D03*
X230126Y500001D02*
D03*
X364746Y6233181D02*
D03*
X633986D02*
D03*
X768606Y6000012D02*
D03*
X633986Y5766843D02*
D03*
X364746D02*
D03*
X230126Y6000012D02*
D03*
D59*
X6685280Y1699260D02*
D03*
X6741160D02*
D03*
X6946900Y1711960D02*
D03*
X7233920D02*
D03*
X6917289Y1620327D02*
D03*
X7206329Y1620507D02*
D03*
X3309080Y363220D02*
D03*
X3310920Y107780D02*
D03*
X3387120D02*
D03*
X3390360Y363220D02*
D03*
X3468400Y107780D02*
D03*
X1917700Y363220D02*
D03*
X1919540Y107780D02*
D03*
X1995740D02*
D03*
X1998980Y363220D02*
D03*
X2077020Y107780D02*
D03*
X2132680Y363220D02*
D03*
X2210720Y107780D02*
D03*
X2213960Y363220D02*
D03*
X2290160D02*
D03*
X2292000Y107780D02*
D03*
X3519520Y363220D02*
D03*
X3597560Y107780D02*
D03*
X3678840D02*
D03*
X3677000Y363220D02*
D03*
X3600800D02*
D03*
X4947760Y107780D02*
D03*
X5023960D02*
D03*
X5105240D02*
D03*
X4945920Y363220D02*
D03*
X5027200D02*
D03*
X5103400D02*
D03*
X5617997Y231623D02*
D03*
X5724677D02*
D03*
X5617997Y323063D02*
D03*
X5724677D02*
D03*
Y414503D02*
D03*
X5617997D02*
D03*
X6814820Y2319020D02*
D03*
Y2405380D02*
D03*
X6957327Y2405372D02*
D03*
X6957356Y2319012D02*
D03*
Y2827012D02*
D03*
X6957327Y2913372D02*
D03*
X6814820Y2913380D02*
D03*
Y2827020D02*
D03*
X6957356Y3335012D02*
D03*
X6957327Y3421372D02*
D03*
X6814820Y3421380D02*
D03*
Y3335020D02*
D03*
X6957356Y3843012D02*
D03*
X6957327Y3929372D02*
D03*
X6814820Y3929380D02*
D03*
Y3843020D02*
D03*
X7194864Y4097012D02*
D03*
X7194893Y4183372D02*
D03*
X7337400Y4183380D02*
D03*
Y4097020D02*
D03*
X7194864Y3589012D02*
D03*
X7194893Y3675372D02*
D03*
X7337400Y3675380D02*
D03*
Y3589020D02*
D03*
X7194864Y3081012D02*
D03*
X7194893Y3167372D02*
D03*
X7337400Y3167380D02*
D03*
Y3081020D02*
D03*
X7194864Y2573012D02*
D03*
X7194893Y2659372D02*
D03*
X7337400Y2659380D02*
D03*
Y2573020D02*
D03*
X3550920Y2321560D02*
D03*
Y2407920D02*
D03*
X3693427Y2407912D02*
D03*
X3693456Y2321552D02*
D03*
Y2829552D02*
D03*
X3693427Y2915912D02*
D03*
X3550920Y2915920D02*
D03*
Y2829560D02*
D03*
X3693456Y3337552D02*
D03*
X3693427Y3423912D02*
D03*
X3550920Y3423920D02*
D03*
Y3337560D02*
D03*
X3693456Y3845552D02*
D03*
X3693427Y3931912D02*
D03*
X3550920Y3931920D02*
D03*
Y3845560D02*
D03*
X3930964Y4099552D02*
D03*
X3930993Y4185912D02*
D03*
X4073500Y4185920D02*
D03*
Y4099560D02*
D03*
X3930964Y3591552D02*
D03*
X3930993Y3677912D02*
D03*
X4073500Y3677920D02*
D03*
Y3591560D02*
D03*
X3930964Y3083552D02*
D03*
X3930993Y3169912D02*
D03*
X4073500Y3169920D02*
D03*
Y3083560D02*
D03*
X3930964Y2575552D02*
D03*
X3930993Y2661912D02*
D03*
X4073500Y2661920D02*
D03*
Y2575560D02*
D03*
X801980Y2573020D02*
D03*
Y2659380D02*
D03*
X659473Y2659372D02*
D03*
X659444Y2573012D02*
D03*
X801980Y3081020D02*
D03*
Y3167380D02*
D03*
X659473Y3167372D02*
D03*
X659444Y3081012D02*
D03*
X801980Y3589020D02*
D03*
Y3675380D02*
D03*
X659473Y3675372D02*
D03*
X659444Y3589012D02*
D03*
X801980Y4097020D02*
D03*
Y4183380D02*
D03*
X659473Y4183372D02*
D03*
X659444Y4097012D02*
D03*
X279400Y3843020D02*
D03*
Y3929380D02*
D03*
X421907Y3929372D02*
D03*
X421936Y3843012D02*
D03*
X279400Y3335020D02*
D03*
Y3421380D02*
D03*
X421907Y3421372D02*
D03*
X421936Y3335012D02*
D03*
X279400Y2827020D02*
D03*
Y2913380D02*
D03*
X421907Y2913372D02*
D03*
X421936Y2827012D02*
D03*
Y2319012D02*
D03*
X421907Y2405372D02*
D03*
X279400Y2405380D02*
D03*
Y2319020D02*
D03*
X9194800Y4874260D02*
D03*
X4023360Y1231900D02*
D03*
X9048640Y4823460D02*
D03*
X4236720Y1299210D02*
D03*
X1732280Y796640D02*
D03*
X1574800Y794100D02*
D03*
X7967980Y239060D02*
D03*
Y310180D02*
D03*
X7853680Y162860D02*
D03*
X7782560D02*
D03*
X8155940Y167940D02*
D03*
X8084820D02*
D03*
X8003540D02*
D03*
X7932420D02*
D03*
X6573520Y848360D02*
D03*
X6644640D02*
D03*
X6725920D02*
D03*
X6797040D02*
D03*
X6423660Y843280D02*
D03*
X6494780D02*
D03*
X6609080Y990600D02*
D03*
Y919480D02*
D03*
X8407400Y1343660D02*
D03*
X8615680D02*
D03*
X8511540D02*
D03*
Y1493520D02*
D03*
X8509000Y1196340D02*
D03*
X8615680Y1193800D02*
D03*
X8407400Y1196340D02*
D03*
X8615680Y1493520D02*
D03*
X8407400D02*
D03*
X5412740Y1264920D02*
D03*
X4444420Y1376680D02*
D03*
X4445290Y1222030D02*
D03*
X3591560Y1430020D02*
D03*
X3594100Y1181100D02*
D03*
X3591560Y1308100D02*
D03*
X3657600Y1430020D02*
D03*
X3660140Y1181100D02*
D03*
X3657600Y1308100D02*
D03*
X3721100D02*
D03*
X3723640Y1181100D02*
D03*
X3721100Y1430020D02*
D03*
X6002020Y975360D02*
D03*
X4833569Y974862D02*
D03*
X4833620Y1554480D02*
D03*
X7914640Y947420D02*
D03*
Y876300D02*
D03*
Y795020D02*
D03*
Y723900D02*
D03*
Y1026160D02*
D03*
Y1097280D02*
D03*
X7736840Y909320D02*
D03*
X7807960D02*
D03*
X2540860Y997680D02*
D03*
X2371500Y663480D02*
D03*
X2433280Y725900D02*
D03*
X2479080Y935260D02*
D03*
X2142620Y757760D02*
D03*
X2784980Y903400D02*
D03*
X6439540Y188730D02*
D03*
X7009260Y1446140D02*
D03*
X6719700D02*
D03*
X6367800Y1447480D02*
D03*
X6367800Y1790380D02*
D03*
X7008940Y1791900D02*
D03*
X6720540D02*
D03*
X7071040Y1854000D02*
D03*
X6782640D02*
D03*
X7612380Y1308100D02*
D03*
X7675860Y1232220D02*
D03*
Y1387160D02*
D03*
X8739900Y1699580D02*
D03*
X7885079Y1544640D02*
D03*
X7556500Y449580D02*
D03*
X7635560Y387260D02*
D03*
X7475220Y388320D02*
D03*
X7413120Y450420D02*
D03*
X6743700Y167930D02*
D03*
X6896100D02*
D03*
X6847840Y584200D02*
D03*
X6896100Y528320D02*
D03*
Y640080D02*
D03*
X6802120Y530860D02*
D03*
Y640080D02*
D03*
X7133460Y1447800D02*
D03*
X6843900D02*
D03*
X6492000Y1442720D02*
D03*
X6492000Y1790700D02*
D03*
X6845060D02*
D03*
X7133460D02*
D03*
X9090660Y810260D02*
D03*
X9161780D02*
D03*
X9235440D02*
D03*
X8983980Y863600D02*
D03*
X9055100D02*
D03*
X9128760D02*
D03*
X9199880D02*
D03*
X9306560Y916940D02*
D03*
X9380220D02*
D03*
X9451340D02*
D03*
X9019540D02*
D03*
X9090660D02*
D03*
X9164320D02*
D03*
X9235440D02*
D03*
X9271000Y972820D02*
D03*
X9344660D02*
D03*
X9415780D02*
D03*
X8983980D02*
D03*
X9055100D02*
D03*
X9128760D02*
D03*
X9199880D02*
D03*
X9202420Y116840D02*
D03*
X9131300D02*
D03*
X9057640D02*
D03*
X8986520D02*
D03*
X9166860Y167640D02*
D03*
X9095740D02*
D03*
X9022080D02*
D03*
X8950960D02*
D03*
X1617760Y2466340D02*
D03*
X1688880D02*
D03*
X4874040D02*
D03*
X4945160D02*
D03*
X8209280D02*
D03*
X8138160D02*
D03*
X7622540Y901700D02*
D03*
Y965200D02*
D03*
Y1026160D02*
D03*
Y1087120D02*
D03*
X8021320Y2807020D02*
D03*
X4820920Y2755900D02*
D03*
X4749800Y2822260D02*
D03*
X2034540Y2207260D02*
D03*
X5239700Y2321560D02*
D03*
X1567180Y2748280D02*
D03*
X1498600Y2814124D02*
D03*
X1062880Y2377440D02*
D03*
X1127520Y2453640D02*
D03*
Y2298700D02*
D03*
X4327940Y2379980D02*
D03*
X4392580Y2456180D02*
D03*
Y2301240D02*
D03*
X7659240Y2296160D02*
D03*
Y2451100D02*
D03*
X7594600Y2374900D02*
D03*
X8503820Y2321560D02*
D03*
X8094980Y2743200D02*
D03*
X4381500Y1464580D02*
D03*
X4445000Y795020D02*
D03*
Y952500D02*
D03*
X4382590Y876590D02*
D03*
X4173220Y797560D02*
D03*
Y949960D02*
D03*
X4299980Y797560D02*
D03*
Y949960D02*
D03*
X5793980Y731520D02*
D03*
X5041296Y733573D02*
D03*
X5793980Y1798320D02*
D03*
X5041660Y1795780D02*
D03*
X4236720Y1464580D02*
D03*
X2903460Y1663700D02*
D03*
X3373120Y1739900D02*
D03*
X2819980Y1279580D02*
D03*
X2819400Y1432560D02*
D03*
Y1587500D02*
D03*
X2816860Y1732280D02*
D03*
X2821250Y1140150D02*
D03*
X2904620Y1356360D02*
D03*
X2903460Y1203960D02*
D03*
X2965450Y1283970D02*
D03*
X3154349Y952500D02*
D03*
Y1031240D02*
D03*
X5869700Y226060D02*
D03*
X5874233Y420853D02*
D03*
X3616960Y1094740D02*
D03*
X2882660Y1051560D02*
D03*
X3707480Y706120D02*
D03*
X1470280Y406560D02*
D03*
X1345280D02*
D03*
X2486660D02*
D03*
X2611660D02*
D03*
X2736660D02*
D03*
X2861660D02*
D03*
X2986660D02*
D03*
X3111500Y406400D02*
D03*
X3622643Y1026608D02*
D03*
X3870960Y408940D02*
D03*
X3997960D02*
D03*
X4124960Y411480D02*
D03*
X4246880Y414020D02*
D03*
X4371340D02*
D03*
X4493260D02*
D03*
X4620260D02*
D03*
X4749800D02*
D03*
X3246120Y1656080D02*
D03*
X3169920Y1280160D02*
D03*
X3324860Y1333500D02*
D03*
X3169920Y1381760D02*
D03*
X3324860Y1432560D02*
D03*
X3169920Y1483360D02*
D03*
X3324860Y1531620D02*
D03*
X3169920Y1582420D02*
D03*
X1592580Y401320D02*
D03*
X1717040Y398780D02*
D03*
X6068060Y393700D02*
D03*
Y251460D02*
D03*
X3775264Y1051413D02*
D03*
X3863340Y861060D02*
D03*
X3734338Y861020D02*
D03*
X5466080Y322580D02*
D03*
Y226060D02*
D03*
Y419100D02*
D03*
X3776980Y1729740D02*
D03*
X3822700Y1498840D02*
D03*
X3624580Y1742440D02*
D03*
X3528060Y1739900D02*
D03*
X3574180Y1586676D02*
D03*
X3721571Y1583114D02*
D03*
X3873500Y1181100D02*
D03*
X4033520Y1132840D02*
D03*
X3873500Y1079500D02*
D03*
X4033520Y1031240D02*
D03*
X5565140Y787160D02*
D03*
X5562600Y1742680D02*
D03*
X5270500Y1740140D02*
D03*
Y787160D02*
D03*
X5999480Y1554480D02*
D03*
X5056567Y1264920D02*
D03*
X5786120D02*
D03*
X7881620Y2362200D02*
D03*
X7741920Y2392680D02*
D03*
X4610100Y2370820D02*
D03*
X4475480Y2400300D02*
D03*
X1361440Y2362200D02*
D03*
X1209040Y2395220D02*
D03*
X7200900Y167930D02*
D03*
X6950357Y806803D02*
D03*
D60*
X8500000Y4100000D02*
D03*
Y4300000D02*
D03*
Y4500000D02*
D03*
Y3900000D02*
D03*
X8600000Y4200000D02*
D03*
Y4400000D02*
D03*
Y4000000D02*
D03*
X8700000Y4100000D02*
D03*
Y4300000D02*
D03*
Y4500000D02*
D03*
Y3900000D02*
D03*
X8800000Y4200000D02*
D03*
Y4400000D02*
D03*
Y4000000D02*
D03*
X8900000Y4100000D02*
D03*
Y4300000D02*
D03*
Y4500000D02*
D03*
Y3900000D02*
D03*
X9000000Y4200000D02*
D03*
Y4400000D02*
D03*
Y4000000D02*
D03*
Y3800000D02*
D03*
X9100000Y4300000D02*
D03*
Y4500000D02*
D03*
Y4100000D02*
D03*
Y3700000D02*
D03*
Y3500000D02*
D03*
Y3300000D02*
D03*
Y3900000D02*
D03*
X5200000Y4500000D02*
D03*
X5400000D02*
D03*
X5300000Y4400000D02*
D03*
X5200000Y4300000D02*
D03*
X5400000D02*
D03*
X5300000Y4200000D02*
D03*
X5200000Y4100000D02*
D03*
X5400000D02*
D03*
X5500000Y4000000D02*
D03*
X5300000D02*
D03*
X5700000D02*
D03*
X5400000Y3900000D02*
D03*
X5200000D02*
D03*
X5600000D02*
D03*
X5800000Y3700000D02*
D03*
Y3500000D02*
D03*
Y3300000D02*
D03*
Y3900000D02*
D03*
X5900000Y3800000D02*
D03*
Y3600000D02*
D03*
Y3400000D02*
D03*
Y4000000D02*
D03*
X6000000Y3700000D02*
D03*
Y3500000D02*
D03*
Y3300000D02*
D03*
Y3900000D02*
D03*
X6100000Y3800000D02*
D03*
Y3600000D02*
D03*
Y3400000D02*
D03*
Y4000000D02*
D03*
X2800000Y4100000D02*
D03*
Y4300000D02*
D03*
X2700000Y4200000D02*
D03*
X2600000Y4100000D02*
D03*
X2500000Y4000000D02*
D03*
X3100000D02*
D03*
X2900000D02*
D03*
X2700000D02*
D03*
X3300000D02*
D03*
X2700000Y3600000D02*
D03*
X2600000Y3700000D02*
D03*
X2800000D02*
D03*
X2700000Y3800000D02*
D03*
X2500000D02*
D03*
X2900000D02*
D03*
X3200000Y3900000D02*
D03*
X3000000D02*
D03*
X2800000D02*
D03*
X3400000D02*
D03*
X3300000Y3800000D02*
D03*
X3100000D02*
D03*
X3400000Y3700000D02*
D03*
X3200000D02*
D03*
X3000000D02*
D03*
X3300000Y3600000D02*
D03*
X3100000D02*
D03*
X2900000D02*
D03*
X3200000Y3500000D02*
D03*
X3000000D02*
D03*
X2800000D02*
D03*
X3400000D02*
D03*
X3100000Y3400000D02*
D03*
X2900000D02*
D03*
X2700000D02*
D03*
X3300000D02*
D03*
X3000000Y3300000D02*
D03*
X2800000D02*
D03*
X2600000D02*
D03*
X3200000D02*
D03*
X2100000Y4000000D02*
D03*
X1900000D02*
D03*
X2300000D02*
D03*
X2200000Y4100000D02*
D03*
X2000000D02*
D03*
X2400000D02*
D03*
X2300000Y4200000D02*
D03*
X2100000D02*
D03*
X1900000D02*
D03*
X2500000D02*
D03*
X2400000Y4300000D02*
D03*
X2200000D02*
D03*
X2000000D02*
D03*
X2600000D02*
D03*
X2500000Y4400000D02*
D03*
X2300000D02*
D03*
X2100000D02*
D03*
X2700000D02*
D03*
X2800000Y4500000D02*
D03*
X2200000D02*
D03*
X2400000D02*
D03*
X2600000D02*
D03*
%TF.MD5,cbda2c0461ff23a5671a8877ade3dba0*%
M02*
