%TF.GenerationSoftware,Altium Limited,Altium Designer,24.0.1 (36)*%
G04 Layer_Physical_Order=3*
G04 Layer_Color=16440176*
%FSLAX45Y45*%
%MOMM*%
%TF.SameCoordinates,AD55DBC5-7C0D-423F-88F8-B269A012BA9E*%
%TF.FilePolarity,Positive*%
%TF.FileFunction,Copper,L3,Inr,Signal*%
%TF.Part,Single*%
G01*
G75*
%TA.AperFunction,Conductor*%
%ADD49C,0.38100*%
%TA.AperFunction,ComponentPad*%
%ADD54C,0.40000*%
%ADD55C,1.00000*%
%ADD56C,7.00000*%
%ADD57C,1.01600*%
%TA.AperFunction,ViaPad*%
%ADD58C,1.00000*%
%ADD59C,0.40000*%
G36*
X1453514Y6349988D02*
X1511220Y6292282D01*
Y5381534D01*
X1465126Y5335440D01*
X55062D01*
X10794Y5379708D01*
Y6010198D01*
X350584Y6349988D01*
X1453514Y6349988D01*
D02*
G37*
G36*
X6139180Y4452620D02*
X6139180Y3238500D01*
X6083300Y3182620D01*
X5158740D01*
X5087620Y3253740D01*
Y4460240D01*
X5189220Y4561840D01*
X6029960D01*
X6139180Y4452620D01*
D02*
G37*
G36*
X3600024Y4489876D02*
X3600024Y4130884D01*
X3431540Y3962400D01*
Y3368040D01*
X3246120Y3182620D01*
X2042160D01*
X1836420Y3388360D01*
Y4312920D01*
X2087880Y4564380D01*
X3525520D01*
X3600024Y4489876D01*
D02*
G37*
G36*
X9187180Y4432300D02*
X9187179Y3281679D01*
X9088120Y3182620D01*
X8481060D01*
X8369300Y3294380D01*
Y3883660D01*
X8191500Y4061460D01*
X7787640D01*
X7715876Y4133224D01*
Y4487536D01*
X7790180Y4561840D01*
X9057640D01*
X9187180Y4432300D01*
D02*
G37*
G36*
X7627002Y2486660D02*
X7632263Y2473960D01*
X7629365Y2471062D01*
X7624000Y2458110D01*
Y2444090D01*
X7629365Y2431138D01*
X7639278Y2421225D01*
X7652230Y2415860D01*
X7666250D01*
X7679202Y2421225D01*
X7689115Y2431138D01*
X7694480Y2444090D01*
Y2458110D01*
X7689115Y2471062D01*
X7686217Y2473960D01*
X7691478Y2486660D01*
X8216900Y2486660D01*
X8242300Y2461260D01*
X8242300Y927100D01*
X8194040Y878840D01*
X7949880D01*
Y883310D01*
X7944515Y896262D01*
X7936282Y904495D01*
X7935334Y911860D01*
X7936282Y919225D01*
X7944515Y927458D01*
X7949880Y940410D01*
Y954430D01*
X7944515Y967382D01*
X7934602Y977295D01*
X7928272Y979917D01*
Y993663D01*
X7934602Y996285D01*
X7944515Y1006198D01*
X7949880Y1019150D01*
Y1033170D01*
X7944515Y1046122D01*
X7936282Y1054355D01*
X7935334Y1061720D01*
X7936282Y1069085D01*
X7944515Y1077318D01*
X7949880Y1090270D01*
Y1104290D01*
X7944515Y1117242D01*
X7934602Y1127155D01*
X7921650Y1132520D01*
X7907630D01*
X7894678Y1127155D01*
X7884765Y1117242D01*
X7879400Y1104290D01*
Y1090270D01*
X7884765Y1077318D01*
X7892998Y1069085D01*
X7893946Y1061720D01*
X7892998Y1054355D01*
X7884765Y1046122D01*
X7879400Y1033170D01*
Y1019150D01*
X7884765Y1006198D01*
X7894678Y996285D01*
X7901008Y993663D01*
Y979917D01*
X7894678Y977295D01*
X7884765Y967382D01*
X7879400Y954430D01*
Y940410D01*
X7884765Y927458D01*
X7892998Y919225D01*
X7893946Y911860D01*
X7892998Y904495D01*
X7884765Y896262D01*
X7879400Y883310D01*
Y878840D01*
X7845277D01*
X7842057Y883392D01*
X7838739Y891540D01*
X7843200Y902310D01*
Y916330D01*
X7837835Y929282D01*
X7827922Y939195D01*
X7814970Y944560D01*
X7800950D01*
X7787998Y939195D01*
X7779765Y930962D01*
X7772400Y930014D01*
X7765035Y930962D01*
X7756802Y939195D01*
X7743850Y944560D01*
X7729830D01*
X7716878Y939195D01*
X7706965Y929282D01*
X7701600Y916330D01*
Y902310D01*
X7706061Y891540D01*
X7702743Y883392D01*
X7699523Y878840D01*
X7439660D01*
X7388860Y929640D01*
X7388859Y1846580D01*
X7320280Y1915160D01*
X1956869D01*
X1955375Y1922670D01*
X1946954Y1935272D01*
X1934352Y1943693D01*
X1919486Y1946650D01*
X1563630D01*
X1559560Y1950720D01*
Y2458720D01*
X1587499Y2486659D01*
X1785620Y2486660D01*
X1821179Y2451100D01*
X1821180Y2197099D01*
X1849119Y2169160D01*
X4798060D01*
X4831080Y2202180D01*
Y2461260D01*
X4856480Y2486660D01*
X5046980D01*
X5074920Y2458720D01*
Y2197100D01*
X5102860Y2169160D01*
X7155179D01*
X7221220Y2235200D01*
Y2456179D01*
X7251700Y2486660D01*
X7627002D01*
D02*
G37*
G36*
X7368540Y1833880D02*
Y149860D01*
X7303104Y84424D01*
X7258122Y39442D01*
X1311838D01*
X1264920Y86360D01*
Y591820D01*
X1457960Y784860D01*
X1584960Y911860D01*
Y1051560D01*
X1651000Y1117600D01*
X2407920D01*
X2506980Y1216660D01*
Y1811020D01*
X2590800Y1894840D01*
X6757049D01*
X6759357Y1890344D01*
X6760943Y1882140D01*
X6752765Y1873962D01*
X6747400Y1861010D01*
Y1846991D01*
X6752765Y1834038D01*
X6762678Y1824125D01*
X6775630Y1818760D01*
X6789650D01*
X6802602Y1824125D01*
X6812515Y1834038D01*
X6817880Y1846991D01*
Y1861010D01*
X6812515Y1873962D01*
X6804337Y1882140D01*
X6805923Y1890344D01*
X6808231Y1894840D01*
X7045449D01*
X7047757Y1890344D01*
X7049343Y1882140D01*
X7041165Y1873962D01*
X7035800Y1861010D01*
Y1846991D01*
X7041165Y1834038D01*
X7051078Y1824125D01*
X7064030Y1818760D01*
X7078050D01*
X7091002Y1824125D01*
X7100915Y1834038D01*
X7106280Y1846991D01*
Y1861010D01*
X7100915Y1873962D01*
X7092737Y1882140D01*
X7094323Y1890344D01*
X7096631Y1894840D01*
X7307580D01*
X7368540Y1833880D01*
D02*
G37*
G36*
X1510121Y1122528D02*
Y900521D01*
X1221740Y612140D01*
Y259080D01*
X1112520Y149860D01*
X340360D01*
X10160Y480060D01*
Y1122680D01*
X53340Y1165860D01*
X1466789D01*
X1510121Y1122528D01*
D02*
G37*
%LPC*%
G36*
X7748930Y2427920D02*
X7734910D01*
X7721958Y2422555D01*
X7712045Y2412642D01*
X7706680Y2399690D01*
Y2385670D01*
X7712045Y2372718D01*
X7721958Y2362805D01*
X7734910Y2357440D01*
X7748930D01*
X7761882Y2362805D01*
X7771795Y2372718D01*
X7777160Y2385670D01*
Y2399690D01*
X7771795Y2412642D01*
X7761882Y2422555D01*
X7748930Y2427920D01*
D02*
G37*
G36*
X7601610Y2410140D02*
X7587590D01*
X7574638Y2404775D01*
X7564725Y2394862D01*
X7559360Y2381910D01*
Y2367890D01*
X7564725Y2354938D01*
X7574638Y2345025D01*
X7587590Y2339660D01*
X7601610D01*
X7614562Y2345025D01*
X7624475Y2354938D01*
X7629840Y2367890D01*
Y2381910D01*
X7624475Y2394862D01*
X7614562Y2404775D01*
X7601610Y2410140D01*
D02*
G37*
G36*
X7888630Y2397440D02*
X7874610D01*
X7861658Y2392075D01*
X7851745Y2382162D01*
X7846380Y2369210D01*
Y2355190D01*
X7851745Y2342238D01*
X7861658Y2332325D01*
X7874610Y2326960D01*
X7888630D01*
X7901582Y2332325D01*
X7911495Y2342238D01*
X7916860Y2355190D01*
Y2369210D01*
X7911495Y2382162D01*
X7901582Y2392075D01*
X7888630Y2397440D01*
D02*
G37*
G36*
X7666250Y2331400D02*
X7652230D01*
X7639278Y2326035D01*
X7629365Y2316122D01*
X7624000Y2303170D01*
Y2289150D01*
X7629365Y2276198D01*
X7639278Y2266285D01*
X7652230Y2260920D01*
X7666250D01*
X7679202Y2266285D01*
X7689115Y2276198D01*
X7694480Y2289150D01*
Y2303170D01*
X7689115Y2316122D01*
X7679202Y2326035D01*
X7666250Y2331400D01*
D02*
G37*
G36*
X7892089Y1579880D02*
X7878070D01*
X7865118Y1574515D01*
X7855205Y1564602D01*
X7849840Y1551650D01*
Y1537630D01*
X7855205Y1524678D01*
X7865118Y1514765D01*
X7878070Y1509400D01*
X7892089D01*
X7905041Y1514765D01*
X7914954Y1524678D01*
X7920319Y1537630D01*
Y1551650D01*
X7914954Y1564602D01*
X7905041Y1574515D01*
X7892089Y1579880D01*
D02*
G37*
G36*
X7682870Y1422400D02*
X7668850D01*
X7655898Y1417035D01*
X7645985Y1407122D01*
X7640620Y1394170D01*
Y1380150D01*
X7645985Y1367198D01*
X7655898Y1357285D01*
X7668850Y1351920D01*
X7682870D01*
X7695822Y1357285D01*
X7705735Y1367198D01*
X7711100Y1380150D01*
Y1394170D01*
X7705735Y1407122D01*
X7695822Y1417035D01*
X7682870Y1422400D01*
D02*
G37*
G36*
X7619390Y1343340D02*
X7605370D01*
X7592418Y1337975D01*
X7582505Y1328062D01*
X7577140Y1315110D01*
Y1301090D01*
X7582505Y1288138D01*
X7592418Y1278225D01*
X7605370Y1272860D01*
X7619390D01*
X7632342Y1278225D01*
X7642255Y1288138D01*
X7647620Y1301090D01*
Y1315110D01*
X7642255Y1328062D01*
X7632342Y1337975D01*
X7619390Y1343340D01*
D02*
G37*
G36*
X7682870Y1267460D02*
X7668850D01*
X7655898Y1262095D01*
X7645985Y1252182D01*
X7640620Y1239230D01*
Y1225210D01*
X7645985Y1212258D01*
X7655898Y1202345D01*
X7668850Y1196980D01*
X7682870D01*
X7695822Y1202345D01*
X7705735Y1212258D01*
X7711100Y1225210D01*
Y1239230D01*
X7705735Y1252182D01*
X7695822Y1262095D01*
X7682870Y1267460D01*
D02*
G37*
G36*
X5800990Y1833560D02*
X5786970D01*
X5774018Y1828195D01*
X5764105Y1818282D01*
X5758740Y1805330D01*
Y1791310D01*
X5764105Y1778358D01*
X5774018Y1768445D01*
X5786970Y1763080D01*
X5800990D01*
X5813942Y1768445D01*
X5823855Y1778358D01*
X5829220Y1791310D01*
Y1805330D01*
X5823855Y1818282D01*
X5813942Y1828195D01*
X5800990Y1833560D01*
D02*
G37*
G36*
X5048670Y1831020D02*
X5034650D01*
X5021698Y1825655D01*
X5011785Y1815742D01*
X5006420Y1802790D01*
Y1788770D01*
X5011785Y1775818D01*
X5021698Y1765905D01*
X5034650Y1760540D01*
X5048670D01*
X5061622Y1765905D01*
X5071535Y1775818D01*
X5076900Y1788770D01*
Y1802790D01*
X5071535Y1815742D01*
X5061622Y1825655D01*
X5048670Y1831020D01*
D02*
G37*
G36*
X7015950Y1827140D02*
X7001930D01*
X6988978Y1821775D01*
X6979065Y1811862D01*
X6973700Y1798910D01*
Y1784891D01*
X6979065Y1771939D01*
X6988978Y1762025D01*
X7001930Y1756660D01*
X7015950D01*
X7028902Y1762025D01*
X7038815Y1771939D01*
X7044180Y1784891D01*
Y1798910D01*
X7038815Y1811862D01*
X7028902Y1821775D01*
X7015950Y1827140D01*
D02*
G37*
G36*
X6727550D02*
X6713530D01*
X6700578Y1821775D01*
X6690665Y1811862D01*
X6685300Y1798910D01*
Y1784891D01*
X6690665Y1771939D01*
X6700578Y1762025D01*
X6713530Y1756660D01*
X6727550D01*
X6740502Y1762025D01*
X6750415Y1771939D01*
X6755780Y1784891D01*
Y1798910D01*
X6750415Y1811862D01*
X6740502Y1821775D01*
X6727550Y1827140D01*
D02*
G37*
G36*
X7140470Y1825940D02*
X7126450D01*
X7113498Y1820575D01*
X7103585Y1810662D01*
X7098220Y1797710D01*
Y1783690D01*
X7103585Y1770738D01*
X7113498Y1760825D01*
X7126450Y1755460D01*
X7140470D01*
X7153422Y1760825D01*
X7163335Y1770738D01*
X7168700Y1783690D01*
Y1797710D01*
X7163335Y1810662D01*
X7153422Y1820575D01*
X7140470Y1825940D01*
D02*
G37*
G36*
X6852070D02*
X6838050D01*
X6825098Y1820575D01*
X6815185Y1810662D01*
X6809820Y1797710D01*
Y1783690D01*
X6815185Y1770738D01*
X6825098Y1760825D01*
X6838050Y1755460D01*
X6852070D01*
X6865022Y1760825D01*
X6874935Y1770738D01*
X6880300Y1783690D01*
Y1797710D01*
X6874935Y1810662D01*
X6865022Y1820575D01*
X6852070Y1825940D01*
D02*
G37*
G36*
X6499009D02*
X6484990D01*
X6472038Y1820575D01*
X6462125Y1810662D01*
X6456760Y1797710D01*
Y1783690D01*
X6462125Y1770738D01*
X6472038Y1760825D01*
X6484990Y1755460D01*
X6499009D01*
X6511962Y1760825D01*
X6521875Y1770738D01*
X6527240Y1783690D01*
Y1797710D01*
X6521875Y1810662D01*
X6511962Y1820575D01*
X6499009Y1825940D01*
D02*
G37*
G36*
X6374809Y1825620D02*
X6360790D01*
X6347838Y1820255D01*
X6337925Y1810342D01*
X6332560Y1797390D01*
Y1783370D01*
X6337925Y1770418D01*
X6347838Y1760505D01*
X6360790Y1755140D01*
X6374809D01*
X6387762Y1760505D01*
X6397675Y1770418D01*
X6403040Y1783370D01*
Y1797390D01*
X6397675Y1810342D01*
X6387762Y1820255D01*
X6374809Y1825620D01*
D02*
G37*
G36*
X5569610Y1777920D02*
X5555590D01*
X5542638Y1772555D01*
X5532725Y1762642D01*
X5527360Y1749689D01*
Y1735670D01*
X5532725Y1722718D01*
X5542638Y1712805D01*
X5555590Y1707440D01*
X5569610D01*
X5582562Y1712805D01*
X5592475Y1722718D01*
X5597840Y1735670D01*
Y1749689D01*
X5592475Y1762642D01*
X5582562Y1772555D01*
X5569610Y1777920D01*
D02*
G37*
G36*
X3631590Y1777680D02*
X3617570D01*
X3604618Y1772315D01*
X3594705Y1762402D01*
X3589340Y1749450D01*
Y1735430D01*
X3594705Y1722478D01*
X3604618Y1712565D01*
X3617570Y1707200D01*
X3631590D01*
X3644542Y1712565D01*
X3654455Y1722478D01*
X3659820Y1735430D01*
Y1749450D01*
X3654455Y1762402D01*
X3644542Y1772315D01*
X3631590Y1777680D01*
D02*
G37*
G36*
X5277510Y1775380D02*
X5263490D01*
X5250538Y1770015D01*
X5240625Y1760102D01*
X5235260Y1747149D01*
Y1733130D01*
X5240625Y1720178D01*
X5250538Y1710265D01*
X5263490Y1704900D01*
X5277510D01*
X5290462Y1710265D01*
X5300375Y1720178D01*
X5305740Y1733130D01*
Y1747149D01*
X5300375Y1760102D01*
X5290462Y1770015D01*
X5277510Y1775380D01*
D02*
G37*
G36*
X3535070Y1775140D02*
X3521050D01*
X3508098Y1769775D01*
X3498185Y1759862D01*
X3492820Y1746910D01*
Y1732890D01*
X3498185Y1719938D01*
X3508098Y1710025D01*
X3521050Y1704660D01*
X3535070D01*
X3548022Y1710025D01*
X3557935Y1719938D01*
X3563300Y1732890D01*
Y1746910D01*
X3557935Y1759862D01*
X3548022Y1769775D01*
X3535070Y1775140D01*
D02*
G37*
G36*
X2823870Y1767520D02*
X2809850D01*
X2796898Y1762155D01*
X2786985Y1752242D01*
X2781620Y1739290D01*
Y1725270D01*
X2786985Y1712318D01*
X2796898Y1702405D01*
X2809850Y1697040D01*
X2823870D01*
X2836822Y1702405D01*
X2846735Y1712318D01*
X2852100Y1725270D01*
Y1739290D01*
X2846735Y1752242D01*
X2836822Y1762155D01*
X2823870Y1767520D01*
D02*
G37*
G36*
X3783990Y1764980D02*
X3769970D01*
X3757018Y1759615D01*
X3747105Y1749702D01*
X3741740Y1736750D01*
Y1722730D01*
X3747105Y1709778D01*
X3757018Y1699865D01*
X3769970Y1694500D01*
X3783990D01*
X3796942Y1699865D01*
X3806855Y1709778D01*
X3812220Y1722730D01*
Y1736750D01*
X3806855Y1749702D01*
X3796942Y1759615D01*
X3783990Y1764980D01*
D02*
G37*
G36*
X3253130Y1691320D02*
X3239110D01*
X3226158Y1685955D01*
X3216245Y1676042D01*
X3210880Y1663090D01*
Y1649070D01*
X3216245Y1636118D01*
X3226158Y1626205D01*
X3239110Y1620840D01*
X3253130D01*
X3266082Y1626205D01*
X3275995Y1636118D01*
X3281360Y1649070D01*
Y1663090D01*
X3275995Y1676042D01*
X3266082Y1685955D01*
X3253130Y1691320D01*
D02*
G37*
G36*
X6687546Y1726880D02*
X6673526D01*
X6660574Y1721515D01*
X6650661Y1711602D01*
X6645296Y1698650D01*
Y1684630D01*
X6645574Y1683959D01*
Y1637382D01*
X6597634Y1589442D01*
X6007161D01*
X6006490Y1589720D01*
X5992470D01*
X5991799Y1589442D01*
X4928488D01*
X4928486Y1589442D01*
X4915107Y1586780D01*
X4903765Y1579202D01*
X4903764Y1579201D01*
X4881053Y1556490D01*
X4863773Y1573771D01*
X4863495Y1574442D01*
X4853582Y1584355D01*
X4840630Y1589720D01*
X4826610D01*
X4813658Y1584355D01*
X4803745Y1574442D01*
X4798380Y1561490D01*
Y1547470D01*
X4803745Y1534518D01*
X4813658Y1524605D01*
X4814329Y1524327D01*
X4831610Y1507047D01*
X4808898Y1484335D01*
X4801320Y1472993D01*
X4798658Y1459614D01*
Y1061720D01*
X4801320Y1048341D01*
X4808898Y1036998D01*
X4808899Y1036998D01*
X4827644Y1018253D01*
X4815316Y1005445D01*
X4813607Y1004737D01*
X4803694Y994824D01*
X4798329Y981872D01*
Y967853D01*
X4803694Y954900D01*
X4813607Y944987D01*
X4826559Y939622D01*
X4840578D01*
X4848269Y942808D01*
X4848415Y942840D01*
X4848516Y942910D01*
X4853531Y944987D01*
X4858183Y949640D01*
X4859610Y950633D01*
X4870808Y962267D01*
X4883508Y962389D01*
X4895756Y950140D01*
X4907099Y942562D01*
X4920478Y939900D01*
X5995928D01*
X5996603Y940035D01*
X6001657D01*
X6002086Y940120D01*
X6009030D01*
X6021982Y945485D01*
X6031895Y955398D01*
X6037260Y968350D01*
Y982370D01*
X6031895Y995322D01*
X6021982Y1005235D01*
X6009030Y1010600D01*
X5995010D01*
X5993137Y1009824D01*
X4934959D01*
X4901341Y1043442D01*
X4868582Y1076202D01*
Y1445132D01*
X4942968Y1519518D01*
X5062821D01*
X5067681Y1507785D01*
X5031846Y1471949D01*
X5024267Y1460607D01*
X5021606Y1447227D01*
Y1272601D01*
X5021328Y1271930D01*
Y1257910D01*
X5026693Y1244958D01*
X5036606Y1235045D01*
X5049558Y1229680D01*
X5063577D01*
X5076529Y1235045D01*
X5086442Y1244958D01*
X5091807Y1257910D01*
Y1271930D01*
X5091529Y1272601D01*
Y1432746D01*
X5122422Y1463638D01*
X6326447D01*
X6332560Y1454489D01*
Y1440470D01*
X6337925Y1427518D01*
X6347838Y1417605D01*
X6360790Y1412240D01*
X6374810D01*
X6387762Y1417605D01*
X6397675Y1427518D01*
X6403040Y1440470D01*
Y1454489D01*
X6409153Y1463638D01*
X6448775D01*
X6457261Y1450938D01*
X6456760Y1449730D01*
Y1435710D01*
X6462125Y1422758D01*
X6472038Y1412845D01*
X6484990Y1407480D01*
X6499010D01*
X6511962Y1412845D01*
X6521875Y1422758D01*
X6527240Y1435710D01*
Y1449730D01*
X6526739Y1450938D01*
X6535225Y1463638D01*
X6677452D01*
X6684460Y1453150D01*
Y1439131D01*
X6689825Y1426179D01*
X6699738Y1416265D01*
X6712690Y1410900D01*
X6726710D01*
X6739662Y1416265D01*
X6749575Y1426179D01*
X6754940Y1439131D01*
Y1453150D01*
X6761948Y1463638D01*
X6802761D01*
X6808660Y1454809D01*
Y1440790D01*
X6814025Y1427838D01*
X6823938Y1417925D01*
X6836890Y1412560D01*
X6850910D01*
X6863862Y1417925D01*
X6873775Y1427838D01*
X6879140Y1440790D01*
Y1454809D01*
X6885039Y1463638D01*
X6954215D01*
X6965552Y1465893D01*
X6971315Y1461374D01*
X6975262Y1456149D01*
X6974020Y1453150D01*
Y1439131D01*
X6979385Y1426179D01*
X6989298Y1416265D01*
X7002250Y1410900D01*
X7016270D01*
X7029222Y1416265D01*
X7039135Y1426179D01*
X7044500Y1439131D01*
Y1453150D01*
X7039135Y1466102D01*
X7029222Y1476015D01*
X7016270Y1481380D01*
X7004400D01*
X7000193Y1487301D01*
X6998172Y1493114D01*
X7040202Y1535143D01*
X7047780Y1546486D01*
X7050442Y1559865D01*
X7050442Y1559866D01*
Y1612839D01*
X7050720Y1613510D01*
Y1627530D01*
X7045355Y1640482D01*
X7035442Y1650395D01*
X7022490Y1655760D01*
X7008470D01*
X6995518Y1650395D01*
X6985605Y1640482D01*
X6980240Y1627530D01*
Y1613510D01*
X6980518Y1612839D01*
Y1574347D01*
X6939733Y1533562D01*
X6657235D01*
X6652375Y1545295D01*
X6701165Y1594085D01*
X6706781Y1597678D01*
X6717781Y1594062D01*
X6721198Y1590645D01*
X6734150Y1585280D01*
X6748170D01*
X6761122Y1590645D01*
X6771035Y1600558D01*
X6776400Y1613510D01*
Y1627530D01*
X6771035Y1640482D01*
X6761122Y1650395D01*
X6748170Y1655760D01*
X6734150D01*
X6728198Y1653294D01*
X6715498Y1661288D01*
Y1683959D01*
X6715776Y1684630D01*
Y1698650D01*
X6710411Y1711602D01*
X6700498Y1721515D01*
X6687546Y1726880D01*
D02*
G37*
G36*
X6925945Y1656021D02*
X6911926D01*
X6898974Y1650656D01*
X6889061Y1640742D01*
X6883696Y1627790D01*
Y1613771D01*
X6889061Y1600819D01*
X6898974Y1590906D01*
X6911926Y1585541D01*
X6925945D01*
X6938897Y1590906D01*
X6948811Y1600819D01*
X6954176Y1613771D01*
Y1627790D01*
X6948811Y1640742D01*
X6938897Y1650656D01*
X6925945Y1656021D01*
D02*
G37*
G36*
X7212990Y1655760D02*
X7198970D01*
X7186018Y1650395D01*
X7176105Y1640482D01*
X7170740Y1627530D01*
Y1613510D01*
X7176105Y1600558D01*
X7186018Y1590645D01*
X7198970Y1585280D01*
X7212990D01*
X7225942Y1590645D01*
X7235855Y1600558D01*
X7241220Y1613510D01*
Y1627530D01*
X7235855Y1640482D01*
X7225942Y1650395D01*
X7212990Y1655760D01*
D02*
G37*
G36*
X2826410Y1622740D02*
X2812390D01*
X2799438Y1617375D01*
X2789525Y1607462D01*
X2784160Y1594510D01*
Y1580490D01*
X2789525Y1567538D01*
X2799438Y1557625D01*
X2812390Y1552260D01*
X2826410D01*
X2839362Y1557625D01*
X2849275Y1567538D01*
X2854640Y1580490D01*
Y1594510D01*
X2849275Y1607462D01*
X2839362Y1617375D01*
X2826410Y1622740D01*
D02*
G37*
G36*
X3581189Y1621915D02*
X3567170D01*
X3554218Y1616550D01*
X3544305Y1606637D01*
X3538940Y1593685D01*
Y1579666D01*
X3544305Y1566714D01*
X3554218Y1556801D01*
X3567170Y1551436D01*
X3581189D01*
X3594142Y1556801D01*
X3604055Y1566714D01*
X3609420Y1579666D01*
Y1593685D01*
X3604055Y1606637D01*
X3594142Y1616550D01*
X3581189Y1621915D01*
D02*
G37*
G36*
X3728581Y1618354D02*
X3714562D01*
X3701609Y1612989D01*
X3691696Y1603076D01*
X3686331Y1590123D01*
Y1576104D01*
X3691696Y1563152D01*
X3701609Y1553239D01*
X3714562Y1547874D01*
X3728581D01*
X3741533Y1553239D01*
X3751446Y1563152D01*
X3756811Y1576104D01*
Y1590123D01*
X3751446Y1603076D01*
X3741533Y1612989D01*
X3728581Y1618354D01*
D02*
G37*
G36*
X3176930Y1617660D02*
X3162910D01*
X3149958Y1612295D01*
X3140045Y1602382D01*
X3134680Y1589430D01*
Y1575410D01*
X3140045Y1562458D01*
X3149958Y1552545D01*
X3162910Y1547180D01*
X3176930D01*
X3189882Y1552545D01*
X3199795Y1562458D01*
X3205160Y1575410D01*
Y1589430D01*
X3199795Y1602382D01*
X3189882Y1612295D01*
X3176930Y1617660D01*
D02*
G37*
G36*
X3331870Y1566860D02*
X3317850D01*
X3304898Y1561495D01*
X3294985Y1551582D01*
X3289620Y1538630D01*
Y1524610D01*
X3294985Y1511658D01*
X3304898Y1501745D01*
X3317850Y1496380D01*
X3331870D01*
X3344822Y1501745D01*
X3354735Y1511658D01*
X3360100Y1524610D01*
Y1538630D01*
X3354735Y1551582D01*
X3344822Y1561495D01*
X3331870Y1566860D01*
D02*
G37*
G36*
X3829710Y1534080D02*
X3815690D01*
X3802738Y1528715D01*
X3792825Y1518802D01*
X3787460Y1505850D01*
Y1491830D01*
X3792825Y1478878D01*
X3802738Y1468965D01*
X3815690Y1463600D01*
X3829710D01*
X3842662Y1468965D01*
X3852575Y1478878D01*
X3857940Y1491830D01*
Y1505850D01*
X3852575Y1518802D01*
X3842662Y1528715D01*
X3829710Y1534080D01*
D02*
G37*
G36*
X3728110Y1465260D02*
X3714090D01*
X3701138Y1459895D01*
X3697647Y1456403D01*
X3689350Y1451166D01*
X3681053Y1456403D01*
X3677562Y1459895D01*
X3664610Y1465260D01*
X3650590D01*
X3637638Y1459895D01*
X3632877Y1455133D01*
X3624580Y1451398D01*
X3616283Y1455133D01*
X3611522Y1459895D01*
X3598570Y1465260D01*
X3584550D01*
X3571598Y1459895D01*
X3561685Y1449982D01*
X3556320Y1437030D01*
Y1423010D01*
X3561685Y1410058D01*
X3571598Y1400145D01*
X3584550Y1394780D01*
X3598570D01*
X3611522Y1400145D01*
X3616283Y1404907D01*
X3624580Y1408642D01*
X3632877Y1404907D01*
X3637638Y1400145D01*
X3650590Y1394780D01*
X3664610D01*
X3677562Y1400145D01*
X3681053Y1403637D01*
X3689350Y1408874D01*
X3697647Y1403637D01*
X3701138Y1400145D01*
X3714090Y1394780D01*
X3728110D01*
X3741062Y1400145D01*
X3750975Y1410058D01*
X3756340Y1423010D01*
Y1437030D01*
X3750975Y1449982D01*
X3741062Y1459895D01*
X3728110Y1465260D01*
D02*
G37*
G36*
X3176930Y1518600D02*
X3162910D01*
X3149958Y1513235D01*
X3140045Y1503322D01*
X3134680Y1490370D01*
Y1476350D01*
X3140045Y1463398D01*
X3149958Y1453485D01*
X3162910Y1448120D01*
X3176930D01*
X3189882Y1453485D01*
X3199795Y1463398D01*
X3205160Y1476350D01*
Y1490370D01*
X3199795Y1503322D01*
X3189882Y1513235D01*
X3176930Y1518600D01*
D02*
G37*
G36*
X4388510Y1499820D02*
X4374490D01*
X4361538Y1494455D01*
X4351625Y1484542D01*
X4346260Y1471590D01*
Y1457570D01*
X4351625Y1444618D01*
X4361538Y1434705D01*
X4374490Y1429340D01*
X4388510D01*
X4401462Y1434705D01*
X4411375Y1444618D01*
X4416740Y1457570D01*
Y1471590D01*
X4411375Y1484542D01*
X4401462Y1494455D01*
X4388510Y1499820D01*
D02*
G37*
G36*
X7140470Y1483040D02*
X7126450D01*
X7113498Y1477675D01*
X7103585Y1467762D01*
X7098220Y1454810D01*
Y1440790D01*
X7103585Y1427838D01*
X7113498Y1417925D01*
X7126450Y1412560D01*
X7140470D01*
X7153422Y1417925D01*
X7163335Y1427838D01*
X7168700Y1440790D01*
Y1454810D01*
X7163335Y1467762D01*
X7153422Y1477675D01*
X7140470Y1483040D01*
D02*
G37*
G36*
X3331870Y1467800D02*
X3317850D01*
X3304898Y1462435D01*
X3294985Y1452522D01*
X3289620Y1439570D01*
Y1425550D01*
X3294985Y1412598D01*
X3304898Y1402685D01*
X3317850Y1397320D01*
X3331870D01*
X3344822Y1402685D01*
X3354735Y1412598D01*
X3360100Y1425550D01*
Y1439570D01*
X3354735Y1452522D01*
X3344822Y1462435D01*
X3331870Y1467800D01*
D02*
G37*
G36*
X2826410D02*
X2812390D01*
X2799438Y1462435D01*
X2789525Y1452522D01*
X2784160Y1439570D01*
Y1425550D01*
X2789525Y1412598D01*
X2799438Y1402685D01*
X2812390Y1397320D01*
X2826410D01*
X2839362Y1402685D01*
X2849275Y1412598D01*
X2854640Y1425550D01*
Y1439570D01*
X2849275Y1452522D01*
X2839362Y1462435D01*
X2826410Y1467800D01*
D02*
G37*
G36*
X3176930Y1417000D02*
X3162910D01*
X3149958Y1411635D01*
X3140045Y1401722D01*
X3134680Y1388770D01*
Y1374750D01*
X3140045Y1361798D01*
X3149958Y1351885D01*
X3162910Y1346520D01*
X3176930D01*
X3189882Y1351885D01*
X3199795Y1361798D01*
X3205160Y1374750D01*
Y1388770D01*
X3199795Y1401722D01*
X3189882Y1411635D01*
X3176930Y1417000D01*
D02*
G37*
G36*
X4451430Y1411920D02*
X4437410D01*
X4424458Y1406555D01*
X4414545Y1396642D01*
X4409180Y1383689D01*
Y1369670D01*
X4414545Y1356718D01*
X4424458Y1346805D01*
X4437410Y1341440D01*
X4451430D01*
X4464382Y1346805D01*
X4474295Y1356718D01*
X4479660Y1369670D01*
Y1383689D01*
X4474295Y1396642D01*
X4464382Y1406555D01*
X4451430Y1411920D01*
D02*
G37*
G36*
X3728110Y1343340D02*
X3714090D01*
X3701138Y1337975D01*
X3697647Y1334483D01*
X3689350Y1329246D01*
X3681053Y1334483D01*
X3677562Y1337975D01*
X3664610Y1343340D01*
X3650590D01*
X3637638Y1337975D01*
X3632877Y1333213D01*
X3624580Y1329478D01*
X3616283Y1333213D01*
X3611522Y1337975D01*
X3598570Y1343340D01*
X3584550D01*
X3571598Y1337975D01*
X3561685Y1328062D01*
X3556320Y1315110D01*
Y1301090D01*
X3561685Y1288138D01*
X3571598Y1278225D01*
X3584550Y1272860D01*
X3598570D01*
X3611522Y1278225D01*
X3616283Y1282987D01*
X3624580Y1286722D01*
X3632877Y1282987D01*
X3637638Y1278225D01*
X3650590Y1272860D01*
X3664610D01*
X3677562Y1278225D01*
X3681053Y1281717D01*
X3689350Y1286954D01*
X3697647Y1281717D01*
X3701138Y1278225D01*
X3714090Y1272860D01*
X3728110D01*
X3741062Y1278225D01*
X3750975Y1288138D01*
X3756340Y1301090D01*
Y1315110D01*
X3750975Y1328062D01*
X3741062Y1337975D01*
X3728110Y1343340D01*
D02*
G37*
G36*
X3331870Y1368740D02*
X3317850D01*
X3304898Y1363375D01*
X3294985Y1353462D01*
X3289620Y1340510D01*
Y1326490D01*
X3294985Y1313538D01*
X3304898Y1303625D01*
X3317850Y1298260D01*
X3331870D01*
X3344822Y1303625D01*
X3354735Y1313538D01*
X3360100Y1326490D01*
Y1340510D01*
X3354735Y1353462D01*
X3344822Y1363375D01*
X3331870Y1368740D01*
D02*
G37*
G36*
X4243730Y1334450D02*
X4229710D01*
X4216758Y1329085D01*
X4206845Y1319172D01*
X4201480Y1306220D01*
Y1292200D01*
X4206845Y1279248D01*
X4216758Y1269335D01*
X4229710Y1263970D01*
X4243730D01*
X4256682Y1269335D01*
X4266595Y1279248D01*
X4271960Y1292200D01*
Y1306220D01*
X4266595Y1319172D01*
X4256682Y1329085D01*
X4243730Y1334450D01*
D02*
G37*
G36*
X3176930Y1315400D02*
X3162910D01*
X3149958Y1310035D01*
X3140045Y1300122D01*
X3134680Y1287170D01*
Y1273150D01*
X3140045Y1260198D01*
X3149958Y1250285D01*
X3162910Y1244920D01*
X3176930D01*
X3189882Y1250285D01*
X3199795Y1260198D01*
X3205160Y1273150D01*
Y1287170D01*
X3199795Y1300122D01*
X3189882Y1310035D01*
X3176930Y1315400D01*
D02*
G37*
G36*
X2826990Y1314820D02*
X2812970D01*
X2800018Y1309455D01*
X2790105Y1299542D01*
X2784740Y1286590D01*
Y1272570D01*
X2790105Y1259618D01*
X2800018Y1249705D01*
X2812970Y1244340D01*
X2826990D01*
X2839942Y1249705D01*
X2849855Y1259618D01*
X2855220Y1272570D01*
Y1286590D01*
X2849855Y1299542D01*
X2839942Y1309455D01*
X2826990Y1314820D01*
D02*
G37*
G36*
X5793130Y1300160D02*
X5779110D01*
X5766158Y1294795D01*
X5756245Y1284882D01*
X5750880Y1271930D01*
Y1257910D01*
X5756245Y1244958D01*
X5766158Y1235045D01*
X5779110Y1229680D01*
X5793130D01*
X5806082Y1235045D01*
X5815995Y1244958D01*
X5821360Y1257910D01*
Y1271930D01*
X5815995Y1284882D01*
X5806082Y1294795D01*
X5793130Y1300160D01*
D02*
G37*
G36*
X5419750D02*
X5405730D01*
X5392778Y1294795D01*
X5382865Y1284882D01*
X5377500Y1271930D01*
Y1257910D01*
X5382865Y1244958D01*
X5392778Y1235045D01*
X5405730Y1229680D01*
X5419750D01*
X5432702Y1235045D01*
X5442615Y1244958D01*
X5447980Y1257910D01*
Y1271930D01*
X5442615Y1284882D01*
X5432702Y1294795D01*
X5419750Y1300160D01*
D02*
G37*
G36*
X3730650Y1216340D02*
X3716630D01*
X3703678Y1210975D01*
X3700187Y1207483D01*
X3691890Y1202246D01*
X3683593Y1207483D01*
X3680102Y1210975D01*
X3667150Y1216340D01*
X3653130D01*
X3640178Y1210975D01*
X3635417Y1206213D01*
X3627120Y1202478D01*
X3618823Y1206213D01*
X3614062Y1210975D01*
X3601110Y1216340D01*
X3587090D01*
X3574138Y1210975D01*
X3564225Y1201062D01*
X3558860Y1188110D01*
Y1174090D01*
X3564225Y1161138D01*
X3574138Y1151225D01*
X3587090Y1145860D01*
X3601110D01*
X3614062Y1151225D01*
X3618823Y1155987D01*
X3627120Y1159722D01*
X3635417Y1155987D01*
X3640178Y1151225D01*
X3653130Y1145860D01*
X3667150D01*
X3680102Y1151225D01*
X3683593Y1154717D01*
X3691890Y1159954D01*
X3700187Y1154717D01*
X3703678Y1151225D01*
X3716630Y1145860D01*
X3730650D01*
X3743602Y1151225D01*
X3753515Y1161138D01*
X3758880Y1174090D01*
Y1188110D01*
X3753515Y1201062D01*
X3743602Y1210975D01*
X3730650Y1216340D01*
D02*
G37*
G36*
X4030370Y1267140D02*
X4016350D01*
X4003398Y1261775D01*
X3993485Y1251862D01*
X3988120Y1238910D01*
Y1224890D01*
X3993485Y1211938D01*
X4003398Y1202025D01*
X4016350Y1196660D01*
X4030370D01*
X4043322Y1202025D01*
X4053235Y1211938D01*
X4058600Y1224890D01*
Y1238910D01*
X4053235Y1251862D01*
X4043322Y1261775D01*
X4030370Y1267140D01*
D02*
G37*
G36*
X4452299Y1257270D02*
X4438280D01*
X4425328Y1251905D01*
X4415415Y1241992D01*
X4410050Y1229039D01*
Y1215020D01*
X4415415Y1202068D01*
X4425328Y1192155D01*
X4438280Y1186790D01*
X4452299D01*
X4465252Y1192155D01*
X4475165Y1202068D01*
X4480530Y1215020D01*
Y1229039D01*
X4475165Y1241992D01*
X4465252Y1251905D01*
X4452299Y1257270D01*
D02*
G37*
G36*
X3880510Y1216340D02*
X3866490D01*
X3853538Y1210975D01*
X3843625Y1201062D01*
X3838260Y1188110D01*
Y1174090D01*
X3843625Y1161138D01*
X3853538Y1151225D01*
X3866490Y1145860D01*
X3880510D01*
X3893462Y1151225D01*
X3903375Y1161138D01*
X3908740Y1174090D01*
Y1188110D01*
X3903375Y1201062D01*
X3893462Y1210975D01*
X3880510Y1216340D01*
D02*
G37*
G36*
X2828260Y1175390D02*
X2814240D01*
X2801288Y1170025D01*
X2791375Y1160112D01*
X2786010Y1147160D01*
Y1133140D01*
X2791375Y1120188D01*
X2801288Y1110275D01*
X2814240Y1104910D01*
X2828260D01*
X2841212Y1110275D01*
X2851125Y1120188D01*
X2856490Y1133140D01*
Y1147160D01*
X2851125Y1160112D01*
X2841212Y1170025D01*
X2828260Y1175390D01*
D02*
G37*
G36*
X4040530Y1168080D02*
X4026510D01*
X4013558Y1162715D01*
X4003645Y1152802D01*
X3998280Y1139850D01*
Y1125830D01*
X4003645Y1112878D01*
X4013558Y1102965D01*
X4026510Y1097600D01*
X4040530D01*
X4053482Y1102965D01*
X4063395Y1112878D01*
X4068760Y1125830D01*
Y1139850D01*
X4063395Y1152802D01*
X4053482Y1162715D01*
X4040530Y1168080D01*
D02*
G37*
G36*
X3880510Y1114740D02*
X3866490D01*
X3853538Y1109375D01*
X3843625Y1099462D01*
X3838260Y1086510D01*
Y1072490D01*
X3843625Y1059538D01*
X3853538Y1049625D01*
X3866490Y1044260D01*
X3880510D01*
X3893462Y1049625D01*
X3903375Y1059538D01*
X3908740Y1072490D01*
Y1086510D01*
X3903375Y1099462D01*
X3893462Y1109375D01*
X3880510Y1114740D01*
D02*
G37*
G36*
X2889670Y1086800D02*
X2875651D01*
X2862698Y1081435D01*
X2852785Y1071522D01*
X2847420Y1058570D01*
Y1044550D01*
X2852785Y1031598D01*
X2862698Y1021685D01*
X2875651Y1016320D01*
X2889670D01*
X2902622Y1021685D01*
X2912535Y1031598D01*
X2917900Y1044550D01*
Y1058570D01*
X2912535Y1071522D01*
X2902622Y1081435D01*
X2889670Y1086800D01*
D02*
G37*
G36*
X3782274Y1086653D02*
X3768255D01*
X3755303Y1081288D01*
X3745390Y1071375D01*
X3740025Y1058423D01*
Y1044403D01*
X3745390Y1031451D01*
X3755303Y1021538D01*
X3768255Y1016173D01*
X3782274D01*
X3795226Y1021538D01*
X3805139Y1031451D01*
X3810504Y1044403D01*
Y1058423D01*
X3805139Y1071375D01*
X3795226Y1081288D01*
X3782274Y1086653D01*
D02*
G37*
G36*
X4040530Y1066480D02*
X4026510D01*
X4013558Y1061115D01*
X4003645Y1051202D01*
X3998280Y1038250D01*
Y1024230D01*
X4003645Y1011278D01*
X4013558Y1001365D01*
X4026510Y996000D01*
X4040530D01*
X4053482Y1001365D01*
X4063395Y1011278D01*
X4068760Y1024230D01*
Y1038250D01*
X4063395Y1051202D01*
X4053482Y1061115D01*
X4040530Y1066480D01*
D02*
G37*
G36*
X3623970Y1129980D02*
X3609950D01*
X3596998Y1124615D01*
X3587085Y1114702D01*
X3581720Y1101750D01*
Y1087730D01*
X3587085Y1074778D01*
X3595734Y1066129D01*
X3597006Y1064363D01*
X3597223Y1051025D01*
X3592768Y1046570D01*
X3587403Y1033618D01*
Y1019599D01*
X3592768Y1006646D01*
X3602681Y996733D01*
X3615633Y991368D01*
X3629653D01*
X3642605Y996733D01*
X3652518Y1006646D01*
X3657883Y1019599D01*
Y1033618D01*
X3652518Y1046570D01*
X3643869Y1055219D01*
X3642597Y1056986D01*
X3642380Y1070323D01*
X3646835Y1074778D01*
X3652200Y1087730D01*
Y1101750D01*
X3646835Y1114702D01*
X3636922Y1124615D01*
X3623970Y1129980D01*
D02*
G37*
G36*
X2547870Y1032920D02*
X2533850D01*
X2520898Y1027555D01*
X2510985Y1017642D01*
X2505620Y1004690D01*
Y990670D01*
X2510985Y977718D01*
X2520898Y967805D01*
X2533850Y962440D01*
X2547870D01*
X2560822Y967805D01*
X2570735Y977718D01*
X2576100Y990670D01*
Y1004690D01*
X2570735Y1017642D01*
X2560822Y1027555D01*
X2547870Y1032920D01*
D02*
G37*
G36*
X4452010Y987740D02*
X4437990D01*
X4425038Y982375D01*
X4415125Y972462D01*
X4409760Y959510D01*
Y945490D01*
X4415125Y932538D01*
X4425038Y922625D01*
X4437990Y917260D01*
X4452010D01*
X4464962Y922625D01*
X4474875Y932538D01*
X4480240Y945490D01*
Y959510D01*
X4474875Y972462D01*
X4464962Y982375D01*
X4452010Y987740D01*
D02*
G37*
G36*
X4306990Y985200D02*
X4292970D01*
X4280018Y979835D01*
X4270105Y969922D01*
X4264740Y956970D01*
Y942950D01*
X4270105Y929998D01*
X4280018Y920085D01*
X4292970Y914720D01*
X4306990D01*
X4319942Y920085D01*
X4329855Y929998D01*
X4335220Y942950D01*
Y956970D01*
X4329855Y969922D01*
X4319942Y979835D01*
X4306990Y985200D01*
D02*
G37*
G36*
X4180230D02*
X4166210D01*
X4153258Y979835D01*
X4143345Y969922D01*
X4137980Y956970D01*
Y942950D01*
X4143345Y929998D01*
X4153258Y920085D01*
X4166210Y914720D01*
X4180230D01*
X4193182Y920085D01*
X4203095Y929998D01*
X4208460Y942950D01*
Y956970D01*
X4203095Y969922D01*
X4193182Y979835D01*
X4180230Y985200D01*
D02*
G37*
G36*
X2486090Y970500D02*
X2472070D01*
X2459118Y965135D01*
X2449205Y955222D01*
X2443840Y942270D01*
Y928250D01*
X2449205Y915298D01*
X2459118Y905385D01*
X2472070Y900020D01*
X2486090D01*
X2499042Y905385D01*
X2508955Y915298D01*
X2514320Y928250D01*
Y942270D01*
X2508955Y955222D01*
X2499042Y965135D01*
X2486090Y970500D01*
D02*
G37*
G36*
X2791990Y938640D02*
X2777970D01*
X2765018Y933275D01*
X2755105Y923362D01*
X2749740Y910410D01*
Y896390D01*
X2755105Y883438D01*
X2765018Y873525D01*
X2777970Y868160D01*
X2791990D01*
X2804942Y873525D01*
X2814855Y883438D01*
X2820220Y896390D01*
Y910410D01*
X2814855Y923362D01*
X2804942Y933275D01*
X2791990Y938640D01*
D02*
G37*
G36*
X6616090Y1025840D02*
X6602070D01*
X6589118Y1020475D01*
X6579205Y1010562D01*
X6573840Y997610D01*
Y983590D01*
X6579205Y970638D01*
X6587438Y962405D01*
X6588386Y955040D01*
X6587438Y947675D01*
X6579205Y939442D01*
X6573840Y926490D01*
Y912470D01*
X6579205Y899518D01*
X6583390Y895333D01*
X6582964Y893588D01*
X6577163Y883600D01*
X6566510D01*
X6553558Y878235D01*
X6543645Y868322D01*
X6539971Y859452D01*
X6526547Y858675D01*
X6524655Y863242D01*
X6514742Y873155D01*
X6501790Y878520D01*
X6487770D01*
X6474818Y873155D01*
X6466585Y864922D01*
X6459220Y863974D01*
X6451855Y864922D01*
X6443622Y873155D01*
X6430670Y878520D01*
X6416650D01*
X6403698Y873155D01*
X6393785Y863242D01*
X6388420Y850290D01*
Y836270D01*
X6393785Y823318D01*
X6403698Y813405D01*
X6416650Y808040D01*
X6430670D01*
X6443622Y813405D01*
X6451855Y821638D01*
X6459220Y822586D01*
X6466585Y821638D01*
X6474818Y813405D01*
X6487770Y808040D01*
X6501790D01*
X6514742Y813405D01*
X6524655Y823318D01*
X6528329Y832188D01*
X6541753Y832965D01*
X6543645Y828398D01*
X6553558Y818485D01*
X6566510Y813120D01*
X6580530D01*
X6593482Y818485D01*
X6601715Y826718D01*
X6609080Y827666D01*
X6616445Y826718D01*
X6624678Y818485D01*
X6637630Y813120D01*
X6651650D01*
X6664602Y818485D01*
X6674515Y828398D01*
X6678930Y839057D01*
X6679137Y839097D01*
X6691423D01*
X6691630Y839057D01*
X6696045Y828398D01*
X6705958Y818485D01*
X6718910Y813120D01*
X6732930D01*
X6745882Y818485D01*
X6754115Y826718D01*
X6761480Y827666D01*
X6768845Y826718D01*
X6777078Y818485D01*
X6790030Y813120D01*
X6804050D01*
X6817002Y818485D01*
X6826915Y828398D01*
X6832280Y841350D01*
Y855370D01*
X6826915Y868322D01*
X6817002Y878235D01*
X6804050Y883600D01*
X6790030D01*
X6777078Y878235D01*
X6768845Y870002D01*
X6761480Y869054D01*
X6754115Y870002D01*
X6745882Y878235D01*
X6732930Y883600D01*
X6718910D01*
X6705958Y878235D01*
X6696045Y868322D01*
X6691630Y857663D01*
X6691423Y857623D01*
X6679137D01*
X6678930Y857663D01*
X6674515Y868322D01*
X6664602Y878235D01*
X6651650Y883600D01*
X6640997D01*
X6635196Y893588D01*
X6634770Y895333D01*
X6638955Y899518D01*
X6644320Y912470D01*
Y926490D01*
X6638955Y939442D01*
X6630722Y947675D01*
X6629774Y955040D01*
X6630722Y962405D01*
X6638955Y970638D01*
X6644320Y983590D01*
Y997610D01*
X6638955Y1010562D01*
X6629042Y1020475D01*
X6616090Y1025840D01*
D02*
G37*
G36*
X4389600Y911830D02*
X4375581D01*
X4362628Y906465D01*
X4352715Y896552D01*
X4347350Y883600D01*
Y869580D01*
X4352715Y856628D01*
X4362628Y846715D01*
X4375581Y841350D01*
X4389600D01*
X4402552Y846715D01*
X4412465Y856628D01*
X4417830Y869580D01*
Y883600D01*
X4412465Y896552D01*
X4402552Y906465D01*
X4389600Y911830D01*
D02*
G37*
G36*
X3870350Y896300D02*
X3856330D01*
X3843378Y890935D01*
X3833465Y881022D01*
X3828100Y868070D01*
Y854050D01*
X3833465Y841098D01*
X3843378Y831185D01*
X3856330Y825820D01*
X3870350D01*
X3883302Y831185D01*
X3893215Y841098D01*
X3898580Y854050D01*
Y868070D01*
X3893215Y881022D01*
X3883302Y890935D01*
X3870350Y896300D01*
D02*
G37*
G36*
X3741348Y896260D02*
X3727328D01*
X3714376Y890895D01*
X3704463Y880982D01*
X3699098Y868030D01*
Y854010D01*
X3704463Y841058D01*
X3714376Y831145D01*
X3727328Y825780D01*
X3741348D01*
X3754300Y831145D01*
X3764213Y841058D01*
X3769578Y854010D01*
Y868030D01*
X3764213Y880982D01*
X3754300Y890895D01*
X3741348Y896260D01*
D02*
G37*
G36*
X6957367Y842043D02*
X6943348D01*
X6930395Y836678D01*
X6920482Y826764D01*
X6915117Y813812D01*
Y799793D01*
X6920482Y786841D01*
X6930395Y776928D01*
X6943348Y771563D01*
X6957367D01*
X6970319Y776928D01*
X6980232Y786841D01*
X6985597Y799793D01*
Y813812D01*
X6980232Y826764D01*
X6970319Y836678D01*
X6957367Y842043D01*
D02*
G37*
G36*
X4306990Y832800D02*
X4292970D01*
X4280018Y827435D01*
X4270105Y817522D01*
X4264740Y804570D01*
Y790550D01*
X4270105Y777598D01*
X4280018Y767685D01*
X4292970Y762320D01*
X4306990D01*
X4319942Y767685D01*
X4329855Y777598D01*
X4335220Y790550D01*
Y804570D01*
X4329855Y817522D01*
X4319942Y827435D01*
X4306990Y832800D01*
D02*
G37*
G36*
X4180230D02*
X4166210D01*
X4153258Y827435D01*
X4143345Y817522D01*
X4137980Y804570D01*
Y790550D01*
X4143345Y777598D01*
X4153258Y767685D01*
X4166210Y762320D01*
X4180230D01*
X4193182Y767685D01*
X4203095Y777598D01*
X4208460Y790550D01*
Y804570D01*
X4203095Y817522D01*
X4193182Y827435D01*
X4180230Y832800D01*
D02*
G37*
G36*
X1739290Y831880D02*
X1725270D01*
X1712318Y826515D01*
X1702405Y816602D01*
X1697040Y803650D01*
Y789630D01*
X1702405Y776678D01*
X1712318Y766765D01*
X1725270Y761400D01*
X1739290D01*
X1752242Y766765D01*
X1762155Y776678D01*
X1767520Y789630D01*
Y803650D01*
X1762155Y816602D01*
X1752242Y826515D01*
X1739290Y831880D01*
D02*
G37*
G36*
X4452010Y830260D02*
X4437990D01*
X4425038Y824895D01*
X4415125Y814982D01*
X4409760Y802030D01*
Y788010D01*
X4415125Y775058D01*
X4425038Y765145D01*
X4437990Y759780D01*
X4452010D01*
X4464962Y765145D01*
X4474875Y775058D01*
X4480240Y788010D01*
Y802030D01*
X4474875Y814982D01*
X4464962Y824895D01*
X4452010Y830260D01*
D02*
G37*
G36*
X1581810Y829340D02*
X1567790D01*
X1554838Y823975D01*
X1544925Y814062D01*
X1539560Y801110D01*
Y787090D01*
X1544925Y774138D01*
X1554838Y764225D01*
X1567790Y758860D01*
X1581810D01*
X1594762Y764225D01*
X1604675Y774138D01*
X1610040Y787090D01*
Y801110D01*
X1604675Y814062D01*
X1594762Y823975D01*
X1581810Y829340D01*
D02*
G37*
G36*
X5572150Y822400D02*
X5558130D01*
X5545178Y817035D01*
X5535265Y807122D01*
X5529900Y794170D01*
Y780151D01*
X5535265Y767198D01*
X5545178Y757285D01*
X5558130Y751920D01*
X5572150D01*
X5585102Y757285D01*
X5595015Y767198D01*
X5600380Y780151D01*
Y794170D01*
X5595015Y807122D01*
X5585102Y817035D01*
X5572150Y822400D01*
D02*
G37*
G36*
X5277510D02*
X5263490D01*
X5250538Y817035D01*
X5240625Y807122D01*
X5235260Y794170D01*
Y780151D01*
X5240625Y767198D01*
X5250538Y757285D01*
X5263490Y751920D01*
X5277510D01*
X5290462Y757285D01*
X5300375Y767198D01*
X5305740Y780151D01*
Y794170D01*
X5300375Y807122D01*
X5290462Y817035D01*
X5277510Y822400D01*
D02*
G37*
G36*
X2149630Y793000D02*
X2135610D01*
X2122658Y787635D01*
X2112745Y777722D01*
X2107380Y764770D01*
Y750750D01*
X2112745Y737798D01*
X2122658Y727885D01*
X2135610Y722520D01*
X2149630D01*
X2162582Y727885D01*
X2172495Y737798D01*
X2177860Y750750D01*
Y764770D01*
X2172495Y777722D01*
X2162582Y787635D01*
X2149630Y793000D01*
D02*
G37*
G36*
X5048306Y768813D02*
X5034287D01*
X5021335Y763448D01*
X5011422Y753535D01*
X5006057Y740583D01*
Y726563D01*
X5011422Y713611D01*
X5021335Y703698D01*
X5034287Y698333D01*
X5048306D01*
X5061258Y703698D01*
X5071171Y713611D01*
X5076536Y726563D01*
Y740583D01*
X5071171Y753535D01*
X5061258Y763448D01*
X5048306Y768813D01*
D02*
G37*
G36*
X5800990Y766760D02*
X5786970D01*
X5774018Y761395D01*
X5764105Y751482D01*
X5758740Y738530D01*
Y724510D01*
X5764105Y711558D01*
X5774018Y701645D01*
X5786970Y696280D01*
X5800990D01*
X5813942Y701645D01*
X5823855Y711558D01*
X5829220Y724510D01*
Y738530D01*
X5823855Y751482D01*
X5813942Y761395D01*
X5800990Y766760D01*
D02*
G37*
G36*
X2440290Y761140D02*
X2426270D01*
X2413318Y755775D01*
X2403405Y745862D01*
X2398040Y732910D01*
Y718890D01*
X2403405Y705938D01*
X2413318Y696025D01*
X2426270Y690660D01*
X2440290D01*
X2453242Y696025D01*
X2463155Y705938D01*
X2468520Y718890D01*
Y732910D01*
X2463155Y745862D01*
X2453242Y755775D01*
X2440290Y761140D01*
D02*
G37*
G36*
X2378510Y698720D02*
X2364490D01*
X2351538Y693355D01*
X2341625Y683442D01*
X2336260Y670490D01*
Y656470D01*
X2341625Y643518D01*
X2351538Y633605D01*
X2364490Y628240D01*
X2378510D01*
X2391462Y633605D01*
X2401375Y643518D01*
X2406740Y656470D01*
Y670490D01*
X2401375Y683442D01*
X2391462Y693355D01*
X2378510Y698720D01*
D02*
G37*
G36*
X6903110Y675320D02*
X6889090D01*
X6876138Y669955D01*
X6866225Y660042D01*
X6860860Y647090D01*
Y634101D01*
X6858372Y630213D01*
X6852356Y623302D01*
X6845539Y623545D01*
X6837360Y633071D01*
Y647090D01*
X6831995Y660042D01*
X6822082Y669955D01*
X6809130Y675320D01*
X6795110D01*
X6782158Y669955D01*
X6772245Y660042D01*
X6766880Y647090D01*
Y633070D01*
X6772245Y620118D01*
X6782158Y610205D01*
X6795110Y604840D01*
X6804499D01*
X6812494Y595564D01*
X6813386Y593107D01*
X6812600Y591210D01*
Y577833D01*
X6812304Y576831D01*
X6803447Y566100D01*
X6795110D01*
X6782158Y560735D01*
X6772245Y550822D01*
X6766880Y537870D01*
Y523850D01*
X6772245Y510898D01*
X6782158Y500985D01*
X6795110Y495620D01*
X6809130D01*
X6822082Y500985D01*
X6831995Y510898D01*
X6837360Y523850D01*
Y537227D01*
X6837656Y538229D01*
X6842224Y543763D01*
X6851445Y544186D01*
X6853177Y542556D01*
X6860860Y533120D01*
Y521310D01*
X6866225Y508358D01*
X6876138Y498445D01*
X6889090Y493080D01*
X6903110D01*
X6916062Y498445D01*
X6925975Y508358D01*
X6931340Y521310D01*
Y535330D01*
X6925975Y548282D01*
X6916062Y558195D01*
X6903110Y563560D01*
X6891181D01*
X6885250Y569304D01*
X6881893Y574325D01*
X6883080Y577190D01*
Y591210D01*
X6881893Y594075D01*
X6885250Y599096D01*
X6891181Y604840D01*
X6903110D01*
X6916062Y610205D01*
X6925975Y620118D01*
X6931340Y633070D01*
Y647090D01*
X6925975Y660042D01*
X6916062Y669955D01*
X6903110Y675320D01*
D02*
G37*
G36*
X5473090Y454340D02*
X5459070D01*
X5446118Y448975D01*
X5436205Y439062D01*
X5430840Y426110D01*
Y412090D01*
X5436205Y399138D01*
X5446118Y389225D01*
X5459070Y383860D01*
X5473090D01*
X5486042Y389225D01*
X5495955Y399138D01*
X5501320Y412090D01*
Y426110D01*
X5495955Y439062D01*
X5486042Y448975D01*
X5473090Y454340D01*
D02*
G37*
G36*
X5110410Y398460D02*
X5096390D01*
X5083438Y393095D01*
X5073525Y383182D01*
X5072173Y379918D01*
X5058427D01*
X5057075Y383182D01*
X5047162Y393095D01*
X5034210Y398460D01*
X5020190D01*
X5007238Y393095D01*
X4997325Y383182D01*
X4992910Y372523D01*
X4992703Y372483D01*
X4980417D01*
X4980210Y372523D01*
X4975795Y383182D01*
X4965882Y393095D01*
X4952930Y398460D01*
X4938910D01*
X4925958Y393095D01*
X4916045Y383182D01*
X4910680Y370230D01*
Y356210D01*
X4916045Y343258D01*
X4925958Y333345D01*
X4938910Y327980D01*
X4952930D01*
X4965882Y333345D01*
X4975795Y343258D01*
X4980210Y353917D01*
X4980417Y353957D01*
X4992703D01*
X4992910Y353917D01*
X4997325Y343258D01*
X5007238Y333345D01*
X5020190Y327980D01*
X5034210D01*
X5047162Y333345D01*
X5057075Y343258D01*
X5058427Y346522D01*
X5072173D01*
X5073525Y343258D01*
X5083438Y333345D01*
X5096390Y327980D01*
X5110410D01*
X5123362Y333345D01*
X5133275Y343258D01*
X5138640Y356210D01*
Y370230D01*
X5133275Y383182D01*
X5123362Y393095D01*
X5110410Y398460D01*
D02*
G37*
G36*
X3684010D02*
X3669990D01*
X3657038Y393095D01*
X3647125Y383182D01*
X3645773Y379918D01*
X3632027D01*
X3630675Y383182D01*
X3620762Y393095D01*
X3607810Y398460D01*
X3593790D01*
X3580838Y393095D01*
X3570925Y383182D01*
X3566510Y372523D01*
X3566303Y372483D01*
X3554017D01*
X3553810Y372523D01*
X3549395Y383182D01*
X3539482Y393095D01*
X3526530Y398460D01*
X3512510D01*
X3499558Y393095D01*
X3493040Y386577D01*
X3486522Y393095D01*
X3473570Y398460D01*
X3459550D01*
X3446598Y393095D01*
X3436685Y383182D01*
X3435333Y379918D01*
X3421587D01*
X3420235Y383182D01*
X3410322Y393095D01*
X3397370Y398460D01*
X3383350D01*
X3370398Y393095D01*
X3360485Y383182D01*
X3356070Y372523D01*
X3355863Y372483D01*
X3343577D01*
X3343370Y372523D01*
X3338955Y383182D01*
X3329042Y393095D01*
X3316090Y398460D01*
X3302070D01*
X3289118Y393095D01*
X3279205Y383182D01*
X3273840Y370230D01*
Y356210D01*
X3279205Y343258D01*
X3289118Y333345D01*
X3302070Y327980D01*
X3316090D01*
X3329042Y333345D01*
X3338955Y343258D01*
X3343370Y353917D01*
X3343577Y353957D01*
X3355863D01*
X3356070Y353917D01*
X3360485Y343258D01*
X3370398Y333345D01*
X3383350Y327980D01*
X3397370D01*
X3410322Y333345D01*
X3420235Y343258D01*
X3421587Y346522D01*
X3435333D01*
X3436685Y343258D01*
X3446598Y333345D01*
X3459550Y327980D01*
X3473570D01*
X3486522Y333345D01*
X3493040Y339863D01*
X3499558Y333345D01*
X3512510Y327980D01*
X3526530D01*
X3539482Y333345D01*
X3549395Y343258D01*
X3553810Y353917D01*
X3554017Y353957D01*
X3566303D01*
X3566510Y353917D01*
X3570925Y343258D01*
X3580838Y333345D01*
X3593790Y327980D01*
X3607810D01*
X3620762Y333345D01*
X3630675Y343258D01*
X3632027Y346522D01*
X3645773D01*
X3647125Y343258D01*
X3657038Y333345D01*
X3669990Y327980D01*
X3684010D01*
X3696962Y333345D01*
X3706875Y343258D01*
X3712240Y356210D01*
Y370230D01*
X3706875Y383182D01*
X3696962Y393095D01*
X3684010Y398460D01*
D02*
G37*
G36*
X2297170D02*
X2283150D01*
X2270198Y393095D01*
X2260285Y383182D01*
X2258933Y379918D01*
X2245187D01*
X2243835Y383182D01*
X2233922Y393095D01*
X2220970Y398460D01*
X2206950D01*
X2193998Y393095D01*
X2184085Y383182D01*
X2179670Y372523D01*
X2179463Y372483D01*
X2167177D01*
X2166970Y372523D01*
X2162555Y383182D01*
X2152642Y393095D01*
X2139690Y398460D01*
X2125670D01*
X2112718Y393095D01*
X2103930Y384307D01*
X2095142Y393095D01*
X2082190Y398460D01*
X2068170D01*
X2055218Y393095D01*
X2045305Y383182D01*
X2043953Y379918D01*
X2030207D01*
X2028855Y383182D01*
X2018942Y393095D01*
X2005990Y398460D01*
X1991970D01*
X1979018Y393095D01*
X1969105Y383182D01*
X1964690Y372523D01*
X1964483Y372483D01*
X1952197D01*
X1951990Y372523D01*
X1947575Y383182D01*
X1937662Y393095D01*
X1924710Y398460D01*
X1910690D01*
X1897738Y393095D01*
X1887825Y383182D01*
X1882460Y370230D01*
Y356210D01*
X1887825Y343258D01*
X1897738Y333345D01*
X1910690Y327980D01*
X1924710D01*
X1937662Y333345D01*
X1947575Y343258D01*
X1951990Y353917D01*
X1952197Y353957D01*
X1964483D01*
X1964690Y353917D01*
X1969105Y343258D01*
X1979018Y333345D01*
X1991970Y327980D01*
X2005990D01*
X2018942Y333345D01*
X2028855Y343258D01*
X2030207Y346522D01*
X2043953D01*
X2045305Y343258D01*
X2055218Y333345D01*
X2068170Y327980D01*
X2082190D01*
X2095142Y333345D01*
X2103930Y342133D01*
X2112718Y333345D01*
X2125670Y327980D01*
X2139690D01*
X2152642Y333345D01*
X2162555Y343258D01*
X2166970Y353917D01*
X2167177Y353957D01*
X2179463D01*
X2179670Y353917D01*
X2184085Y343258D01*
X2193998Y333345D01*
X2206950Y327980D01*
X2220970D01*
X2233922Y333345D01*
X2243835Y343258D01*
X2245187Y346522D01*
X2258933D01*
X2260285Y343258D01*
X2270198Y333345D01*
X2283150Y327980D01*
X2297170D01*
X2310122Y333345D01*
X2320035Y343258D01*
X2325400Y356210D01*
Y370230D01*
X2320035Y383182D01*
X2310122Y393095D01*
X2297170Y398460D01*
D02*
G37*
G36*
X5731687Y449743D02*
X5717668D01*
X5704716Y444378D01*
X5694802Y434464D01*
X5689437Y421512D01*
Y407493D01*
X5694802Y394541D01*
X5704716Y384628D01*
X5717668Y379263D01*
X5731687D01*
X5744639Y384628D01*
X5754552Y394541D01*
X5759917Y407493D01*
Y421512D01*
X5754552Y434464D01*
X5744639Y444378D01*
X5731687Y449743D01*
D02*
G37*
G36*
X5625007D02*
X5610988D01*
X5598036Y444378D01*
X5588122Y434464D01*
X5582757Y421512D01*
Y407493D01*
X5588122Y394541D01*
X5598036Y384628D01*
X5610988Y379263D01*
X5625007D01*
X5637959Y384628D01*
X5647872Y394541D01*
X5653237Y407493D01*
Y421512D01*
X5647872Y434464D01*
X5637959Y444378D01*
X5625007Y449743D01*
D02*
G37*
G36*
X4756810Y449260D02*
X4742790D01*
X4729838Y443895D01*
X4719925Y433982D01*
X4714560Y421030D01*
Y407010D01*
X4719925Y394058D01*
X4729838Y384145D01*
X4742790Y378780D01*
X4756810D01*
X4769762Y384145D01*
X4779675Y394058D01*
X4785040Y407010D01*
Y421030D01*
X4779675Y433982D01*
X4769762Y443895D01*
X4756810Y449260D01*
D02*
G37*
G36*
X4627270D02*
X4613250D01*
X4600298Y443895D01*
X4590385Y433982D01*
X4585020Y421030D01*
Y407010D01*
X4590385Y394058D01*
X4600298Y384145D01*
X4613250Y378780D01*
X4627270D01*
X4640222Y384145D01*
X4650135Y394058D01*
X4655500Y407010D01*
Y421030D01*
X4650135Y433982D01*
X4640222Y443895D01*
X4627270Y449260D01*
D02*
G37*
G36*
X4500270D02*
X4486250D01*
X4473298Y443895D01*
X4463385Y433982D01*
X4458020Y421030D01*
Y407010D01*
X4463385Y394058D01*
X4473298Y384145D01*
X4486250Y378780D01*
X4500270D01*
X4513222Y384145D01*
X4523135Y394058D01*
X4528500Y407010D01*
Y421030D01*
X4523135Y433982D01*
X4513222Y443895D01*
X4500270Y449260D01*
D02*
G37*
G36*
X4378350D02*
X4364330D01*
X4351378Y443895D01*
X4341465Y433982D01*
X4336100Y421030D01*
Y407010D01*
X4341465Y394058D01*
X4351378Y384145D01*
X4364330Y378780D01*
X4378350D01*
X4391302Y384145D01*
X4401215Y394058D01*
X4406580Y407010D01*
Y421030D01*
X4401215Y433982D01*
X4391302Y443895D01*
X4378350Y449260D01*
D02*
G37*
G36*
X4253890D02*
X4239870D01*
X4226918Y443895D01*
X4217005Y433982D01*
X4211640Y421030D01*
Y407010D01*
X4217005Y394058D01*
X4226918Y384145D01*
X4239870Y378780D01*
X4253890D01*
X4266842Y384145D01*
X4276755Y394058D01*
X4282120Y407010D01*
Y421030D01*
X4276755Y433982D01*
X4266842Y443895D01*
X4253890Y449260D01*
D02*
G37*
G36*
X4131970Y446720D02*
X4117950D01*
X4104998Y441355D01*
X4095085Y431442D01*
X4089720Y418490D01*
Y404470D01*
X4095085Y391518D01*
X4104998Y381605D01*
X4117950Y376240D01*
X4131970D01*
X4144922Y381605D01*
X4154835Y391518D01*
X4160200Y404470D01*
Y418490D01*
X4154835Y431442D01*
X4144922Y441355D01*
X4131970Y446720D01*
D02*
G37*
G36*
X4004970Y444180D02*
X3990950D01*
X3977998Y438815D01*
X3968085Y428902D01*
X3962720Y415950D01*
Y401930D01*
X3968085Y388978D01*
X3977998Y379065D01*
X3990950Y373700D01*
X4004970D01*
X4017922Y379065D01*
X4027835Y388978D01*
X4033200Y401930D01*
Y415950D01*
X4027835Y428902D01*
X4017922Y438815D01*
X4004970Y444180D01*
D02*
G37*
G36*
X2993670Y441800D02*
X2979650D01*
X2966698Y436435D01*
X2956785Y426522D01*
X2951420Y413570D01*
Y399550D01*
X2956785Y386598D01*
X2966698Y376685D01*
X2979650Y371320D01*
X2993670D01*
X3006622Y376685D01*
X3016535Y386598D01*
X3021900Y399550D01*
Y413570D01*
X3016535Y426522D01*
X3006622Y436435D01*
X2993670Y441800D01*
D02*
G37*
G36*
X2868670D02*
X2854650D01*
X2841698Y436435D01*
X2831785Y426522D01*
X2826420Y413570D01*
Y399550D01*
X2831785Y386598D01*
X2841698Y376685D01*
X2854650Y371320D01*
X2868670D01*
X2881622Y376685D01*
X2891535Y386598D01*
X2896900Y399550D01*
Y413570D01*
X2891535Y426522D01*
X2881622Y436435D01*
X2868670Y441800D01*
D02*
G37*
G36*
X2743670D02*
X2729650D01*
X2716698Y436435D01*
X2706785Y426522D01*
X2701420Y413570D01*
Y399550D01*
X2706785Y386598D01*
X2716698Y376685D01*
X2729650Y371320D01*
X2743670D01*
X2756622Y376685D01*
X2766535Y386598D01*
X2771900Y399550D01*
Y413570D01*
X2766535Y426522D01*
X2756622Y436435D01*
X2743670Y441800D01*
D02*
G37*
G36*
X2618670D02*
X2604650D01*
X2591698Y436435D01*
X2581785Y426522D01*
X2576420Y413570D01*
Y399550D01*
X2581785Y386598D01*
X2591698Y376685D01*
X2604650Y371320D01*
X2618670D01*
X2631622Y376685D01*
X2641535Y386598D01*
X2646900Y399550D01*
Y413570D01*
X2641535Y426522D01*
X2631622Y436435D01*
X2618670Y441800D01*
D02*
G37*
G36*
X1477290D02*
X1463270D01*
X1450318Y436435D01*
X1440405Y426522D01*
X1435040Y413570D01*
Y399550D01*
X1440405Y386598D01*
X1450318Y376685D01*
X1463270Y371320D01*
X1477290D01*
X1490242Y376685D01*
X1500155Y386598D01*
X1505520Y399550D01*
Y413570D01*
X1500155Y426522D01*
X1490242Y436435D01*
X1477290Y441800D01*
D02*
G37*
G36*
X3118510Y441640D02*
X3104490D01*
X3091538Y436275D01*
X3081625Y426362D01*
X3076260Y413410D01*
Y399390D01*
X3081625Y386438D01*
X3091538Y376525D01*
X3104490Y371160D01*
X3118510D01*
X3131462Y376525D01*
X3141375Y386438D01*
X3146740Y399390D01*
Y413410D01*
X3141375Y426362D01*
X3131462Y436275D01*
X3118510Y441640D01*
D02*
G37*
G36*
X1599590Y436560D02*
X1585570D01*
X1572618Y431195D01*
X1562705Y421282D01*
X1557340Y408330D01*
Y394310D01*
X1562705Y381358D01*
X1572618Y371445D01*
X1585570Y366080D01*
X1599590D01*
X1612542Y371445D01*
X1622455Y381358D01*
X1627820Y394310D01*
Y408330D01*
X1622455Y421282D01*
X1612542Y431195D01*
X1599590Y436560D01*
D02*
G37*
G36*
X1724050Y434020D02*
X1710030D01*
X1697078Y428655D01*
X1687165Y418742D01*
X1681800Y405790D01*
Y391770D01*
X1687165Y378818D01*
X1697078Y368905D01*
X1710030Y363540D01*
X1724050D01*
X1737002Y368905D01*
X1746915Y378818D01*
X1752280Y391770D01*
Y405790D01*
X1746915Y418742D01*
X1737002Y428655D01*
X1724050Y434020D01*
D02*
G37*
G36*
X6075070Y428940D02*
X6061050D01*
X6048098Y423575D01*
X6038185Y413662D01*
X6032820Y400710D01*
Y386690D01*
X6038185Y373738D01*
X6048098Y363825D01*
X6061050Y358460D01*
X6075070D01*
X6088022Y363825D01*
X6097935Y373738D01*
X6103300Y386690D01*
Y400710D01*
X6097935Y413662D01*
X6088022Y423575D01*
X6075070Y428940D01*
D02*
G37*
G36*
X5731687Y358303D02*
X5717668D01*
X5704716Y352938D01*
X5694802Y343024D01*
X5689437Y330072D01*
Y316053D01*
X5694802Y303101D01*
X5704716Y293188D01*
X5717668Y287823D01*
X5731687D01*
X5744639Y293188D01*
X5754552Y303101D01*
X5759917Y316053D01*
Y330072D01*
X5754552Y343024D01*
X5744639Y352938D01*
X5731687Y358303D01*
D02*
G37*
G36*
X5625007D02*
X5610988D01*
X5598036Y352938D01*
X5588122Y343024D01*
X5582757Y330072D01*
Y316053D01*
X5588122Y303101D01*
X5598036Y293188D01*
X5610988Y287823D01*
X5625007D01*
X5637959Y293188D01*
X5647872Y303101D01*
X5653237Y316053D01*
Y330072D01*
X5647872Y343024D01*
X5637959Y352938D01*
X5625007Y358303D01*
D02*
G37*
G36*
X5473090Y357820D02*
X5459070D01*
X5446118Y352455D01*
X5436205Y342542D01*
X5430840Y329590D01*
Y315570D01*
X5436205Y302618D01*
X5446118Y292705D01*
X5459070Y287340D01*
X5473090D01*
X5486042Y292705D01*
X5495955Y302618D01*
X5501320Y315570D01*
Y329590D01*
X5495955Y342542D01*
X5486042Y352455D01*
X5473090Y357820D01*
D02*
G37*
G36*
X6075070Y286700D02*
X6061050D01*
X6048098Y281335D01*
X6038185Y271422D01*
X6032820Y258470D01*
Y244450D01*
X6038185Y231498D01*
X6048098Y221585D01*
X6061050Y216220D01*
X6075070D01*
X6088022Y221585D01*
X6097935Y231498D01*
X6103300Y244450D01*
Y258470D01*
X6097935Y271422D01*
X6088022Y281335D01*
X6075070Y286700D01*
D02*
G37*
G36*
X5731687Y266863D02*
X5717668D01*
X5704716Y261498D01*
X5694802Y251584D01*
X5689437Y238632D01*
Y224613D01*
X5694802Y211661D01*
X5704716Y201748D01*
X5717668Y196383D01*
X5731687D01*
X5744639Y201748D01*
X5754552Y211661D01*
X5759917Y224613D01*
Y238632D01*
X5754552Y251584D01*
X5744639Y261498D01*
X5731687Y266863D01*
D02*
G37*
G36*
X5625007D02*
X5610988D01*
X5598036Y261498D01*
X5588122Y251584D01*
X5582757Y238632D01*
Y224613D01*
X5588122Y211661D01*
X5598036Y201748D01*
X5610988Y196383D01*
X5625007D01*
X5637959Y201748D01*
X5647872Y211661D01*
X5653237Y224613D01*
Y238632D01*
X5647872Y251584D01*
X5637959Y261498D01*
X5625007Y266863D01*
D02*
G37*
G36*
X5876710Y261300D02*
X5862690D01*
X5849738Y255935D01*
X5839825Y246022D01*
X5834460Y233070D01*
Y219050D01*
X5839825Y206098D01*
X5849738Y196185D01*
X5862690Y190820D01*
X5876710D01*
X5889662Y196185D01*
X5899575Y206098D01*
X5904940Y219050D01*
Y233070D01*
X5899575Y246022D01*
X5889662Y255935D01*
X5876710Y261300D01*
D02*
G37*
G36*
X5473090D02*
X5459070D01*
X5446118Y255935D01*
X5436205Y246022D01*
X5430840Y233070D01*
Y219050D01*
X5436205Y206098D01*
X5446118Y196185D01*
X5459070Y190820D01*
X5473090D01*
X5486042Y196185D01*
X5495955Y206098D01*
X5501320Y219050D01*
Y233070D01*
X5495955Y246022D01*
X5486042Y255935D01*
X5473090Y261300D01*
D02*
G37*
G36*
X6446550Y223970D02*
X6432530D01*
X6419578Y218605D01*
X6409665Y208692D01*
X6404300Y195740D01*
Y181720D01*
X6409665Y168768D01*
X6419578Y158855D01*
X6432530Y153490D01*
X6446550D01*
X6459502Y158855D01*
X6469415Y168768D01*
X6474780Y181720D01*
Y195740D01*
X6469415Y208692D01*
X6459502Y218605D01*
X6446550Y223970D01*
D02*
G37*
G36*
X7207910Y203170D02*
X7193890D01*
X7180938Y197805D01*
X7171025Y187892D01*
X7165660Y174939D01*
Y160920D01*
X7171025Y147968D01*
X7180938Y138055D01*
X7193890Y132690D01*
X7207910D01*
X7220862Y138055D01*
X7230775Y147968D01*
X7236140Y160920D01*
Y174939D01*
X7230775Y187892D01*
X7220862Y197805D01*
X7207910Y203170D01*
D02*
G37*
G36*
X6903110D02*
X6889090D01*
X6876138Y197805D01*
X6866225Y187892D01*
X6860860Y174939D01*
Y160920D01*
X6866225Y147968D01*
X6876138Y138055D01*
X6889090Y132690D01*
X6903110D01*
X6916062Y138055D01*
X6925975Y147968D01*
X6931340Y160920D01*
Y174939D01*
X6925975Y187892D01*
X6916062Y197805D01*
X6903110Y203170D01*
D02*
G37*
G36*
X6750710D02*
X6736690D01*
X6723738Y197805D01*
X6713825Y187892D01*
X6708460Y174939D01*
Y160920D01*
X6713825Y147968D01*
X6723738Y138055D01*
X6736690Y132690D01*
X6750710D01*
X6763662Y138055D01*
X6773575Y147968D01*
X6778940Y160920D01*
Y174939D01*
X6773575Y187892D01*
X6763662Y197805D01*
X6750710Y203170D01*
D02*
G37*
G36*
X5112250Y143020D02*
X5098230D01*
X5085278Y137655D01*
X5075365Y127742D01*
X5070950Y117084D01*
X5070743Y117043D01*
X5058457D01*
X5058250Y117084D01*
X5053835Y127742D01*
X5043922Y137655D01*
X5030970Y143020D01*
X5016950D01*
X5003998Y137655D01*
X4994085Y127742D01*
X4992733Y124479D01*
X4978987D01*
X4977635Y127742D01*
X4967722Y137655D01*
X4954770Y143020D01*
X4940750D01*
X4927798Y137655D01*
X4917885Y127742D01*
X4912520Y114790D01*
Y100771D01*
X4917885Y87818D01*
X4927798Y77905D01*
X4940750Y72540D01*
X4954770D01*
X4967722Y77905D01*
X4977635Y87818D01*
X4978987Y91082D01*
X4992733D01*
X4994085Y87818D01*
X5003998Y77905D01*
X5016950Y72540D01*
X5030970D01*
X5043922Y77905D01*
X5053835Y87818D01*
X5058250Y98477D01*
X5058457Y98518D01*
X5070743D01*
X5070950Y98477D01*
X5075365Y87818D01*
X5085278Y77905D01*
X5098230Y72540D01*
X5112250D01*
X5125202Y77905D01*
X5135115Y87818D01*
X5140480Y100771D01*
Y114790D01*
X5135115Y127742D01*
X5125202Y137655D01*
X5112250Y143020D01*
D02*
G37*
G36*
X3685850D02*
X3671830D01*
X3658878Y137655D01*
X3648965Y127742D01*
X3644550Y117084D01*
X3644343Y117043D01*
X3632057D01*
X3631850Y117084D01*
X3627435Y127742D01*
X3617522Y137655D01*
X3604570Y143020D01*
X3590550D01*
X3577598Y137655D01*
X3567685Y127742D01*
X3566333Y124479D01*
X3552587D01*
X3551235Y127742D01*
X3541322Y137655D01*
X3528370Y143020D01*
X3514350D01*
X3501398Y137655D01*
X3494880Y131137D01*
X3488362Y137655D01*
X3475410Y143020D01*
X3461390D01*
X3448438Y137655D01*
X3438525Y127742D01*
X3434110Y117084D01*
X3433903Y117043D01*
X3421617D01*
X3421410Y117084D01*
X3416995Y127742D01*
X3407082Y137655D01*
X3394130Y143020D01*
X3380110D01*
X3367158Y137655D01*
X3357245Y127742D01*
X3355893Y124479D01*
X3342147D01*
X3340795Y127742D01*
X3330882Y137655D01*
X3317930Y143020D01*
X3303910D01*
X3290958Y137655D01*
X3281045Y127742D01*
X3275680Y114790D01*
Y100771D01*
X3281045Y87818D01*
X3290958Y77905D01*
X3303910Y72540D01*
X3317930D01*
X3330882Y77905D01*
X3340795Y87818D01*
X3342147Y91082D01*
X3355893D01*
X3357245Y87818D01*
X3367158Y77905D01*
X3380110Y72540D01*
X3394130D01*
X3407082Y77905D01*
X3416995Y87818D01*
X3421410Y98477D01*
X3421617Y98518D01*
X3433903D01*
X3434110Y98477D01*
X3438525Y87818D01*
X3448438Y77905D01*
X3461390Y72540D01*
X3475410D01*
X3488362Y77905D01*
X3494880Y84424D01*
X3501398Y77905D01*
X3514350Y72540D01*
X3528370D01*
X3541322Y77905D01*
X3551235Y87818D01*
X3552587Y91082D01*
X3566333D01*
X3567685Y87818D01*
X3577598Y77905D01*
X3590550Y72540D01*
X3604570D01*
X3617522Y77905D01*
X3627435Y87818D01*
X3631850Y98477D01*
X3632057Y98518D01*
X3644343D01*
X3644550Y98477D01*
X3648965Y87818D01*
X3658878Y77905D01*
X3671830Y72540D01*
X3685850D01*
X3698802Y77905D01*
X3708715Y87818D01*
X3714080Y100771D01*
Y114790D01*
X3708715Y127742D01*
X3698802Y137655D01*
X3685850Y143020D01*
D02*
G37*
G36*
X2299010D02*
X2284990D01*
X2272038Y137655D01*
X2262125Y127742D01*
X2257710Y117084D01*
X2257503Y117043D01*
X2245217D01*
X2245010Y117084D01*
X2240595Y127742D01*
X2230682Y137655D01*
X2217730Y143020D01*
X2203710D01*
X2190758Y137655D01*
X2180845Y127742D01*
X2179493Y124479D01*
X2165747D01*
X2164395Y127742D01*
X2154482Y137655D01*
X2141530Y143020D01*
X2127510D01*
X2114558Y137655D01*
X2105770Y128867D01*
X2096982Y137655D01*
X2084030Y143020D01*
X2070010D01*
X2057058Y137655D01*
X2047145Y127742D01*
X2042730Y117084D01*
X2042523Y117043D01*
X2030237D01*
X2030030Y117084D01*
X2025615Y127742D01*
X2015702Y137655D01*
X2002750Y143020D01*
X1988730D01*
X1975778Y137655D01*
X1965865Y127742D01*
X1964513Y124479D01*
X1950767D01*
X1949415Y127742D01*
X1939502Y137655D01*
X1926550Y143020D01*
X1912530D01*
X1899578Y137655D01*
X1889665Y127742D01*
X1884300Y114790D01*
Y100771D01*
X1889665Y87818D01*
X1899578Y77905D01*
X1912530Y72540D01*
X1926550D01*
X1939502Y77905D01*
X1949415Y87818D01*
X1950767Y91082D01*
X1964513D01*
X1965865Y87818D01*
X1975778Y77905D01*
X1988730Y72540D01*
X2002750D01*
X2015702Y77905D01*
X2025615Y87818D01*
X2030030Y98477D01*
X2030237Y98518D01*
X2042523D01*
X2042730Y98477D01*
X2047145Y87818D01*
X2057058Y77905D01*
X2070010Y72540D01*
X2084030D01*
X2096982Y77905D01*
X2105770Y86694D01*
X2114558Y77905D01*
X2127510Y72540D01*
X2141530D01*
X2154482Y77905D01*
X2164395Y87818D01*
X2165747Y91082D01*
X2179493D01*
X2180845Y87818D01*
X2190758Y77905D01*
X2203710Y72540D01*
X2217730D01*
X2230682Y77905D01*
X2240595Y87818D01*
X2245010Y98477D01*
X2245217Y98518D01*
X2257503D01*
X2257710Y98477D01*
X2262125Y87818D01*
X2272038Y77905D01*
X2284990Y72540D01*
X2299010D01*
X2311962Y77905D01*
X2321875Y87818D01*
X2327240Y100771D01*
Y114790D01*
X2321875Y127742D01*
X2311962Y137655D01*
X2299010Y143020D01*
D02*
G37*
%LPD*%
D49*
X6954215Y1498600D02*
X7015480Y1559865D01*
Y1620520D01*
X5107940Y1498600D02*
X6954215D01*
X5056567Y1264920D02*
Y1447227D01*
X5107940Y1498600D01*
X4833620Y1459614D02*
X4928486Y1554480D01*
X4833620Y1061720D02*
Y1459614D01*
X4928486Y1554480D02*
X5999480D01*
X4833620D02*
X4870450Y1517650D01*
X6680536Y1622900D02*
Y1691640D01*
X6612116Y1554480D02*
X6680536Y1622900D01*
X5999480Y1554480D02*
X6612116D01*
X5996062Y974997D02*
X6001657D01*
X4920478Y974862D02*
X5995928D01*
X5996062Y974997D01*
X6001657D02*
X6002020Y975360D01*
X4834421Y974878D02*
X4876619Y1018721D01*
X4920478Y974862D01*
X4833620Y1061720D02*
X4876619Y1018721D01*
D54*
X6741160Y1620520D02*
D03*
D55*
X1448480Y5393123D02*
D03*
X71800D02*
D03*
X760140D02*
D03*
X415970D02*
D03*
X243885D02*
D03*
X932225D02*
D03*
X588055D02*
D03*
X1104310D02*
D03*
X1276395D02*
D03*
X1448480Y5583623D02*
D03*
X71800D02*
D03*
X760140D02*
D03*
X415970D02*
D03*
X243885D02*
D03*
X932225D02*
D03*
X588055D02*
D03*
X1104310D02*
D03*
X1276395D02*
D03*
X1448480Y922723D02*
D03*
X71800D02*
D03*
X760140D02*
D03*
X415970D02*
D03*
X243885D02*
D03*
X932225D02*
D03*
X588055D02*
D03*
X1104310D02*
D03*
X1276395D02*
D03*
X1448480Y1113223D02*
D03*
X71800D02*
D03*
X760140D02*
D03*
X415970D02*
D03*
X243885D02*
D03*
X932225D02*
D03*
X588055D02*
D03*
X1104310D02*
D03*
X1276395D02*
D03*
X2829560Y5912505D02*
D03*
Y5568335D02*
D03*
Y6256675D02*
D03*
Y6084590D02*
D03*
Y5740420D02*
D03*
Y6428760D02*
D03*
X2639060Y5912505D02*
D03*
Y5568335D02*
D03*
Y6256675D02*
D03*
Y6084590D02*
D03*
Y5740420D02*
D03*
Y6428760D02*
D03*
X3869557Y5224165D02*
D03*
Y5396250D02*
D03*
Y5912505D02*
D03*
Y5568335D02*
D03*
Y6256675D02*
D03*
Y6084590D02*
D03*
Y5740420D02*
D03*
Y6428760D02*
D03*
Y5052080D02*
D03*
X3679057Y5224165D02*
D03*
Y5396250D02*
D03*
Y5912505D02*
D03*
Y5568335D02*
D03*
Y6256675D02*
D03*
Y6084590D02*
D03*
Y5740420D02*
D03*
Y6428760D02*
D03*
Y5052080D02*
D03*
X5329623Y5224165D02*
D03*
Y5396250D02*
D03*
Y5912505D02*
D03*
Y5568335D02*
D03*
Y6256675D02*
D03*
Y6084590D02*
D03*
Y5740420D02*
D03*
Y6428760D02*
D03*
Y5052080D02*
D03*
X5139123Y5224165D02*
D03*
Y5396250D02*
D03*
Y5912505D02*
D03*
Y5568335D02*
D03*
Y6256675D02*
D03*
Y6084590D02*
D03*
Y5740420D02*
D03*
Y6428760D02*
D03*
Y5052080D02*
D03*
X6369620Y5224165D02*
D03*
Y5396250D02*
D03*
Y5912505D02*
D03*
Y5568335D02*
D03*
Y6256675D02*
D03*
Y6084590D02*
D03*
Y5740420D02*
D03*
Y6428760D02*
D03*
Y5052080D02*
D03*
X6179120Y5224165D02*
D03*
Y5396250D02*
D03*
Y5912505D02*
D03*
Y5568335D02*
D03*
Y6256675D02*
D03*
Y6084590D02*
D03*
Y5740420D02*
D03*
Y6428760D02*
D03*
Y5052080D02*
D03*
X7642426Y5224165D02*
D03*
Y5396250D02*
D03*
Y5912505D02*
D03*
Y5568335D02*
D03*
Y6256675D02*
D03*
Y6084590D02*
D03*
Y5740420D02*
D03*
Y6428760D02*
D03*
Y5052080D02*
D03*
X7451926Y5224165D02*
D03*
Y5396250D02*
D03*
Y5912505D02*
D03*
Y5568335D02*
D03*
Y6256675D02*
D03*
Y6084590D02*
D03*
Y5740420D02*
D03*
Y6428760D02*
D03*
Y5052080D02*
D03*
X8682423Y5224165D02*
D03*
Y5396250D02*
D03*
Y5912505D02*
D03*
Y5568335D02*
D03*
Y6256675D02*
D03*
Y6084590D02*
D03*
Y5740420D02*
D03*
Y6428760D02*
D03*
Y5052080D02*
D03*
X8491923Y5224165D02*
D03*
Y5396250D02*
D03*
Y5912505D02*
D03*
Y5568335D02*
D03*
Y6256675D02*
D03*
Y6084590D02*
D03*
Y5740420D02*
D03*
Y6428760D02*
D03*
Y5052080D02*
D03*
D56*
X8719820Y3533140D02*
D03*
X5438140D02*
D03*
X2186940D02*
D03*
X9499384Y500001D02*
D03*
Y6000012D02*
D03*
X499366Y500001D02*
D03*
Y6000012D02*
D03*
D57*
X8450580Y3533140D02*
D03*
X8585200Y3299971D02*
D03*
X8854440D02*
D03*
X8989060Y3533140D02*
D03*
X8854440Y3766309D02*
D03*
X8585200D02*
D03*
X5168900Y3533140D02*
D03*
X5303520Y3299971D02*
D03*
X5572760D02*
D03*
X5707380Y3533140D02*
D03*
X5572760Y3766309D02*
D03*
X5303520D02*
D03*
X1917700Y3533140D02*
D03*
X2052320Y3299971D02*
D03*
X2321560D02*
D03*
X2456180Y3533140D02*
D03*
X2321560Y3766309D02*
D03*
X2052320D02*
D03*
X9364764Y733170D02*
D03*
X9634004D02*
D03*
X9768624Y500001D02*
D03*
X9634004Y266832D02*
D03*
X9364764D02*
D03*
X9230144Y500001D02*
D03*
X9364764Y6233181D02*
D03*
X9634004D02*
D03*
X9768624Y6000012D02*
D03*
X9634004Y5766843D02*
D03*
X9364764D02*
D03*
X9230144Y6000012D02*
D03*
X364746Y733170D02*
D03*
X633986D02*
D03*
X768606Y500001D02*
D03*
X633986Y266832D02*
D03*
X364746D02*
D03*
X230126Y500001D02*
D03*
X364746Y6233181D02*
D03*
X633986D02*
D03*
X768606Y6000012D02*
D03*
X633986Y5766843D02*
D03*
X364746D02*
D03*
X230126Y6000012D02*
D03*
D58*
X8500000Y4100000D02*
D03*
Y4300000D02*
D03*
Y4500000D02*
D03*
Y3900000D02*
D03*
X8600000Y4200000D02*
D03*
Y4400000D02*
D03*
Y4000000D02*
D03*
X8700000Y4100000D02*
D03*
Y4300000D02*
D03*
Y4500000D02*
D03*
Y3900000D02*
D03*
X8800000Y4200000D02*
D03*
Y4400000D02*
D03*
Y4000000D02*
D03*
X8900000Y4100000D02*
D03*
Y4300000D02*
D03*
Y4500000D02*
D03*
Y3900000D02*
D03*
X9000000Y4200000D02*
D03*
Y4400000D02*
D03*
Y4000000D02*
D03*
Y3800000D02*
D03*
X9100000Y4300000D02*
D03*
Y4500000D02*
D03*
Y4100000D02*
D03*
Y3700000D02*
D03*
Y3500000D02*
D03*
Y3300000D02*
D03*
Y3900000D02*
D03*
X5200000Y4500000D02*
D03*
X5400000D02*
D03*
X5300000Y4400000D02*
D03*
X5200000Y4300000D02*
D03*
X5400000D02*
D03*
X5300000Y4200000D02*
D03*
X5200000Y4100000D02*
D03*
X5400000D02*
D03*
X5500000Y4000000D02*
D03*
X5300000D02*
D03*
X5700000D02*
D03*
X5400000Y3900000D02*
D03*
X5200000D02*
D03*
X5600000D02*
D03*
X5800000Y3700000D02*
D03*
Y3500000D02*
D03*
Y3300000D02*
D03*
Y3900000D02*
D03*
X5900000Y3800000D02*
D03*
Y3600000D02*
D03*
Y3400000D02*
D03*
Y4000000D02*
D03*
X6000000Y3700000D02*
D03*
Y3500000D02*
D03*
Y3300000D02*
D03*
Y3900000D02*
D03*
X6100000Y3800000D02*
D03*
Y3600000D02*
D03*
Y3400000D02*
D03*
Y4000000D02*
D03*
X2800000Y4100000D02*
D03*
Y4300000D02*
D03*
X2700000Y4200000D02*
D03*
X2600000Y4100000D02*
D03*
X2500000Y4000000D02*
D03*
X3100000D02*
D03*
X2900000D02*
D03*
X2700000D02*
D03*
X3300000D02*
D03*
X2700000Y3600000D02*
D03*
X2600000Y3700000D02*
D03*
X2800000D02*
D03*
X2700000Y3800000D02*
D03*
X2500000D02*
D03*
X2900000D02*
D03*
X3200000Y3900000D02*
D03*
X3000000D02*
D03*
X2800000D02*
D03*
X3400000D02*
D03*
X3300000Y3800000D02*
D03*
X3100000D02*
D03*
X3400000Y3700000D02*
D03*
X3200000D02*
D03*
X3000000D02*
D03*
X3300000Y3600000D02*
D03*
X3100000D02*
D03*
X2900000D02*
D03*
X3200000Y3500000D02*
D03*
X3000000D02*
D03*
X2800000D02*
D03*
X3400000D02*
D03*
X3100000Y3400000D02*
D03*
X2900000D02*
D03*
X2700000D02*
D03*
X3300000D02*
D03*
X3000000Y3300000D02*
D03*
X2800000D02*
D03*
X2600000D02*
D03*
X3200000D02*
D03*
X2100000Y4000000D02*
D03*
X1900000D02*
D03*
X2300000D02*
D03*
X2200000Y4100000D02*
D03*
X2000000D02*
D03*
X2400000D02*
D03*
X2300000Y4200000D02*
D03*
X2100000D02*
D03*
X1900000D02*
D03*
X2500000D02*
D03*
X2400000Y4300000D02*
D03*
X2200000D02*
D03*
X2000000D02*
D03*
X2600000D02*
D03*
X2500000Y4400000D02*
D03*
X2300000D02*
D03*
X2100000D02*
D03*
X2700000D02*
D03*
X2800000Y4500000D02*
D03*
X2200000D02*
D03*
X2400000D02*
D03*
X2600000D02*
D03*
D59*
X5617997Y323063D02*
D03*
X5724677D02*
D03*
Y231623D02*
D03*
X5617997D02*
D03*
X5724677Y414503D02*
D03*
X5617997D02*
D03*
X4945920Y363220D02*
D03*
X5103400D02*
D03*
X5027200D02*
D03*
X5023960Y107780D02*
D03*
X4947760D02*
D03*
X5105240D02*
D03*
X3519520Y363220D02*
D03*
X3677000D02*
D03*
X3600800D02*
D03*
X3597560Y107780D02*
D03*
X3521360D02*
D03*
X3678840D02*
D03*
X3309080Y363220D02*
D03*
X3466560D02*
D03*
X3390360D02*
D03*
X3387120Y107780D02*
D03*
X3310920D02*
D03*
X3468400D02*
D03*
X2132680Y363220D02*
D03*
X2290160D02*
D03*
X2213960D02*
D03*
X2210720Y107780D02*
D03*
X2134520D02*
D03*
X2292000D02*
D03*
X2077020D02*
D03*
X1919540D02*
D03*
X1995740D02*
D03*
X1998980Y363220D02*
D03*
X2075180D02*
D03*
X1917700D02*
D03*
X6814820Y2362200D02*
D03*
Y2319020D02*
D03*
Y2405380D02*
D03*
X6957341Y2362192D02*
D03*
X6957327Y2405372D02*
D03*
X6957356Y2319012D02*
D03*
Y2827012D02*
D03*
X6957327Y2913372D02*
D03*
X6957341Y2870192D02*
D03*
X6814820Y2913380D02*
D03*
Y2827020D02*
D03*
Y2870200D02*
D03*
X6957356Y3335012D02*
D03*
X6957327Y3421372D02*
D03*
X6957341Y3378192D02*
D03*
X6814820Y3421380D02*
D03*
Y3335020D02*
D03*
Y3378200D02*
D03*
X6957356Y3843012D02*
D03*
X6957327Y3929372D02*
D03*
X6957341Y3886192D02*
D03*
X6814820Y3929380D02*
D03*
Y3843020D02*
D03*
Y3886200D02*
D03*
X7194864Y4097012D02*
D03*
X7194893Y4183372D02*
D03*
X7194878Y4140192D02*
D03*
X7337400Y4183380D02*
D03*
Y4097020D02*
D03*
Y4140200D02*
D03*
X7194864Y3589012D02*
D03*
X7194893Y3675372D02*
D03*
X7194878Y3632192D02*
D03*
X7337400Y3675380D02*
D03*
Y3589020D02*
D03*
Y3632200D02*
D03*
X7194864Y3081012D02*
D03*
X7194893Y3167372D02*
D03*
X7194878Y3124192D02*
D03*
X7337400Y3167380D02*
D03*
Y3081020D02*
D03*
Y3124200D02*
D03*
X7194864Y2573012D02*
D03*
X7194893Y2659372D02*
D03*
X7194878Y2616192D02*
D03*
X7337400Y2659380D02*
D03*
Y2573020D02*
D03*
Y2616200D02*
D03*
X3550920Y2364740D02*
D03*
Y2321560D02*
D03*
Y2407920D02*
D03*
X3693441Y2364732D02*
D03*
X3693427Y2407912D02*
D03*
X3693456Y2321552D02*
D03*
Y2829552D02*
D03*
X3693427Y2915912D02*
D03*
X3693441Y2872732D02*
D03*
X3550920Y2915920D02*
D03*
Y2829560D02*
D03*
Y2872740D02*
D03*
X3693456Y3337552D02*
D03*
X3693427Y3423912D02*
D03*
X3693441Y3380732D02*
D03*
X3550920Y3423920D02*
D03*
Y3337560D02*
D03*
Y3380740D02*
D03*
X3693456Y3845552D02*
D03*
X3693427Y3931912D02*
D03*
X3693441Y3888732D02*
D03*
X3550920Y3931920D02*
D03*
Y3845560D02*
D03*
Y3888740D02*
D03*
X3930964Y4099552D02*
D03*
X3930993Y4185912D02*
D03*
X3930978Y4142732D02*
D03*
X4073500Y4185920D02*
D03*
Y4099560D02*
D03*
Y4142740D02*
D03*
X3930964Y3591552D02*
D03*
X3930993Y3677912D02*
D03*
X3930978Y3634732D02*
D03*
X4073500Y3677920D02*
D03*
Y3591560D02*
D03*
Y3634740D02*
D03*
X3930964Y3083552D02*
D03*
X3930993Y3169912D02*
D03*
X3930978Y3126732D02*
D03*
X4073500Y3169920D02*
D03*
Y3083560D02*
D03*
Y3126740D02*
D03*
X3930964Y2575552D02*
D03*
X3930993Y2661912D02*
D03*
X3930978Y2618732D02*
D03*
X4073500Y2661920D02*
D03*
Y2575560D02*
D03*
Y2618740D02*
D03*
X801980Y2616200D02*
D03*
Y2573020D02*
D03*
Y2659380D02*
D03*
X659458Y2616192D02*
D03*
X659473Y2659372D02*
D03*
X659444Y2573012D02*
D03*
X801980Y3124200D02*
D03*
Y3081020D02*
D03*
Y3167380D02*
D03*
X659458Y3124192D02*
D03*
X659473Y3167372D02*
D03*
X659444Y3081012D02*
D03*
X801980Y3632200D02*
D03*
Y3589020D02*
D03*
Y3675380D02*
D03*
X659458Y3632192D02*
D03*
X659473Y3675372D02*
D03*
X659444Y3589012D02*
D03*
X801980Y4140200D02*
D03*
Y4097020D02*
D03*
Y4183380D02*
D03*
X659458Y4140192D02*
D03*
X659473Y4183372D02*
D03*
X659444Y4097012D02*
D03*
X279400Y3886200D02*
D03*
Y3843020D02*
D03*
Y3929380D02*
D03*
X421921Y3886192D02*
D03*
X421907Y3929372D02*
D03*
X421936Y3843012D02*
D03*
X279400Y3378200D02*
D03*
Y3335020D02*
D03*
Y3421380D02*
D03*
X421921Y3378192D02*
D03*
X421907Y3421372D02*
D03*
X421936Y3335012D02*
D03*
X279400Y2870200D02*
D03*
Y2827020D02*
D03*
Y2913380D02*
D03*
X421921Y2870192D02*
D03*
X421907Y2913372D02*
D03*
X421936Y2827012D02*
D03*
Y2319012D02*
D03*
X421907Y2405372D02*
D03*
X421921Y2362192D02*
D03*
X279400Y2405380D02*
D03*
Y2319020D02*
D03*
Y2362200D02*
D03*
X9194800Y4874260D02*
D03*
X4023360Y1231900D02*
D03*
X9048640Y4823460D02*
D03*
X4236720Y1299210D02*
D03*
X1732280Y796640D02*
D03*
X1574800Y794100D02*
D03*
X7967980Y239060D02*
D03*
Y310180D02*
D03*
X7853680Y162860D02*
D03*
X7782560D02*
D03*
X8155940Y167940D02*
D03*
X8084820D02*
D03*
X8003540D02*
D03*
X7932420D02*
D03*
X6573520Y848360D02*
D03*
X6644640D02*
D03*
X6725920D02*
D03*
X6797040D02*
D03*
X6423660Y843280D02*
D03*
X6494780D02*
D03*
X6609080Y990600D02*
D03*
Y919480D02*
D03*
X8407400Y1343660D02*
D03*
X8615680D02*
D03*
X8511540D02*
D03*
Y1493520D02*
D03*
X8509000Y1196340D02*
D03*
X8615680Y1193800D02*
D03*
X8407400Y1196340D02*
D03*
X8615680Y1493520D02*
D03*
X8407400D02*
D03*
X5412740Y1264920D02*
D03*
X4444420Y1376680D02*
D03*
X4445290Y1222030D02*
D03*
X3591560Y1430020D02*
D03*
X3594100Y1181100D02*
D03*
X3591560Y1308100D02*
D03*
X3657600Y1430020D02*
D03*
X3660140Y1181100D02*
D03*
X3657600Y1308100D02*
D03*
X3721100D02*
D03*
X3723640Y1181100D02*
D03*
X3721100Y1430020D02*
D03*
X6680536Y1691640D02*
D03*
X6002020Y975360D02*
D03*
X4833569Y974862D02*
D03*
X4833620Y1554480D02*
D03*
X7914640Y947420D02*
D03*
Y876300D02*
D03*
Y795020D02*
D03*
Y723900D02*
D03*
Y1026160D02*
D03*
Y1097280D02*
D03*
X7736840Y909320D02*
D03*
X7807960D02*
D03*
X2540860Y997680D02*
D03*
X2371500Y663480D02*
D03*
X2433280Y725900D02*
D03*
X2479080Y935260D02*
D03*
X2142620Y757760D02*
D03*
X2784980Y903400D02*
D03*
X6439540Y188730D02*
D03*
X7009260Y1446140D02*
D03*
X6719700D02*
D03*
X6367800Y1447480D02*
D03*
X6367800Y1790380D02*
D03*
X7008940Y1791900D02*
D03*
X6720540D02*
D03*
X7071040Y1854000D02*
D03*
X6782640D02*
D03*
X7612380Y1308100D02*
D03*
X7675860Y1232220D02*
D03*
Y1387160D02*
D03*
X8739900Y1699580D02*
D03*
X7885079Y1544640D02*
D03*
X7556500Y449580D02*
D03*
X7635560Y387260D02*
D03*
X7475220Y388320D02*
D03*
X7413120Y450420D02*
D03*
X6743700Y167930D02*
D03*
X6896100D02*
D03*
X6847840Y584200D02*
D03*
X6896100Y528320D02*
D03*
Y640080D02*
D03*
X6802120Y530860D02*
D03*
Y640080D02*
D03*
X7015480Y1620520D02*
D03*
X7104380D02*
D03*
X7205980D02*
D03*
X6918936Y1620781D02*
D03*
X7133460Y1447800D02*
D03*
X6843900D02*
D03*
X6492000Y1442720D02*
D03*
X6492000Y1790700D02*
D03*
X6845060D02*
D03*
X7133460D02*
D03*
X9090660Y810260D02*
D03*
X9161780D02*
D03*
X9235440D02*
D03*
X8983980Y863600D02*
D03*
X9055100D02*
D03*
X9128760D02*
D03*
X9199880D02*
D03*
X9306560Y916940D02*
D03*
X9380220D02*
D03*
X9451340D02*
D03*
X9019540D02*
D03*
X9090660D02*
D03*
X9164320D02*
D03*
X9235440D02*
D03*
X9271000Y972820D02*
D03*
X9344660D02*
D03*
X9415780D02*
D03*
X8983980D02*
D03*
X9055100D02*
D03*
X9128760D02*
D03*
X9199880D02*
D03*
X9202420Y116840D02*
D03*
X9131300D02*
D03*
X9057640D02*
D03*
X8986520D02*
D03*
X9166860Y167640D02*
D03*
X9095740D02*
D03*
X9022080D02*
D03*
X8950960D02*
D03*
X1617760Y2466340D02*
D03*
X1688880D02*
D03*
X4874040D02*
D03*
X4945160D02*
D03*
X8209280D02*
D03*
X8138160D02*
D03*
X7622540Y901700D02*
D03*
Y965200D02*
D03*
Y1026160D02*
D03*
Y1087120D02*
D03*
X8021320Y2807020D02*
D03*
X4820920Y2755900D02*
D03*
X4749800Y2822260D02*
D03*
X2034540Y2207260D02*
D03*
X5239700Y2321560D02*
D03*
X1567180Y2748280D02*
D03*
X1498600Y2814124D02*
D03*
X1062880Y2377440D02*
D03*
X1127520Y2453640D02*
D03*
Y2298700D02*
D03*
X4327940Y2379980D02*
D03*
X4392580Y2456180D02*
D03*
Y2301240D02*
D03*
X7659240Y2296160D02*
D03*
Y2451100D02*
D03*
X7594600Y2374900D02*
D03*
X8503820Y2321560D02*
D03*
X8094980Y2743200D02*
D03*
X4381500Y1464580D02*
D03*
X4445000Y795020D02*
D03*
Y952500D02*
D03*
X4382590Y876590D02*
D03*
X4173220Y797560D02*
D03*
Y949960D02*
D03*
X4299980Y797560D02*
D03*
Y949960D02*
D03*
X5793980Y731520D02*
D03*
X5041296Y733573D02*
D03*
X5793980Y1798320D02*
D03*
X5041660Y1795780D02*
D03*
X4236720Y1464580D02*
D03*
X2903460Y1663700D02*
D03*
X3373120Y1739900D02*
D03*
X2819980Y1279580D02*
D03*
X2819400Y1432560D02*
D03*
Y1587500D02*
D03*
X2816860Y1732280D02*
D03*
X2821250Y1140150D02*
D03*
X2904620Y1356360D02*
D03*
X2903460Y1203960D02*
D03*
X2965450Y1283970D02*
D03*
X3154349Y952500D02*
D03*
Y1031240D02*
D03*
X5869700Y226060D02*
D03*
X5874233Y420853D02*
D03*
X3616960Y1094740D02*
D03*
X2882660Y1051560D02*
D03*
X3707480Y706120D02*
D03*
X1470280Y406560D02*
D03*
X1345280D02*
D03*
X2486660D02*
D03*
X2611660D02*
D03*
X2736660D02*
D03*
X2861660D02*
D03*
X2986660D02*
D03*
X3111500Y406400D02*
D03*
X3622643Y1026608D02*
D03*
X3870960Y408940D02*
D03*
X3997960D02*
D03*
X4124960Y411480D02*
D03*
X4246880Y414020D02*
D03*
X4371340D02*
D03*
X4493260D02*
D03*
X4620260D02*
D03*
X4749800D02*
D03*
X3246120Y1656080D02*
D03*
X3169920Y1280160D02*
D03*
X3324860Y1333500D02*
D03*
X3169920Y1381760D02*
D03*
X3324860Y1432560D02*
D03*
X3169920Y1483360D02*
D03*
X3324860Y1531620D02*
D03*
X3169920Y1582420D02*
D03*
X1592580Y401320D02*
D03*
X1717040Y398780D02*
D03*
X6068060Y393700D02*
D03*
Y251460D02*
D03*
X3775264Y1051413D02*
D03*
X3863340Y861060D02*
D03*
X3734338Y861020D02*
D03*
X5466080Y322580D02*
D03*
Y226060D02*
D03*
Y419100D02*
D03*
X3776980Y1729740D02*
D03*
X3822700Y1498840D02*
D03*
X3624580Y1742440D02*
D03*
X3528060Y1739900D02*
D03*
X3574180Y1586676D02*
D03*
X3721571Y1583114D02*
D03*
X3873500Y1181100D02*
D03*
X4033520Y1132840D02*
D03*
X3873500Y1079500D02*
D03*
X4033520Y1031240D02*
D03*
X5565140Y787160D02*
D03*
X5562600Y1742680D02*
D03*
X5270500Y1740140D02*
D03*
Y787160D02*
D03*
X5999480Y1554480D02*
D03*
X5056567Y1264920D02*
D03*
X5786120D02*
D03*
X7881620Y2362200D02*
D03*
X7741920Y2392680D02*
D03*
X4610100Y2370820D02*
D03*
X4475480Y2400300D02*
D03*
X1361440Y2362200D02*
D03*
X1209040Y2395220D02*
D03*
X7200900Y167930D02*
D03*
X6950357Y806803D02*
D03*
%TF.MD5,6d16fcd048cdee00ee0ecffdbb422512*%
M02*
