M48
;Layer_Color=9474304
;FILE_FORMAT=4:4
METRIC,LZ
;TYPE=PLATED
T01F00S00C0.8500
T02F00S00C1.0160
T03F00S00C3.2000
%
T01
X00125114Y00288798
X00175114
X00175006Y0036449
X00125006
X00265011
X00315011
X00315148Y00288798
X00265148
X00405182
X00455182
X00455016Y0036322
X00405016
X0054502
X0059502
X00595216Y00288798
X00545216
X0068525
X0073525
X00735025Y0036322
X00685025
X0082503
X0087503
X00875284Y00288798
X00825284
T02
X00036475Y00026683
X00063399
X00076861Y0005
X00063399Y00073317
X00036475
X00023013Y0005
X00923014
X00936476Y00026683
X009634
X00976862Y0005
X009634Y00073317
X00936476
Y00576684
X009634
X00976862Y00600001
X009634Y00623318
X00936476
X00923014Y00600001
X00076861
X00063399Y00576684
X00036475
X00023013Y00600001
X00036475Y00623318
X00063399
T03
X00049937Y0005
X00949938
Y00600001
X00049937
M30
