%TF.GenerationSoftware,Altium Limited,Altium Designer,24.0.1 (36)*%
G04 Layer_Color=65535*
%FSLAX45Y45*%
%MOMM*%
%TF.SameCoordinates,FB142892-ABB5-4026-B094-0FDC62B1FA86*%
%TF.FilePolarity,Positive*%
%TF.FileFunction,Legend,Top*%
%TF.Part,Single*%
G01*
G75*
%TA.AperFunction,NonConductor*%
%ADD15C,0.30000*%
%ADD16C,1.00000*%
D15*
X9212839Y2887980D02*
G03*
X9212839Y2887980I-10000J0D01*
G01*
X7812499D02*
G03*
X7812499Y2887980I-10000J0D01*
G01*
X6412160D02*
G03*
X6412160Y2887980I-10000J0D01*
G01*
X5011820D02*
G03*
X5011820Y2887980I-10000J0D01*
G01*
X3611480D02*
G03*
X3611480Y2887980I-10000J0D01*
G01*
X2211140D02*
G03*
X2211140Y2887980I-10000J0D01*
G01*
X810060Y3644900D02*
G03*
X810060Y3644900I-10000J0D01*
G01*
X2210108D02*
G03*
X2210108Y3644900I-10000J0D01*
G01*
X3610156Y3632200D02*
G03*
X3610156Y3632200I-10000J0D01*
G01*
X5010204D02*
G03*
X5010204Y3632200I-10000J0D01*
G01*
X6410252D02*
G03*
X6410252Y3632200I-10000J0D01*
G01*
X7810300D02*
G03*
X7810300Y3632200I-10000J0D01*
G01*
X7877839Y188120D02*
X7898319Y167640D01*
X7877839Y188120D02*
Y2966560D01*
X7895779Y2984500D01*
X7898319Y167640D02*
X9102279D01*
X9127679Y193040D02*
Y2956560D01*
X9102279Y167640D02*
X9127679Y193040D01*
X7895779Y2984500D02*
X9099739D01*
X9127679Y2956560D01*
X6477499Y188120D02*
X6497979Y167640D01*
X6477499Y188120D02*
Y2966560D01*
X6495439Y2984500D01*
X6497979Y167640D02*
X7701939D01*
X7727339Y193040D02*
Y2956560D01*
X7701939Y167640D02*
X7727339Y193040D01*
X6495439Y2984500D02*
X7699399D01*
X7727339Y2956560D01*
X5077160Y188120D02*
X5097640Y167640D01*
X5077160Y188120D02*
Y2966560D01*
X5095100Y2984500D01*
X5097640Y167640D02*
X6301600D01*
X6327000Y193040D02*
Y2956560D01*
X6301600Y167640D02*
X6327000Y193040D01*
X5095100Y2984500D02*
X6299060D01*
X6327000Y2956560D01*
X3676820Y188120D02*
X3697300Y167640D01*
X3676820Y188120D02*
Y2966560D01*
X3694760Y2984500D01*
X3697300Y167640D02*
X4901260D01*
X4926660Y193040D02*
Y2956560D01*
X4901260Y167640D02*
X4926660Y193040D01*
X3694760Y2984500D02*
X4898720D01*
X4926660Y2956560D01*
X2276480Y188120D02*
X2296960Y167640D01*
X2276480Y188120D02*
Y2966560D01*
X2294420Y2984500D01*
X2296960Y167640D02*
X3500920D01*
X3526320Y193040D02*
Y2956560D01*
X3500920Y167640D02*
X3526320Y193040D01*
X2294420Y2984500D02*
X3498380D01*
X3526320Y2956560D01*
X876140Y188120D02*
X896620Y167640D01*
X876140Y188120D02*
Y2966560D01*
X894080Y2984500D01*
X896620Y167640D02*
X2100580D01*
X2125980Y193040D02*
Y2956560D01*
X2100580Y167640D02*
X2125980Y193040D01*
X894080Y2984500D02*
X2098040D01*
X2125980Y2956560D01*
X2104580Y6365240D02*
X2125060Y6344760D01*
Y3566320D02*
Y6344760D01*
X2107120Y3548380D02*
X2125060Y3566320D01*
X900620Y6365240D02*
X2104580D01*
X875220Y3576320D02*
Y6339840D01*
X900620Y6365240D01*
X903160Y3548380D02*
X2107120D01*
X875220Y3576320D02*
X903160Y3548380D01*
X3504628Y6365240D02*
X3525108Y6344760D01*
Y3566320D02*
Y6344760D01*
X3507168Y3548380D02*
X3525108Y3566320D01*
X2300668Y6365240D02*
X3504628D01*
X2275268Y3576320D02*
Y6339840D01*
X2300668Y6365240D01*
X2303208Y3548380D02*
X3507168D01*
X2275268Y3576320D02*
X2303208Y3548380D01*
X4904676Y6352540D02*
X4925156Y6332060D01*
Y3553620D02*
Y6332060D01*
X4907216Y3535680D02*
X4925156Y3553620D01*
X3700716Y6352540D02*
X4904676D01*
X3675316Y3563620D02*
Y6327140D01*
X3700716Y6352540D01*
X3703256Y3535680D02*
X4907216D01*
X3675316Y3563620D02*
X3703256Y3535680D01*
X6304724Y6352540D02*
X6325204Y6332060D01*
Y3553620D02*
Y6332060D01*
X6307264Y3535680D02*
X6325204Y3553620D01*
X5100764Y6352540D02*
X6304724D01*
X5075364Y3563620D02*
Y6327140D01*
X5100764Y6352540D01*
X5103304Y3535680D02*
X6307264D01*
X5075364Y3563620D02*
X5103304Y3535680D01*
X7704772Y6352540D02*
X7725252Y6332060D01*
Y3553620D02*
Y6332060D01*
X7707312Y3535680D02*
X7725252Y3553620D01*
X6500812Y6352540D02*
X7704772D01*
X6475412Y3563620D02*
Y6327140D01*
X6500812Y6352540D01*
X6503352Y3535680D02*
X7707312D01*
X6475412Y3563620D02*
X6503352Y3535680D01*
X9104820Y6352540D02*
X9125300Y6332060D01*
Y3553620D02*
Y6332060D01*
X9107360Y3535680D02*
X9125300Y3553620D01*
X7900860Y6352540D02*
X9104820D01*
X7875460Y3563620D02*
Y6327140D01*
X7900860Y6352540D01*
X7903400Y3535680D02*
X9107360D01*
X7875460Y3563620D02*
X7903400Y3535680D01*
D16*
X201600Y2881960D02*
X701438D01*
Y2632041D01*
X618132Y2548735D01*
X451519D01*
X368213Y2632041D01*
Y2881960D01*
X618132Y2048896D02*
X701438Y2132202D01*
Y2298815D01*
X618132Y2382122D01*
X284906D01*
X201600Y2298815D01*
Y2132202D01*
X284906Y2048896D01*
X451519D01*
Y2215509D01*
X201600Y1882283D02*
X701438D01*
X201600Y1549058D01*
X701438D01*
Y1382445D02*
X201600D01*
Y1132526D01*
X284906Y1049219D01*
X618132D01*
X701438Y1132526D01*
Y1382445D01*
X706518Y5498160D02*
X373293D01*
X206680Y5331547D01*
X373293Y5164935D01*
X706518D01*
Y4998322D02*
X206680D01*
Y4748402D01*
X289986Y4665096D01*
X373293D01*
X456599Y4748402D01*
Y4998322D01*
Y4748402D01*
X539905Y4665096D01*
X623212D01*
X706518Y4748402D01*
Y4998322D01*
Y4498483D02*
X289986D01*
X206680Y4415177D01*
Y4248564D01*
X289986Y4165258D01*
X706518D01*
X623212Y3665419D02*
X706518Y3748726D01*
Y3915338D01*
X623212Y3998645D01*
X539905D01*
X456599Y3915338D01*
Y3748726D01*
X373293Y3665419D01*
X289986D01*
X206680Y3748726D01*
Y3915338D01*
X289986Y3998645D01*
%TF.MD5,e463e4be971db3352886803058ba4a3a*%
M02*
