%TF.GenerationSoftware,Altium Limited,Altium Designer,24.0.1 (36)*%
G04 Layer_Physical_Order=1*
G04 Layer_Color=191*
%FSLAX45Y45*%
%MOMM*%
%TF.SameCoordinates,FB142892-ABB5-4026-B094-0FDC62B1FA86*%
%TF.FilePolarity,Positive*%
%TF.FileFunction,Copper,L1,Top,Signal*%
%TF.Part,Single*%
G01*
G75*
%TA.AperFunction,NonConductor*%
%ADD10C,0.20320*%
%TA.AperFunction,ComponentPad*%
%ADD11C,1.20000*%
%ADD12R,1.20000X1.20000*%
%ADD13C,7.00000*%
%ADD14C,1.01600*%
D10*
X9884944Y6000012D02*
G03*
X9884944Y6000012I-385560J0D01*
G01*
Y500001D02*
G03*
X9884944Y500001I-385560J0D01*
G01*
X884926Y6000012D02*
G03*
X884926Y6000012I-385560J0D01*
G01*
X9581863Y6414668D02*
X9635283Y6400354D01*
X9544031Y6382978D02*
X9576436Y6415383D01*
X9527035Y6421887D02*
X9581863Y6414668D01*
X9527057Y6421884D02*
X9569866Y6379075D01*
X9635283Y6400354D02*
X9686374Y6379192D01*
X9656738Y6352001D02*
X9684645Y6379908D01*
X9604002Y6371107D02*
X9633680Y6400784D01*
X9383370Y6421887D02*
X9426614Y6378643D01*
X9311528Y6421887D02*
X9370147Y6363267D01*
X9239686Y6421887D02*
X9320178Y6341394D01*
X9455212Y6421887D02*
X9491605Y6385493D01*
X9473943Y6384732D02*
X9511098Y6421887D01*
X9385844Y6368475D02*
X9439256Y6421887D01*
X8233896D02*
X9921259Y4734524D01*
X8162054Y6421887D02*
X9921259Y4662682D01*
X8090212Y6421887D02*
X9921259Y4590840D01*
X8018370Y6421887D02*
X9921259Y4518998D01*
X7946528Y6421887D02*
X9921259Y4447155D01*
X7874686Y6421887D02*
X9921259Y4375313D01*
X8521265Y6421887D02*
X9921259Y5021892D01*
X8449423Y6421887D02*
X9921259Y4950050D01*
X8377580Y6421887D02*
X9921259Y4878208D01*
X9614991Y6405792D02*
X9680283Y6340500D01*
X8305738Y6421887D02*
X9921259Y4806366D01*
X7371791Y6421887D02*
X9921259Y3872418D01*
X7299949Y6421887D02*
X9921259Y3800576D01*
X7228106Y6421887D02*
X9921259Y3728734D01*
X7156264Y6421887D02*
X9921259Y3656892D01*
X7084422Y6421887D02*
X9921259Y3585050D01*
X7012580Y6421887D02*
X9921259Y3513208D01*
X7802843Y6421887D02*
X9921259Y4303471D01*
X7731001Y6421887D02*
X9921259Y4231629D01*
X7659159Y6421887D02*
X9921259Y4159787D01*
X7587317Y6421887D02*
X9921259Y4087945D01*
X7515475Y6421887D02*
X9921259Y4016103D01*
X7443633Y6421887D02*
X9921259Y3944261D01*
X6653369Y6421887D02*
X9921259Y3153997D01*
X6581527Y6421887D02*
X9921259Y3082155D01*
X6509685Y6421887D02*
X9921259Y3010313D01*
X6437843Y6421887D02*
X9921259Y2938471D01*
X6366001Y6421887D02*
X9921259Y2866629D01*
X6294159Y6421887D02*
X9921259Y2794787D01*
X6940738Y6421887D02*
X9921259Y3441366D01*
X5929067Y2983540D02*
X9367414Y6421887D01*
X5857225Y2983540D02*
X9295571Y6421887D01*
X6868896D02*
X9921259Y3369524D01*
X6797054Y6421887D02*
X9921259Y3297681D01*
X6725212Y6421887D02*
X9921259Y3225839D01*
X9850913Y6234895D02*
X9878564Y6187001D01*
X9899727Y6135911D01*
X9839872Y6180911D02*
X9905164Y6115619D01*
X9899727Y6135911D02*
X9914040Y6082491D01*
X9878397Y6070764D02*
X9908986Y6101354D01*
X9863266Y6127475D02*
X9891518Y6155728D01*
X9778141Y6317875D02*
X9817246Y6278771D01*
X9782262Y6261998D02*
X9808140Y6287876D01*
X9763566Y6329059D02*
X9828432Y6264193D01*
X9817246Y6278771D02*
X9850913Y6234895D01*
X9841589Y6177641D02*
X9868457Y6204508D01*
X9814411Y6222305D02*
X9840531Y6248425D01*
X9878015Y5927242D02*
X9921259Y5883998D01*
X9862639Y5870775D02*
X9921259Y5812156D01*
X9837041Y5813882D02*
X9921259Y5898100D01*
X9840766Y5820806D02*
X9921259Y5740314D01*
X9813416Y5776314D02*
X9921259Y5668472D01*
X9781105Y5736783D02*
X9921259Y5596629D01*
X9914040Y6082491D02*
X9921259Y6027663D01*
X9884906Y6005431D02*
X9919616Y6040141D01*
X9878447Y6070494D02*
X9921256Y6027685D01*
X9921259Y6000012D02*
Y6027663D01*
X9884866Y5992233D02*
X9921259Y5955840D01*
X9877884Y5926568D02*
X9921259Y5969942D01*
X9655077Y5647285D02*
X9921259Y5381103D01*
X9602127Y5628393D02*
X9921259Y5309261D01*
X9382350Y5632644D02*
X9921259Y5093735D01*
X9541877Y5616801D02*
X9921259Y5237419D01*
X9471364Y5615471D02*
X9921259Y5165577D01*
X8181972Y3727760D02*
X9921259Y5467047D01*
X9703617Y6327037D02*
X9730370Y6353791D01*
X9734268Y6351541D02*
X9778141Y6317875D01*
X9686374Y6379192D02*
X9734268Y6351541D01*
X9745348Y6296926D02*
X9771439Y6323018D01*
X9744033Y5702013D02*
X9921259Y5524787D01*
X9702137Y5672067D02*
X9921259Y5452945D01*
X8730910Y2983540D02*
X9921259Y4173889D01*
X8802752Y2983540D02*
X9921259Y4102047D01*
X8659068Y2983540D02*
X9921259Y4245731D01*
X8848399Y2885503D02*
X9921259Y3958363D01*
X8848399Y2813661D02*
X9921259Y3886521D01*
X8848399Y2957345D02*
X9921259Y4030205D01*
X8253814Y3727760D02*
X9921259Y5395205D01*
X7365910Y2983540D02*
X9921259Y5538889D01*
X7294067Y2983540D02*
X9921259Y5610731D01*
X8345860Y3676122D02*
X9921259Y5251521D01*
X8345860Y3604280D02*
X9921259Y5179679D01*
X8325656Y3727760D02*
X9921259Y5323363D01*
X8952317Y6421887D02*
X9171439Y6202765D01*
X8880475Y6421887D02*
X9146657Y6155705D01*
X8593107Y6421887D02*
X9132016Y5882978D01*
X9167844Y6421887D02*
X9275687Y6314044D01*
X9096002Y6421887D02*
X9236155Y6281733D01*
X9024159Y6421887D02*
X9201385Y6244661D01*
X5503896Y6421887D02*
X8198022Y3727760D01*
X5523813D02*
X8217940Y6421887D01*
X5451971Y3727760D02*
X8146098Y6421887D01*
X8808633D02*
X9127765Y6102754D01*
X8736791Y6421887D02*
X9116173Y6042505D01*
X8664949Y6421887D02*
X9114844Y5971992D01*
X6816971Y3727760D02*
X9114664Y6025453D01*
X6888814Y3727760D02*
X9116418Y5955365D01*
X6000909Y2983540D02*
X9130921Y6113552D01*
X6945812Y3641075D02*
X9147395Y5842658D01*
X6945812Y3569232D02*
X9172359Y5795779D01*
X6945812Y3712917D02*
X9128289Y5895394D01*
X5575738Y6421887D02*
X8269864Y3727760D01*
X5647580Y6421887D02*
X8341706Y3727760D01*
X5545764Y3677869D02*
X8289782Y6421887D01*
X6754692Y3727760D02*
X6945812D01*
Y3536640D02*
Y3727760D01*
X5545764Y3606027D02*
X8361624Y6421887D01*
X4210737D02*
X6904864Y3727760D01*
X4145716Y3642821D02*
X6924781Y6421887D01*
X4145716Y3714663D02*
X6852939Y6421887D01*
X5380129Y3727760D02*
X8074255Y6421887D01*
X5432053D02*
X8154740Y3699200D01*
X5360211Y6421887D02*
X8154740Y3627358D01*
X4015129Y3727760D02*
X6709255Y6421887D01*
X3995211D02*
X6754692Y3662406D01*
X3923369Y6421887D02*
X6754692Y3590564D01*
X4086971Y3727760D02*
X6781097Y6421887D01*
X4138895D02*
X6833022Y3727760D01*
X4067053Y6421887D02*
X6761180Y3727760D01*
X5288369Y6421887D02*
X8154740Y3555516D01*
X4564067Y2983540D02*
X8002413Y6421887D01*
X4492225Y2983540D02*
X7930571Y6421887D01*
X5216527D02*
X8657279Y2981135D01*
X5144685Y6421887D02*
X8657279Y2909292D01*
X5072843Y6421887D02*
X8657279Y2837450D01*
X4145716Y3570979D02*
X6996624Y6421887D01*
X3779685D02*
X7256939Y2944632D01*
X3707842Y6421887D02*
X7256939Y2872790D01*
X3954596Y3536640D02*
Y3727760D01*
X3851527Y6421887D02*
X7289873Y2983540D01*
X3636000Y6421887D02*
X7256939Y2800948D01*
X8154740Y3727760D02*
X8345860D01*
Y3536640D02*
Y3727760D01*
X7437752Y2983540D02*
X8154740Y3700528D01*
Y3536640D02*
X8345860D01*
X8173616D02*
X8726716Y2983540D01*
X8154740Y3555516D02*
X8173616Y3536640D01*
X6754692D02*
X6945812D01*
X8154740D02*
Y3727760D01*
X6754692Y3536640D02*
Y3727760D01*
X6880458Y3536640D02*
X7433557Y2983540D01*
X7256939D02*
X7448060D01*
X6808616Y3536640D02*
X7361715Y2983540D01*
X8245458Y3536640D02*
X8798558Y2983540D01*
X7448060Y2850164D02*
X8154740Y3556844D01*
X7448060Y2922006D02*
X8154740Y3628686D01*
X8657279Y2983540D02*
X8848399D01*
X8657279Y2792420D02*
X8848399D01*
X8657279D02*
Y2983540D01*
X6047720Y2814824D02*
X6769535Y3536640D01*
X7256939Y2792420D02*
Y2983540D01*
X6047720Y2886666D02*
X6754692Y3593638D01*
X7433557Y2983540D02*
X7448060Y2969038D01*
Y2792420D02*
Y2983540D01*
X7256939Y2792420D02*
X7448060D01*
X5354644Y3727760D02*
X5545764D01*
X5539874D02*
X5545764Y3721870D01*
X5354644Y3536640D02*
Y3727760D01*
Y3536640D02*
X5545764D01*
Y3727760D01*
X5354644Y3553779D02*
X5371783Y3536640D01*
X3954596D02*
X4145716D01*
Y3727760D01*
X3954596D02*
X4145716D01*
X4078625Y3536640D02*
X4631725Y2983540D01*
X4456260D02*
X4647380D01*
X4006783Y3536640D02*
X4559883Y2983540D01*
X5443625Y3536640D02*
X5996725Y2983540D01*
X6047720Y2958508D02*
X6754692Y3665481D01*
X5371783Y3536640D02*
X5924883Y2983540D01*
X5856599D02*
X6047720D01*
X5856599Y2792420D02*
X6047720D01*
X5856599D02*
Y2983540D01*
X4647380Y2923169D02*
X5354644Y3630433D01*
X4647380Y2851327D02*
X5354644Y3558591D01*
X4635909Y2983540D02*
X5354644Y3702275D01*
X4631725Y2983540D02*
X4647380Y2967885D01*
Y2792420D02*
Y2983540D01*
X4456260Y2792420D02*
X4647380D01*
X8345860Y3723606D02*
X9921259Y2148208D01*
X6945812Y3686812D02*
X9921259Y711365D01*
X5791264Y6421887D02*
X9921259Y2291892D01*
X5719422Y6421887D02*
X9921259Y2220050D01*
X8345860Y3651764D02*
X9921259Y2076365D01*
X8345860Y3579922D02*
X9921259Y2004523D01*
X8317300Y3536640D02*
X9921259Y1932681D01*
X6222317Y6421887D02*
X9921259Y2722945D01*
X6150475Y6421887D02*
X9921259Y2651102D01*
X6078632Y6421887D02*
X9921259Y2579260D01*
X6006790Y6421887D02*
X9921259Y2507418D01*
X5934948Y6421887D02*
X9921259Y2435576D01*
X5863106Y6421887D02*
X9921259Y2363734D01*
X6400233Y78126D02*
X9921259Y3599152D01*
X6472075Y78126D02*
X9921259Y3527310D01*
X6328391Y78126D02*
X9921259Y3670994D01*
X6615759Y78126D02*
X9921259Y3383626D01*
X6687602Y78126D02*
X9921259Y3311784D01*
X6543917Y78126D02*
X9921259Y3455468D01*
Y500001D02*
Y6000012D01*
X5681812Y78126D02*
X9921259Y4317573D01*
X5609970Y78126D02*
X9921259Y4389415D01*
X6945812Y3614970D02*
X9921259Y639523D01*
X6256549Y78126D02*
X9921259Y3742836D01*
X6184707Y78126D02*
X9921259Y3814678D01*
X4569948Y6421887D02*
X9921259Y1070576D01*
X4498106Y6421887D02*
X9921259Y998734D01*
X4426264Y6421887D02*
X9921259Y926891D01*
X4354422Y6421887D02*
X9921259Y855049D01*
X4282579Y6421887D02*
X9921259Y783207D01*
X4173127Y78126D02*
X9921259Y5826258D01*
X5001001Y6421887D02*
X9921259Y1501628D01*
X4929159Y6421887D02*
X9921259Y1429786D01*
X4857316Y6421887D02*
X9921259Y1357944D01*
X4785474Y6421887D02*
X9921259Y1286102D01*
X4713632Y6421887D02*
X9921259Y1214260D01*
X4641790Y6421887D02*
X9921259Y1142418D01*
X5250759Y78126D02*
X9921259Y4748626D01*
X5322601Y78126D02*
X9921259Y4676784D01*
X5178917Y78126D02*
X9921259Y4820468D01*
X5466285Y78126D02*
X9921259Y4533100D01*
X5538128Y78126D02*
X9921259Y4461258D01*
X5394443Y78126D02*
X9921259Y4604942D01*
X4316812Y78126D02*
X9921259Y5682574D01*
X4891549Y78126D02*
X9921259Y5107837D01*
X4244969Y78126D02*
X9921259Y5754416D01*
X5035233Y78126D02*
X9921259Y4964152D01*
X5107075Y78126D02*
X9921259Y4892310D01*
X4963391Y78126D02*
X9921259Y5035994D01*
X9428133Y878920D02*
X9921259Y1372046D01*
X9571629Y878732D02*
X9921259Y1228362D01*
X9317143Y839773D02*
X9921259Y1443888D01*
X9678180Y841599D02*
X9921259Y1084678D01*
X9722716Y814293D02*
X9921259Y1012836D01*
X9628159Y863420D02*
X9921259Y1156520D01*
X8848399Y2933698D02*
X9921259Y1860839D01*
X8848399Y2861856D02*
X9921259Y1788997D01*
X8845994Y2792420D02*
X9921259Y1717155D01*
X8774152Y2792420D02*
X9921259Y1645313D01*
X9506549Y885495D02*
X9921259Y1300204D01*
X8702309Y2792420D02*
X9921259Y1573471D01*
X9882533Y543057D02*
X9921259Y581783D01*
X9883476Y533622D02*
X9921259Y495839D01*
X8483655Y78126D02*
X9921259Y1515731D01*
Y472350D02*
Y500001D01*
X9914040Y417521D02*
X9921259Y472350D01*
X9883973Y472655D02*
X9921259Y509941D01*
X9797101Y744993D02*
X9921259Y869151D01*
X9827090Y703140D02*
X9921259Y797309D01*
X9762290Y782024D02*
X9921259Y940994D01*
X9870867Y603233D02*
X9921259Y653625D01*
X9864213Y624727D02*
X9921259Y567681D01*
X9851919Y656128D02*
X9921259Y725467D01*
X7262339Y78126D02*
X9921259Y2737047D01*
X7334181Y78126D02*
X9921259Y2665204D01*
X7190496Y78126D02*
X9921259Y2808889D01*
X7477865Y78126D02*
X9921259Y2521520D01*
X7549707Y78126D02*
X9921259Y2449678D01*
X7406023Y78126D02*
X9921259Y2593362D01*
X6831286Y78126D02*
X9921259Y3168099D01*
X6903128Y78126D02*
X9921259Y3096257D01*
X6759444Y78126D02*
X9921259Y3239941D01*
X7046812Y78126D02*
X9921259Y2952573D01*
X7118654Y78126D02*
X9921259Y2880731D01*
X6974970Y78126D02*
X9921259Y3024415D01*
X8124444Y78126D02*
X9921259Y1874941D01*
X8196286Y78126D02*
X9921259Y1803099D01*
X8052602Y78126D02*
X9921259Y1946783D01*
X8339970Y78126D02*
X9921259Y1659415D01*
X8411812Y78126D02*
X9921259Y1587573D01*
X8268128Y78126D02*
X9921259Y1731257D01*
X7693391Y78126D02*
X9921259Y2305994D01*
X7765233Y78126D02*
X9921259Y2234152D01*
X7621549Y78126D02*
X9921259Y2377836D01*
X7908918Y78126D02*
X9921259Y2090467D01*
X7980760Y78126D02*
X9921259Y2018625D01*
X7837076Y78126D02*
X9921259Y2162310D01*
X8848399Y2792420D02*
Y2983540D01*
X6945812Y3543128D02*
X9624110Y864830D01*
X4747864Y78126D02*
X8206378Y3536640D01*
X7448060Y2897196D02*
X9461555Y883701D01*
X7448060Y2825354D02*
X9400696Y872717D01*
X7448060Y2969038D02*
X9533005Y884092D01*
X6047720Y2792420D02*
Y2983540D01*
X4647380Y2896043D02*
X7465296Y78126D01*
X4647380Y2967885D02*
X7537139Y78126D01*
X7256939Y2800948D02*
X7265467Y2792420D01*
X4676022Y78126D02*
X7390316Y2792420D01*
X4647380Y2824201D02*
X7393454Y78126D01*
X5545764Y3650027D02*
X9117665Y78126D01*
X5545764Y3578185D02*
X9045823Y78126D01*
X5545764Y3721870D02*
X9189507Y78126D01*
X6047720Y2932546D02*
X8902139Y78126D01*
X6047720Y2860703D02*
X8830297Y78126D01*
X5515468Y3536640D02*
X8973981Y78126D01*
X5753654D02*
X8657279Y2981751D01*
X5825496Y78126D02*
X8657279Y2909909D01*
X4819706Y78126D02*
X8278220Y3536640D01*
X5900477Y2792420D02*
X8614770Y78126D01*
X5969180D02*
X8683474Y2792420D01*
X5897338Y78126D02*
X8657279Y2838067D01*
X3670232Y78126D02*
X9277091Y5684985D01*
X3742075Y78126D02*
X9321755Y5657807D01*
X3598390Y78126D02*
X9237398Y5717134D01*
X3885759Y78126D02*
X9428632Y5620999D01*
X3957601Y78126D02*
X9493965Y5614490D01*
X3813917Y78126D02*
X9371921Y5636130D01*
X3564168Y6421887D02*
X9220168Y765887D01*
X3526548Y78126D02*
X9202470Y5754048D01*
X3492326Y6421887D02*
X9187512Y726700D01*
X4456260Y2792420D02*
Y2983540D01*
Y2799795D02*
X4463634Y2792420D01*
X3454706Y78126D02*
X6913220Y3536640D01*
X4101285Y78126D02*
X9685514Y5662355D01*
X4145716Y3685075D02*
X7752665Y78126D01*
X4029443D02*
X9572828Y5621511D01*
X4145716Y3541391D02*
X7608981Y78126D01*
X4607319Y2792420D02*
X7321612Y78126D01*
X4145716Y3613233D02*
X7680823Y78126D01*
X4460496D02*
X7256939Y2874570D01*
X4532338Y78126D02*
X7256939Y2802728D01*
X4388654Y78126D02*
X7256939Y2946412D01*
X4535477Y2792420D02*
X7249770Y78126D01*
X4604180D02*
X7318474Y2792420D01*
X4463634D02*
X7177928Y78126D01*
X9883084Y462172D02*
X9915633Y429622D01*
X9899727Y364102D02*
X9914040Y417521D01*
X9867043Y383883D02*
X9916066Y432906D01*
X9872100Y401313D02*
X9901752Y371661D01*
X9878564Y313011D02*
X9899727Y364102D01*
X9853674Y347897D02*
X9881492Y320079D01*
X9829284Y300445D02*
X9855927Y273802D01*
X9850913Y265117D02*
X9878564Y313011D01*
X9817248Y221244D02*
X9850913Y265117D01*
X9799693Y258194D02*
X9825669Y232218D01*
X9778143Y182139D02*
X9817248Y221244D01*
X9765270Y220785D02*
X9791029Y195026D01*
X9726083Y188129D02*
X9752076Y162137D01*
X9734268Y148472D02*
X9778143Y182139D01*
X9668362Y113360D02*
X9886025Y331023D01*
X9681961Y160410D02*
X9708675Y133696D01*
X9686374Y120821D02*
X9734268Y148472D01*
X9635283Y99658D02*
X9686374Y120821D01*
X9632412Y138117D02*
X9660447Y110082D01*
X9576462Y122224D02*
X9606690Y91997D01*
X9566479Y83319D02*
X9615502Y132342D01*
X9581863Y85345D02*
X9635283Y99658D01*
X9527036Y78126D02*
X9581863Y85345D01*
X9512191Y114654D02*
X9546196Y80649D01*
X7409151Y2792420D02*
X9347281Y854291D01*
X7337309Y2792420D02*
X9299828Y829901D01*
X7265467Y2792420D02*
X9257577Y800310D01*
X8771023Y78126D02*
X9120653Y427756D01*
X8555497Y78126D02*
X9159612Y682242D01*
X6041022Y78126D02*
X8755316Y2792420D01*
X6044161D02*
X8758455Y78126D01*
X5972319Y2792420D02*
X8686613Y78126D01*
X8627339D02*
X9120465Y571252D01*
X8699181Y78126D02*
X9113891Y492836D01*
X6112865Y78126D02*
X8827158Y2792420D01*
X9329057Y154104D02*
X9405034Y78126D01*
X9345760D02*
X9396152Y128518D01*
X9273918Y78126D02*
X9343257Y147466D01*
X9435177Y119825D02*
X9476876Y78126D01*
X9489444D02*
X9526730Y115412D01*
X9417602Y78126D02*
X9456328Y116852D01*
X8914707Y78126D02*
X9157787Y321206D01*
X8986549Y78126D02*
X9185092Y276669D01*
X8842865Y78126D02*
X9135965Y371226D01*
X9130234Y78126D02*
X9254392Y202284D01*
X9202076Y78126D02*
X9296245Y172295D01*
X9058392Y78126D02*
X9217361Y237096D01*
X2773905Y6421887D02*
X5468031Y3727760D01*
X2745668Y3679616D02*
X5487939Y6421887D01*
X2734670Y3740460D02*
X5416097Y6421887D01*
X2702063D02*
X5396189Y3727760D01*
X2845747Y6421887D02*
X5539874Y3727760D01*
X2745668Y3607774D02*
X5559781Y6421887D01*
X471715D02*
X9527035D01*
X2590986Y3740460D02*
X5272413Y6421887D01*
X1345620Y3644568D02*
X4122939Y6421887D01*
X77491Y3669597D02*
X2829780Y6421887D01*
X2662828Y3740460D02*
X5344255Y6421887D01*
X2630221D02*
X5354644Y3697464D01*
X2558379Y6421887D02*
X5354644Y3625621D01*
X2486537Y6421887D02*
X5354644Y3553779D01*
X2414694Y6421887D02*
X5856599Y2979982D01*
X2342852Y6421887D02*
X5856599Y2908139D01*
X3127224Y2983540D02*
X6565571Y6421887D01*
X3199066Y2983540D02*
X6637413Y6421887D01*
X2271010D02*
X5856599Y2836297D01*
X77491Y3525913D02*
X2973465Y6421887D01*
X77491Y3454071D02*
X3045307Y6421887D01*
X77491Y3597755D02*
X2901623Y6421887D01*
X1690382Y2983540D02*
X5128728Y6421887D01*
X1762224Y2983540D02*
X5200570Y6421887D01*
X77491Y3094860D02*
X3404517Y6421887D01*
X77491Y3956966D02*
X2542412Y6421887D01*
X77491Y3885124D02*
X2614254Y6421887D01*
X77491Y4028808D02*
X2470570Y6421887D01*
X77491Y3741440D02*
X2757938Y6421887D01*
X77491Y3382229D02*
X3117149Y6421887D01*
X77491Y3813282D02*
X2686096Y6421887D01*
X77491Y4388019D02*
X2111359Y6421887D01*
X77491Y4316177D02*
X2183201Y6421887D01*
X77491Y4459861D02*
X2039517Y6421887D01*
X77491Y4172492D02*
X2326886Y6421887D01*
X77491Y4100650D02*
X2398728Y6421887D01*
X77491Y4244334D02*
X2255043Y6421887D01*
X77491Y2735650D02*
X3763728Y6421887D01*
X77491Y2663808D02*
X3835570Y6421887D01*
X77491Y2807492D02*
X3691886Y6421887D01*
X77491Y1514334D02*
X4985044Y6421887D01*
X77491Y1442492D02*
X5056886Y6421887D01*
X77491Y1586176D02*
X4913202Y6421887D01*
X77491Y3238545D02*
X3260833Y6421887D01*
X77491Y3166703D02*
X3332675Y6421887D01*
X77491Y3310387D02*
X3188991Y6421887D01*
X77491Y2951176D02*
X3548202Y6421887D01*
X77491Y2879334D02*
X3620044Y6421887D01*
X77491Y3023018D02*
X3476360Y6421887D01*
X1297828Y3740460D02*
X3979254Y6421887D01*
X1337063D02*
X4031189Y3727760D01*
X1265220Y6421887D02*
X3959347Y3727760D01*
X1408905Y6421887D02*
X4103031Y3727760D01*
X1345620Y3572726D02*
X4194781Y6421887D01*
X1345620Y3716410D02*
X4051097Y6421887D01*
X2554548Y3740460D02*
X2745668D01*
X2554548Y3549340D02*
Y3740460D01*
X1225986D02*
X3907412Y6421887D01*
X2725331Y3740460D02*
X2745668Y3720123D01*
Y3549340D02*
Y3740460D01*
X2554548Y3549340D02*
X2745668D01*
X3247040Y2887829D02*
X3954596Y3595385D01*
X3247040Y2815987D02*
X3967693Y3536640D01*
X3247040Y2959671D02*
X3954596Y3667227D01*
X3055920Y2792420D02*
X3247040D01*
Y2983540D01*
X3055920D02*
X3247040D01*
X1846700Y2924332D02*
X2554548Y3632180D01*
X1846700Y2852490D02*
X2554548Y3560338D01*
X1834066Y2983540D02*
X2554548Y3704022D01*
X2629083Y3549340D02*
X3194882Y2983540D01*
X3055920Y2792420D02*
Y2983540D01*
X2557241Y3549340D02*
X3123040Y2983540D01*
X1193378Y6421887D02*
X3954596Y3660669D01*
X1121536Y6421887D02*
X3954596Y3588827D01*
X977852Y6421887D02*
X4456260Y2943479D01*
X1049694Y6421887D02*
X4488041Y2983540D01*
X409720Y5625018D02*
X3055920Y2978819D01*
X279860Y5683036D02*
X3055920Y2906976D01*
X714139Y5679810D02*
X2653489Y3740460D01*
X754687Y5711104D02*
X2725331Y3740460D01*
X668552Y5653555D02*
X2581647Y3740460D01*
X617325Y5632939D02*
X2554548Y3695717D01*
X559286Y5619136D02*
X2554548Y3623875D01*
X492059Y5614521D02*
X2554548Y3552033D01*
X77491Y1945387D02*
X4553991Y6421887D01*
X77491Y1873544D02*
X4625834Y6421887D01*
X77491Y2017229D02*
X4482149Y6421887D01*
X77491Y1729860D02*
X4769518Y6421887D01*
X77491Y1658018D02*
X4841360Y6421887D01*
X77491Y1801702D02*
X4697676Y6421887D01*
X77491Y2160913D02*
X4338465Y6421887D01*
X77491Y2089071D02*
X4410307Y6421887D01*
X77491Y2232755D02*
X4266623Y6421887D01*
X906010D02*
X4456260Y2871637D01*
X834168Y6421887D02*
X4456260Y2799795D01*
X77491Y5813563D02*
X3055920Y2835134D01*
X494487Y6385541D02*
X530833Y6421887D01*
X474957D02*
X511462Y6385382D01*
X416886Y6414668D02*
X471715Y6421887D01*
X561346Y6380558D02*
X602675Y6421887D01*
X619130Y6366500D02*
X674517Y6421887D01*
X546799D02*
X595219Y6373467D01*
X411718Y6413283D02*
X443499Y6381503D01*
X412842Y6375738D02*
X457061Y6419957D01*
X363467Y6400354D02*
X416886Y6414668D01*
X312376Y6379192D02*
X363467Y6400354D01*
X355928Y6397232D02*
X384954Y6368205D01*
X305877Y6375440D02*
X333328Y6347989D01*
X868122Y6112597D02*
X1177412Y6421887D01*
X881157Y6053790D02*
X1249254Y6421887D01*
X848112Y6164429D02*
X1105570Y6421887D01*
X884651Y5985441D02*
X1321096Y6421887D01*
X871976Y5900925D02*
X1392938Y6421887D01*
X792804Y5749910D02*
X1464780Y6421887D01*
X670154Y6345682D02*
X746359Y6421887D01*
X715566Y6319252D02*
X818201Y6421887D01*
X618641D02*
X736513Y6304015D01*
X791562Y6251563D02*
X961885Y6421887D01*
X822377Y6210536D02*
X1033727Y6421887D01*
X755953Y6287796D02*
X890043Y6421887D01*
X264482Y6351541D02*
X312376Y6379192D01*
X287225Y6321963D02*
X366403Y6401141D01*
X220607Y6317874D02*
X264482Y6351541D01*
X260777Y6348698D02*
X287398Y6322077D01*
X220183Y6317450D02*
X246533Y6291100D01*
X181502Y6278769D02*
X220607Y6317874D01*
X184262Y6281529D02*
X210458Y6255333D01*
X152707Y6241242D02*
X179164Y6214785D01*
X147837Y6234895D02*
X181502Y6278769D01*
X120186Y6187002D02*
X147837Y6234895D01*
X125647Y6196460D02*
X152909Y6169198D01*
X99023Y6135911D02*
X120186Y6187002D01*
X77491Y4819071D02*
X1680307Y6421887D01*
X77491Y4747229D02*
X1752149Y6421887D01*
X77491Y4890914D02*
X1608464Y6421887D01*
X77491Y4603545D02*
X1895833Y6421887D01*
X77491Y4531703D02*
X1967675Y6421887D01*
X77491Y4675387D02*
X1823991Y6421887D01*
X98236Y6132975D02*
X177414Y6212153D01*
X77491Y4962756D02*
X1536622Y6421887D01*
X103513Y6146751D02*
X132294Y6117971D01*
X87081Y6091342D02*
X118490Y6059932D01*
X84710Y6082491D02*
X99023Y6135911D01*
X1345620Y3549340D02*
Y3740460D01*
X1192240Y3549340D02*
X1758040Y2983540D01*
X77491Y4592247D02*
X1686198Y2983540D01*
X1655580D02*
X1846700D01*
X1829882D02*
X1846700Y2966722D01*
X1264082Y3549340D02*
X1829882Y2983540D01*
X79420Y6042317D02*
X123640Y6086536D01*
X77657Y6028923D02*
X113875Y5992705D01*
X77491Y4664089D02*
X1154500Y3587080D01*
Y3740460D02*
X1345620D01*
X1154500Y3549340D02*
X1345620D01*
X1154500D02*
Y3740460D01*
X77491Y4376720D02*
X1655580Y2798632D01*
Y2792420D02*
Y2983540D01*
X77491Y4448562D02*
X1655580Y2870474D01*
Y2792420D02*
X1846700D01*
Y2983540D01*
X1655580Y2798632D02*
X1661792Y2792420D01*
X77491Y2591966D02*
X1154500Y3668974D01*
X77491Y2520123D02*
X1154500Y3597132D01*
X77491Y4520404D02*
X1655580Y2942316D01*
X77491Y2376439D02*
X1250392Y3549340D01*
X77491Y2304597D02*
X1322234Y3549340D01*
X77491Y2448281D02*
X1178550Y3549340D01*
X77491Y5753019D02*
X153696Y5829224D01*
X77491Y5681177D02*
X180126Y5783812D01*
X77491Y5885405D02*
X182390Y5780506D01*
X77491Y5537493D02*
X247815Y5707816D01*
X77491Y5465650D02*
X288842Y5677001D01*
X77491Y5609335D02*
X211582Y5743425D01*
X77491Y6000012D02*
Y6027664D01*
Y5968545D02*
X113837Y6004891D01*
X77491Y6027664D02*
X84710Y6082491D01*
X77491Y5896703D02*
X118820Y5938032D01*
X77491Y5824861D02*
X132878Y5880248D01*
X77491Y5957247D02*
X124373Y5910366D01*
X77491Y4879615D02*
X1216646Y3740460D01*
X77491Y4807773D02*
X1154500Y3730764D01*
X77491Y4951457D02*
X1288488Y3740460D01*
X77491Y1370650D02*
X1655580Y2948738D01*
X77491Y1298807D02*
X1655580Y2876896D01*
X77491Y4735931D02*
X1154500Y3658922D01*
X77491Y5393808D02*
X334949Y5651266D01*
X77491Y5321966D02*
X386781Y5631256D01*
X77491Y5034598D02*
X749468Y5706574D01*
X77491Y5250124D02*
X445588Y5618221D01*
X77491Y5178282D02*
X513936Y5614727D01*
X77491Y5106440D02*
X598453Y5627402D01*
X3276800Y6421887D02*
X9121607Y577079D01*
X3204958Y6421887D02*
X9114037Y512807D01*
X3133116Y6421887D02*
X9119208Y435794D01*
X3420484Y6421887D02*
X9159793Y682578D01*
X3348642Y6421887D02*
X9137500Y633029D01*
X3061274Y6421887D02*
X9153487Y329673D01*
X1371285Y78126D02*
X7715045Y6421887D01*
X1443127Y78126D02*
X7786887Y6421887D01*
X1299442Y78126D02*
X7643203Y6421887D01*
X1514969Y78126D02*
X7858729Y6421887D01*
X1552589D02*
X7896349Y78126D01*
X1480747Y6421887D02*
X7824507Y78126D01*
X2736285D02*
X9080045Y6421887D01*
X2808127Y78126D02*
X9151887Y6421887D01*
X2664443Y78126D02*
X9008203Y6421887D01*
X2917589D02*
X9261350Y78126D01*
X2989431Y6421887D02*
X9333192Y78126D01*
X2879969D02*
X9223729Y6421887D01*
X1696273D02*
X8040033Y78126D01*
X1768115Y6421887D02*
X8111876Y78126D01*
X1624431Y6421887D02*
X7968191Y78126D01*
X1911800Y6421887D02*
X8255560Y78126D01*
X1983642Y6421887D02*
X8327402Y78126D01*
X1839957Y6421887D02*
X8183718Y78126D01*
X94313Y381681D02*
X6134518Y6421887D01*
X113537Y329063D02*
X6206360Y6421887D01*
X81638Y440849D02*
X6062676Y6421887D01*
X167565Y239407D02*
X6350044Y6421887D01*
X201373Y201373D02*
X6421887Y6421887D01*
X138172Y281857D02*
X6278202Y6421887D01*
X77491Y795913D02*
X5703465Y6421887D01*
X77491Y724070D02*
X5775307Y6421887D01*
X77491Y867755D02*
X5631623Y6421887D01*
X77491Y580386D02*
X5918992Y6421887D01*
X77491Y508544D02*
X5990834Y6421887D01*
X77491Y652228D02*
X5847150Y6421887D01*
X940232Y78126D02*
X7283992Y6421887D01*
X1012074Y78126D02*
X7355834Y6421887D01*
X868390Y78126D02*
X7212150Y6421887D01*
X1155758Y78126D02*
X7499518Y6421887D01*
X1227600Y78126D02*
X7571361Y6421887D01*
X1083916Y78126D02*
X7427676Y6421887D01*
X239491Y167649D02*
X6493729Y6421887D01*
X690484D02*
X7034244Y78126D01*
X201373Y201373D02*
X6421887Y6421887D01*
X762326D02*
X7106086Y78126D01*
X796548D02*
X7140308Y6421887D01*
X724705Y78126D02*
X7068466Y6421887D01*
X2305232Y78126D02*
X8648992Y6421887D01*
X2377074Y78126D02*
X8720834Y6421887D01*
X2233390Y78126D02*
X8577150Y6421887D01*
X2520758Y78126D02*
X8864519Y6421887D01*
X2592601Y78126D02*
X8936361Y6421887D01*
X2448916Y78126D02*
X8792677Y6421887D01*
X2199168D02*
X8542928Y78126D01*
X2745668Y3720123D02*
X6387665Y78126D01*
X2161548D02*
X8505308Y6421887D01*
X2745668Y3648281D02*
X6315823Y78126D01*
X2745668Y3576439D02*
X6243980Y78126D01*
X2700925Y3549340D02*
X6172138Y78126D01*
X3247040Y2859540D02*
X6028454Y78126D01*
X3382864D02*
X6841377Y3536640D01*
X3247040Y2931383D02*
X6100296Y78126D01*
X3242318Y2792420D02*
X5956612Y78126D01*
X3311022D02*
X6025315Y2792420D01*
X3239180Y78126D02*
X5953473Y2792420D01*
X3023653Y78126D02*
X5856599Y2911072D01*
X3095495Y78126D02*
X5856599Y2839230D01*
X2951811Y78126D02*
X5856599Y2982915D01*
X3167338Y78126D02*
X5881631Y2792420D01*
X3170476D02*
X5884770Y78126D01*
X3098634Y2792420D02*
X5812928Y78126D01*
X77491Y5669878D02*
X5669243Y78126D01*
X790454Y5747179D02*
X6459507Y78126D01*
X77491Y5741721D02*
X5741086Y78126D01*
X77491Y5526194D02*
X5525559Y78126D01*
X471714D02*
X9527036D01*
X77491Y5598036D02*
X5597401Y78126D01*
X77491Y5382510D02*
X5381875Y78126D01*
X77491Y5310668D02*
X5310033Y78126D01*
X77491Y5454352D02*
X5453717Y78126D01*
X77491Y5166984D02*
X5166349Y78126D01*
X77491Y5095141D02*
X5094506Y78126D01*
X77491Y5238826D02*
X5238191Y78126D01*
X2089706D02*
X8433466Y6421887D01*
X2127326D02*
X8471086Y78126D01*
X2055484Y6421887D02*
X8399244Y78126D01*
X872821Y6095865D02*
X6890559Y78126D01*
X884736Y6012107D02*
X6818717Y78126D01*
X803369Y6237159D02*
X6962402Y78126D01*
X867560Y5885600D02*
X6675033Y78126D01*
X880857Y5944145D02*
X6746875Y78126D01*
X847343Y5833974D02*
X6603191Y78126D01*
X1946022D02*
X5404535Y3536640D01*
X2017864Y78126D02*
X5476377Y3536640D01*
X821431Y5788044D02*
X6531349Y78126D01*
X1335924Y3549340D02*
X4807138Y78126D01*
X1345620Y3683328D02*
X4950822Y78126D01*
X581021D02*
X4039535Y3536640D01*
X509179Y78126D02*
X3223473Y2792420D01*
X652863Y78126D02*
X4111377Y3536640D01*
X77491Y3155404D02*
X3154769Y78126D01*
X77491Y3011720D02*
X3011085Y78126D01*
X77491Y2939878D02*
X2939243Y78126D01*
X77491Y3083562D02*
X3082927Y78126D01*
X282027Y138343D02*
X3055920Y2912235D01*
X329326Y113800D02*
X3055920Y2840393D01*
X77491Y2868036D02*
X2867401Y78126D01*
X1846700Y2966722D02*
X4735296Y78126D01*
X1846700Y2894880D02*
X4663454Y78126D01*
X1345620Y3611486D02*
X4878980Y78126D01*
X1846700Y2823038D02*
X4591612Y78126D01*
X1874179D02*
X4588473Y2792420D01*
X1805476D02*
X4519769Y78126D01*
X1658653D02*
X4456260Y2875733D01*
X1730495Y78126D02*
X4456260Y2803891D01*
X1586811Y78126D02*
X4456260Y2947575D01*
X1733634Y2792420D02*
X4447927Y78126D01*
X1802337D02*
X4516631Y2792420D01*
X1661792D02*
X4376085Y78126D01*
X77491Y4304878D02*
X4304243Y78126D01*
X77491Y4233036D02*
X4232401Y78126D01*
X77491Y5023299D02*
X5022664Y78126D01*
X77491Y4089352D02*
X4088717Y78126D01*
X77491Y4017510D02*
X4016875Y78126D01*
X77491Y4161194D02*
X4160559Y78126D01*
X77491Y1011439D02*
X2615392Y3549340D01*
X77491Y939597D02*
X2687234Y3549340D01*
X77491Y500001D02*
Y6000012D01*
Y1155123D02*
X1714788Y2792420D01*
X77491Y1083281D02*
X1786630Y2792420D01*
X77491Y1226965D02*
X1655580Y2805054D01*
X77491Y3873825D02*
X3873190Y78126D01*
X77491Y3801983D02*
X3801348Y78126D01*
X77491Y3945667D02*
X3945032Y78126D01*
X77491Y3658299D02*
X3657664Y78126D01*
X77491Y3586457D02*
X3585822Y78126D01*
X77491Y3730141D02*
X3729506Y78126D01*
X77491Y3442773D02*
X3442138Y78126D01*
X77491Y3370931D02*
X3370296Y78126D01*
X77491Y3514615D02*
X3513980Y78126D01*
X77491Y3227246D02*
X3226611Y78126D01*
X77491Y2796194D02*
X2795559Y78126D01*
X77491Y3299088D02*
X3298453Y78126D01*
X220609Y182137D02*
X264482Y148472D01*
X382048Y94680D02*
X3079788Y2792420D01*
X123115Y307938D02*
X307303Y123749D01*
X312376Y120821D02*
X363467Y99658D01*
X416887Y85345D01*
X264482Y148472D02*
X312376Y120821D01*
X84710Y417522D02*
X99023Y364102D01*
X120186Y313011D01*
X77491Y472349D02*
Y500001D01*
X147837Y265117D02*
X181504Y221242D01*
X220609Y182137D01*
X120186Y313011D02*
X147837Y265117D01*
X441336Y82126D02*
X3151630Y2792420D01*
X77491Y1071983D02*
X1071348Y78126D01*
X77491Y1143825D02*
X1143190Y78126D01*
X77491Y928298D02*
X927663Y78126D01*
X77491Y856456D02*
X855821Y78126D01*
X77491Y1000140D02*
X999505Y78126D01*
X77491Y712772D02*
X712137Y78126D01*
X77491Y640930D02*
X640295Y78126D01*
X77491Y784614D02*
X783979Y78126D01*
X84609Y418286D02*
X417651Y85244D01*
X416887Y85345D02*
X471714Y78126D01*
X77491Y569088D02*
X568453Y78126D01*
X77491Y2652509D02*
X2651874Y78126D01*
X77491Y2580667D02*
X2580032Y78126D01*
X77491Y2724351D02*
X2723716Y78126D01*
X77491Y2436983D02*
X2436348Y78126D01*
X77491Y2365141D02*
X2364506Y78126D01*
X77491Y2508825D02*
X2508190Y78126D01*
X77491Y2221457D02*
X2220822Y78126D01*
X77491Y2149614D02*
X2148979Y78126D01*
X77491Y2293299D02*
X2292664Y78126D01*
X77491Y472349D02*
X84710Y417522D01*
X77491Y497246D02*
X496611Y78126D01*
X77491Y2005930D02*
X2005295Y78126D01*
X77491Y1934088D02*
X1933453Y78126D01*
X77491Y1862246D02*
X1861611Y78126D01*
X77491Y2077772D02*
X2077137Y78126D01*
X77491Y1718562D02*
X1717927Y78126D01*
X77491Y1646720D02*
X1646085Y78126D01*
X77491Y1790404D02*
X1789769Y78126D01*
X77491Y1503035D02*
X1502400Y78126D01*
X77491Y1431193D02*
X1430558Y78126D01*
X77491Y1574877D02*
X1574242Y78126D01*
X77491Y1287509D02*
X1286874Y78126D01*
X77491Y1215667D02*
X1215032Y78126D01*
X77491Y1359351D02*
X1358716Y78126D01*
D11*
X8252839Y2887980D02*
D03*
X6852499D02*
D03*
X5452160D02*
D03*
X4051820D02*
D03*
X2651480D02*
D03*
X1251140D02*
D03*
X1750060Y3644900D02*
D03*
X3150108D02*
D03*
X4550156Y3632200D02*
D03*
X5950204D02*
D03*
X7350252D02*
D03*
X8750300D02*
D03*
D12*
X8752839Y2887980D02*
D03*
X7352499D02*
D03*
X5952160D02*
D03*
X4551820D02*
D03*
X3151480D02*
D03*
X1751140D02*
D03*
X1250060Y3644900D02*
D03*
X2650108D02*
D03*
X4050156Y3632200D02*
D03*
X5450204D02*
D03*
X6850252D02*
D03*
X8250300D02*
D03*
D13*
X499366Y500001D02*
D03*
Y6000012D02*
D03*
X9499384Y500001D02*
D03*
Y6000012D02*
D03*
D14*
X230126Y500001D02*
D03*
X364746Y266832D02*
D03*
X633986D02*
D03*
X768606Y500001D02*
D03*
X633986Y733170D02*
D03*
X364746D02*
D03*
X230126Y6000012D02*
D03*
X364746Y5766843D02*
D03*
X633986D02*
D03*
X768606Y6000012D02*
D03*
X633986Y6233181D02*
D03*
X364746D02*
D03*
X9230144Y500001D02*
D03*
X9364764Y266832D02*
D03*
X9634004D02*
D03*
X9768624Y500001D02*
D03*
X9634004Y733170D02*
D03*
X9364764D02*
D03*
X9230144Y6000012D02*
D03*
X9364764Y5766843D02*
D03*
X9634004D02*
D03*
X9768624Y6000012D02*
D03*
X9634004Y6233181D02*
D03*
X9364764D02*
D03*
%TF.MD5,208b9bcc2a13863c2c73c4832b10569d*%
M02*
