%TF.GenerationSoftware,Altium Limited,Altium Designer,24.0.1 (36)*%
G04 Layer_Color=0*
%FSLAX45Y45*%
%MOMM*%
%TF.SameCoordinates,9410560F-79D6-402B-B377-FA3D6559FF08*%
%TF.FilePolarity,Positive*%
%TF.FileFunction,Profile,NP*%
%TF.Part,Single*%
G01*
G75*
%TA.AperFunction,Profile*%
%ADD122C,0.02540*%
G36*
X7015480Y2247900D02*
Y4254500D01*
X7137400D01*
Y2247900D01*
X7015480D01*
D02*
G37*
G36*
X3749040D02*
Y4254500D01*
X3870960D01*
Y2247900D01*
X3749040D01*
D02*
G37*
G36*
X480060Y2247227D02*
X601980D01*
X602653Y2247900D01*
Y4254500D01*
X601980Y4255173D01*
X480060D01*
X479387Y4254500D01*
X480060Y2247227D01*
D02*
G37*
D122*
X499366Y1270D02*
G02*
X635Y500001I-0J498731D01*
G01*
Y1149722D01*
X38270Y1187358D01*
X1241902D01*
X1269433Y1159827D01*
X1918802D01*
Y1909836D01*
X1272890D01*
X1250412Y1887358D01*
X33582D01*
Y1887403D01*
X635Y1920350D01*
X635Y4580125D01*
X38270Y4617761D01*
X1241902D01*
X1269433Y4590230D01*
X1918802D01*
Y5340239D01*
X1272890D01*
X1250412Y5317761D01*
X33582D01*
Y5317806D01*
X635Y5350754D01*
X635Y6000012D01*
D02*
G02*
X499366Y6498743I498731J0D01*
G01*
X2864526D01*
X2902337Y6460932D01*
Y5257300D01*
X2874806Y5229769D01*
Y4580400D01*
X3624815D01*
Y5226312D01*
X3602337Y5248790D01*
Y6465620D01*
X3602382D01*
X3635330Y6498567D01*
X5364764D01*
X5402400Y6460932D01*
Y5257300D01*
X5374869Y5229769D01*
Y4580400D01*
X6124878D01*
Y5226312D01*
X6102400Y5248791D01*
Y6465620D01*
X6102445D01*
X6135393Y6498568D01*
X7677743Y6498567D01*
X7715203Y6461107D01*
Y5257476D01*
X7687672Y5229945D01*
Y4580576D01*
X8437681D01*
Y5226488D01*
X8415203Y5248966D01*
Y6465796D01*
X8415248D01*
X8448196Y6498743D01*
X9499384Y6498743D01*
D02*
G02*
X9998115Y6000012I0J-498731D01*
G01*
Y500001D01*
D02*
G02*
X9499384Y1270I-498731J-0D01*
G01*
X499366D01*
%TF.MD5,ec387cb7741a5af3d251b8cf2799c655*%
M02*
