%TF.GenerationSoftware,Altium Limited,Altium Designer,24.0.1 (36)*%
G04 Layer_Color=16711935*
%FSLAX45Y45*%
%MOMM*%
%TF.SameCoordinates,9410560F-79D6-402B-B377-FA3D6559FF08*%
%TF.FilePolarity,Positive*%
%TF.FileFunction,Other,Mechanical_1*%
%TF.Part,Single*%
G01*
G75*
%TA.AperFunction,NonConductor*%
%ADD120C,0.01270*%
%ADD121C,0.01300*%
D120*
X9499384Y1270D02*
G03*
X9998115Y500001I0J498731D01*
G01*
X635D02*
G03*
X499366Y1270I498731J0D01*
G01*
X9998115Y6000012D02*
G03*
X9499384Y6498743I-498731J0D01*
G01*
X499366D02*
G03*
X635Y6000012I0J-498731D01*
G01*
X9849384D02*
G03*
X9849384Y6000012I-350000J0D01*
G01*
Y500001D02*
G03*
X9849384Y500001I-350000J0D01*
G01*
X849366D02*
G03*
X849366Y500001I-350000J0D01*
G01*
Y6000012D02*
G03*
X849366Y6000012I-350000J0D01*
G01*
X7137400Y2247900D02*
Y4254500D01*
X7015480D02*
X7137400D01*
X7015480Y2247900D02*
Y4254500D01*
Y2247900D02*
X7137400D01*
X3870960D02*
Y4254500D01*
X3749040D02*
X3870960D01*
X3749040Y2247900D02*
X3870960D01*
X3749040D02*
Y4254500D01*
X480060Y2247900D02*
Y4254500D01*
X601980Y2247900D02*
Y4254500D01*
X480060Y2247900D02*
X601980D01*
X480060Y4254500D02*
X601980D01*
X635Y5350754D02*
Y6000012D01*
X1269433Y1159827D02*
X1521243D01*
X1918802D01*
X1269433Y4590230D02*
X1521243D01*
X1918802D01*
X7687672Y4978135D02*
Y5229945D01*
Y4580576D02*
Y4978135D01*
X5374869Y4977960D02*
Y5229769D01*
Y4580400D02*
Y4977960D01*
X635Y1147006D02*
Y1149722D01*
X34722Y1183809D02*
X38270Y1187358D01*
X8606Y1157693D02*
X34722Y1183809D01*
X635Y1920350D02*
X33582Y1887403D01*
X1272890Y1909836D02*
X1918802D01*
X33582Y1887358D02*
Y1887403D01*
X635Y1149722D02*
X8606Y1157693D01*
X1918802Y1159827D02*
Y1187358D01*
Y1909836D01*
X1251632Y1888578D02*
X1272890Y1909836D01*
X1241902Y1187358D02*
X1244262Y1184998D01*
X1269433Y1159827D01*
X1250412Y1887358D02*
X1251632Y1888578D01*
X635Y1920350D02*
Y4580125D01*
X8606Y4588096D01*
X34722Y4614213D02*
X38270Y4617761D01*
X8606Y4588096D02*
X34722Y4614213D01*
X635Y5350754D02*
X33582Y5317806D01*
X1272890Y5340239D02*
X1918802D01*
X33582Y5317761D02*
Y5317806D01*
X1918802Y4590230D02*
Y4617761D01*
Y5340239D01*
X1251632Y5318981D02*
X1272890Y5340239D01*
X1241902Y4617761D02*
X1244262Y4615401D01*
X1269433Y4590230D01*
X1250412Y5317761D02*
X1251632Y5318981D01*
X7711655Y6464656D02*
X7715203Y6461107D01*
X7685538Y6490772D02*
X7711655Y6464656D01*
X8415248Y6465796D02*
X8448196Y6498743D01*
X8437681Y4580576D02*
Y5226488D01*
X8415203Y6465796D02*
X8415248D01*
X7677743Y6498567D02*
X7685538Y6490772D01*
X7687672Y4580576D02*
X7715203D01*
X8437681D01*
X8416423Y5247746D02*
X8437681Y5226488D01*
X7712843Y5255116D02*
X7715203Y5257476D01*
X7687672Y5229945D02*
X7712843Y5255116D01*
X8415203Y5248966D02*
X8416423Y5247746D01*
X5398852Y6464480D02*
X5402400Y6460932D01*
X5372735Y6490597D02*
X5398852Y6464480D01*
X6102445Y6465620D02*
X6135393Y6498568D01*
X6124878Y4580400D02*
Y5226312D01*
X6102400Y6465620D02*
X6102445D01*
X5364764Y6498567D02*
X5372735Y6490597D01*
X5374869Y4580400D02*
X5402400D01*
X6124878D01*
X6103620Y5247571D02*
X6124878Y5226312D01*
X5400040Y5254940D02*
X5402400Y5257300D01*
X5374869Y5229769D02*
X5400040Y5254940D01*
X6102400Y5248791D02*
X6103620Y5247571D01*
X3602337Y5248790D02*
X3603557Y5247570D01*
X2874806Y5229769D02*
X2899977Y5254940D01*
X2902337Y5257300D01*
X3603557Y5247570D02*
X3624815Y5226312D01*
X2902337Y4580400D02*
X3624815D01*
X2874806D02*
X2902337D01*
X3635330Y6498567D02*
X5364764Y6498567D01*
X2864526Y6498743D02*
X2872672Y6490597D01*
X3602337Y6465620D02*
X3602382D01*
X3624815Y4580400D02*
Y5226312D01*
X2874806Y4580400D02*
Y4977960D01*
Y5229769D01*
X3602382Y6465620D02*
X3635330Y6498567D01*
X2872672Y6490597D02*
X2898788Y6464480D01*
X2902337Y6460932D01*
X635Y1073785D02*
Y1147006D01*
Y500001D02*
Y1073785D01*
X6135393Y6498567D02*
X7677743D01*
X547217Y6498743D02*
X2864526D01*
X500967D02*
X547217D01*
X499544D02*
X500967D01*
X499366D02*
X499544D01*
X8448196D02*
X9499384D01*
X499366Y1270D02*
X9499384D01*
X9998115Y500001D02*
Y6000012D01*
D121*
X38270Y1187358D02*
X1241902D01*
X33582Y1887358D02*
X1250412D01*
X38270Y4617761D02*
X1241902D01*
X33582Y5317761D02*
X1250412D01*
X7715203Y5257476D02*
Y6461107D01*
X8415203Y5248966D02*
Y6465796D01*
X5402400Y5257300D02*
Y6460932D01*
X6102400Y5248791D02*
Y6465620D01*
X3602337Y5248790D02*
Y6465620D01*
X2902337Y5257300D02*
Y6460932D01*
%TF.MD5,33be1d8206eb7a34b2a4feaa99a8808e*%
M02*
